<svg width="454" height="490" viewBox="0 0 454 490" fill="none" xmlns="http://www.w3.org/2000/svg">
<path d="M108.194 384.84L114.394 385.86L108.194 386.88L107.173 393.075L106.152 386.88L99.9512 385.86L106.152 384.84L107.173 378.645L108.194 384.84Z" fill="#EBEBEB"/>
<path d="M108.617 385.86L112.279 390.962L107.173 387.303L102.065 390.962L105.728 385.86L102.065 380.758L107.173 384.418L112.279 380.758L108.617 385.86Z" fill="#EBEBEB"/>
<path d="M108.611 385.86C108.611 386.144 108.527 386.422 108.369 386.658C108.21 386.894 107.986 387.079 107.723 387.187C107.46 387.296 107.171 387.325 106.892 387.269C106.613 387.214 106.356 387.077 106.155 386.876C105.954 386.675 105.817 386.419 105.762 386.14C105.706 385.861 105.735 385.572 105.843 385.31C105.952 385.047 106.137 384.822 106.373 384.665C106.61 384.507 106.888 384.422 107.173 384.422C107.361 384.422 107.548 384.46 107.723 384.532C107.898 384.604 108.056 384.71 108.19 384.843C108.323 384.977 108.429 385.135 108.501 385.31C108.574 385.484 108.611 385.671 108.611 385.86Z" fill="#E0E0E0"/>
<path d="M378.824 137.413L385.025 138.433L378.824 139.454L377.803 145.649L376.782 139.454L370.582 138.433L376.782 137.413L377.803 131.219L378.824 137.413Z" fill="#EBEBEB"/>
<path d="M379.248 138.433L382.909 143.535L377.803 139.877L372.696 143.535L376.359 138.433L372.696 133.332L377.803 136.991L382.909 133.332L379.248 138.433Z" fill="#EBEBEB"/>
<path d="M379.241 138.434C379.241 138.718 379.157 138.996 378.999 139.232C378.841 139.469 378.616 139.653 378.353 139.762C378.091 139.87 377.801 139.899 377.522 139.843C377.243 139.788 376.987 139.651 376.786 139.45C376.584 139.249 376.447 138.993 376.392 138.714C376.336 138.435 376.365 138.146 376.474 137.884C376.583 137.621 376.767 137.397 377.004 137.239C377.24 137.081 377.518 136.997 377.803 136.997C378.184 136.997 378.55 137.148 378.82 137.418C379.09 137.687 379.241 138.053 379.241 138.434Z" fill="#E0E0E0"/>
<path d="M378.093 373L384.292 374.02L378.093 375.041L377.072 381.236L376.05 375.041L369.85 374.02L376.05 373L377.072 366.806L378.093 373Z" fill="#EBEBEB"/>
<path d="M378.515 374.021L382.178 379.122L377.072 375.464L371.965 379.122L375.627 374.021L371.965 368.919L377.072 372.578L382.178 368.919L378.515 374.021Z" fill="#EBEBEB"/>
<path d="M378.509 374.021C378.509 374.305 378.425 374.583 378.267 374.819C378.109 375.056 377.884 375.24 377.621 375.349C377.359 375.457 377.069 375.486 376.79 375.43C376.511 375.375 376.255 375.238 376.054 375.037C375.852 374.836 375.715 374.58 375.66 374.301C375.604 374.022 375.633 373.733 375.742 373.471C375.851 373.208 376.035 372.984 376.272 372.826C376.508 372.668 376.786 372.584 377.071 372.583C377.452 372.584 377.818 372.735 378.088 373.004C378.358 373.274 378.509 373.64 378.509 374.021Z" fill="#E0E0E0"/>
<path d="M17.6759 240.397L22.9308 241.262L17.6759 242.127L16.8101 247.377L15.9444 242.127L10.6895 241.262L15.9444 240.397L16.8101 235.147L17.6759 240.397Z" fill="#EBEBEB"/>
<path d="M18.0344 241.262L21.1377 245.586L16.8101 242.485L12.4824 245.586L15.5857 241.262L12.4824 236.938L16.8101 240.039L21.1377 236.938L18.0344 241.262Z" fill="#EBEBEB"/>
<path d="M18.0295 241.262C18.0295 241.503 17.958 241.739 17.824 241.939C17.69 242.139 17.4996 242.295 17.2768 242.388C17.054 242.48 16.8088 242.504 16.5723 242.457C16.3357 242.41 16.1185 242.294 15.948 242.123C15.7774 241.953 15.6613 241.736 15.6142 241.5C15.5672 241.263 15.5914 241.019 15.6836 240.796C15.7759 240.573 15.9322 240.383 16.1328 240.249C16.3333 240.115 16.569 240.044 16.8102 240.044C17.1336 240.044 17.4437 240.172 17.6723 240.401C17.901 240.629 18.0294 240.939 18.0295 241.262Z" fill="#E0E0E0"/>
<path d="M399.673 244.31L404.928 245.175L399.673 246.04L398.807 251.29L397.941 246.04L392.687 245.175L397.941 244.31L398.807 239.06L399.673 244.31Z" fill="#EBEBEB"/>
<path d="M400.032 245.174L403.135 249.498L398.807 246.396L394.479 249.498L397.583 245.174L394.479 240.85L398.807 243.951L403.135 240.85L400.032 245.174Z" fill="#EBEBEB"/>
<path d="M398.807 246.392C399.481 246.392 400.026 245.847 400.026 245.174C400.026 244.501 399.481 243.956 398.807 243.956C398.134 243.956 397.588 244.501 397.588 245.174C397.588 245.847 398.134 246.392 398.807 246.392Z" fill="#E0E0E0"/>
<path d="M124.095 273.873L129.35 274.738L124.095 275.603L123.229 280.854L122.363 275.603L117.108 274.738L122.363 273.873L123.229 268.623L124.095 273.873Z" fill="#EBEBEB"/>
<path d="M124.453 274.738L127.557 279.063L123.229 275.961L118.901 279.063L122.005 274.738L118.901 270.415L123.229 273.516L127.557 270.415L124.453 274.738Z" fill="#EBEBEB"/>
<path d="M123.229 275.957C123.902 275.957 124.448 275.411 124.448 274.739C124.448 274.066 123.902 273.521 123.229 273.521C122.556 273.521 122.01 274.066 122.01 274.739C122.01 275.411 122.556 275.957 123.229 275.957Z" fill="#E0E0E0"/>
<path d="M235.344 368.186L240.599 369.051L235.344 369.916L234.479 375.166L233.613 369.916L228.358 369.051L233.613 368.186L234.479 362.936L235.344 368.186Z" fill="#EBEBEB"/>
<path d="M235.703 369.051L238.806 373.375L234.479 370.274L230.151 373.375L233.254 369.051L230.151 364.728L234.479 367.828L238.806 364.728L235.703 369.051Z" fill="#EBEBEB"/>
<path d="M235.698 369.051C235.698 369.292 235.626 369.528 235.492 369.728C235.358 369.928 235.168 370.084 234.945 370.177C234.722 370.269 234.477 370.293 234.241 370.246C234.004 370.199 233.787 370.083 233.616 369.913C233.446 369.742 233.33 369.525 233.283 369.289C233.236 369.053 233.26 368.808 233.352 368.585C233.444 368.362 233.601 368.172 233.801 368.038C234.002 367.904 234.237 367.833 234.479 367.833C234.802 367.833 235.112 367.961 235.341 368.19C235.569 368.418 235.698 368.728 235.698 369.051Z" fill="#E0E0E0"/>
<path d="M289.845 124.702L295.101 125.567L289.845 126.432L288.981 131.682L288.115 126.432L282.859 125.567L288.115 124.702L288.981 119.452L289.845 124.702Z" fill="#EBEBEB"/>
<path d="M290.204 125.567L293.308 129.891L288.981 126.79L284.652 129.891L287.756 125.567L284.652 121.242L288.981 124.344L293.308 121.242L290.204 125.567Z" fill="#EBEBEB"/>
<path d="M290.199 125.567C290.199 125.808 290.128 126.043 289.994 126.244C289.86 126.444 289.67 126.6 289.447 126.692C289.224 126.784 288.979 126.809 288.742 126.762C288.506 126.715 288.288 126.599 288.118 126.428C287.947 126.258 287.831 126.041 287.784 125.804C287.737 125.568 287.761 125.323 287.854 125.101C287.946 124.878 288.102 124.688 288.303 124.554C288.503 124.42 288.739 124.349 288.98 124.349C289.303 124.349 289.614 124.477 289.842 124.705C290.071 124.934 290.199 125.244 290.199 125.567Z" fill="#E0E0E0"/>
<path d="M157.11 149.601L163.311 150.622L157.11 151.642L156.089 157.837L155.067 151.642L148.868 150.622L155.067 149.601L156.089 143.406L157.11 149.601Z" fill="#EBEBEB"/>
<path d="M157.534 150.622L161.195 155.723L156.089 152.065L150.982 155.723L154.645 150.622L150.982 145.52L156.089 149.178L161.195 145.52L157.534 150.622Z" fill="#EBEBEB"/>
<path d="M157.528 150.622C157.528 150.906 157.443 151.184 157.285 151.42C157.127 151.657 156.902 151.841 156.64 151.95C156.377 152.058 156.087 152.087 155.808 152.032C155.529 151.976 155.273 151.839 155.072 151.638C154.871 151.437 154.734 151.181 154.678 150.902C154.623 150.623 154.651 150.334 154.76 150.072C154.869 149.809 155.053 149.585 155.29 149.427C155.526 149.269 155.804 149.185 156.089 149.185C156.471 149.185 156.836 149.336 157.106 149.606C157.376 149.875 157.528 150.241 157.528 150.622Z" fill="#E0E0E0"/>
<path d="M61.5083 345.456L67.709 346.476L61.5083 347.497L60.487 353.692L59.4657 347.497L53.2661 346.476L59.4657 345.456L60.487 339.262L61.5083 345.456Z" fill="#EBEBEB"/>
<path d="M61.9321 346.477L65.5936 351.578L60.4872 347.92L55.3809 351.578L59.0435 346.477L55.3809 341.375L60.4872 345.034L65.5936 341.375L61.9321 346.477Z" fill="#EBEBEB"/>
<path d="M61.9259 346.477C61.9259 346.761 61.8415 347.039 61.6834 347.275C61.5253 347.512 61.3007 347.696 61.0378 347.805C60.7749 347.913 60.4857 347.942 60.2066 347.886C59.9276 347.831 59.6713 347.694 59.4701 347.493C59.2689 347.292 59.1319 347.036 59.0764 346.757C59.0209 346.478 59.0494 346.189 59.1583 345.927C59.2672 345.664 59.4516 345.44 59.6882 345.282C59.9248 345.124 60.2029 345.04 60.4874 345.04C60.6763 345.04 60.8634 345.077 61.0379 345.149C61.2124 345.221 61.371 345.327 61.5046 345.461C61.6382 345.594 61.7441 345.752 61.8164 345.927C61.8887 346.101 61.9259 346.288 61.9259 346.477Z" fill="#E0E0E0"/>
<path d="M312.021 268.616L318.222 269.637L312.021 270.657L311 276.852L309.978 270.657L303.779 269.637L309.978 268.616L311 262.422L312.021 268.616Z" fill="#EBEBEB"/>
<path d="M312.445 269.637L316.106 274.738L311 271.08L305.894 274.738L309.556 269.637L305.894 264.535L311 268.194L316.106 264.535L312.445 269.637Z" fill="#EBEBEB"/>
<path d="M312.439 269.637C312.439 269.921 312.354 270.199 312.196 270.435C312.038 270.672 311.813 270.856 311.551 270.965C311.288 271.074 310.999 271.102 310.719 271.047C310.44 270.991 310.184 270.854 309.983 270.653C309.782 270.452 309.645 270.196 309.589 269.917C309.534 269.639 309.562 269.35 309.671 269.087C309.78 268.824 309.964 268.6 310.201 268.442C310.437 268.284 310.715 268.2 311 268.2C311.382 268.2 311.747 268.351 312.017 268.621C312.287 268.89 312.439 269.256 312.439 269.637Z" fill="#E0E0E0"/>
<path d="M276.623 415.972C287.534 415.972 296.38 407.134 296.38 396.233C296.38 385.331 287.534 376.494 276.623 376.494C265.711 376.494 256.865 385.331 256.865 396.233C256.865 407.134 265.711 415.972 276.623 415.972Z" fill="#F5F5F5"/>
<path d="M232.259 305.115C238.509 305.115 243.576 300.053 243.576 293.809C243.576 287.564 238.509 282.502 232.259 282.502C226.009 282.502 220.942 287.564 220.942 293.809C220.942 300.053 226.009 305.115 232.259 305.115Z" fill="#F5F5F5"/>
<path d="M73.2526 263.247C77.6723 258.831 77.6723 251.672 73.2526 247.256C68.8329 242.841 61.6673 242.841 57.2476 247.256C52.828 251.672 52.828 258.831 57.2476 263.247C61.6673 267.662 68.8329 267.662 73.2526 263.247Z" fill="#F5F5F5"/>
<path d="M221.347 20.3464C318.855 17.478 445.521 115.624 445.362 258.737C445.276 336.071 326.933 454.091 207.959 438.619C88.9842 423.148 32.9594 322.935 25.1652 241.847C17.3547 160.592 73.6489 24.691 221.347 20.3464Z" fill="#18213A"/>
<path opacity="0.1" d="M267.571 57.4879C201.82 47.1242 136.644 83.4049 138.383 91.5428C140.123 99.6806 155.6 93.4394 164.848 93.3493C174.097 93.2591 125.147 126.23 120.239 145.064C115.33 163.897 166.736 107.756 213.114 98.6728C259.492 89.5895 239.338 85.1963 236.101 77.7605C232.864 70.3247 282.054 61.9842 320.357 81.2911C358.661 100.598 381.414 128.462 391.949 145.064C391.949 145.064 366.555 73.0898 267.571 57.4879Z" fill="white"/>
<path opacity="0.1" d="M250.204 139.955C253.301 124.441 292.916 121.715 322.454 141.984C351.993 162.252 356.442 184.269 349.899 183.562C343.357 182.856 376.993 201.067 388.946 244.863C400.9 288.66 388.273 339.479 349.899 367.889C349.899 367.889 375.122 341.926 370.565 294.499C366.007 247.072 312.035 237.568 301.068 224.584C290.1 211.6 298.65 192.058 318.555 188.986C338.46 185.914 321.566 161.514 300.018 160.871C278.469 160.227 261.695 165.385 258.757 161.277C255.82 157.17 201.505 166.538 190.709 208.028C179.913 249.519 164.338 237.482 173.962 208.028C183.586 178.575 246.399 149.33 258.149 147.134C269.899 144.938 249.486 143.554 250.204 139.955Z" fill="white"/>
<path d="M92.4145 324.39L93.4508 322.947L92.006 323.982L91.7181 322.23L91.4292 323.982L89.9843 322.947L91.0207 324.39L89.2671 324.678L91.0207 324.966L89.9843 326.41L91.4292 325.374L91.7181 327.126L92.006 325.374L93.4508 326.41L92.4145 324.966L94.168 324.678L92.4145 324.39Z" fill="#263238"/>
<path d="M402.644 291.11L403.679 289.667L402.235 290.702L401.946 288.95L401.657 290.702L400.213 289.667L401.249 291.11L399.495 291.399L401.249 291.687L400.213 293.13L401.657 292.096L401.946 293.847L402.235 292.096L403.679 293.13L402.644 291.688L404.397 291.399L402.644 291.11Z" fill="#263238"/>
<path d="M249.167 348.348L250.203 346.905L248.76 347.94L248.471 346.188L248.182 347.94L246.737 346.905L247.773 348.347L246.02 348.636L247.773 348.924L246.737 350.368L248.182 349.332L248.471 351.084L248.76 349.332L250.203 350.368L249.167 348.924L250.921 348.636L249.167 348.348Z" fill="#263238"/>
<path d="M103.539 281.829L105.324 279.344L102.836 281.126L102.338 278.108L101.841 281.126L99.3532 279.344L101.137 281.829L98.1172 282.326L101.137 282.822L99.3532 285.308L101.841 283.526L102.338 286.543L102.836 283.526L105.324 285.308L103.539 282.822L106.56 282.326L103.539 281.829Z" fill="#263238"/>
<path d="M63.6205 203.442L65.4042 200.957L62.916 202.739L62.4193 199.721L61.9214 202.739L59.4332 200.957L61.2181 203.442L58.1973 203.939L61.2181 204.436L59.4332 206.921L61.9214 205.139L62.4193 208.156L62.916 205.139L65.4042 206.921L63.6205 204.436L66.6402 203.939L63.6205 203.442Z" fill="#263238"/>
<path d="M268.069 59.2632L269.853 56.7773L267.366 58.5606L266.868 55.5425L266.37 58.5606L263.883 56.7773L265.667 59.2632L262.647 59.7606L265.667 60.2568L263.883 62.7427L266.37 60.9606L266.868 63.9776L267.366 60.9606L269.853 62.7427L268.069 60.2568L271.09 59.7606L268.069 59.2632Z" fill="#263238"/>
<path d="M304.727 203.151L306.512 200.666L304.023 202.448L303.526 199.43L303.029 202.448L300.541 200.666L302.324 203.151L299.305 203.648L302.324 204.146L300.541 206.63L303.029 204.848L303.526 207.866L304.023 204.848L306.512 206.63L304.727 204.146L307.748 203.648L304.727 203.151Z" fill="#263238"/>
<path d="M213.373 64.1816L215.158 61.6958L212.669 63.4779L212.173 60.4609L211.675 63.4779L209.188 61.6958L210.971 64.1816L207.951 64.6779L210.971 65.1753L209.188 67.66L211.675 65.8779L212.173 68.896L212.669 65.8779L215.158 67.66L213.373 65.1753L216.394 64.6779L213.373 64.1816Z" fill="#263238"/>
<path d="M218.173 297.439L221.225 293.187L216.969 296.236L216.119 291.074L215.267 296.236L211.012 293.187L214.063 297.439L208.896 298.288L214.063 299.138L211.012 303.39L215.267 300.342L216.119 305.504L216.969 300.342L221.225 303.39L218.173 299.138L223.339 298.288L218.173 297.439Z" fill="#263238"/>
<path d="M368.395 95.5798L363.228 94.7299L366.281 90.4794L362.025 93.5276L361.174 88.3657L360.322 93.5276L356.067 90.4794L359.119 94.7299L353.952 95.5798L359.119 96.4309L356.067 100.681L360.322 97.6332L361.174 102.795L362.025 97.6332L366.281 100.681L363.228 96.4309L368.395 95.5798Z" fill="#263238"/>
<path d="M205.998 129.569L209.051 125.319L204.795 128.367L203.944 123.205L203.092 128.367L198.837 125.319L201.889 129.569L196.722 130.42L201.889 131.27L198.837 135.522L203.092 132.473L203.944 137.635L204.795 132.473L209.051 135.522L205.998 131.27L211.165 130.42L205.998 129.569Z" fill="#263238"/>
<path d="M357.081 334.277L360.132 330.025L355.877 333.075L355.026 327.913L354.175 333.075L349.919 330.025L352.971 334.277L347.805 335.127L352.971 335.978L349.919 340.228L354.175 337.18L355.026 342.342L355.877 337.18L360.132 340.228L357.081 335.978L362.248 335.127L357.081 334.277Z" fill="#263238"/>
<path d="M119.047 110.024L113.881 109.174L116.932 104.923L112.677 107.972L111.825 102.81L110.975 107.972L106.719 104.923L109.771 109.174L104.604 110.024L109.771 110.875L106.719 115.126L110.975 112.078L111.825 117.24L112.677 112.078L116.932 115.126L113.881 110.875L119.047 110.024Z" fill="#263238"/>
<path opacity="0.2" d="M92.064 324.332L94.168 324.678L92.064 325.024L91.7181 327.126L91.3711 325.024L89.2671 324.678L91.3711 324.332L91.7181 322.23L92.064 324.332Z" fill="white"/>
<path opacity="0.2" d="M92.208 324.677L93.4509 326.41L91.7182 325.168L89.9844 326.41L91.2273 324.677L89.9844 322.946L91.7182 324.188L93.4509 322.946L92.208 324.677Z" fill="white"/>
<path d="M92.2058 324.678C92.2059 324.775 92.1772 324.869 92.1236 324.949C92.07 325.029 91.9937 325.092 91.9045 325.129C91.8153 325.166 91.7171 325.175 91.6224 325.156C91.5277 325.138 91.4407 325.091 91.3725 325.023C91.3042 324.955 91.2577 324.868 91.2389 324.773C91.22 324.679 91.2297 324.581 91.2667 324.491C91.3036 324.402 91.3662 324.326 91.4465 324.273C91.5268 324.219 91.6212 324.19 91.7177 324.19C91.8472 324.19 91.9713 324.242 92.0629 324.333C92.1544 324.425 92.2058 324.549 92.2058 324.678Z" fill="white"/>
<path opacity="0.2" d="M248.816 348.29L250.921 348.636L248.816 348.982L248.471 351.084L248.124 348.982L246.02 348.636L248.124 348.29L248.471 346.188L248.816 348.29Z" fill="white"/>
<path opacity="0.2" d="M248.96 348.635L250.203 350.368L248.471 349.126L246.737 350.368L247.98 348.635L246.737 346.904L248.471 348.146L250.203 346.904L248.96 348.635Z" fill="white"/>
<path d="M248.959 348.636C248.959 348.733 248.93 348.827 248.877 348.907C248.823 348.987 248.747 349.05 248.657 349.087C248.568 349.124 248.47 349.133 248.375 349.115C248.281 349.096 248.194 349.049 248.125 348.981C248.057 348.913 248.011 348.826 247.992 348.731C247.973 348.637 247.983 348.539 248.02 348.45C248.056 348.36 248.119 348.284 248.199 348.231C248.28 348.177 248.374 348.148 248.471 348.148C248.535 348.148 248.598 348.161 248.657 348.186C248.717 348.21 248.77 348.246 248.816 348.291C248.861 348.337 248.897 348.39 248.922 348.449C248.946 348.509 248.959 348.572 248.959 348.636Z" fill="white"/>
<path opacity="0.2" d="M102.936 281.729L106.56 282.326L102.936 282.922L102.338 286.543L101.742 282.922L98.1172 282.326L101.742 281.729L102.338 278.108L102.936 281.729Z" fill="white"/>
<path opacity="0.2" d="M103.183 282.326L105.323 285.308L102.338 283.169L99.353 285.308L101.494 282.326L99.353 279.344L102.338 281.482L105.323 279.344L103.183 282.326Z" fill="white"/>
<path d="M102.338 283.166C102.803 283.166 103.179 282.79 103.179 282.326C103.179 281.862 102.803 281.485 102.338 281.485C101.874 281.485 101.497 281.862 101.497 282.326C101.497 282.79 101.874 283.166 102.338 283.166Z" fill="white"/>
<path opacity="0.2" d="M63.0158 203.342L66.6402 203.939L63.0158 204.535L62.4193 208.156L61.8216 204.535L58.1973 203.939L61.8216 203.342L62.4193 199.721L63.0158 203.342Z" fill="white"/>
<path opacity="0.2" d="M63.2629 203.94L65.4041 206.922L62.4192 204.783L59.4331 206.922L61.5743 203.94L59.4331 200.958L62.4192 203.096L65.4041 200.958L63.2629 203.94Z" fill="white"/>
<path d="M63.2595 203.939C63.2595 204.105 63.2102 204.268 63.1178 204.406C63.0254 204.544 62.894 204.652 62.7404 204.715C62.5867 204.779 62.4176 204.796 62.2545 204.763C62.0914 204.731 61.9415 204.651 61.8239 204.533C61.7063 204.416 61.6262 204.266 61.5938 204.103C61.5613 203.94 61.578 203.771 61.6417 203.618C61.7053 203.464 61.8131 203.333 61.9514 203.241C62.0897 203.148 62.2522 203.099 62.4186 203.099C62.6416 203.099 62.8555 203.188 63.0132 203.345C63.1709 203.503 63.2595 203.716 63.2595 203.939Z" fill="white"/>
<path opacity="0.2" d="M267.466 59.1635L271.09 59.7606L267.466 60.3566L266.868 63.9776L266.271 60.3566L262.647 59.7606L266.271 59.1635L266.868 55.5425L267.466 59.1635Z" fill="white"/>
<path opacity="0.2" d="M267.713 59.7606L269.853 62.7427L266.868 60.6035L263.883 62.7427L266.024 59.7606L263.883 56.7773L266.868 58.9165L269.853 56.7773L267.713 59.7606Z" fill="white"/>
<path d="M266.868 60.6002C267.332 60.6002 267.709 60.2241 267.709 59.7601C267.709 59.2961 267.332 58.9199 266.868 58.9199C266.403 58.9199 266.027 59.2961 266.027 59.7601C266.027 60.2241 266.403 60.6002 266.868 60.6002Z" fill="white"/>
<path opacity="0.2" d="M304.123 203.052L307.748 203.648L304.123 204.245L303.526 207.866L302.929 204.245L299.305 203.648L302.929 203.052L303.526 199.43L304.123 203.052Z" fill="white"/>
<path opacity="0.2" d="M304.37 203.649L306.51 206.631L303.525 204.492L300.541 206.631L302.682 203.649L300.541 200.667L303.525 202.805L306.51 200.667L304.37 203.649Z" fill="white"/>
<path d="M303.526 204.488C303.99 204.488 304.367 204.112 304.367 203.648C304.367 203.184 303.99 202.808 303.526 202.808C303.062 202.808 302.685 203.184 302.685 203.648C302.685 204.112 303.062 204.488 303.526 204.488Z" fill="white"/>
<path opacity="0.2" d="M212.769 64.0819L216.394 64.6779L212.769 65.275L212.173 68.896L211.575 65.275L207.951 64.6779L211.575 64.0819L212.173 60.4609L212.769 64.0819Z" fill="white"/>
<path opacity="0.2" d="M213.016 64.6779L215.158 67.66L212.173 65.522L209.187 67.66L211.328 64.6779L209.187 61.6957L212.173 63.8349L215.158 61.6957L213.016 64.6779Z" fill="white"/>
<path d="M212.172 65.5187C212.636 65.5187 213.013 65.1425 213.013 64.6785C213.013 64.2145 212.636 63.8384 212.172 63.8384C211.708 63.8384 211.331 64.2145 211.331 64.6785C211.331 65.1425 211.708 65.5187 212.172 65.5187Z" fill="white"/>
<path opacity="0.2" d="M217.14 297.268L223.339 298.288L217.14 299.309L216.119 305.504L215.097 299.309L208.896 298.288L215.097 297.268L216.119 291.074L217.14 297.268Z" fill="white"/>
<path opacity="0.2" d="M217.562 298.288L221.225 303.39L216.119 299.732L211.012 303.39L214.674 298.288L211.012 293.187L216.119 296.846L221.225 293.187L217.562 298.288Z" fill="white"/>
<path d="M217.557 298.288C217.557 298.573 217.472 298.85 217.314 299.087C217.156 299.323 216.932 299.507 216.669 299.616C216.406 299.725 216.117 299.753 215.838 299.698C215.559 299.642 215.302 299.506 215.101 299.305C214.9 299.104 214.763 298.847 214.707 298.569C214.652 298.29 214.68 298.001 214.789 297.738C214.898 297.476 215.082 297.251 215.319 297.093C215.556 296.935 215.834 296.851 216.118 296.851C216.307 296.851 216.494 296.888 216.669 296.96C216.843 297.033 217.002 297.139 217.135 297.272C217.269 297.405 217.375 297.564 217.447 297.738C217.52 297.913 217.557 298.1 217.557 298.288Z" fill="white"/>
<path opacity="0.2" d="M362.195 94.5595L368.395 95.5798L362.195 96.6001L361.174 102.795L360.153 96.6001L353.952 95.5798L360.153 94.5595L361.174 88.3657L362.195 94.5595Z" fill="white"/>
<path opacity="0.2" d="M362.618 95.5797L366.281 100.681L361.174 97.0232L356.067 100.681L359.73 95.5797L356.067 90.478L361.174 94.1373L366.281 90.478L362.618 95.5797Z" fill="white"/>
<path d="M362.612 95.5803C362.612 95.8646 362.528 96.1424 362.369 96.3788C362.211 96.6151 361.987 96.7993 361.724 96.9081C361.461 97.0169 361.172 97.0453 360.893 96.9898C360.614 96.9344 360.357 96.7975 360.156 96.5965C359.955 96.3955 359.818 96.1394 359.762 95.8606C359.707 95.5818 359.735 95.2928 359.844 95.0302C359.953 94.7676 360.138 94.5431 360.374 94.3852C360.611 94.2273 360.889 94.1431 361.173 94.1431C361.362 94.1431 361.549 94.1802 361.724 94.2525C361.899 94.3247 362.057 94.4305 362.191 94.564C362.324 94.6975 362.43 94.8559 362.502 95.0303C362.575 95.2047 362.612 95.3916 362.612 95.5803Z" fill="white"/>
<path opacity="0.2" d="M204.965 129.4L211.165 130.42L204.965 131.441L203.944 137.635L202.923 131.441L196.722 130.42L202.923 129.4L203.944 123.205L204.965 129.4Z" fill="white"/>
<path opacity="0.2" d="M205.388 130.42L209.051 135.522L203.944 131.863L198.837 135.522L202.5 130.42L198.837 125.319L203.944 128.977L209.051 125.319L205.388 130.42Z" fill="white"/>
<path d="M205.382 130.42C205.382 130.704 205.298 130.982 205.14 131.219C204.982 131.455 204.757 131.639 204.494 131.748C204.232 131.857 203.942 131.885 203.663 131.83C203.384 131.774 203.128 131.637 202.927 131.436C202.726 131.235 202.589 130.979 202.533 130.7C202.478 130.422 202.506 130.133 202.615 129.87C202.724 129.607 202.908 129.383 203.145 129.225C203.381 129.067 203.659 128.983 203.944 128.983C204.325 128.983 204.691 129.134 204.961 129.404C205.231 129.673 205.382 130.039 205.382 130.42Z" fill="white"/>
<path opacity="0.2" d="M112.847 109.005L119.047 110.024L112.847 111.045L111.825 117.24L110.804 111.045L104.604 110.024L110.804 109.005L111.825 102.81L112.847 109.005Z" fill="white"/>
<path opacity="0.2" d="M113.27 110.024L116.932 115.127L111.826 111.468L106.719 115.127L110.382 110.024L106.719 104.923L111.826 108.582L116.932 104.923L113.27 110.024Z" fill="white"/>
<path d="M113.264 110.025C113.264 110.309 113.18 110.587 113.022 110.824C112.864 111.06 112.639 111.244 112.376 111.353C112.113 111.462 111.824 111.49 111.545 111.435C111.266 111.379 111.01 111.242 110.809 111.041C110.607 110.84 110.47 110.584 110.415 110.305C110.359 110.027 110.388 109.738 110.497 109.475C110.606 109.213 110.79 108.988 111.027 108.83C111.263 108.672 111.541 108.588 111.826 108.588C112.207 108.588 112.573 108.739 112.843 109.009C113.113 109.278 113.264 109.644 113.264 110.025Z" fill="white"/>
<path d="M273.172 405.352L268.005 404.501L271.056 400.25L266.8 403.298L265.95 398.136L265.099 403.298L260.843 400.25L263.894 404.501L258.728 405.352L263.894 406.201L260.843 410.453L265.099 407.404L265.95 412.566L266.8 407.404L271.056 410.453L268.005 406.201L273.172 405.352Z" fill="#263238"/>
<path d="M45.9638 266.38L47.0001 264.938L45.5553 265.972L45.2663 264.22L44.9785 265.972L43.5336 264.938L44.57 266.38L42.8164 266.669L44.57 266.957L43.5336 268.4L44.9785 267.365L45.2663 269.117L45.5553 267.365L47.0001 268.4L45.9638 266.957L47.7174 266.669L45.9638 266.38Z" fill="#263238"/>
<path opacity="0.2" d="M45.6133 266.322L47.7174 266.669L45.6133 267.015L45.2663 269.117L44.9205 267.015L42.8164 266.669L44.9205 266.322L45.2663 264.22L45.6133 266.322Z" fill="white"/>
<path opacity="0.2" d="M45.7572 266.669L47.0001 268.4L45.2663 267.158L43.5336 268.4L44.7766 266.669L43.5336 264.938L45.2663 266.179L47.0001 264.938L45.7572 266.669Z" fill="white"/>
<path d="M45.7552 266.668C45.7552 266.765 45.7266 266.859 45.6729 266.939C45.6193 267.02 45.543 267.082 45.4538 267.119C45.3646 267.156 45.2665 267.166 45.1718 267.147C45.0771 267.128 44.9901 267.081 44.9218 267.013C44.8535 266.945 44.807 266.858 44.7882 266.764C44.7694 266.669 44.779 266.571 44.816 266.482C44.8529 266.393 44.9155 266.316 44.9958 266.263C45.0761 266.209 45.1705 266.181 45.267 266.181C45.3965 266.181 45.5207 266.232 45.6122 266.324C45.7037 266.415 45.7552 266.539 45.7552 266.668Z" fill="white"/>
<path d="M185.317 238.536L186.352 237.092L184.908 238.127L184.619 236.375L184.33 238.127L182.886 237.092L183.922 238.536L182.168 238.824L183.922 239.113L182.886 240.555L184.33 239.52L184.619 241.272L184.908 239.52L186.352 240.555L185.317 239.113L187.07 238.824L185.317 238.536Z" fill="#263238"/>
<path opacity="0.2" d="M184.966 238.478L187.07 238.824L184.966 239.17L184.619 241.272L184.272 239.17L182.168 238.824L184.272 238.478L184.619 236.375L184.966 238.478Z" fill="white"/>
<path opacity="0.2" d="M185.109 238.824L186.352 240.555L184.619 239.314L182.886 240.555L184.129 238.824L182.886 237.093L184.619 238.334L186.352 237.093L185.109 238.824Z" fill="white"/>
<path d="M185.107 238.824C185.107 238.92 185.079 239.014 185.025 239.095C184.971 239.175 184.895 239.237 184.806 239.274C184.717 239.311 184.619 239.321 184.524 239.302C184.429 239.283 184.342 239.237 184.274 239.169C184.206 239.1 184.159 239.013 184.14 238.919C184.121 238.824 184.131 238.726 184.168 238.637C184.205 238.548 184.268 238.472 184.348 238.418C184.428 238.365 184.523 238.336 184.619 238.336C184.749 238.336 184.873 238.387 184.964 238.479C185.056 238.57 185.107 238.694 185.107 238.824Z" fill="white"/>
<path d="M137.705 175.885L138.74 174.442L137.296 175.477L137.007 173.725L136.718 175.477L135.274 174.442L136.31 175.885L134.557 176.174L136.31 176.463L135.274 177.905L136.718 176.87L137.007 178.622L137.296 176.87L138.74 177.905L137.705 176.463L139.458 176.174L137.705 175.885Z" fill="#263238"/>
<path opacity="0.2" d="M137.354 175.827L139.458 176.174L137.354 176.519L137.007 178.622L136.661 176.519L134.557 176.174L136.661 175.827L137.007 173.725L137.354 175.827Z" fill="white"/>
<path opacity="0.2" d="M137.498 176.174L138.74 177.905L137.007 176.663L135.274 177.905L136.517 176.174L135.274 174.443L137.007 175.684L138.74 174.443L137.498 176.174Z" fill="white"/>
<path d="M137.495 176.174C137.495 176.27 137.467 176.365 137.413 176.445C137.36 176.525 137.283 176.587 137.194 176.624C137.105 176.661 137.007 176.671 136.912 176.652C136.817 176.633 136.73 176.587 136.662 176.519C136.594 176.45 136.547 176.364 136.528 176.269C136.51 176.174 136.519 176.076 136.556 175.987C136.593 175.898 136.656 175.822 136.736 175.768C136.816 175.715 136.911 175.686 137.007 175.686C137.137 175.686 137.261 175.737 137.352 175.829C137.444 175.92 137.495 176.044 137.495 176.174Z" fill="white"/>
<path opacity="0.1" d="M146.679 53.8282C146.679 53.8447 146.674 53.8608 146.665 53.8746C146.656 53.8883 146.643 53.899 146.628 53.9053C146.612 53.9116 146.596 53.9133 146.579 53.91C146.563 53.9068 146.548 53.8988 146.537 53.8871C146.525 53.8754 146.517 53.8605 146.514 53.8443C146.511 53.8281 146.512 53.8113 146.519 53.7961C146.525 53.7808 146.536 53.7678 146.549 53.7586C146.563 53.7494 146.579 53.7446 146.596 53.7446C146.607 53.7446 146.618 53.7467 146.628 53.7509C146.638 53.7551 146.647 53.7613 146.655 53.7691C146.663 53.7768 146.669 53.786 146.673 53.7962C146.677 53.8063 146.679 53.8172 146.679 53.8282Z" fill="black"/>
<path opacity="0.1" d="M147.48 50.2842C147.48 50.3007 147.475 50.3168 147.466 50.3306C147.457 50.3443 147.444 50.3551 147.429 50.3614C147.413 50.3677 147.397 50.3694 147.38 50.3662C147.364 50.363 147.349 50.355 147.338 50.3433C147.326 50.3317 147.318 50.3168 147.315 50.3006C147.311 50.2844 147.313 50.2676 147.319 50.2523C147.326 50.237 147.336 50.224 147.35 50.2148C147.364 50.2056 147.38 50.2007 147.397 50.2007C147.419 50.2007 147.44 50.2095 147.456 50.2251C147.471 50.2408 147.48 50.262 147.48 50.2842Z" fill="black"/>
<path opacity="0.1" d="M148.918 52.235C148.918 52.2515 148.913 52.2676 148.904 52.2814C148.894 52.2951 148.881 52.3058 148.866 52.3121C148.851 52.3184 148.834 52.3201 148.818 52.3168C148.802 52.3136 148.787 52.3057 148.775 52.294C148.763 52.2823 148.755 52.2674 148.752 52.2512C148.749 52.235 148.75 52.2182 148.757 52.203C148.763 52.1877 148.774 52.1747 148.788 52.1655C148.801 52.1563 148.817 52.1514 148.834 52.1514C148.856 52.1514 148.877 52.1602 148.893 52.1759C148.909 52.1915 148.918 52.2128 148.918 52.235Z" fill="black"/>
<path opacity="0.1" d="M145.463 51.5314C145.463 51.5479 145.458 51.564 145.449 51.5778C145.439 51.5915 145.426 51.6022 145.411 51.6085C145.396 51.6148 145.379 51.6165 145.363 51.6132C145.346 51.61 145.332 51.602 145.32 51.5903C145.308 51.5786 145.3 51.5637 145.297 51.5475C145.294 51.5313 145.295 51.5145 145.302 51.4993C145.308 51.484 145.319 51.471 145.333 51.4618C145.346 51.4526 145.363 51.4477 145.379 51.4478C145.39 51.4478 145.401 51.4499 145.411 51.4541C145.421 51.4583 145.43 51.4645 145.438 51.4722C145.446 51.48 145.452 51.4892 145.456 51.4994C145.46 51.5095 145.463 51.5204 145.463 51.5314Z" fill="black"/>
<path opacity="0.1" d="M146.596 50.9047C146.596 50.9617 146.579 51.0175 146.547 51.0649C146.515 51.1123 146.47 51.1493 146.418 51.1711C146.365 51.1929 146.307 51.1986 146.251 51.1875C146.195 51.1764 146.143 51.1489 146.103 51.1086C146.063 51.0682 146.035 51.0169 146.024 50.9609C146.013 50.905 146.019 50.847 146.04 50.7943C146.062 50.7416 146.099 50.6965 146.147 50.6648C146.194 50.6332 146.25 50.6162 146.307 50.6162C146.345 50.6162 146.383 50.6237 146.418 50.6381C146.453 50.6526 146.484 50.6739 146.511 50.7007C146.538 50.7275 146.559 50.7593 146.574 50.7943C146.588 50.8293 146.596 50.8668 146.596 50.9047Z" fill="black"/>
<path opacity="0.1" d="M148.211 53.5398C148.211 53.5969 148.194 53.6526 148.162 53.7001C148.13 53.7475 148.085 53.7845 148.032 53.8063C147.98 53.8282 147.922 53.8339 147.866 53.8228C147.81 53.8116 147.758 53.7842 147.718 53.7438C147.677 53.7035 147.65 53.6521 147.639 53.5961C147.628 53.5402 147.633 53.4822 147.655 53.4295C147.677 53.3768 147.714 53.3317 147.762 53.3C147.809 53.2684 147.865 53.2515 147.922 53.2515C147.999 53.2515 148.072 53.2819 148.126 53.3359C148.18 53.39 148.211 53.4633 148.211 53.5398Z" fill="black"/>
<path opacity="0.2" d="M442.303 222.619C442.274 222.61 442.243 222.608 442.213 222.612C442.183 222.616 442.155 222.627 442.13 222.644C442.104 222.66 442.083 222.682 442.067 222.708C442.051 222.733 442.041 222.762 442.038 222.792C442.078 222.857 442.118 222.922 442.158 222.987L442.201 222.877C442.151 222.985 442.334 223.082 442.42 223.001C442.457 222.956 442.476 222.897 442.472 222.839C442.468 222.78 442.441 222.725 442.398 222.684C442.372 222.656 442.339 222.633 442.303 222.619Z" fill="black"/>
<path opacity="0.2" d="M301.988 40.9663C302.035 40.9663 302.081 40.9522 302.121 40.9259C302.16 40.8996 302.191 40.8623 302.209 40.8186C302.227 40.7748 302.232 40.7267 302.222 40.6803C302.213 40.6339 302.19 40.5913 302.157 40.5578C302.123 40.5244 302.081 40.5016 302.034 40.4924C301.988 40.4832 301.94 40.4879 301.896 40.506C301.852 40.5241 301.815 40.5548 301.788 40.5942C301.762 40.6335 301.748 40.6798 301.748 40.7271C301.748 40.7906 301.773 40.8514 301.818 40.8963C301.863 40.9411 301.924 40.9663 301.988 40.9663Z" fill="black"/>
<path d="M328.564 355.793H278.966C276.243 355.793 273.632 354.713 271.707 352.789C269.781 350.866 268.7 348.257 268.7 345.537V328.15C268.7 325.43 269.781 322.821 271.707 320.897C273.632 318.974 276.243 317.893 278.966 317.893H311.925L320.023 307.58L318.831 317.893H328.564C329.912 317.893 331.247 318.159 332.493 318.674C333.738 319.19 334.87 319.945 335.823 320.897C336.777 321.85 337.533 322.98 338.049 324.225C338.565 325.469 338.83 326.803 338.83 328.15V345.537C338.83 346.884 338.565 348.217 338.049 349.462C337.533 350.706 336.777 351.837 335.823 352.789C334.87 353.742 333.738 354.497 332.493 355.013C331.247 355.528 329.912 355.793 328.564 355.793Z" fill="#407BFF"/>
<path d="M281.39 336.01C281.345 334.839 281.651 333.681 282.27 332.684C282.888 331.688 283.79 330.899 284.861 330.419C285.931 329.938 287.12 329.789 288.277 329.988C289.433 330.188 290.503 330.729 291.349 331.54C292.196 332.352 292.78 333.398 293.028 334.544C293.275 335.69 293.174 336.883 292.738 337.971C292.302 339.059 291.55 339.993 290.579 340.651C289.608 341.309 288.462 341.663 287.289 341.666C286.525 341.703 285.761 341.584 285.044 341.315C284.327 341.047 283.673 340.636 283.121 340.107C282.569 339.577 282.13 338.941 281.833 338.237C281.535 337.532 281.385 336.775 281.39 336.01ZM291.574 336.01C291.584 335.157 291.339 334.321 290.872 333.608C290.404 332.894 289.735 332.336 288.949 332.004C288.162 331.672 287.295 331.581 286.457 331.742C285.619 331.904 284.848 332.311 284.242 332.912C283.637 333.513 283.224 334.28 283.055 335.116C282.887 335.952 282.972 336.819 283.299 337.607C283.625 338.395 284.179 339.067 284.89 339.54C285.6 340.012 286.436 340.263 287.289 340.26C287.854 340.277 288.416 340.18 288.942 339.973C289.468 339.766 289.946 339.454 290.347 339.056C290.748 338.658 291.064 338.183 291.275 337.659C291.486 337.136 291.588 336.574 291.574 336.01Z" fill="white"/>
<path d="M294.577 337.353C294.563 336.489 294.806 335.641 295.275 334.916C295.745 334.191 296.42 333.622 297.214 333.281C298.009 332.94 298.887 332.843 299.736 333.002C300.586 333.161 301.369 333.57 301.986 334.175C302.603 334.78 303.026 335.554 303.201 336.4C303.376 337.246 303.295 338.125 302.968 338.925C302.642 339.724 302.085 340.409 301.368 340.892C300.65 341.374 299.806 341.632 298.941 341.634C298.368 341.661 297.795 341.569 297.259 341.365C296.722 341.16 296.234 340.847 295.824 340.445C295.414 340.043 295.092 339.561 294.877 339.029C294.663 338.497 294.561 337.926 294.577 337.353ZM301.756 337.353C301.73 336.8 301.543 336.268 301.217 335.821C300.89 335.374 300.44 335.032 299.921 334.839C299.403 334.646 298.839 334.609 298.299 334.733C297.76 334.857 297.269 335.137 296.887 335.538C296.505 335.938 296.25 336.442 296.152 336.986C296.055 337.531 296.119 338.092 296.338 338.6C296.557 339.108 296.92 339.541 297.383 339.844C297.846 340.148 298.388 340.309 298.941 340.307C299.326 340.317 299.709 340.247 300.064 340.1C300.42 339.953 300.741 339.733 301.006 339.455C301.271 339.176 301.475 338.845 301.604 338.483C301.733 338.121 301.785 337.736 301.756 337.353Z" fill="white"/>
<path d="M314.074 337.353C314.104 337.919 314.015 338.485 313.814 339.015C313.612 339.545 313.302 340.027 312.902 340.43C312.503 340.833 312.024 341.149 311.496 341.356C310.968 341.563 310.402 341.658 309.835 341.634C309.275 341.652 308.719 341.538 308.211 341.302C307.702 341.066 307.257 340.715 306.91 340.275V344.604H305.392V333.166H306.847V334.493C307.195 334.035 307.648 333.668 308.168 333.423C308.689 333.178 309.261 333.063 309.835 333.086C310.401 333.062 310.966 333.156 311.493 333.362C312.021 333.568 312.499 333.882 312.898 334.284C313.297 334.685 313.608 335.166 313.81 335.694C314.012 336.223 314.102 336.788 314.074 337.353ZM312.539 337.353C312.514 336.801 312.327 336.269 312.001 335.822C311.676 335.376 311.226 335.034 310.708 334.84C310.191 334.647 309.627 334.609 309.088 334.732C308.549 334.855 308.058 335.133 307.676 335.532C307.293 335.931 307.037 336.433 306.937 336.977C306.838 337.52 306.9 338.081 307.117 338.589C307.333 339.097 307.694 339.531 308.155 339.836C308.616 340.142 309.156 340.305 309.709 340.307C310.094 340.316 310.477 340.245 310.833 340.098C311.189 339.951 311.51 339.732 311.776 339.454C312.043 339.176 312.248 338.845 312.38 338.484C312.511 338.122 312.565 337.737 312.539 337.353Z" fill="white"/>
<path d="M315.116 340.655L315.748 339.453C316.623 340.022 317.645 340.324 318.69 340.323C320.097 340.323 320.682 339.896 320.682 339.185C320.682 337.305 315.384 338.932 315.384 335.599C315.384 334.098 316.728 333.086 318.879 333.086C319.945 333.068 320.998 333.33 321.931 333.845L321.283 335.046C320.559 334.593 319.718 334.362 318.864 334.382C317.535 334.382 316.887 334.872 316.887 335.535C316.887 337.51 322.2 335.899 322.2 339.153C322.2 340.67 320.808 341.634 318.579 341.634C317.352 341.666 316.144 341.324 315.116 340.655Z" fill="white"/>
<path d="M323.749 340.623C323.748 340.487 323.775 340.353 323.827 340.228C323.88 340.103 323.957 339.99 324.055 339.895C324.152 339.801 324.268 339.727 324.395 339.678C324.521 339.629 324.657 339.607 324.792 339.612C325.061 339.612 325.318 339.718 325.508 339.908C325.698 340.098 325.804 340.355 325.804 340.623C325.804 340.891 325.698 341.148 325.508 341.338C325.318 341.528 325.061 341.634 324.792 341.634C324.657 341.638 324.522 341.614 324.396 341.565C324.27 341.516 324.155 341.442 324.058 341.348C323.96 341.254 323.883 341.141 323.83 341.016C323.777 340.892 323.75 340.758 323.749 340.623ZM323.891 330.48H325.678L325.378 338.048H324.176L323.891 330.48Z" fill="white"/>
<path d="M163.145 260.245L151.209 263.473L155.388 278.894L146.683 281.248L142.505 265.827L107.596 275.269L105.895 268.992L126.896 219.241L136.587 216.62L116.544 264.572L140.685 258.044L136.992 244.417L145.428 242.135L149.12 255.762L161.055 252.534L163.145 260.245Z" fill="#407BFF"/>
<path d="M164.2 242.831C158.662 222.389 166.452 207.773 181.169 203.792C195.796 199.836 209.903 208.531 215.442 228.972C220.98 249.413 213.191 264.03 198.563 267.986C183.846 271.966 169.74 263.272 164.2 242.831ZM206.467 231.4C202.119 215.351 193.113 209.126 183.331 211.771C173.46 214.441 168.826 224.355 173.174 240.404C177.523 256.453 186.529 262.676 196.401 260.006C206.182 257.361 210.816 247.448 206.467 231.4Z" fill="#407BFF"/>
<path d="M283.027 227.821L271.092 231.05L275.271 246.47L266.566 248.824L262.388 233.404L227.478 242.846L225.778 236.568L246.779 186.817L256.471 184.196L236.427 232.149L260.567 225.62L256.875 211.993L265.31 209.712L269.003 223.339L280.938 220.111L283.027 227.821Z" fill="#407BFF"/>
<path d="M125.112 192.473L126.634 198.09L103.195 204.43L95 174.185L117.877 167.998L119.399 173.614L103.485 177.919L105.264 184.487L119.319 180.685L120.794 186.129L106.739 189.93L108.636 196.928L125.112 192.473Z" fill="#407BFF"/>
<path d="M151.501 191.365L143.38 184.517L143.034 184.611L136.937 186.26L139.22 194.686L132.214 196.581L124.019 166.337L137.122 162.793C145.21 160.606 151.404 163.429 153.243 170.211C153.879 172.23 153.87 174.396 153.218 176.409C152.566 178.422 151.302 180.182 149.603 181.444L159.026 189.33L151.501 191.365ZM138.278 168.601L132.57 170.145L135.427 180.688L141.135 179.144C145.416 177.986 147.04 175.413 146.15 172.129C145.249 168.803 142.56 167.444 138.278 168.601Z" fill="#407BFF"/>
<path d="M183.288 182.768L175.167 175.921L174.821 176.014L168.723 177.663L171.006 186.09L164 187.985L155.805 157.74L168.909 154.196C176.996 152.009 183.191 154.832 185.029 161.615C185.666 163.633 185.657 165.799 185.005 167.812C184.352 169.825 183.089 171.585 181.389 172.848L190.813 180.733L183.288 182.768ZM170.065 160.005L164.356 161.549L167.213 172.091L172.921 170.547C177.203 169.39 178.827 166.816 177.937 163.533C177.036 160.206 174.347 158.847 170.065 160.005Z" fill="#407BFF"/>
<path d="M189.787 164.78C187.352 155.794 192.555 147.244 202.112 144.659C211.626 142.087 220.466 146.79 222.913 155.82C225.359 164.85 220.102 173.367 210.587 175.94C201.03 178.525 192.222 173.768 189.787 164.78ZM215.821 157.738C215.274 155.887 214.193 154.239 212.712 152.999C211.232 151.759 209.418 150.984 207.498 150.769C205.579 150.555 203.638 150.911 201.92 151.793C200.202 152.676 198.783 154.045 197.841 155.73C196.898 157.414 196.474 159.339 196.622 161.263C196.77 163.188 197.482 165.026 198.671 166.547C199.859 168.068 201.471 169.205 203.303 169.816C205.136 170.426 207.108 170.483 208.972 169.978C210.253 169.669 211.456 169.098 212.506 168.302C213.555 167.506 214.429 166.501 215.072 165.352C215.715 164.203 216.113 162.934 216.242 161.623C216.371 160.313 216.227 158.991 215.821 157.738Z" fill="#407BFF"/>
<path d="M251.575 164.299L243.454 157.452L243.109 157.545L237.011 159.195L239.294 167.621L232.287 169.516L224.093 139.271L237.196 135.727C245.283 133.54 251.479 136.364 253.317 143.146C253.953 145.164 253.944 147.33 253.292 149.343C252.639 151.356 251.376 153.116 249.676 154.379L259.1 162.264L251.575 164.299ZM238.352 141.536L232.645 143.08L235.5 153.622L241.209 152.079C245.49 150.921 247.114 148.348 246.224 145.064C245.323 141.737 242.634 140.378 238.352 141.536Z" fill="#407BFF"/>
<path d="M351.893 214.531L388.936 211.846C388.936 211.846 389.048 211.333 389.255 210.399C390.47 204.692 394.805 183.27 394.126 169.642C394.059 167.217 393.687 164.809 393.018 162.476C388.489 148.427 344.072 120.101 344.072 120.101L341.909 137.148L368.026 169.82C360.002 187.838 351.893 214.531 351.893 214.531Z" fill="#407BFF"/>
<path opacity="0.7" d="M351.893 214.531L388.936 211.846C388.936 211.846 389.048 211.333 389.255 210.399C390.47 204.692 394.805 183.27 394.126 169.642C394.059 167.217 393.687 164.809 393.018 162.476C388.489 148.427 344.072 120.101 344.072 120.101L341.909 137.148L368.026 169.82C360.002 187.838 351.893 214.531 351.893 214.531Z" fill="white"/>
<path d="M322.033 261.29C317.415 264.459 312.738 267.857 308.134 271.096C305.847 272.753 303.535 274.342 301.269 275.907C299.027 277.462 296.714 278.967 294.695 280.169C294.206 280.463 293.713 280.749 293.338 280.95C292.923 281.187 292.679 281.282 292.747 281.327C292.884 281.294 293.024 281.276 293.165 281.275L293.271 281.277L293.156 281.299L292.919 281.345L291.97 281.528L290.011 281.884C287.348 282.37 284.558 282.761 281.749 283.224C276.128 284.123 270.347 284.988 264.624 286.269L264.526 286.291C263.362 286.552 262.319 287.197 261.567 288.122C260.815 289.047 260.397 290.199 260.38 291.391C260.364 292.583 260.75 293.746 261.476 294.692C262.203 295.637 263.227 296.311 264.383 296.604C270.238 298.039 276.193 299.027 282.197 299.559C285.21 299.858 288.24 300.007 291.385 300.062C292.182 300.074 292.951 300.081 293.777 300.046L295.001 300.007L295.307 299.997L295.464 299.991L295.838 299.943C296.337 299.874 296.838 299.788 297.329 299.687C298.525 299.405 299.701 299.042 300.848 298.601C301.816 298.239 302.633 297.887 303.445 297.53C306.623 296.102 309.302 294.596 312.007 293.085C314.677 291.562 317.238 289.963 319.78 288.369C324.831 285.097 329.672 281.784 334.447 278.075C336.591 276.41 338.001 273.977 338.38 271.291C338.759 268.605 338.077 265.878 336.477 263.686C334.878 261.494 332.488 260.01 329.812 259.548C327.137 259.087 324.387 259.684 322.145 261.213L322.033 261.29Z" fill="#407BFF"/>
<path opacity="0.7" d="M322.033 261.29C317.415 264.459 312.738 267.857 308.134 271.096C305.847 272.753 303.535 274.342 301.269 275.907C299.027 277.462 296.714 278.967 294.695 280.169C294.206 280.463 293.713 280.749 293.338 280.95C292.923 281.187 292.679 281.282 292.747 281.327C292.884 281.294 293.024 281.276 293.165 281.275L293.271 281.277L293.156 281.299L292.919 281.345L291.97 281.528L290.011 281.884C287.348 282.37 284.558 282.761 281.749 283.224C276.128 284.123 270.347 284.988 264.624 286.269L264.526 286.291C263.362 286.552 262.319 287.197 261.567 288.122C260.815 289.047 260.397 290.199 260.38 291.391C260.364 292.583 260.75 293.746 261.476 294.692C262.203 295.637 263.227 296.311 264.383 296.604C270.238 298.039 276.193 299.027 282.197 299.559C285.21 299.858 288.24 300.007 291.385 300.062C292.182 300.074 292.951 300.081 293.777 300.046L295.001 300.007L295.307 299.997L295.464 299.991L295.838 299.943C296.337 299.874 296.838 299.788 297.329 299.687C298.525 299.405 299.701 299.042 300.848 298.601C301.816 298.239 302.633 297.887 303.445 297.53C306.623 296.102 309.302 294.596 312.007 293.085C314.677 291.562 317.238 289.963 319.78 288.369C324.831 285.097 329.672 281.784 334.447 278.075C336.591 276.41 338.001 273.977 338.38 271.291C338.759 268.605 338.077 265.878 336.477 263.686C334.878 261.494 332.488 260.01 329.812 259.548C327.137 259.087 324.387 259.684 322.145 261.213L322.033 261.29Z" fill="white"/>
<path d="M292.747 281.327C292.747 281.327 300.256 292.605 298.557 299.364L300.848 298.6C300.848 298.6 300.221 286.168 293.338 280.949L292.747 281.327Z" fill="#407BFF"/>
<path d="M262.326 286.823L252.267 288.076L258.333 297.533C258.333 297.533 267.241 295.874 266.192 291.326L262.326 286.823Z" fill="#407BFF"/>
<path d="M244.403 294.314L252.382 300.677L258.333 297.533L252.266 288.076L244.403 294.314Z" fill="#407BFF"/>
<g opacity="0.5">
<path opacity="0.5" d="M262.326 286.823L252.267 288.076L258.333 297.533C258.333 297.533 267.241 295.874 266.192 291.326L262.326 286.823Z" fill="white"/>
<path opacity="0.5" d="M244.403 294.313L252.382 300.676L258.333 297.533L252.266 288.075L244.403 294.313Z" fill="white"/>
</g>
<path d="M262.326 286.823C262.326 286.823 266.449 291.846 263.029 296.05L264.384 296.603C264.384 296.603 269.851 293.141 264.624 286.269L262.326 286.823Z" fill="#407BFF"/>
<path opacity="0.4" d="M292.747 281.327C292.747 281.327 300.256 292.605 298.557 299.364L300.848 298.6C300.848 298.6 300.221 286.168 293.338 280.949L292.747 281.327Z" fill="white"/>
<path opacity="0.4" d="M262.326 286.823C262.326 286.823 266.449 291.846 263.029 296.05L264.384 296.603C264.384 296.603 269.851 293.141 264.624 286.269L262.326 286.823Z" fill="white"/>
<path d="M346.241 125.805L344.541 135.664C344.505 136.154 342.415 137.184 341.923 137.149L341.909 137.147L330.735 136.517C330.154 136.448 329.624 136.154 329.26 135.697C328.895 135.241 328.726 134.659 328.787 134.079C329.446 129.205 330.003 126.911 330.782 120.759C331.24 116.98 331.788 109.47 333.227 104.403C334.667 99.3368 339.641 100.895 339.479 103.166C339.117 108.557 341.727 116.259 344.072 120.101C344.47 120.772 346.338 125.03 346.241 125.805Z" fill="#407BFF"/>
<path opacity="0.5" d="M347.208 126.423L343.804 136.533C343.768 137.023 342.415 137.184 341.923 137.149L341.909 137.148L330.735 136.517C330.154 136.448 329.624 136.154 329.26 135.697C328.895 135.241 328.726 134.659 328.787 134.079C329.446 129.205 330.003 126.911 330.782 120.759C331.24 116.98 331.788 109.47 333.227 104.403C334.667 99.3368 339.641 100.895 339.479 103.166C339.117 108.557 341.727 116.259 344.072 120.101C344.47 120.772 347.305 125.649 347.208 126.423Z" fill="white"/>
<path opacity="0.1" d="M389.255 210.399C390.47 204.692 394.805 183.27 394.127 169.642C390.805 175.259 383.382 189.249 382.162 203.719C381.556 210.91 384.827 212.388 389.255 210.399Z" fill="black"/>
<path d="M354.08 220.372C354.08 220.372 357.151 198.342 380.303 194.291C380.303 194.291 396.984 173.034 417.965 151.695L406.751 93.2958L418.877 87.1802C418.877 87.1802 444.645 130.975 440.834 159.581C437.023 188.187 394.638 228.768 394.638 228.768L354.08 220.372Z" fill="#407BFF"/>
<path opacity="0.7" d="M354.08 220.372C354.08 220.372 357.151 198.342 380.303 194.291C380.303 194.291 396.984 173.034 417.965 151.695L406.751 93.2958L418.877 87.1802C418.877 87.1802 444.645 130.975 440.834 159.581C437.023 188.187 394.638 228.768 394.638 228.768L354.08 220.372Z" fill="white"/>
<path d="M392.843 197.543C392.838 199.546 392.074 201.472 390.705 202.935C389.335 204.398 387.462 205.288 385.462 205.427L357.632 207.363C355.856 207.485 354.091 207.005 352.622 206.001C351.152 204.998 350.064 203.53 349.532 201.833C349.343 201.242 349.227 200.631 349.183 200.012C349.172 199.827 349.16 199.641 349.16 199.456C349.162 197.454 349.924 195.528 351.292 194.064C352.659 192.601 354.531 191.711 356.53 191.572L384.371 189.635C386.466 189.494 388.532 190.189 390.116 191.567C391.699 192.944 392.672 194.893 392.82 196.986C392.831 197.172 392.843 197.357 392.843 197.543Z" fill="#407BFF"/>
<path opacity="0.2" d="M391.508 195.015C391.504 197.016 390.742 198.942 389.375 200.404C388.008 201.867 386.137 202.758 384.139 202.9L356.298 204.836C355.01 204.925 353.72 204.699 352.541 204.175C351.361 203.652 350.328 202.847 349.532 201.833C349.343 201.242 349.227 200.631 349.183 200.012C349.172 199.827 349.16 199.641 349.16 199.456C349.162 197.454 349.924 195.528 351.292 194.065C352.659 192.602 354.531 191.711 356.53 191.572L384.371 189.635C385.659 189.546 386.948 189.773 388.128 190.296C389.307 190.82 390.34 191.624 391.137 192.638C391.325 193.229 391.442 193.84 391.485 194.459C391.497 194.644 391.508 194.83 391.508 195.015Z" fill="white"/>
<path d="M397.074 230.957C396.998 226.754 395.592 222.682 393.057 219.327C390.522 215.971 386.989 213.504 382.964 212.279C368.426 207.298 370.535 225.365 370.535 225.365L396.463 232.026L397.074 230.957Z" fill="#407BFF"/>
<path opacity="0.4" d="M397.074 230.957C396.998 226.754 395.592 222.682 393.057 219.327C390.522 215.971 386.989 213.504 382.964 212.279C368.426 207.298 370.535 225.365 370.535 225.365L396.463 232.026L397.074 230.957Z" fill="white"/>
<path d="M378.568 213.436C378.568 213.436 393.232 216.941 396.185 228.908C399.138 240.874 378.591 267.165 370.044 271.829C361.496 276.493 327.292 280.959 323.231 276.071C309.244 259.234 339.242 231.954 349.571 225.26C359.901 218.565 378.568 213.436 378.568 213.436Z" fill="#407BFF"/>
<path opacity="0.7" d="M323.233 276.075C323.425 276.297 323.651 276.488 323.903 276.641C326.568 278.331 333.919 278.505 342.109 277.808C352.396 276.922 364.01 274.648 369.203 272.236C369.51 272.097 369.781 271.958 370.04 271.824C376.648 268.227 390.415 251.717 394.976 238.883C396.322 235.099 396.857 231.631 396.186 228.911C393.228 216.944 378.569 213.436 378.569 213.436C378.569 213.436 359.898 218.57 349.569 225.266C339.246 231.947 309.242 259.232 323.233 276.075Z" fill="white"/>
<path opacity="0.1" d="M323.903 276.641C326.568 278.331 333.919 278.505 342.109 277.808C358.999 259.647 349.363 245.695 349.363 245.695C335.148 244.398 325.152 263.931 323.903 276.641Z" fill="black"/>
<path d="M389.254 210.399C389.254 210.399 386.781 197.745 383.935 196.196C381.09 194.647 350.026 197.443 346.05 198.929C342.074 200.416 320.639 219.172 319.201 224.458C317.764 229.745 324.259 243.449 324.259 243.449C324.259 243.449 346.45 247.879 355.496 244.109C364.541 240.338 386.929 217.339 389.254 210.399Z" fill="#407BFF"/>
<path opacity="0.5" d="M324.262 243.454C324.262 243.454 346.449 247.874 355.497 244.108C364.545 240.342 386.933 217.341 389.252 210.396C389.252 210.396 386.78 197.739 383.932 196.192C381.085 194.644 350.027 197.439 346.049 198.926C342.07 200.413 320.633 219.172 319.206 224.459C318.899 226.069 318.94 227.725 319.327 229.316C320.471 235.45 324.262 243.454 324.262 243.454Z" fill="white"/>
<path opacity="0.2" d="M319.327 229.316C322.326 229.879 341.839 233.38 350.178 229.904C359.221 226.127 381.614 203.137 383.932 196.192C381.085 194.644 350.027 197.439 346.049 198.926C342.07 200.413 320.633 219.172 319.206 224.459C318.899 226.069 318.94 227.725 319.327 229.316Z" fill="white"/>
<path d="M339.264 273.921C351.29 263.42 352.519 245.168 342.008 233.153C331.498 221.139 313.229 219.911 301.203 230.411C289.177 240.912 287.948 259.164 298.459 271.179C308.969 283.194 327.238 284.421 339.264 273.921Z" fill="#263238"/>
<path opacity="0.7" d="M339.264 273.921C351.29 263.42 352.519 245.168 342.008 233.153C331.498 221.139 313.229 219.911 301.203 230.411C289.177 240.912 287.948 259.164 298.459 271.179C308.969 283.194 327.238 284.421 339.264 273.921Z" fill="white"/>
<path opacity="0.2" d="M329.961 278.14C335.103 276.218 339.558 272.816 342.765 268.364C345.972 263.911 347.785 258.609 347.975 253.128C348.165 247.646 346.724 242.231 343.834 237.568C340.944 232.904 336.735 229.201 331.739 226.928C326.743 224.655 321.184 223.912 315.765 224.795C310.347 225.678 305.312 228.146 301.298 231.888C297.284 235.63 294.47 240.476 293.213 245.816C291.956 251.155 292.311 256.747 294.235 261.884C296.822 268.767 302.036 274.344 308.733 277.392C315.431 280.44 323.065 280.709 329.961 278.14Z" fill="black"/>
<path opacity="0.3" d="M348.634 260.03C351.418 248.859 346.908 238.12 338.562 236.044C330.215 233.968 321.192 241.341 318.409 252.512C315.625 263.683 320.134 274.422 328.481 276.498C336.827 278.574 345.85 271.201 348.634 260.03Z" fill="black"/>
<path d="M324.197 266.683C324.197 266.683 329.609 272.006 331.221 270.669C332.834 269.332 335.955 273.44 338.564 271.108C341.174 268.775 346.292 261.975 343.713 255.573C341.133 249.17 324.728 257.098 324.197 266.683Z" fill="#263238"/>
<path opacity="0.8" d="M324.198 266.677C324.198 266.677 329.614 272.006 331.222 270.675C331.464 270.508 331.746 270.409 332.039 270.389C332.333 270.368 332.626 270.427 332.889 270.559C334.536 271.119 336.686 272.792 338.561 271.113C341.178 268.773 346.289 261.972 343.706 255.572C342.604 252.827 338.957 252.717 335.105 254.244C334.065 254.654 333.062 255.153 332.108 255.735C328.185 258.13 324.696 261.984 324.233 266.206C324.216 266.361 324.204 266.526 324.198 266.677Z" fill="white"/>
<path opacity="0.2" d="M324.198 266.677C324.198 266.677 329.614 272.006 331.222 270.675C331.464 270.508 331.746 270.409 332.039 270.389C332.333 270.368 332.626 270.427 332.889 270.559C339.337 266.701 336.406 257.484 335.105 254.244C334.065 254.654 333.062 255.154 332.108 255.736C329.102 258.923 326.461 262.435 324.232 266.206C324.216 266.361 324.204 266.526 324.198 266.677Z" fill="black"/>
<path d="M312.593 266.246C312.788 266.267 312.985 266.272 313.181 266.262C318.732 265.995 317.19 254.897 314.496 248.563C313.296 245.756 311.673 244.468 310.198 244.4C308.325 244.296 306.681 246.124 306.371 249.235C306.16 251.32 307.532 254.187 307.306 255.571C307.101 256.91 307.606 265.833 312.593 266.246Z" fill="#263238"/>
<path opacity="0.9" d="M312.593 266.246C312.788 266.267 312.985 266.272 313.181 266.262C318.732 265.995 317.19 254.897 314.496 248.563C313.296 245.756 311.673 244.468 310.198 244.4C308.325 244.296 306.681 246.124 306.371 249.235C306.16 251.32 307.532 254.187 307.306 255.571C307.101 256.91 307.606 265.833 312.593 266.246Z" fill="white"/>
<path opacity="0.2" d="M312.593 266.247C312.789 266.267 312.985 266.272 313.181 266.262C318.732 265.995 317.19 254.897 314.496 248.563C313.296 245.756 311.673 244.468 310.198 244.4C309.773 244.695 309.375 245.026 309.008 245.39C307.165 247.218 309.03 254.283 308.958 256.142C308.879 257.818 309.513 263.449 312.593 266.247Z" fill="black"/>
<path d="M332.433 247.482C334.569 255.852 336.247 260.647 333.433 266.157C329.199 274.445 317.794 273.847 313.185 266.261C309.037 259.432 306.241 246.89 313.273 241.113C314.831 239.834 316.689 238.97 318.672 238.602C320.655 238.235 322.699 238.376 324.613 239.012C326.527 239.648 328.248 240.759 329.616 242.24C330.984 243.721 331.953 245.524 332.433 247.482Z" fill="#EBB376"/>
<path d="M320.645 253.665C320.86 254.334 320.678 254.986 320.238 255.123C319.799 255.259 319.268 254.828 319.053 254.159C318.838 253.49 319.02 252.837 319.459 252.701C319.899 252.565 320.429 252.996 320.645 253.665Z" fill="#263238"/>
<path d="M313.044 256.024C313.259 256.692 313.077 257.345 312.637 257.482C312.198 257.618 311.667 257.186 311.452 256.518C311.237 255.849 311.418 255.196 311.858 255.06C312.298 254.923 312.828 255.355 313.044 256.024Z" fill="#263238"/>
<path d="M315.568 255.607C315.376 257.842 314.874 260.04 314.077 262.138C314.639 262.303 315.23 262.348 315.81 262.269C316.391 262.191 316.948 261.992 317.446 261.684L315.568 255.607Z" fill="#D58745"/>
<path d="M318.483 249.233C318.549 249.2 318.622 249.185 318.695 249.189C318.769 249.194 318.84 249.218 318.901 249.258C319.327 249.558 319.817 249.753 320.332 249.829C320.847 249.905 321.373 249.859 321.867 249.695C321.969 249.653 322.083 249.652 322.185 249.692C322.287 249.733 322.369 249.812 322.413 249.912C322.435 249.962 322.446 250.015 322.447 250.069C322.448 250.123 322.438 250.177 322.418 250.227C322.398 250.277 322.368 250.323 322.33 250.361C322.293 250.4 322.248 250.431 322.198 250.452C321.577 250.671 320.912 250.739 320.259 250.65C319.606 250.562 318.984 250.319 318.444 249.941C318.399 249.912 318.36 249.874 318.329 249.829C318.299 249.784 318.277 249.734 318.266 249.681C318.255 249.628 318.255 249.573 318.265 249.52C318.275 249.467 318.296 249.416 318.326 249.371C318.365 249.312 318.42 249.264 318.483 249.233Z" fill="#263238"/>
<path d="M310.717 251.047C310.789 251.026 310.865 251.024 310.937 251.043C311.01 251.061 311.076 251.099 311.129 251.151C311.182 251.204 311.22 251.27 311.238 251.342C311.257 251.415 311.256 251.491 311.235 251.563C311.061 252.192 310.738 252.77 310.293 253.248C309.848 253.726 309.294 254.09 308.679 254.31C308.573 254.34 308.46 254.327 308.363 254.274C308.267 254.221 308.195 254.133 308.164 254.028C308.148 253.976 308.143 253.922 308.149 253.869C308.154 253.815 308.17 253.763 308.196 253.716C308.221 253.669 308.256 253.627 308.298 253.593C308.34 253.559 308.388 253.534 308.439 253.519C308.927 253.343 309.365 253.051 309.714 252.668C310.062 252.285 310.312 251.823 310.441 251.321C310.46 251.256 310.496 251.197 310.544 251.149C310.592 251.101 310.652 251.066 310.717 251.047Z" fill="#263238"/>
<path d="M323.745 265.861C323.56 265.991 323.35 266.111 323.14 266.231L319.074 264.161C319.074 264.161 319.218 263.934 319.473 263.597C320.306 262.433 322.318 259.96 324.139 260.172C324.345 260.203 324.548 260.254 324.745 260.323C325.47 260.554 326.088 261.037 326.488 261.683C327.002 262.655 326.643 264.077 323.745 265.861Z" fill="#263238"/>
<path d="M324.745 260.323L319.995 263.773L319.473 263.597C320.306 262.433 322.318 259.96 324.139 260.172C324.345 260.203 324.548 260.254 324.745 260.323Z" fill="white"/>
<path d="M323.745 265.861C322.964 264.158 325.087 262.492 326.488 261.683C327.002 262.654 326.643 264.077 323.745 265.861Z" fill="#DE5753"/>
<path d="M332.433 259.789C332.433 259.789 329.148 266.103 327.866 267.48C326.584 268.857 322.617 270.176 322.617 270.176" stroke="#263238" stroke-miterlimit="10"/>
<path d="M322.852 270.945L324.07 270.49C324.172 270.452 324.264 270.395 324.343 270.321C324.422 270.248 324.486 270.159 324.531 270.061C324.576 269.963 324.601 269.857 324.604 269.749C324.608 269.641 324.59 269.533 324.553 269.432C324.515 269.331 324.457 269.239 324.384 269.16C324.31 269.081 324.221 269.017 324.123 268.972C324.025 268.928 323.919 268.903 323.811 268.899C323.703 268.895 323.595 268.913 323.494 268.951L322.276 269.406C322.174 269.444 322.082 269.501 322.003 269.575C321.924 269.648 321.86 269.737 321.815 269.835C321.77 269.933 321.745 270.039 321.742 270.147C321.738 270.255 321.756 270.363 321.793 270.464C321.87 270.668 322.024 270.833 322.223 270.924C322.421 271.014 322.648 271.022 322.852 270.945Z" fill="#263238"/>
<path d="M337.806 253.306C337.806 254.378 337.594 255.44 337.18 256.43C336.767 257.42 336.161 258.318 335.398 259.073C333.338 261.077 330.908 259.567 330.309 256.906C329.769 254.511 330.191 250.582 332.823 249.583C333.403 249.375 334.025 249.315 334.635 249.406C335.244 249.498 335.822 249.738 336.315 250.107C336.809 250.476 337.203 250.961 337.463 251.519C337.723 252.077 337.841 252.691 337.806 253.306Z" fill="#EBB376"/>
<path d="M313.541 244.03C316.097 243.213 322.77 242.094 324.258 243.45C325.747 244.805 328.838 261.036 332.162 261.997C335.486 262.958 341.329 257.508 340.836 252.592C340.63 249.795 339.36 247.182 337.285 245.292C337.285 245.292 336.409 232.372 322.934 233.368C309.459 234.365 306.191 245.381 306.367 249.233C308.138 246.775 310.653 244.951 313.541 244.03Z" fill="#263238"/>
<path opacity="0.9" d="M313.541 244.03C316.097 243.213 322.77 242.094 324.258 243.45C325.747 244.805 328.838 261.036 332.162 261.997C335.486 262.958 341.329 257.508 340.836 252.592C340.63 249.795 339.36 247.182 337.285 245.292C337.285 245.292 336.409 232.372 322.934 233.368C309.459 234.365 306.191 245.381 306.367 249.233C308.138 246.775 310.653 244.951 313.541 244.03Z" fill="white"/>
<path d="M303.15 227.704L304.935 227.216C310.035 224.075 315.888 222.368 321.877 222.275C332.251 221.963 347.542 231.348 350.128 249.542C350.228 250.246 350.296 250.875 350.35 251.471C350.411 251.996 350.446 252.524 350.453 253.053C350.453 253.073 350.452 253.093 350.452 253.113C350.475 253.775 350.448 254.437 350.371 255.095C349.419 266.028 340.32 274.268 340.32 274.268C336.892 277.463 332.872 279.957 328.485 281.609L326.44 280.385C345.086 272.896 342.247 252.49 342.246 252.489L335.912 240.511C335.912 240.511 318.958 221.256 298.957 232.591L298.136 231.874C299.674 230.331 301.352 228.935 303.15 227.704Z" fill="#407BFF"/>
<path opacity="0.7" d="M298.142 231.875L298.954 232.587C318.961 221.258 335.91 240.511 335.91 240.511L342.243 252.492C342.243 252.492 345.089 272.894 326.444 280.383L328.49 281.612C330.327 280.917 332.104 280.074 333.805 279.093C336.177 277.771 338.368 276.149 340.324 274.267C340.324 274.267 349.419 266.027 350.369 255.099C350.449 254.44 350.477 253.775 350.455 253.111C350.45 253.09 350.451 253.069 350.457 253.049C350.451 252.506 350.403 251.979 350.348 251.468C350.301 250.879 350.226 250.25 350.123 249.546C347.546 231.346 332.247 221.961 321.88 222.271C315.935 222.377 310.125 224.057 305.043 227.141C304.975 227.191 304.936 227.218 304.936 227.218L303.147 227.702C301.354 228.936 299.678 230.333 298.142 231.875Z" fill="white"/>
<path opacity="0.2" d="M298.142 231.875L298.954 232.587C318.961 221.258 335.91 240.511 335.91 240.511L342.243 252.492C342.243 252.492 345.089 272.894 326.444 280.383L328.49 281.612C330.327 280.917 332.104 280.074 333.805 279.093C338.816 274.607 347.143 260.712 343.423 253.128C341.183 248.585 339.402 243.83 338.108 238.934C338.108 238.934 323.131 222.534 305.043 227.141C304.421 227.3 303.785 227.488 303.147 227.702C301.354 228.936 299.678 230.333 298.142 231.875Z" fill="black"/>
<path d="M337.072 239.173C339.069 238.426 341.384 239.226 343.333 241.056C345.242 242.064 346.714 243.736 347.47 245.755C348.227 247.775 348.215 250.002 347.437 252.014C347.169 254.673 345.948 256.794 343.951 257.541C340.591 258.797 336.327 255.703 334.428 250.631C332.528 245.559 333.712 240.429 337.072 239.173Z" fill="#407BFF"/>
<path opacity="0.5" d="M337.072 239.173C339.069 238.426 341.384 239.226 343.333 241.056C345.242 242.064 346.714 243.736 347.47 245.755C348.227 247.775 348.215 250.002 347.437 252.014C347.169 254.673 345.948 256.794 343.951 257.541C340.591 258.797 336.327 255.703 334.428 250.631C332.528 245.559 333.712 240.429 337.072 239.173Z" fill="white"/>
<path opacity="0.2" d="M339.054 248.902C340.368 252.41 343.317 254.551 345.642 253.682C347.966 252.813 348.784 249.264 347.47 245.756C346.156 242.247 343.207 240.107 340.883 240.976C338.559 241.844 337.74 245.393 339.054 248.902Z" fill="white"/>
<path opacity="0.2" d="M297.888 240.029C299.93 240.304 301.946 240.742 303.917 241.341C306.357 237.959 309.352 235.015 312.775 232.632C312.775 232.632 309.671 231.167 303.728 232.535C301.335 234.652 299.355 237.193 297.888 240.029Z" fill="white"/>
<path opacity="0.2" d="M296.469 261.654C296.984 255.051 299.127 248.679 302.707 243.105C300.797 242.272 298.951 241.513 297.458 240.933C294.924 246.411 293.066 253.988 296.469 261.654Z" fill="white"/>
<path d="M420.098 89.6901L408.241 97.3213C408.048 97.458 407.809 97.5126 407.575 97.4731C407.342 97.4336 407.135 97.3032 406.998 97.1106L406.989 97.0985L400.362 88.0881C400.046 87.5973 399.936 87.0015 400.056 86.4301C400.176 85.8586 400.517 85.3576 401.004 85.0355C405.185 82.4401 407.311 81.4092 412.555 78.092C415.764 76.0396 421.909 71.6799 426.737 69.5634C431.564 67.4474 433.528 72.2716 431.671 73.5921C427.28 76.7462 422.997 83.6602 421.525 87.9124C421.26 88.6466 420.758 89.272 420.098 89.6901Z" fill="#407BFF"/>
<path opacity="0.5" d="M420.098 89.6901L408.241 97.3213C408.048 97.458 407.809 97.5126 407.575 97.4731C407.342 97.4336 407.135 97.3032 406.998 97.1106L406.989 97.0985L400.362 88.0881C400.046 87.5973 399.936 87.0015 400.056 86.4301C400.176 85.8586 400.517 85.3576 401.004 85.0355C405.185 82.4401 407.311 81.4092 412.555 78.092C415.764 76.0396 421.909 71.6799 426.737 69.5634C431.564 67.4474 433.528 72.2716 431.671 73.5921C427.28 76.7462 422.997 83.6602 421.525 87.9124C421.26 88.6466 420.758 89.272 420.098 89.6901Z" fill="white"/>
<path d="M421.254 88.4849L422.162 90.9105L406.991 98.4446L406.231 96.4144L421.254 88.4849Z" fill="#407BFF"/>
<path d="M343.84 119.702C343.84 119.702 347.391 131.102 341.159 137.522L343.285 138.869C343.285 138.869 350.951 131.064 346.321 121.041L343.84 119.702Z" fill="#407BFF"/>
<path d="M417.2 152.476L417.663 150.119C417.663 150.119 427.666 143.329 441.147 150.673L441.173 155.637C441.173 155.637 429.727 147.69 417.2 152.476Z" fill="#407BFF"/>
<path d="M391.886 159.422C391.886 159.422 379.514 175.991 367.506 171.002L367.116 168.681C367.116 168.681 377.937 172.691 389.52 156.503L391.886 159.422Z" fill="#407BFF"/>
<path opacity="0.1" d="M369.203 272.236C369.51 272.097 369.781 271.958 370.04 271.824C376.649 268.227 390.415 251.717 394.976 238.883C387.972 240.758 370.219 245.897 364.677 251.15C358.12 257.364 361.332 270.177 369.203 272.236Z" fill="black"/>
<path opacity="0.4" d="M343.84 119.702C343.84 119.702 347.391 131.102 341.159 137.522L343.285 138.869C343.285 138.869 350.951 131.064 346.321 121.041L343.84 119.702Z" fill="white"/>
<path opacity="0.4" d="M391.886 159.422C391.886 159.422 379.514 175.991 367.506 171.002L367.116 168.681C367.116 168.681 377.937 172.691 389.52 156.503L391.886 159.422Z" fill="white"/>
<path opacity="0.4" d="M421.254 88.4849L422.162 90.9105L406.991 98.4446L406.231 96.4144L421.254 88.4849Z" fill="white"/>
<path opacity="0.4" d="M417.2 152.476L417.663 150.119C417.663 150.119 427.666 143.329 441.147 150.673L441.173 155.637C441.173 155.637 429.727 147.69 417.2 152.476Z" fill="white"/>
<path d="M381.711 214.531C381.711 214.531 410.801 240.8 389.255 252.676" stroke="#407BFF" stroke-width="3" stroke-linecap="round" stroke-linejoin="round"/>
<path d="M375.857 223.266C375.857 223.266 399.617 240.25 387.22 259.396" stroke="#407BFF" stroke-width="3" stroke-linecap="round" stroke-linejoin="round"/>
<path d="M369.994 271.331C375.459 270.093 381.063 268.666 386.539 267.359C389.278 266.665 392.014 266.044 394.699 265.428C397.358 264.812 400.064 264.269 402.385 263.899C402.948 263.807 403.512 263.724 403.934 263.676C404.408 263.609 404.67 263.611 404.624 263.544C404.484 263.524 404.347 263.489 404.216 263.438L404.118 263.396L404.233 263.418L404.47 263.464L405.419 263.645L407.371 264.038C410.026 264.571 412.762 265.239 415.543 265.848C421.098 267.091 426.789 268.424 432.581 269.35L432.679 269.366C433.857 269.555 435.065 269.341 436.106 268.759C437.148 268.178 437.963 267.262 438.42 266.161C438.877 265.06 438.949 263.837 438.624 262.69C438.3 261.543 437.598 260.538 436.632 259.839C431.725 256.34 426.559 253.221 421.177 250.507C418.489 249.116 415.729 247.857 412.829 246.643C412.092 246.337 411.381 246.046 410.6 245.773L409.449 245.357L409.16 245.253L409.013 245.2L408.647 245.107C408.159 244.987 407.661 244.881 407.167 244.793C405.952 244.613 404.725 244.515 403.496 244.501C402.463 244.479 401.573 244.504 400.686 244.536C397.206 244.688 394.159 245.096 391.086 245.499C388.042 245.927 385.07 246.466 382.118 247.007C376.214 248.179 370.489 249.467 364.679 251.147C362.071 251.902 359.86 253.64 358.513 255.995C357.166 258.35 356.789 261.137 357.463 263.764C358.137 266.392 359.808 268.654 362.122 270.072C364.436 271.49 367.212 271.952 369.862 271.361L369.994 271.331Z" fill="#407BFF"/>
<path opacity="0.7" d="M369.994 271.331C375.459 270.093 381.063 268.666 386.539 267.359C389.278 266.665 392.014 266.044 394.699 265.428C397.358 264.812 400.064 264.269 402.385 263.899C402.948 263.807 403.512 263.724 403.934 263.676C404.408 263.609 404.67 263.611 404.624 263.544C404.484 263.524 404.347 263.489 404.216 263.438L404.118 263.396L404.233 263.418L404.47 263.464L405.419 263.645L407.371 264.038C410.026 264.571 412.762 265.239 415.543 265.848C421.098 267.091 426.789 268.424 432.581 269.35L432.679 269.366C433.857 269.555 435.065 269.341 436.106 268.759C437.148 268.178 437.963 267.262 438.42 266.161C438.877 265.06 438.949 263.837 438.624 262.69C438.3 261.543 437.598 260.538 436.632 259.839C431.725 256.34 426.559 253.221 421.177 250.507C418.489 249.116 415.729 247.857 412.829 246.643C412.092 246.337 411.381 246.046 410.6 245.773L409.449 245.357L409.16 245.253L409.013 245.2L408.647 245.107C408.159 244.987 407.661 244.881 407.167 244.793C405.952 244.613 404.725 244.515 403.496 244.501C402.463 244.479 401.573 244.504 400.686 244.536C397.206 244.688 394.159 245.096 391.086 245.499C388.042 245.927 385.07 246.466 382.118 247.007C376.214 248.179 370.489 249.467 364.679 251.147C362.071 251.902 359.86 253.64 358.513 255.995C357.166 258.35 356.789 261.137 357.463 263.764C358.137 266.392 359.808 268.654 362.122 270.072C364.436 271.49 367.212 271.952 369.862 271.361L369.994 271.331Z" fill="white"/>
<path d="M434.858 261.122L444.953 260.198L441.05 270.732C441.05 270.732 431.993 271.013 432.044 266.346L434.858 261.122Z" fill="#407BFF"/>
<path d="M453.969 264.612L447.535 272.532L441.05 270.732L444.953 260.197L453.969 264.612Z" fill="#407BFF"/>
<g opacity="0.5">
<path opacity="0.5" d="M434.858 261.122L444.953 260.198L441.05 270.732C441.05 270.732 431.993 271.013 432.044 266.346L434.858 261.122Z" fill="white"/>
<path opacity="0.5" d="M453.969 264.612L447.535 272.532L441.05 270.732L444.953 260.197L453.969 264.612Z" fill="white"/>
</g>
<path d="M437.949 260.839C437.949 260.839 432.408 263.738 434.063 269.405L431.698 269.205C431.698 269.205 428.865 263.643 436.632 259.838L437.949 260.839Z" fill="#407BFF"/>
<path d="M367.095 250.211C367.095 250.211 351.625 262.839 368.723 271.548L366.705 272.302C366.705 272.302 357.363 271.886 357.144 261.492C356.93 251.354 367.095 250.211 367.095 250.211Z" fill="#407BFF"/>
<path d="M407.167 244.793C407.167 244.793 401.833 251.678 404.624 263.544L403.211 263.771C402.306 260.583 402.043 257.246 402.438 253.956C402.833 250.665 403.878 247.486 405.513 244.602L407.167 244.793Z" fill="#407BFF"/>
<path opacity="0.4" d="M437.949 260.839C437.949 260.839 432.408 263.738 434.063 269.405L431.698 269.205C431.698 269.205 428.865 263.643 436.632 259.838L437.949 260.839Z" fill="white"/>
<path opacity="0.4" d="M367.095 250.211C367.095 250.211 351.625 262.839 368.723 271.548L366.705 272.302C366.705 272.302 357.363 271.886 357.144 261.492C356.93 251.354 367.095 250.211 367.095 250.211Z" fill="white"/>
<path opacity="0.4" d="M407.167 244.793C407.167 244.793 401.833 251.678 404.624 263.544L403.211 263.771C402.306 260.583 402.043 257.246 402.438 253.956C402.833 250.665 403.878 247.486 405.513 244.602L407.167 244.793Z" fill="white"/>
<path d="M374.942 200.789L351.465 223.271H343.26L367.12 200.789C367.12 200.789 371.844 197.694 374.942 200.789Z" fill="#407BFF"/>
<path opacity="0.2" d="M374.942 200.789L351.465 223.271C350.344 222.248 348.881 221.681 347.362 221.681C345.844 221.681 344.381 222.248 343.26 223.271L367.12 200.789C367.12 200.789 371.844 197.694 374.942 200.789Z" fill="white"/>
<path d="M348.912 202.795C348.538 203.044 348.142 203.258 347.728 203.433C347.036 203.726 346.297 203.89 345.546 203.92C344.687 203.931 344.037 203.676 343.817 203.178C343.55 202.54 344.06 201.694 345.012 200.986C345.435 200.676 345.895 200.419 346.382 200.221C346.994 199.947 347.65 199.786 348.32 199.746C349.294 199.665 350.049 199.92 350.281 200.476C350.559 201.149 349.979 202.065 348.912 202.795Z" fill="#263238"/>
<path d="M289.812 114.561C289.812 114.561 292.643 114.102 293.638 112.42" stroke="white" stroke-width="0.5" stroke-miterlimit="10"/>
<path d="M289.812 115.937C292.035 114.617 294.512 113.784 297.081 113.491" stroke="white" stroke-width="0.5" stroke-miterlimit="10"/>
<path d="M294.862 115.554C294.862 115.554 293.332 114.714 289.812 116.395" stroke="white" stroke-width="0.5" stroke-miterlimit="10"/>
<path d="M348.912 202.795C348.538 203.045 348.142 203.258 347.728 203.433C347.036 203.726 346.297 203.891 345.546 203.92C345.442 203.166 345.279 202.146 345.012 200.987C344.277 197.213 342.542 193.705 339.987 190.83C332.235 182.934 322.939 182.308 313.098 181.658C303.686 181.032 293.949 180.383 285.14 173.299C276.158 166.075 271.666 152.533 273.674 138.793C275.485 126.468 282.007 116.903 291.14 113.181L292.451 116.404C284.479 119.65 278.745 128.207 277.121 139.303C275.287 151.837 279.291 164.116 287.322 170.586C295.272 176.986 304.046 177.565 313.33 178.18C323.38 178.852 333.79 179.548 342.482 188.395C345.39 191.602 347.403 195.517 348.32 199.746C348.599 200.894 348.784 201.937 348.912 202.795Z" fill="#263238"/>
<g opacity="0.5">
<path opacity="0.5" d="M348.912 202.795C348.538 203.045 348.142 203.258 347.728 203.433C347.036 203.726 346.297 203.891 345.546 203.92C345.442 203.166 345.279 202.146 345.012 200.987C344.277 197.213 342.542 193.705 339.987 190.83C332.235 182.934 322.939 182.308 313.098 181.658C303.686 181.032 293.949 180.383 285.14 173.299C276.158 166.075 271.666 152.533 273.674 138.793C275.485 126.468 282.007 116.903 291.14 113.181L292.451 116.404C284.479 119.65 278.745 128.207 277.121 139.303C275.287 151.837 279.291 164.116 287.322 170.586C295.272 176.986 304.046 177.565 313.33 178.18C323.38 178.852 333.79 179.548 342.482 188.395C345.39 191.602 347.403 195.517 348.32 199.746C348.599 200.894 348.784 201.937 348.912 202.795Z" fill="white"/>
</g>
<path d="M219.941 443.941C245.151 418.731 245.151 377.857 219.941 352.647C194.731 327.437 153.857 327.437 128.647 352.647C103.437 377.857 103.437 418.731 128.647 443.941C153.857 469.151 194.731 469.151 219.941 443.941Z" fill="#ECECEC"/>
<path d="M207.876 343.888C217.627 355.495 222.963 370.174 222.941 385.333C222.941 420.985 194.039 449.887 158.386 449.887C146.549 449.906 134.937 446.654 124.831 440.49C130.883 447.733 138.453 453.557 147.005 457.55C155.557 461.544 164.882 463.609 174.321 463.6C209.973 463.6 238.875 434.698 238.875 399.045C238.881 387.963 236.031 377.066 230.602 367.406C225.172 357.745 217.346 349.645 207.876 343.888Z" fill="#CECECE"/>
<path d="M171.34 460.102L171.255 459.329C171.281 459.326 173.992 458.989 177.181 456.24C180.139 453.691 184.123 448.49 186.307 438.192C190.995 416.094 185.287 398.591 185.229 398.417L185.967 398.17C186.025 398.347 191.799 416.051 187.068 438.354C184.829 448.908 180.703 454.25 177.636 456.874C174.273 459.751 171.458 460.089 171.34 460.102Z" fill="#878783"/>
<path d="M234.538 411.512C226.632 391.606 213.269 382.346 203.451 378.084C192.817 373.467 183.957 373.553 183.868 373.555L183.855 372.778C183.942 372.778 192.973 372.687 203.76 377.371C210.058 380.096 215.801 383.959 220.7 388.764C226.829 394.773 231.728 402.33 235.261 411.225L234.538 411.512Z" fill="#878783"/>
<path d="M185.23 371.354L184.604 370.894C187.329 367.178 191.767 359.786 196.059 352.638C198.814 348.05 201.415 343.717 203.408 340.619L204.062 341.039C202.076 344.127 199.477 348.456 196.725 353.038C192.424 360.201 187.977 367.608 185.23 371.354Z" fill="#878783"/>
<path d="M181.172 372.197C181.132 372.123 177.049 364.805 168.842 358.56C161.285 352.81 148.575 346.819 130.937 350.925L130.761 350.168C138.682 348.324 146.298 348.314 153.398 350.139C159.183 351.65 164.604 354.31 169.338 357.96C177.666 364.305 181.812 371.748 181.853 371.822L181.172 372.197Z" fill="#878783"/>
<path d="M119.997 432.698L119.234 432.549C128.232 386.679 162.329 383.41 176.889 382.014C178.481 381.861 179.856 381.729 180.908 381.567L181.027 382.335C179.953 382.501 178.568 382.634 176.964 382.788C162.576 384.167 128.883 387.397 119.997 432.698Z" fill="#878783"/>
<path d="M196.444 353.074L166.438 356.228L160.165 385.739L186.294 400.825L208.715 380.637L196.444 353.074Z" fill="#373735"/>
<path d="M122.689 359.504L139.995 349.29V343.595C133.751 347.641 127.197 353.609 122.689 359.504Z" fill="#373735"/>
<path d="M192.049 336.212L201.415 344.532L214.239 347.579C214.239 347.579 209.017 343.209 205.897 341.38C200.033 337.942 192.049 336.212 192.049 336.212Z" fill="#373735"/>
<path d="M167.485 453.568C149.233 453.568 132.43 436.97 129.249 432.862L129.863 432.386C132.998 436.434 149.547 452.79 167.485 452.79V453.568Z" fill="#878783"/>
<path d="M208.012 447.85L207.581 447.203C214.974 442.303 220.866 435.452 224.605 427.409L225.308 427.74C221.509 435.911 215.523 442.872 208.012 447.85Z" fill="#878783"/>
<path d="M235.344 397.628L234.59 397.439C236.27 390.753 234.691 380.696 230.258 369.848C226.525 360.713 220.225 353.106 218.561 351.307C220.906 353.294 227.177 360.252 230.978 369.554C235.472 380.552 237.063 390.785 235.344 397.628Z" fill="#878783"/>
<path d="M114.262 402.73C111.618 389.842 114.147 369.97 122.071 360.339C118.586 364.575 116.079 371.928 114.792 380.149C113.59 387.824 113.674 395.998 115.023 402.574L114.262 402.73Z" fill="#878783"/>
<path d="M123.017 438.273L135.236 437.883L132.169 402.652L113.689 397.533L109.739 402.652C109.739 414.909 115.732 431.116 123.017 438.273Z" fill="#373735"/>
<path d="M158.904 451.681L165.967 462.315C168.728 462.67 171.51 462.849 174.294 462.848C185.592 462.866 196.695 459.904 206.484 454.262L210.475 445.688L187.155 432.755L158.904 451.681Z" fill="#373735"/>
<path d="M222.143 432.756H228.886C235.412 422.447 238.867 410.494 238.849 398.294C238.849 398.04 238.852 395.007 238.849 394.753L235.716 392.029L225.865 394.52L222.143 432.756Z" fill="#373735"/>
<g opacity="0.55">
<path opacity="0.55" d="M138.513 356.678C132.706 362.849 128.989 371.184 129.261 379.652C129.407 384.189 130.792 388.869 134.016 392.064C137.239 395.26 142.54 396.564 146.495 394.338C148.863 393.005 150.469 390.659 151.817 388.3C154.499 383.607 156.557 378.466 160.19 374.463C165.547 368.56 173.758 365.771 178.842 359.632C180.959 357.076 182.476 353.537 181.223 350.463C178.699 344.277 165.97 343.352 160.369 344.117C152.439 345.201 143.872 350.983 138.513 356.678Z" fill="white"/>
</g>
<path d="M75 158C88.8071 144.193 88.8071 121.807 75 108C61.1929 94.1929 38.8071 94.1929 25 108C11.1929 121.807 11.1929 144.193 25 158C38.8071 171.807 61.1929 171.807 75 158Z" fill="#F76D2F"/>
<path d="M68.3921 102.791C73.7323 109.148 76.6545 117.188 76.6426 125.49C76.6426 145.016 60.8134 160.845 41.2873 160.845C34.8042 160.856 28.4443 159.074 22.9094 155.699C26.2241 159.665 30.3701 162.855 35.0539 165.042C39.7377 167.229 44.8449 168.36 50.0142 168.355C69.5404 168.355 85.3696 152.526 85.3696 133C85.3725 126.931 83.812 120.963 80.8383 115.672C77.8647 110.38 73.5782 105.945 68.3921 102.791Z" fill="#E0602D"/>
<path d="M50.1427 168.356C44.5165 166.876 41.6709 163.562 38.3246 156.824C35.2824 150.698 33.607 142.929 33.607 134.947C33.607 126.212 34.8677 118.302 37.2528 112.073C40.1885 104.405 44.9188 99.9896 50.9509 97.6453L52.8224 97.7564C47.1796 99.9496 41.3646 105.302 38.5783 112.58C36.2546 118.649 35.0263 126.384 35.0263 134.947C35.0263 148.672 40.5946 165.128 52.5319 168.268L50.1427 168.356Z" fill="#583A2A"/>
<path d="M46.2003 145.858C36.8066 145.858 27.3593 144.313 20.9476 141.619C16.3598 139.692 15.8313 138.766 14.9114 137.344L14.7057 135.096C14.7057 136.77 17.5932 138.671 21.4973 140.311C27.209 142.711 36.2818 144.448 46.1359 144.449C59.8338 144.449 75.5188 140.712 85.3199 131.106L85.3552 132.771C81.2882 136.757 76.5713 139.65 70.3845 141.907C64.9425 143.893 58.8393 145.148 52.2447 145.638C50.2538 145.786 48.2275 145.858 46.2003 145.858Z" fill="#583A2A"/>
<path d="M36.3315 131.105C34.6494 131.087 32.9738 130.891 31.3332 130.519C27.7172 129.738 25.2725 127.305 24.2629 123.481C23.4209 120.292 23.3885 116.172 24.7714 112.066C25.7407 109.189 27.0285 106.289 28.8273 104.683L30.9623 103.203C29.3811 104.614 27.1179 108.956 26.138 112.45C25.0513 116.324 24.868 120.213 25.6352 123.119C26.5117 126.439 28.5294 128.462 31.6326 129.131C33.1599 129.479 34.7198 129.663 36.2861 129.681C42.5238 129.681 45.3845 126.112 48.8413 121.801C51.2165 118.839 53.8406 115.373 58.1022 112.804C69.5614 105.897 73.6766 107.078 74.2037 107.215L75.5485 108.546C75.5169 108.531 70.2975 106.7 58.8662 114C54.8696 116.553 52.2552 119.813 49.9486 122.689C46.3738 127.147 43.1997 131.105 36.3315 131.105Z" fill="#583A2A"/>
<path d="M34.6769 164.935C32.0152 162.748 30.8662 159.912 31.8283 157.233C32.3012 155.916 33.7295 153.711 37.9819 153.711H38.0069C46.0676 153.727 49.2345 156.376 52.2971 158.937C54.367 160.669 56.3221 162.304 59.8144 162.992C65.6441 164.142 70.2022 162.023 70.2366 162.005L68.4333 163.231L66.861 164.091C66.7415 164.157 66.0639 164.452 63.6236 164.798C62.4303 164.967 61.0534 164.683 59.5398 164.385C55.6906 163.626 53.5027 161.796 51.3865 160.026C48.5177 157.626 45.551 155.145 38.0041 155.13H37.9819C35.4368 155.13 33.7711 156.023 33.164 157.713C32.4102 159.812 34.4087 163.927 36.5868 165.716L34.6769 164.935Z" fill="#583A2A"/>
<g opacity="0.18">
<path opacity="0.18" d="M28.9579 110.922C25.1676 114.949 22.7414 120.39 22.9188 125.918C23.0138 128.879 23.918 131.934 26.0222 134.02C28.1265 136.106 31.5864 136.957 34.1685 135.504C35.7139 134.634 36.7623 133.102 37.6421 131.563C39.3929 128.499 40.7365 125.144 43.1077 122.531C46.6043 118.678 51.9642 116.857 55.2829 112.85C56.6649 111.181 57.6549 108.871 56.8366 106.865C55.1895 102.826 46.8806 102.223 43.2246 102.722C38.0482 103.43 32.4561 107.204 28.9579 110.922Z" fill="white"/>
</g>
<path d="M258.75 33.75C264.963 27.5368 264.963 17.4632 258.75 11.25C252.537 5.0368 242.463 5.0368 236.25 11.25C230.037 17.4632 230.037 27.5368 236.25 33.75C242.463 39.9632 252.537 39.9632 258.75 33.75Z" fill="#E0EC44"/>
<g opacity="0.36">
<path opacity="0.36" d="M238.112 11.2248C236.502 12.7127 235.391 14.7971 235.308 16.9882C235.264 18.1621 235.536 19.3952 236.311 20.2786C237.085 21.162 238.43 21.5945 239.492 21.0913C240.127 20.7902 240.584 20.2135 240.975 19.629C241.752 18.466 242.376 17.1761 243.387 16.2084C244.876 14.7815 247.047 14.2101 248.47 12.7173C249.063 12.0956 249.519 11.2095 249.251 10.3933C248.711 8.75053 245.442 8.28145 243.982 8.37765C241.915 8.5139 239.599 9.85162 238.112 11.2248Z" fill="white"/>
</g>
<path d="M244.533 32.3364C243.78 32.335 243.029 32.2703 242.287 32.1427C240.42 31.8247 238.689 31.1433 237.281 30.1723C235.694 29.0782 234.596 27.6545 234.104 26.0553C232.819 21.8759 235.459 17.4133 237.581 13.8276C238.817 11.7379 240.227 9.30583 239.522 8.7406C239.522 8.7406 240.904 7.91164 240.992 7.97803C241.362 8.25695 241.483 9.62111 241.043 10.8157C240.632 11.9311 239.88 13.2018 239.01 14.6731C237.055 17.9773 234.622 22.0896 235.691 25.5673C236.434 27.9822 239.132 29.9207 242.566 30.5058C245.698 31.0396 248.513 30.3128 249.737 28.6542C251.56 26.1839 251.549 23.239 251.538 20.1213C251.531 18.3089 251.524 16.4348 251.909 14.6589C252.396 12.4156 253.916 10.9711 256.305 10.4813C256.803 10.3792 257.643 10.4102 258.071 10.5096C258.579 10.6279 259.471 12.0214 259.471 12.0214C259.46 12.0193 257.986 11.8221 256.597 12.1166C254.878 12.4812 253.876 13.428 253.532 15.0111C253.185 16.6099 253.192 18.3125 253.198 20.1151C253.21 23.3661 253.223 26.7277 251.073 29.6403C250.237 30.773 248.912 31.5943 247.241 32.0154C246.355 32.2332 245.445 32.341 244.533 32.3364Z" fill="#EAEAEA"/>
<path d="M255.77 8.90625C258.173 11.7669 259.488 15.3846 259.483 19.1206C259.483 27.9074 252.36 35.0306 243.573 35.0306C240.655 35.0351 237.793 34.2337 235.303 32.7146C236.794 34.4996 238.66 35.935 240.768 36.9192C242.875 37.9034 245.174 38.4124 247.5 38.4101C256.287 38.4101 263.41 31.287 263.41 22.5002C263.411 19.7689 262.709 17.0834 261.371 14.7024C260.033 12.3214 258.104 10.3252 255.77 8.90625Z" fill="#D8D844"/>
<path d="M257.788 12.0034C258.349 11.974 258.913 11.9918 259.472 12.0567C258.991 11.5086 258.474 10.9939 257.924 10.5163C257.583 10.465 257.239 10.4451 256.895 10.4567C257.221 10.9551 257.519 11.4715 257.788 12.0034Z" fill="#DBDBDB"/>
</svg>
