<svg width="21" height="24" viewBox="0 0 21 24" fill="none" xmlns="http://www.w3.org/2000/svg">
<path d="M14.2849 11.1284C15.8206 10.0084 16.8206 8.19581 16.8206 6.15384C16.8206 2.76061 14.06 0 10.6668 0C7.27354 0 4.51293 2.76061 4.51293 6.15384C4.51293 8.19581 5.51291 10.0084 7.04863 11.1284C3.23113 12.5892 0.512939 16.2905 0.512939 20.6154C0.512939 22.4817 2.03127 24 3.89755 24H17.436C19.3023 24 20.8206 22.4817 20.8206 20.6154C20.8206 16.2905 18.1024 12.5892 14.2849 11.1284ZM6.3591 6.15384C6.3591 3.77859 8.29152 1.84617 10.6668 1.84617C13.042 1.84617 14.9744 3.77859 14.9744 6.15384C14.9744 8.52909 13.042 10.4616 10.6668 10.4616C8.29152 10.4616 6.3591 8.52909 6.3591 6.15384ZM17.436 22.1538H3.89755C3.04925 22.1538 2.35911 21.4637 2.35911 20.6153C2.35911 16.0344 6.08586 12.3076 10.6668 12.3076C15.2478 12.3076 18.9745 16.0344 18.9745 20.6153C18.9745 21.4637 18.2843 22.1538 17.436 22.1538Z" fill="#18213A"/>
</svg>
