<svg width="25" height="24" viewBox="0 0 25 24" fill="none" xmlns="http://www.w3.org/2000/svg">
<path d="M8.00784 11.25H4.25782C4.05082 11.25 3.88281 11.418 3.88281 11.625V20.625C3.88281 20.832 4.05082 21 4.25782 21H8.00784C8.21484 21 8.38285 20.832 8.38285 20.625V11.625C8.38282 11.418 8.21558 11.25 8.00784 11.25Z" fill="#18213A"/>
<path d="M14.7427 3H10.9927C10.7857 3 10.6177 3.16801 10.6177 3.37501V20.625C10.6177 20.832 10.7857 21 10.9927 21H14.7427C14.9497 21 15.1177 20.832 15.1177 20.625V3.37501C15.1177 3.16801 14.9497 3 14.7427 3Z" fill="#18213A"/>
<path d="M21.4928 6.75H17.7427C17.5357 6.75 17.3677 6.91801 17.3677 7.12501V20.625C17.3677 20.832 17.5357 21 17.7427 21H21.4928C21.6998 21 21.8678 20.832 21.8678 20.625V7.12501C21.8678 6.91798 21.6998 6.75 21.4928 6.75Z" fill="#18213A"/>
</svg>
