<svg width="25" height="24" viewBox="0 0 25 24" fill="none" xmlns="http://www.w3.org/2000/svg">
<path fill-rule="evenodd" clip-rule="evenodd" d="M2.13331 1.80001V8.80745H9.19998V1.80001H2.13331ZM2.13331 15.1925V22.2H9.19998V15.1925H2.13331ZM15.4666 1.80001V8.80745H22.5333V1.80001H15.4666ZM15.4666 15.1925V22.2H22.5333V15.1925H15.4666ZM1.33331 0C0.781028 0 0.333313 0.447718 0.333313 1.00001V9.60746C0.333313 10.1597 0.78103 10.6075 1.33331 10.6075H9.99998C10.5523 10.6075 11 10.1597 11 9.60746V1.00001C11 0.447718 10.5523 0 9.99998 0H1.33331ZM1.33331 13.3925C0.781028 13.3925 0.333313 13.8403 0.333313 14.3925V23C0.333313 23.5523 0.78103 24 1.33331 24H9.99998C10.5523 24 11 23.5523 11 23V14.3925C11 13.8403 10.5523 13.3925 9.99998 13.3925H1.33331ZM13.6666 1.00001C13.6666 0.447718 14.1144 0 14.6666 0H23.3333C23.8856 0 24.3333 0.447718 24.3333 1.00001V9.60746C24.3333 10.1597 23.8856 10.6075 23.3333 10.6075H14.6666C14.1144 10.6075 13.6666 10.1597 13.6666 9.60746V1.00001ZM14.6666 13.3925C14.1143 13.3925 13.6666 13.8403 13.6666 14.3925V23C13.6666 23.5523 14.1143 24 14.6666 24H23.3333C23.8856 24 24.3333 23.5523 24.3333 23V14.3925C24.3333 13.8403 23.8856 13.3925 23.3333 13.3925H14.6666Z" fill="#18213A"/>
</svg>
