<svg width="22" height="18" viewBox="0 0 22 18" fill="none" xmlns="http://www.w3.org/2000/svg">
<path d="M9.5 2C5.63401 2 2.5 5.13401 2.5 9C2.5 12.866 5.63401 16 9.5 16C11.1426 16 12.653 15.4342 13.8471 14.487L14.8629 16.2284C13.3651 17.3414 11.5095 18 9.5 18C4.52944 18 0.5 13.9706 0.5 9C0.5 4.02944 4.52944 0 9.5 0C13.5611 0 16.9939 2.68979 18.1142 6.38502L19.6266 3.3109L21.2171 4.0934L18.254 10.1162L12.2312 7.15305L13.0137 5.56256L16.2549 7.15718C15.446 4.18524 12.7282 2 9.5 2Z" fill="#18213A"/>
</svg>
