<svg width="25" height="24" viewBox="0 0 25 24" fill="none" xmlns="http://www.w3.org/2000/svg">
<path d="M22.1959 20.8686L17.2656 15.7408C18.5332 14.2339 19.2278 12.3378 19.2278 10.3639C19.2278 5.75212 15.4757 2 10.8639 2C6.25212 2 2.5 5.75212 2.5 10.3639C2.5 14.9757 6.25212 18.7278 10.8639 18.7278C12.5952 18.7278 14.2451 18.2056 15.6557 17.2143L20.6235 22.381C20.8311 22.5967 21.1104 22.7156 21.4097 22.7156C21.693 22.7156 21.9617 22.6076 22.1657 22.4112C22.5992 21.9941 22.613 21.3024 22.1959 20.8686ZM10.8639 4.18189C14.2727 4.18189 17.0459 6.95507 17.0459 10.3639C17.0459 13.7727 14.2727 16.5459 10.8639 16.5459C7.45507 16.5459 4.68189 13.7727 4.68189 10.3639C4.68189 6.95507 7.45507 4.18189 10.8639 4.18189Z" fill="#18213A"/>
<path d="M14.08 9.48001C14.5771 9.48001 14.98 9.88296 14.98 10.38C14.98 10.8771 14.5771 11.28 14.08 11.28H7.88001C7.38295 11.28 6.98001 10.8771 6.98001 10.38C6.98001 9.88295 7.38295 9.48001 7.88001 9.48001L14.08 9.48001Z" fill="#18213A"/>
</svg>
