<svg width="21" height="21" viewBox="0 0 21 21" fill="none" xmlns="http://www.w3.org/2000/svg">
<path d="M20.1959 18.8686L15.2656 13.7408C16.5332 12.2339 17.2278 10.3378 17.2278 8.36391C17.2278 3.75212 13.4757 0 8.86391 0C4.25212 0 0.5 3.75212 0.5 8.36391C0.5 12.9757 4.25212 16.7278 8.86391 16.7278C10.5952 16.7278 12.2451 16.2056 13.6557 15.2143L18.6235 20.381C18.8311 20.5967 19.1104 20.7156 19.4097 20.7156C19.693 20.7156 19.9617 20.6076 20.1657 20.4112C20.5992 19.9941 20.613 19.3024 20.1959 18.8686ZM8.86391 2.18189C12.2727 2.18189 15.0459 4.95507 15.0459 8.36391C15.0459 11.7727 12.2727 14.5459 8.86391 14.5459C5.45507 14.5459 2.68189 11.7727 2.68189 8.36391C2.68189 4.95507 5.45507 2.18189 8.86391 2.18189Z" fill="#18213A"/>
<path d="M8.98002 4.38C8.48296 4.38 8.08002 4.78295 8.08002 5.28V7.48001H5.88001C5.38295 7.48001 4.98001 7.88295 4.98001 8.38001C4.98001 8.87707 5.38295 9.28001 5.88001 9.28001H8.08002V11.48C8.08002 11.9771 8.48296 12.38 8.98002 12.38C9.47707 12.38 9.88002 11.9771 9.88002 11.48V9.28001H12.08C12.5771 9.28001 12.98 8.87707 12.98 8.38001C12.98 7.88295 12.5771 7.48001 12.08 7.48001H9.88002V5.28C9.88002 4.78295 9.47707 4.38 8.98002 4.38Z" fill="#18213A"/>
</svg>
