<svg width="25" height="24" viewBox="0 0 25 24" fill="none" xmlns="http://www.w3.org/2000/svg">
<path fill-rule="evenodd" clip-rule="evenodd" d="M20.6633 4C21.6777 4 22.5 4.82233 22.5 5.83674V18.0816C22.5 19.096 21.6777 19.9184 20.6633 19.9184L4.33673 19.9184C3.32233 19.9184 2.5 19.096 2.5 18.0816L2.5 5.83674C2.5 4.82233 3.32233 4 4.33673 4L20.6633 4ZM20.8673 5.83674C20.8673 5.72402 20.776 5.63265 20.6633 5.63265L4.33673 5.63265C4.22402 5.63265 4.13265 5.72402 4.13265 5.83674L4.13265 18.0816C4.13265 18.1943 4.22402 18.2857 4.33673 18.2857L20.6633 18.2857C20.776 18.2857 20.8673 18.1943 20.8673 18.0816V5.83674Z" fill="#18213A"/>
<path d="M15.1327 9.4898C15.1327 10.9438 13.954 12.1224 12.5 12.1224C11.046 12.1224 9.86735 10.9438 9.86735 9.4898C9.86735 8.03582 11.046 6.85714 12.5 6.85714C13.954 6.85714 15.1327 8.03582 15.1327 9.4898Z" fill="#18213A"/>
<path fill-rule="evenodd" clip-rule="evenodd" d="M16.8878 17.3878C16.8878 14.9645 14.9233 13 12.5 13C10.0767 13 8.11225 14.9645 8.11225 17.3878H16.8878Z" fill="#18213A"/>
</svg>
