<svg width="25" height="24" viewBox="0 0 25 24" fill="none" xmlns="http://www.w3.org/2000/svg">
<g clip-path="url(#clip0_8276_61967)">
<path d="M5.1875 12C5.1875 11.6117 4.87269 11.2969 4.48438 11.2969H1.20313C0.814813 11.2969 0.5 11.6117 0.5 12C0.5 12.3883 0.814812 12.7031 1.20312 12.7031H4.48438C4.87269 12.7031 5.1875 12.3883 5.1875 12Z" fill="#18213A"/>
<path d="M11.6094 12C11.6094 11.6117 11.2946 11.2969 10.9062 11.2969H7.625C7.23669 11.2969 6.92188 11.6117 6.92188 12C6.92188 12.3883 7.23669 12.7031 7.625 12.7031H10.9062C11.2946 12.7031 11.6094 12.3883 11.6094 12Z" fill="#18213A"/>
<path d="M24.5 12C24.5 11.6117 24.1852 11.2969 23.7969 11.2969H20.5156C20.1273 11.2969 19.8125 11.6117 19.8125 12C19.8125 12.3883 20.1273 12.7031 20.5156 12.7031H23.7969C24.1852 12.7031 24.5 12.3883 24.5 12Z" fill="#18213A"/>
<path d="M18.0781 12C18.0781 11.6117 17.7633 11.2969 17.375 11.2969L14.0938 11.2969C13.7054 11.2969 13.3906 11.6117 13.3906 12C13.3906 12.3883 13.7054 12.7031 14.0938 12.7031L17.375 12.7031C17.7633 12.7031 18.0781 12.3883 18.0781 12Z" fill="#18213A"/>
<path fill-rule="evenodd" clip-rule="evenodd" d="M20.2315 1C21.2725 1 22.0362 1.97823 21.7838 2.98806L20.5838 7.78806C20.4057 8.50033 19.7657 9 19.0315 9L5.96847 9C5.23428 9 4.59431 8.50032 4.41624 7.78806L3.21624 2.98806C2.96378 1.97822 3.72755 1 4.76847 1L20.2315 1ZM19.7192 3L5.28078 3L6.28078 7L18.7192 7L19.7192 3Z" fill="#18213A"/>
<path fill-rule="evenodd" clip-rule="evenodd" d="M19.7192 21L18.7192 17H6.28078L5.28078 21H19.7192ZM21.7838 21.0119C22.0362 22.0218 21.2724 23 20.2315 23H4.76846C3.72755 23 2.96378 22.0218 3.21624 21.0119L4.41624 16.2119C4.59431 15.4997 5.23428 15 5.96847 15L19.0315 15C19.7657 15 20.4057 15.4997 20.5838 16.2119L21.7838 21.0119Z" fill="#18213A"/>
</g>
<defs>
<clipPath id="clip0_8276_61967">
<rect width="24" height="24" fill="white" transform="translate(0.5)"/>
</clipPath>
</defs>
</svg>
