<svg width="17" height="20" viewBox="0 0 17 20" fill="none" xmlns="http://www.w3.org/2000/svg">
<path fill-rule="evenodd" clip-rule="evenodd" d="M0.5 1.83674C0.5 0.822335 1.32233 0 2.33673 0H14.5816C15.596 0 16.4184 0.822334 16.4184 1.83673V18.1633C16.4184 19.1777 15.596 20 14.5816 20H2.33674C1.32234 20 0.5 19.1777 0.5 18.1633V1.83674ZM2.33673 1.63265C2.22402 1.63265 2.13265 1.72402 2.13265 1.83674V18.1633C2.13265 18.276 2.22402 18.3673 2.33674 18.3673H14.5816C14.6943 18.3673 14.7857 18.276 14.7857 18.1633V1.83673C14.7857 1.72402 14.6943 1.63265 14.5816 1.63265H2.33673Z" fill="#18213A"/>
<path d="M11.0918 7.5306C11.0918 8.98457 9.91316 10.1633 8.45919 10.1633C7.00521 10.1633 5.82653 8.98457 5.82653 7.5306C5.82653 6.07663 7.00521 4.89795 8.45919 4.89795C9.91316 4.89795 11.0918 6.07663 11.0918 7.5306Z" fill="#18213A"/>
<path fill-rule="evenodd" clip-rule="evenodd" d="M12.8469 15.4286C12.8469 13.0053 10.8825 11.0408 8.45919 11.0408C6.03589 11.0408 4.07143 13.0053 4.07143 15.4286H12.8469Z" fill="#18213A"/>
</svg>
