<svg width="22" height="18" viewBox="0 0 22 18" fill="none" xmlns="http://www.w3.org/2000/svg">
<path d="M12.4981 2C16.3646 2 19.499 5.13401 19.499 9C19.499 12.866 16.3646 16 12.4981 16C10.8553 16 9.34461 15.4342 8.15038 14.487L7.13441 16.2284C8.6324 17.3414 10.4883 18 12.4981 18C17.4693 18 21.4993 13.9706 21.4993 9C21.4993 4.02944 17.4693 0 12.4981 0C8.4364 0 5.00307 2.68979 3.88264 6.38502L2.37001 3.3109L0.779297 4.0934L3.74284 10.1162L9.76645 7.15305L8.98384 5.56256L5.74222 7.15718C6.55121 4.18524 9.2694 2 12.4981 2Z" fill="#18213A"/>
</svg>
