<svg width="25" height="24" viewBox="0 0 25 24" fill="none" xmlns="http://www.w3.org/2000/svg">
<path d="M12.5 19.3125C12.1117 19.3125 11.7969 19.6273 11.7969 20.0156V23.2969C11.7969 23.6852 12.1117 24 12.5 24C12.8883 24 13.2031 23.6852 13.2031 23.2969V20.0156C13.2031 19.6273 12.8883 19.3125 12.5 19.3125Z" fill="#18213A"/>
<path d="M12.5 12.8906C12.1117 12.8906 11.7969 13.2054 11.7969 13.5938V16.875C11.7969 17.2633 12.1117 17.5781 12.5 17.5781C12.8883 17.5781 13.2031 17.2633 13.2031 16.875V13.5938C13.2031 13.2054 12.8883 12.8906 12.5 12.8906Z" fill="#18213A"/>
<path d="M12.5 0C12.1117 0 11.7969 0.314812 11.7969 0.703125V3.98438C11.7969 4.37269 12.1117 4.6875 12.5 4.6875C12.8883 4.6875 13.2031 4.37269 13.2031 3.98438V0.703125C13.2031 0.314812 12.8883 0 12.5 0Z" fill="#18213A"/>
<path d="M12.5 6.42188C12.1117 6.42188 11.7969 6.73669 11.7969 7.125V10.4062C11.7969 10.7946 12.1117 11.1094 12.5 11.1094C12.8883 11.1094 13.2031 10.7946 13.2031 10.4062V7.125C13.2031 6.73669 12.8883 6.42188 12.5 6.42188Z" fill="#18213A"/>
<path fill-rule="evenodd" clip-rule="evenodd" d="M1.5 4.26846C1.5 3.22755 2.47822 2.46378 3.48806 2.71624L8.28806 3.91624C9.00032 4.0943 9.5 4.73428 9.5 5.46847V18.5315C9.5 19.2657 9.00032 19.9057 8.28806 20.0838L3.48806 21.2838C2.47822 21.5362 1.5 20.7724 1.5 19.7315V4.26846ZM3.5 4.78078V19.2192L7.5 18.2192V5.78078L3.5 4.78078Z" fill="#18213A"/>
<path fill-rule="evenodd" clip-rule="evenodd" d="M21.5 4.78078L17.5 5.78078V18.2192L21.5 19.2192V4.78078ZM21.5119 2.71624C22.5218 2.46378 23.5 3.22755 23.5 4.26847V19.7315C23.5 20.7725 22.5218 21.5362 21.5119 21.2838L16.7119 20.0838C15.9997 19.9057 15.5 19.2657 15.5 18.5315V5.46847C15.5 4.73428 15.9997 4.0943 16.7119 3.91624L21.5119 2.71624Z" fill="#18213A"/>
</svg>
