<?xml version="1.0" encoding="UTF-8" standalone="no"?>
<svg
   version="1.1"
   id="Layer_1"
   style="enable-background:new 0 0 330 330;"
   xml:space="preserve"
   sodipodi:docname="crop.svg"
   inkscape:export-filename="crop.png"
   inkscape:export-xdpi="16"
   inkscape:export-ydpi="16"
   width="25" height="24"
   viewBox="0 0 330 330"
   inkscape:version="1.2 (56b05e47e7, 2022-06-09, custom)"
   xmlns:inkscape="http://www.inkscape.org/namespaces/inkscape"
   xmlns:sodipodi="http://sodipodi.sourceforge.net/DTD/sodipodi-0.dtd"
   xmlns="http://www.w3.org/2000/svg"
   xmlns:svg="http://www.w3.org/2000/svg"><defs
   id="defs52" />
   <sodipodi:namedview
   id="namedview50"
   pagecolor="#ffffff"
   bordercolor="#666666"
   borderopacity="1.0"
   inkscape:showpageshadow="2"
   inkscape:pageopacity="0.0"
   inkscape:pagecheckerboard="0"
   inkscape:deskcolor="#d1d1d1"
   showgrid="false"
   inkscape:zoom="1"
   inkscape:cx="74.541176"
   inkscape:cy="165.19412"
   inkscape:window-width="1872"
   inkscape:window-height="1016"
   inkscape:window-x="4"
   inkscape:window-y="27"
   inkscape:window-maximized="1"
   inkscape:current-layer="Layer_1" 
   

   />
<path
   id="XMLID_28_"
   d="M315,240h-45V81.213l55.606-55.606c5.858-5.858,5.858-15.355,0-21.213c-5.857-5.858-15.355-5.858-21.213,0  L248.787,60H90V15c0-8.284-6.716-15-15-15c-8.284,0-15,6.716-15,15v45H15C6.716,60,0,66.716,0,75s6.716,15,15,15h45v158.787  L4.394,304.394c-5.858,5.858-5.858,15.355,0,21.213C7.322,328.536,11.161,330,15,330c3.839,0,7.678-1.464,10.606-4.394L81.213,270  H240v45c0,8.284,6.716,15,15,15c8.284,0,15-6.716,15-15v-45h45c8.284,0,15-6.716,15-15S323.284,240,315,240z M90,90h128.787  L90,218.787V90z M240,111.213V240H111.213L240,111.213z"
   style="fill:#18213a;fillOpacity:1" 
   fill="#18213A"/>
<g
   id="g19">
</g>
<g
   id="g21">
</g>
<g
   id="g23">
</g>
<g
   id="g25">
</g>
<g
   id="g27">
</g>
<g
   id="g29">
</g>
<g
   id="g31">
</g>
<g
   id="g33">
</g>
<g
   id="g35">
</g>
<g
   id="g37">
</g>
<g
   id="g39">
</g>
<g
   id="g41">
</g>
<g
   id="g43">
</g>
<g
   id="g45">
</g>
<g
   id="g47">
</g>
</svg>
