<svg width="20" height="5" viewBox="0 0 20 5" fill="none" xmlns="http://www.w3.org/2000/svg">
<path d="M4 2.9541C4 4.05867 3.10457 4.9541 2 4.9541C0.89543 4.9541 0 4.05867 0 2.9541C0 1.84953 0.89543 0.954102 2 0.954102C3.10457 0.954102 4 1.84953 4 2.9541Z" fill="#18213A"/>
<path d="M12 2.9541C12 4.05867 11.1046 4.9541 10 4.9541C8.89543 4.9541 8 4.05867 8 2.9541C8 1.84953 8.89543 0.954102 10 0.954102C11.1046 0.954102 12 1.84953 12 2.9541Z" fill="#18213A"/>
<path d="M20 2.9541C20 4.05867 19.1046 4.9541 18 4.9541C16.8954 4.9541 16 4.05867 16 2.9541C16 1.84953 16.8954 0.954102 18 0.954102C19.1046 0.954102 20 1.84953 20 2.9541Z" fill="#18213A"/>
</svg>
