<svg width="18" height="18" viewBox="0 0 18 18" fill="none" xmlns="http://www.w3.org/2000/svg">
<path fill-rule="evenodd" clip-rule="evenodd" d="M17.4748 2.73201L15.2682 0.525476C14.5675 -0.175157 13.429 -0.175161 12.7284 0.525476L11.3068 1.94705L11.3067 1.94694L0.359764 12.8939C0.12941 13.1243 0 13.4367 0 13.7625V16.9607C0 17.5347 0.465332 18 1.03935 18H4.23754C4.56331 18 4.87574 17.8706 5.1061 17.6402L15.7453 7.00102L15.7454 7.00114L17.4747 5.27184C18.1754 4.5712 18.1754 3.43266 17.4748 2.73201ZM14.8505 5.49077L16.2721 4.06919C16.3086 4.03274 16.3086 3.97108 16.2722 3.93463L14.0656 1.72809C14.0291 1.69164 13.9675 1.69163 13.931 1.72809L12.5094 3.14967L14.8505 5.49077ZM1.70075 13.9581L11.3067 4.35216L13.6478 6.69327L4.04185 16.2993H1.70075V13.9581Z" fill="#18213A"/>
</svg>
