<svg width="18" height="19" viewBox="0 0 18 19" fill="none" xmlns="http://www.w3.org/2000/svg">
<path fill-rule="evenodd" clip-rule="evenodd" d="M17.4748 3.23201L15.2682 1.02548C14.5676 0.324843 13.4291 0.324839 12.7284 1.02548L11.3068 2.44705L11.3067 2.44694L0.359795 13.3939C0.12944 13.6243 3.05176e-05 13.9367 3.05176e-05 14.2625V17.4607C3.05176e-05 18.0347 0.465362 18.5 1.03938 18.5H4.23757C4.56334 18.5 4.87577 18.3706 5.10613 18.1402L15.7453 7.50102L15.7454 7.50114L17.4747 5.77184C18.1754 5.0712 18.1754 3.93266 17.4748 3.23201ZM14.8506 5.99077L16.2721 4.56919C16.3086 4.53274 16.3086 4.47108 16.2722 4.43463L14.0656 2.22809C14.0291 2.19164 13.9675 2.19163 13.931 2.22809L12.5094 3.64967L14.8506 5.99077ZM1.70078 14.4581L11.3067 4.85216L13.6478 7.19327L4.04188 16.7993H1.70078V14.4581Z" fill="#18213A"/>
</svg>
