<svg width="24" height="24" viewBox="0 0 24 24" fill="none" xmlns="http://www.w3.org/2000/svg">
<path fill-rule="evenodd" clip-rule="evenodd" d="M12.0005 5.92175H21.5905C21.8265 5.92175 22.0529 6.01557 22.2198 6.18258C22.3867 6.34958 22.4805 6.57609 22.4805 6.81227V19.1095C22.4818 19.226 22.46 19.3415 22.4164 19.4495C22.3727 19.5575 22.3081 19.6558 22.2263 19.7386C22.1444 19.8214 22.047 19.8872 21.9396 19.932C21.8321 19.9769 21.7169 20 21.6005 20H10.6005V18.219H20.7105V7.70279H11.5105C11.351 7.704 11.1941 7.66182 11.0568 7.58075C10.9194 7.49968 10.8066 7.38277 10.7305 7.24252L9.36047 4.75106H4.26047V11.4049H2.48047V3.89056C2.48047 3.65438 2.57424 3.42787 2.74114 3.26086C2.90805 3.09386 3.13443 3.00004 3.37047 3.00004H9.88047C10.0363 2.99864 10.1897 3.03866 10.3249 3.11601C10.4602 3.19337 10.5726 3.30527 10.6505 3.44029L12.0005 5.92175Z" fill="#0B0E61"/>
<path d="M5.04 16.9599V13.3999H3.56L3.56 16.9599H0V18.4399H3.56L3.56 21.9999H5.04V18.4399H8.6V16.9599H5.04Z" fill="#0B0E61"/>
</svg>
