<svg width="42" height="42" viewBox="0 0 42 42" fill="none" xmlns="http://www.w3.org/2000/svg">
<path d="M30.3613 29.2168L25.6012 24.2662C26.8251 22.8113 27.4957 20.9807 27.4957 19.075C27.4957 14.6225 23.8732 11 19.4207 11C14.9682 11 11.3457 14.6225 11.3457 19.075C11.3457 23.5275 14.9682 27.15 19.4207 27.15C21.0922 27.15 22.6851 26.6458 24.047 25.6888L28.8432 30.677C29.0436 30.8852 29.3133 31 29.6022 31C29.8757 31 30.1352 30.8957 30.3321 30.7061C30.7506 30.3034 30.764 29.6357 30.3613 29.2168ZM19.4207 13.1065C22.7118 13.1065 25.3892 15.7839 25.3892 19.075C25.3892 22.3661 22.7118 25.0435 19.4207 25.0435C16.1296 25.0435 13.4522 22.3661 13.4522 19.075C13.4522 15.7839 16.1296 13.1065 19.4207 13.1065Z" fill="#18213A"/>
</svg>
