<svg width="24" height="24" viewBox="0 0 24 24" fill="none" xmlns="http://www.w3.org/2000/svg">
<path fill-rule="evenodd" clip-rule="evenodd" d="M3.1001 4.60001C3.1001 3.2193 4.21939 2.10001 5.6001 2.10001L14.4001 2.10001C15.7808 2.10001 16.9001 3.21929 16.9001 4.60001V15.4C16.9001 16.7807 15.7808 17.9 14.4001 17.9H5.6001C4.21939 17.9 3.1001 16.7807 3.1001 15.4L3.1001 4.60001ZM5.6001 3.90001C5.2135 3.90001 4.9001 4.21341 4.9001 4.60001L4.9001 15.4C4.9001 15.7866 5.2135 16.1 5.6001 16.1H14.4001C14.7867 16.1 15.1001 15.7866 15.1001 15.4L15.1001 4.60001C15.1001 4.21341 14.7867 3.90001 14.4001 3.90001L5.6001 3.90001Z" fill="white"/>
<path fill-rule="evenodd" clip-rule="evenodd" d="M7.1001 19V19.4C7.1001 20.7807 8.21939 21.9 9.6001 21.9L18.4001 21.9C19.7808 21.9 20.9001 20.7807 20.9001 19.4L20.9001 8.60001C20.9001 7.21929 19.7808 6.10001 18.4001 6.10001H18.0001V7.90001H18.4001C18.7867 7.90001 19.1001 8.21341 19.1001 8.60001L19.1001 19.4C19.1001 19.7866 18.7867 20.1 18.4001 20.1L9.6001 20.1C9.2135 20.1 8.9001 19.7866 8.9001 19.4V19H7.1001Z" fill="white"/>
</svg>
