<svg width="24" height="24" viewBox="0 0 24 24" fill="none" xmlns="http://www.w3.org/2000/svg">
<path fill-rule="evenodd" clip-rule="evenodd" d="M4.2002 5.00001C4.2002 3.45361 5.4538 2.20001 7.0002 2.20001H17.0002C18.5466 2.20001 19.8002 3.45361 19.8002 5.00001V19C19.8002 20.5464 18.5466 21.8 17.0002 21.8H7.0002C5.4538 21.8 4.2002 20.5464 4.2002 19V5.00001ZM7.0002 3.80001C6.33745 3.80001 5.8002 4.33727 5.8002 5.00001V19C5.8002 19.6628 6.33745 20.2 7.0002 20.2H17.0002C17.6629 20.2 18.2002 19.6628 18.2002 19V5.00001C18.2002 4.33727 17.6629 3.80001 17.0002 3.80001H7.0002Z" fill="#18213A"/>
<path d="M14.1355 9.66611C14.1355 10.8624 13.1795 11.8322 12.0002 11.8322C10.8209 11.8322 9.86486 10.8624 9.86486 9.66611C9.86486 8.46981 10.8209 7.50001 12.0002 7.50001C13.1795 7.50001 14.1355 8.46981 14.1355 9.66611Z" fill="#18213A"/>
<path d="M16.0002 16.5C16.0002 15.4239 15.5788 14.3918 14.8286 13.6308C14.0785 12.8699 13.0611 12.4424 12.0002 12.4424C10.9393 12.4424 9.92192 12.8699 9.17177 13.6308C8.42162 14.3918 8.0002 15.4239 8.0002 16.5H16.0002Z" fill="#18213A"/>
</svg>
