<svg width="16" height="16" viewBox="0 0 16 16" fill="none" xmlns="http://www.w3.org/2000/svg">
<path fill-rule="evenodd" clip-rule="evenodd" d="M12.9555 2.09345C12.3504 1.51425 11.3729 1.50284 10.7532 2.06775L3.71275 8.48519C3.63403 8.55695 3.5773 8.64793 3.5487 8.74831L2.75882 11.5203L5.70722 10.7507C5.79247 10.7284 5.8706 10.6862 5.93459 10.6279L12.928 4.25331C13.5695 3.66859 13.5819 2.69297 12.9555 2.09345ZM9.5632 0.871871C10.8611 -0.311224 12.9082 -0.287335 14.1756 0.925698C15.4875 2.1813 15.4615 4.22457 14.118 5.44918L7.12458 11.8238C6.85347 12.0709 6.52242 12.2496 6.16122 12.3439L3.21282 13.1135C1.92475 13.4497 0.742835 12.3185 1.09413 11.0857L1.88401 8.31379C1.99538 7.92296 2.21626 7.5687 2.52276 7.28932L9.5632 0.871871Z" fill="#18213A"/>
<path fill-rule="evenodd" clip-rule="evenodd" d="M0.666504 15.1743C0.666504 14.7182 1.05277 14.3486 1.52925 14.3486H14.4704C14.9469 14.3486 15.3332 14.7182 15.3332 15.1743C15.3332 15.6303 14.9469 16 14.4704 16H1.52925C1.05277 16 0.666504 15.6303 0.666504 15.1743Z" fill="#18213A"/>
</svg>
