<svg width="24" height="24" viewBox="0 0 24 24" fill="none" xmlns="http://www.w3.org/2000/svg">
<path fill-rule="evenodd" clip-rule="evenodd" d="M4.2002 19C4.2002 20.5464 5.4538 21.8 7.0002 21.8H17.0002C18.5466 21.8 19.8002 20.5464 19.8002 19V4.99999C19.8002 3.45359 18.5466 2.19999 17.0002 2.19999H7.0002C5.4538 2.19999 4.2002 3.45359 4.2002 4.99999L4.2002 19ZM7.0002 20.2C6.33745 20.2 5.8002 19.6627 5.8002 19L5.8002 4.99999C5.8002 4.33725 6.33745 3.79999 7.0002 3.79999H17.0002C17.6629 3.79999 18.2002 4.33725 18.2002 4.99999V19C18.2002 19.6627 17.6629 20.2 17.0002 20.2H7.0002Z" fill="#18213A"/>
<path d="M12.6002 15.5H11.4002V12.6H8.50019V11.4H11.4002L11.4002 8.49999L12.6002 8.49999V11.4H15.5002V12.6H12.6002L12.6002 15.5Z" fill="#18213A"/>
</svg>
