<svg width="24" height="24" viewBox="0 0 24 24" fill="none" xmlns="http://www.w3.org/2000/svg">
<path fill-rule="evenodd" clip-rule="evenodd" d="M4.64813 7.96969C4.64813 6.3322 5.92747 5 7.49997 5C9.07247 5 10.3518 6.3322 10.3518 7.96969C10.3518 9.60717 9.07247 10.9394 7.49997 10.9394C5.92747 10.9394 4.64813 9.60717 4.64813 7.96969ZM3.0185 19C2.4569 19 2 18.5242 2 17.9394C2 14.7813 4.46724 12.2121 7.5 12.2121C8.18887 12.2121 8.84855 12.3446 9.45678 12.5865C7.97909 13.8477 6.5 15.8189 6.5 18.5C6.5 18.6757 6.50229 18.8422 6.50668 19H3.0185Z" fill="#124DE3"/>
<path fill-rule="evenodd" clip-rule="evenodd" d="M15.5 4C13.6416 4 12.1296 5.52252 12.1296 7.39393C12.1296 9.26534 13.6416 10.7879 15.5 10.7879C17.3584 10.7879 18.8703 9.26534 18.8703 7.39393C18.8703 5.52252 17.3584 4 15.5 4ZM9 18.7879C9 19.4563 9.53997 20 10.2037 20H20.7962C21.46 20 22 19.4563 22 18.7879C22 15.1786 19.0842 12.2424 15.5 12.2424C11.9158 12.2424 9 15.1787 9 18.7879Z" fill="#124DE3"/>
</svg>
