<svg width="22" height="20" viewBox="0 0 22 20" fill="none" xmlns="http://www.w3.org/2000/svg">
<path d="M19.8535 2.44351C19.2894 1.86325 18.6044 1.39988 17.8418 1.0826C17.0791 0.765312 16.2553 0.600989 15.4223 0.59998C14.5892 0.598972 13.765 0.7613 13.0015 1.07674C12.238 1.39218 11.5517 1.85389 10.9861 2.43277V2.50791C10.4471 1.95802 9.79896 1.51404 9.07868 1.20133C8.3584 0.888609 7.58009 0.713289 6.78821 0.685378C5.99634 0.657468 5.20641 0.777514 4.46356 1.03866C3.72071 1.29981 3.03949 1.69694 2.45881 2.20736L2.14131 2.50791C1.00982 3.69199 0.383301 5.23171 0.383301 6.82834C0.383301 8.42498 1.00982 9.96469 2.14131 11.1488L10.1469 19.1456C10.2555 19.2595 10.3886 19.3501 10.5373 19.4112C10.6859 19.4723 10.8467 19.5025 11.0087 19.4998C11.1702 19.4986 11.3297 19.4666 11.4777 19.4057C11.6258 19.3449 11.7594 19.2564 11.8705 19.1456L19.8535 11.0951C20.9882 9.91038 21.6166 8.36844 21.6166 6.7693C21.6166 5.17017 20.9882 3.62823 19.8535 2.44351ZM9.23979 3.97847L10.1356 4.88012C10.3631 5.08951 10.6688 5.20527 10.9861 5.20214C11.1466 5.20169 11.3054 5.1711 11.4533 5.11214C11.6013 5.05318 11.7354 4.96702 11.8479 4.85866L12.7437 3.96773C13.4032 3.29166 14.3189 2.89058 15.2902 2.85235C16.2615 2.81413 17.2093 3.14187 17.9258 3.76379L18.1412 3.96773C18.8899 4.72208 19.3066 5.71819 19.3066 6.7532C19.3066 7.78822 18.8899 8.78432 18.1412 9.53867L10.9861 16.6768L3.84222 9.54941C3.10594 8.78919 2.69748 7.7953 2.69748 6.76394C2.69748 5.73258 3.10594 4.73869 3.84222 3.97847C4.5033 3.30389 5.41984 2.90479 6.39112 2.86858C7.3624 2.83237 8.30927 3.16199 9.02434 3.78526L9.23979 3.97847Z" fill="#0B0E61"/>
</svg>
