<svg width="18" height="18" viewBox="0 0 18 18" fill="none" xmlns="http://www.w3.org/2000/svg">
<path fill-rule="evenodd" clip-rule="evenodd" d="M16.5 15.8864H13.1848V11.0926C13.1848 9.83788 12.6662 8.9813 11.5259 8.9813C10.6536 8.9813 10.1686 9.55934 9.94279 10.1164C9.85812 10.3164 9.87135 10.5949 9.87135 10.8735V15.8864L6.58701 15.8864C6.58701 15.8864 6.62935 7.39474 6.58701 6.62285H9.87135V8.07669C10.0654 7.44102 11.1149 6.53379 12.7897 6.53379C14.8675 6.53379 16.5 7.86625 16.5 10.7355V15.8864ZM3.26564 5.46416H3.24447C2.18615 5.46416 1.5 4.75601 1.5 3.85839C1.5 2.9433 2.20643 2.25 3.28592 2.25C4.36454 2.25 5.02775 2.94155 5.04892 3.85577C5.04892 4.75339 4.36454 5.46416 3.26564 5.46416ZM1.87835 6.62286H4.80197L4.80197 15.8864H1.87835L1.87835 6.62286Z" fill="white"/>
</svg>
