<svg width="24" height="24" viewBox="0 0 24 24" fill="none" xmlns="http://www.w3.org/2000/svg">
<path d="M12 20.9999C17.5222 20.9999 22 16.9702 22 12C22 7.02974 17.5222 3 12 3C6.47778 3 2 7.02974 2 12C2 13.7707 2.56889 15.4222 3.55 16.815L2 20.9999L7.27222 19.9323C8.74977 20.6408 10.3652 21.0056 12 20.9999Z" fill="#124DE3"/>
<path d="M7.55556 12H7.56667M12 12H12.0111M16.4444 12H16.4556M22 12C22 16.9702 17.5222 20.9999 12 20.9999C10.3652 21.0056 8.74977 20.6408 7.27222 19.9323L2 20.9999L3.55 16.815C2.56889 15.4222 2 13.7707 2 12C2 7.02974 6.47778 3 12 3C17.5222 3 22 7.02974 22 12Z" stroke="#124DE3" stroke-width="1.2" stroke-linecap="round" stroke-linejoin="round"/>
<path d="M18.4001 11.9996C18.4001 12.7728 17.7733 13.3996 17.0001 13.3996C16.2269 13.3996 15.6001 12.7728 15.6001 11.9996C15.6001 11.2264 16.2269 10.5996 17.0001 10.5996C17.7733 10.5996 18.4001 11.2264 18.4001 11.9996Z" fill="white"/>
<path d="M13.4001 11.9996C13.4001 12.7728 12.7733 13.3996 12.0001 13.3996C11.2269 13.3996 10.6001 12.7728 10.6001 11.9996C10.6001 11.2264 11.2269 10.5996 12.0001 10.5996C12.7733 10.5996 13.4001 11.2264 13.4001 11.9996Z" fill="white"/>
<path d="M8.4001 11.9996C8.4001 12.7728 7.7733 13.3996 7.0001 13.3996C6.2269 13.3996 5.6001 12.7728 5.6001 11.9996C5.6001 11.2264 6.2269 10.5996 7.0001 10.5996C7.7733 10.5996 8.4001 11.2264 8.4001 11.9996Z" fill="white"/>
</svg>
