<svg width="18" height="18" viewBox="0 0 18 18" fill="none" xmlns="http://www.w3.org/2000/svg">
<path fill-rule="evenodd" clip-rule="evenodd" d="M2.32495 3.4502C2.32495 2.41466 3.16442 1.5752 4.19995 1.5752L10.7999 1.5752C11.8355 1.5752 12.6749 2.41466 12.6749 3.4502L12.6749 11.5502C12.6749 12.5857 11.8355 13.4252 10.7999 13.4252L4.19995 13.4252C3.16442 13.4252 2.32495 12.5857 2.32495 11.5502L2.32495 3.4502ZM4.19995 2.9252C3.91 2.9252 3.67495 3.16025 3.67495 3.4502L3.67495 11.5502C3.67495 11.8401 3.91 12.0752 4.19995 12.0752L10.7999 12.0752C11.0899 12.0752 11.325 11.8401 11.325 11.5502L11.325 3.4502C11.325 3.16025 11.0899 2.9252 10.7999 2.9252L4.19995 2.9252Z" fill="#18213A"/>
<path fill-rule="evenodd" clip-rule="evenodd" d="M5.32495 14.2502V14.5502C5.32495 15.5857 6.16442 16.4252 7.19995 16.4252H13.7999C14.8355 16.4252 15.6749 15.5857 15.6749 14.5502L15.6749 6.4502C15.6749 5.41466 14.8355 4.5752 13.7999 4.5752H13.5V5.9252H13.7999C14.0899 5.9252 14.325 6.16025 14.325 6.4502L14.325 14.5502C14.325 14.8401 14.0899 15.0752 13.7999 15.0752L7.19995 15.0752C6.91 15.0752 6.67495 14.8401 6.67495 14.5502V14.2502H5.32495Z" fill="#18213A"/>
</svg>
