<svg width="26" height="25" viewBox="0 0 26 25" fill="none" xmlns="http://www.w3.org/2000/svg">
<path d="M23.59 5.92175H14L12.65 3.44029C12.5721 3.30527 12.4597 3.19337 12.3245 3.11601C12.1892 3.03866 12.0358 2.99864 11.88 3.00004H5.36998C5.13394 3.00004 4.90756 3.09386 4.74066 3.26086C4.57375 3.42787 4.47998 3.65438 4.47998 3.89056V19.1095C4.47998 19.3457 4.57375 19.5722 4.74066 19.7392C4.90756 19.9062 5.13394 20 5.36998 20H23.6C23.7164 20 23.8316 19.9769 23.9391 19.932C24.0465 19.8872 24.1439 19.8214 24.2258 19.7386C24.3076 19.6558 24.3723 19.5575 24.4159 19.4495C24.4595 19.3415 24.4813 19.226 24.48 19.1095V6.81227C24.48 6.57609 24.3862 6.34958 24.2193 6.18258C24.0524 6.01557 23.826 5.92175 23.59 5.92175Z" fill="#7909A0"/>
<path d="M15.1 16.8C15.1 20.8317 11.8317 24.1 7.8 24.1C3.76832 24.1 0.5 20.8317 0.5 16.8C0.5 12.7683 3.76832 9.5 7.8 9.5C11.8317 9.5 15.1 12.7683 15.1 16.8Z" fill="#124DE3"/>
<path fill-rule="evenodd" clip-rule="evenodd" d="M15.6 16.8C15.6 21.1078 12.1078 24.6 7.8 24.6C3.49218 24.6 0 21.1078 0 16.8C0 12.4922 3.49218 9 7.8 9C12.1078 9 15.6 12.4922 15.6 16.8ZM7.8 22.8C11.1137 22.8 13.8 20.1137 13.8 16.8C13.8 13.4863 11.1137 10.8 7.8 10.8C4.48629 10.8 1.8 13.4863 1.8 16.8C1.8 20.1137 4.48629 22.8 7.8 22.8Z" fill="white"/>
<path fill-rule="evenodd" clip-rule="evenodd" d="M11.821 15.0951L6.89894 19.5697L4 16.6708L5.04652 15.6243L6.94758 17.5254L10.8255 14L11.821 15.0951Z" fill="white"/>
</svg>
