<svg width="24" height="24" viewBox="0 0 24 24" fill="none" xmlns="http://www.w3.org/2000/svg">
<path d="M19.5886 6.37998C19.1051 5.88261 18.518 5.48544 17.8643 5.21348C17.2106 4.94152 16.5045 4.80067 15.7904 4.79981C15.0764 4.79894 14.3699 4.93808 13.7155 5.20846C13.061 5.47883 12.4729 5.87458 11.988 6.37077V6.43518C11.526 5.96385 10.9705 5.58329 10.3531 5.31525C9.7357 5.04721 9.06858 4.89693 8.38983 4.87301C7.71108 4.84908 7.034 4.95198 6.39727 5.17582C5.76054 5.39966 5.17663 5.74006 4.67891 6.17756L4.40677 6.43518C3.43692 7.4501 2.8999 8.76986 2.8999 10.1384C2.8999 11.5069 3.43692 12.8267 4.40677 13.8416L11.2687 20.696C11.3618 20.7937 11.4759 20.8713 11.6033 20.9237C11.7307 20.9761 11.8685 21.002 12.0074 20.9997C12.1458 20.9986 12.2825 20.9712 12.4094 20.919C12.5363 20.8668 12.6508 20.791 12.7461 20.696L19.5886 13.7956C20.5612 12.7801 21.0999 11.4585 21.0999 10.0878C21.0999 8.71712 20.5612 7.39545 19.5886 6.37998Z" fill="#7909A0"/>
</svg>
