<svg width="24" height="24" viewBox="0 0 24 24" fill="none" xmlns="http://www.w3.org/2000/svg">
<path fill-rule="evenodd" clip-rule="evenodd" d="M21.7999 11C21.7999 6.69218 18.3078 3.2 13.9999 3.2C11.4714 3.2 9.22426 4.40375 7.79999 6.2665C7.53944 6.22273 7.27212 6.2 6.99995 6.2C4.34898 6.2 2.19995 8.34903 2.19995 11C2.19995 11.1152 2.20403 11.2296 2.21205 11.3429C0.987522 12.3127 0.199951 13.8142 0.199951 15.5C0.199951 18.4271 2.57284 20.8 5.49995 20.8H18.5C21.4271 20.8 23.7999 18.4271 23.7999 15.5C23.7999 13.8163 23.0143 12.3164 21.7924 11.3465C21.7974 11.2316 21.7999 11.1161 21.7999 11Z" fill="#124DE3"/>
<path d="M17.3009 13.367L13.6863 10.3263L12.6476 11.3851L15.0458 13.3764L12.647 15.3535L13.6865 16.413L17.3009 13.367Z" fill="white"/>
<path d="M11.3385 11.3846L10.2929 10.3256L6.67883 13.366L10.2928 16.4116L11.3375 15.3535L8.93435 13.3573L11.3385 11.3846Z" fill="white"/>
</svg>
