<svg width="14" height="14" viewBox="0 0 14 14" fill="none" xmlns="http://www.w3.org/2000/svg">
<path d="M11.7727 1.75H7.95457C7.69099 1.75 7.4773 1.96248 7.4773 2.22458C7.4773 2.48668 7.69099 2.69916 7.95457 2.69916H10.6205L5.70805 7.58393C5.52166 7.76928 5.52166 8.06973 5.70805 8.25508C5.80122 8.34774 5.92336 8.39407 6.0455 8.39407C6.16765 8.39407 6.28981 8.34776 6.383 8.25505L11.2955 3.3703V6.0212C11.2955 6.2833 11.5091 6.49578 11.7727 6.49578C12.0363 6.49578 12.25 6.2833 12.25 6.0212V2.22458C12.25 1.96248 12.0363 1.75 11.7727 1.75Z" fill="#124DE3"/>
<path d="M9.86352 6.55508C9.59994 6.55508 9.38625 6.76756 9.38625 7.02966V11.3009H2.70452V4.65677H6.99993C7.26351 4.65677 7.4772 4.44429 7.4772 4.18219C7.4772 3.92009 7.26351 3.70763 6.99993 3.70763H2.22727C1.96369 3.70763 1.75 3.92011 1.75 4.18221V11.7754C1.75 12.0375 1.96369 12.25 2.22727 12.25H9.86354C10.1271 12.25 10.3408 12.0375 10.3408 11.7754V7.02966C10.3408 6.76756 10.1271 6.55508 9.86352 6.55508Z" fill="#124DE3"/>
</svg>
