<svg width="24" height="24" viewBox="0 0 24 24" fill="none" xmlns="http://www.w3.org/2000/svg">
<path d="M11.9881 21.3091C11.8557 21.3086 11.7247 21.2832 11.6031 21.2344C11.4816 21.1856 11.372 21.1145 11.2811 21.0254L3.1499 13.0709C2.02447 11.9372 1.3999 10.4535 1.3999 8.91364C1.3999 7.37378 2.02447 5.89007 3.1499 4.75638L3.45629 4.50541C4.02377 4.01384 4.69066 3.63107 5.41857 3.37913C6.14647 3.12719 6.92101 3.01106 7.69758 3.03743C8.47415 3.0638 9.23743 3.23214 9.94345 3.53277C10.6495 3.8334 11.2843 4.26038 11.8114 4.78911L11.9881 4.95278L12.1885 4.75638C12.7402 4.2026 13.4099 3.76064 14.1552 3.45835C14.9006 3.15606 15.7055 3 16.5192 3C17.3329 3 18.1378 3.15606 18.8831 3.45835C19.6285 3.76064 20.2982 4.2026 20.8499 4.75638C21.9753 5.89007 22.5999 7.37378 22.5999 8.91364C22.5999 10.4535 21.9753 11.9372 20.8499 13.0709L12.7187 21.0254C12.6242 21.1162 12.5106 21.1882 12.385 21.2369C12.2594 21.2857 12.1243 21.3103 11.9881 21.3091Z" fill="#124DE3"/>
</svg>
