<svg width="22" height="20" viewBox="0 0 22 20" fill="none" xmlns="http://www.w3.org/2000/svg">
<path d="M19.8535 2.44351C19.2894 1.86325 18.6044 1.39988 17.8418 1.0826C17.0791 0.765312 16.2553 0.600989 15.4223 0.59998C14.5892 0.598972 13.765 0.7613 13.0015 1.07674C12.238 1.39218 11.5517 1.85389 10.9861 2.43277V2.50791C10.4471 1.95802 9.79896 1.51404 9.07868 1.20133C8.3584 0.888609 7.58009 0.713289 6.78821 0.685378C5.99634 0.657468 5.20641 0.777514 4.46356 1.03866C3.72071 1.29981 3.03949 1.69694 2.45881 2.20736L2.14131 2.50791C1.00982 3.69199 0.383301 5.23171 0.383301 6.82834C0.383301 8.42498 1.00982 9.96469 2.14131 11.1488L10.1469 19.1456C10.2555 19.2595 10.3886 19.3501 10.5373 19.4112C10.6859 19.4723 10.8467 19.5025 11.0087 19.4998C11.1702 19.4986 11.3297 19.4666 11.4777 19.4057C11.6258 19.3449 11.7594 19.2564 11.8705 19.1456L19.8535 11.0951C20.9882 9.91038 21.6166 8.36844 21.6166 6.7693C21.6166 5.17017 20.9882 3.62823 19.8535 2.44351Z" fill="#7909A0"/>
</svg>
