<svg width="24" height="24" viewBox="0 0 24 24" fill="none" xmlns="http://www.w3.org/2000/svg">
<path d="M12 20.9999C17.5222 20.9999 22 16.9702 22 12C22 7.02974 17.5222 3 12 3C6.47778 3 2 7.02974 2 12C2 13.7707 2.56889 15.4222 3.55 16.815L2 20.9999L7.27222 19.9323C8.74977 20.6408 10.3652 21.0056 12 20.9999Z" stroke="#18213A" stroke-width="1.8" stroke-linecap="round" stroke-linejoin="round"/>
<path d="M18.4001 12C18.4001 12.7732 17.7733 13.4 17.0001 13.4C16.2269 13.4 15.6001 12.7732 15.6001 12C15.6001 11.2268 16.2269 10.6 17.0001 10.6C17.7733 10.6 18.4001 11.2268 18.4001 12Z" fill="#18213A"/>
<path d="M13.4001 12C13.4001 12.7732 12.7733 13.4 12.0001 13.4C11.2269 13.4 10.6001 12.7732 10.6001 12C10.6001 11.2268 11.2269 10.6 12.0001 10.6C12.7733 10.6 13.4001 11.2268 13.4001 12Z" fill="#18213A"/>
<path d="M8.4001 12C8.4001 12.7732 7.7733 13.4 7.0001 13.4C6.2269 13.4 5.6001 12.7732 5.6001 12C5.6001 11.2268 6.2269 10.6 7.0001 10.6C7.7733 10.6 8.4001 11.2268 8.4001 12Z" fill="#18213A"/>
</svg>
