<svg width="24" height="24" viewBox="0 0 24 24" fill="none" xmlns="http://www.w3.org/2000/svg">
<path fill-rule="evenodd" clip-rule="evenodd" d="M11.3724 22H12.6276C13.6428 22 14.4688 21.1741 14.4688 20.1589V19.7343C14.9004 19.5964 15.3197 19.4223 15.7225 19.2139L16.0232 19.5145C16.7507 20.2428 17.9179 20.2251 18.6273 19.5148L19.5145 18.6276C20.2238 17.9191 20.2439 16.7518 19.5147 16.0235L19.2138 15.7225C19.4223 15.3197 19.5963 14.9004 19.7342 14.4688H20.1588C21.174 14.4688 22 13.6428 22 12.6276V11.3724C22 10.3572 21.174 9.53125 20.1588 9.53125H19.7342C19.5963 9.09957 19.4223 8.68031 19.2138 8.27746L19.5145 7.97676C20.2441 7.24797 20.2237 6.08082 19.5147 5.37266L18.6276 4.48555C17.9199 3.77691 16.7523 3.75551 16.0235 4.48527L15.7225 4.78621C15.3197 4.57773 14.9004 4.40367 14.4688 4.26578V3.84113C14.4688 2.82594 13.6428 2 12.6276 2H11.3724C10.3572 2 9.53125 2.82594 9.53125 3.84113V4.26574C9.09965 4.40367 8.68031 4.57773 8.27746 4.78617L7.9768 4.48551C7.24934 3.75723 6.08207 3.77496 5.37273 4.48527L4.48551 5.37246C3.77625 6.08094 3.75613 7.2482 4.48527 7.97656L4.78621 8.27746C4.57773 8.68031 4.40371 9.09961 4.26578 9.53125H3.84117C2.82598 9.53125 2 10.3572 2 11.3724V12.6276C2 13.6428 2.82598 14.4688 3.84113 14.4688H4.26574C4.40367 14.9004 4.57769 15.3197 4.78617 15.7225L4.48547 16.0232C3.7559 16.752 3.77629 17.9192 4.48524 18.6273L5.37238 19.5145C6.08008 20.2231 7.24762 20.2445 7.97648 19.5147L8.27742 19.2138C8.68027 19.4223 9.09961 19.5963 9.53121 19.7342V20.1589C9.53121 21.1741 10.3572 22 11.3724 22ZM8 12C8 14.2056 9.79436 16 12 16C14.2056 16 16 14.2056 16 12C16 9.7944 14.2056 8 12 8C9.79436 8 8 9.7944 8 12Z" fill="#124DE3"/>
</svg>
