<svg width="24" height="24" viewBox="0 0 24 24" fill="none" xmlns="http://www.w3.org/2000/svg">
<path fill-rule="evenodd" clip-rule="evenodd" d="M14.0002 4.80001C17.4244 4.80001 20.2002 7.57585 20.2002 11C20.2002 11.2198 20.1888 11.4366 20.1666 11.6499L20.1162 12.1349L20.524 12.402C21.5351 13.0641 22.2002 14.2046 22.2002 15.5C22.2002 17.5435 20.5436 19.2 18.5002 19.2H5.50019C3.45674 19.2 1.80019 17.5435 1.80019 15.5C1.80019 14.1955 2.47469 13.048 3.49773 12.3881L3.9462 12.0988L3.85132 11.5736C3.8178 11.388 3.80019 11.1964 3.80019 11C3.80019 9.2327 5.23288 7.80001 7.00019 7.80001C7.31917 7.80001 7.62589 7.84644 7.91469 7.93237L8.48527 8.10215L8.81178 7.60439C9.92079 5.91373 11.8306 4.80001 14.0002 4.80001ZM21.8002 11C21.8002 6.69219 18.308 3.20001 14.0002 3.20001C11.4716 3.20001 9.2245 4.40377 7.80024 6.26652C7.53969 6.22275 7.27237 6.20001 7.00019 6.20001C4.34923 6.20001 2.2002 8.34905 2.2002 11C2.2002 11.1152 2.20427 11.2296 2.21229 11.3429C0.987766 12.3127 0.200195 13.8142 0.200195 15.5C0.200195 18.4271 2.57309 20.8 5.50019 20.8H18.5002C21.4273 20.8 23.8002 18.4271 23.8002 15.5C23.8002 13.8163 23.0145 12.3164 21.7926 11.3465C21.7977 11.2316 21.8002 11.1161 21.8002 11Z" fill="#18213A"/>
<path d="M17.3107 13.3684L13.6962 10.3277L12.6574 11.3866L15.0556 13.3778L12.6568 15.3549L13.6963 16.4144L17.3107 13.3684Z" fill="#18213A"/>
<path d="M11.3493 11.387L10.3038 10.3281L6.68968 13.3684L10.3037 16.4141L11.3484 15.3559L8.9452 13.3597L11.3493 11.387Z" fill="#18213A"/>
</svg>
