<svg width="24" height="24" viewBox="0 0 24 24" fill="none" xmlns="http://www.w3.org/2000/svg">
<g clip-path="url(#clip0_5650_164162)">
<path fill-rule="evenodd" clip-rule="evenodd" d="M2.36363 8.78974C2.36363 6.69747 4.08689 5 6.2 5C8.31311 5 10.0364 6.69747 10.0364 8.78974C10.0364 9.92372 9.5295 10.9419 8.72989 11.6362C8.97114 11.7431 9.2043 11.8648 9.42816 12.0002C9.07523 12.3039 8.71207 12.6709 8.36681 13.1011C7.71803 12.7679 6.9811 12.5795 6.20003 12.5795C3.60111 12.5795 1.49092 14.6663 1.49092 17.2256C1.49092 17.6076 1.80675 17.9231 2.2 17.9231H6.51763C6.50601 18.1116 6.5 18.3039 6.5 18.5C6.5 18.8316 6.50814 19.1306 6.52323 19.4H2.2C0.98918 19.4 0 18.4272 0 17.2256C0 14.737 1.51046 12.5932 3.67011 11.6362C2.87047 10.9419 2.36363 9.92372 2.36363 8.78974ZM6.2 6.47693C4.90446 6.47693 3.85455 7.51706 3.85455 8.78974C3.85455 10.0624 4.90446 11.1026 6.2 11.1026C7.49554 11.1026 8.54545 10.0624 8.54545 8.78974C8.54545 7.51706 7.49554 6.47693 6.2 6.47693Z" fill="#18213A"/>
<path fill-rule="evenodd" clip-rule="evenodd" d="M15.8998 3C13.1758 3 10.9513 5.11064 10.9513 7.71538C10.9513 9.217 11.6917 10.5551 12.8398 11.4183C9.88854 12.5696 7.7998 15.3354 7.7998 18.5615C7.7998 20.0211 9.04554 21.2 10.5665 21.2H21.2331C22.7541 21.2 23.9998 20.0211 23.9998 18.5615C23.9998 15.3354 21.9111 12.5696 18.9598 11.4183C20.1079 10.5551 20.8483 9.217 20.8483 7.71538C20.8483 5.11064 18.6238 3 15.8998 3ZM12.6059 7.71538C12.6059 5.99376 14.0789 4.58463 15.8998 4.58463C17.7207 4.58463 19.1937 5.99376 19.1937 7.71538C19.1937 9.43701 17.7207 10.8462 15.8998 10.8462C14.0789 10.8462 12.6059 9.43701 12.6059 7.71538ZM9.45437 18.5615C9.45437 15.1856 12.3411 12.4307 15.8998 12.4307C19.4586 12.4307 22.3453 15.1856 22.3453 18.5615C22.3453 19.138 21.851 19.6154 21.2331 19.6154H10.5665C9.94865 19.6154 9.45437 19.138 9.45437 18.5615Z" fill="#18213A"/>
</g>
<defs>
<clipPath id="clip0_5650_164162">
<rect width="24" height="24" fill="white"/>
</clipPath>
</defs>
</svg>
