<svg width="35" height="30" viewBox="0 0 35 30" fill="none" xmlns="http://www.w3.org/2000/svg">
<path fill-rule="evenodd" clip-rule="evenodd" d="M14.0448 4.68335C13.5248 4.68335 13.1032 5.10495 13.1032 5.62496V7.43132L3.446 7.42441C2.92598 7.42441 2.50438 7.84601 2.50438 8.36602C2.50438 8.88604 2.92598 9.30764 3.446 9.30764H5.3741L0.715983 20.8771C0.669532 20.9868 0.644288 21.1042 0.641602 21.2231V21.2284C0.641602 24.6099 3.38282 27.3511 6.7643 27.3511C10.1458 27.3511 12.8871 24.6099 12.8871 21.2284L12.8869 21.2231C12.8842 21.1043 12.8591 20.9869 12.8126 20.8772L8.16149 9.301L13.1032 9.30733V11.4404C13.1032 11.6963 13.1533 11.9491 13.3192 12.1381C13.4906 12.3334 13.7437 12.4143 14.0448 12.4143C14.346 12.4143 14.5991 12.3334 14.7705 12.1381C14.9364 11.9491 14.9865 11.6963 14.9865 11.4404V9.30732L19.8108 9.30101L15.1871 20.8775C15.1408 20.987 15.1156 21.1043 15.1129 21.2231V21.2284C15.1129 24.6099 17.8541 27.3511 21.2356 27.3511C24.617 27.3511 27.3583 24.6099 27.3583 21.2284L27.3582 21.2231C27.3555 21.1034 27.33 20.9851 27.2829 20.8747L27.1856 20.6468L27.1621 20.6586L22.6042 9.31472H24.4405C24.9606 9.31472 25.3822 8.89312 25.3822 8.3731C25.3822 7.85309 24.9604 7.43149 24.4404 7.43149L14.9865 7.4384V5.62496C14.9865 5.10495 14.5649 4.68335 14.0448 4.68335ZM10.5453 20.301H2.99085L6.77455 10.8839L10.5453 20.301ZM24.974 20.301L17.4197 20.301L21.2033 10.8906L24.974 20.301Z" fill="#7909A0"/>
<path d="M34.5333 9.93337C34.5333 14.9592 30.459 19.0334 25.4333 19.0334C20.4075 19.0334 16.3333 14.9592 16.3333 9.93337C16.3333 4.90758 20.4075 0.833374 25.4333 0.833374C30.459 0.833374 34.5333 4.90758 34.5333 9.93337Z" fill="#124DE3"/>
<path fill-rule="evenodd" clip-rule="evenodd" d="M34.5333 9.93337C34.5333 14.9592 30.459 19.0334 25.4333 19.0334C20.4075 19.0334 16.3333 14.9592 16.3333 9.93337C16.3333 4.90758 20.4075 0.833374 25.4333 0.833374C30.459 0.833374 34.5333 4.90758 34.5333 9.93337ZM25.4333 16.9334C29.2992 16.9334 32.4333 13.7994 32.4333 9.93337C32.4333 6.06738 29.2992 2.93337 25.4333 2.93337C21.5673 2.93337 18.4333 6.06738 18.4333 9.93337C18.4333 13.7994 21.5673 16.9334 25.4333 16.9334Z" fill="white"/>
<path fill-rule="evenodd" clip-rule="evenodd" d="M30.1245 7.94438L24.3821 13.1648L21 9.7827L22.2209 8.56176L24.4388 10.7797L28.9631 6.66675L30.1245 7.94438Z" fill="white"/>
</svg>
