<svg width="24" height="24" viewBox="0 0 24 24" fill="none" xmlns="http://www.w3.org/2000/svg">
<path fill-rule="evenodd" clip-rule="evenodd" d="M12 5.92175H21.59C21.826 5.92175 22.0524 6.01557 22.2193 6.18258C22.3862 6.34958 22.48 6.57609 22.48 6.81227V19.1095C22.4813 19.226 22.4595 19.3415 22.4159 19.4495C22.3723 19.5575 22.3076 19.6558 22.2258 19.7386C22.1439 19.8214 22.0465 19.8872 21.9391 19.932C21.8316 19.9769 21.7164 20 21.6 20H10.6V18.219H20.71V7.70279H11.51C11.3505 7.704 11.1937 7.66182 11.0563 7.58075C10.9189 7.49968 10.8061 7.38277 10.73 7.24252L9.35998 4.75106H4.25998V11.4049H2.47998V3.89056C2.47998 3.65438 2.57375 3.42787 2.74066 3.26086C2.90756 3.09386 3.13394 3.00004 3.36998 3.00004H9.87998C10.0358 2.99864 10.1892 3.03866 10.3245 3.11601C10.4597 3.19337 10.5721 3.30527 10.65 3.44029L12 5.92175Z" fill="#0B0E61"/>
<path d="M5.04 16.9599V13.3999H3.56L3.56 16.9599H0V18.4399H3.56L3.56 21.9999H5.04V18.4399H8.6V16.9599H5.04Z" fill="#0B0E61"/>
</svg>
