<svg width="29" height="28" viewBox="0 0 29 28" fill="none" xmlns="http://www.w3.org/2000/svg">
<g clip-path="url(#clip0_3309_117388)">
<path fill-rule="evenodd" clip-rule="evenodd" d="M14.5 6.90871L25.6883 6.90871C25.9637 6.90871 26.2278 7.01817 26.4225 7.21301C26.6172 7.40784 26.7266 7.6721 26.7266 7.94765L26.7266 22.2944C26.7282 22.4303 26.7028 22.5651 26.6519 22.6911C26.601 22.8171 26.5256 22.9317 26.4301 23.0283C26.3346 23.125 26.2209 23.2017 26.0956 23.254C25.9703 23.3064 25.8358 23.3333 25.7 23.3333L12.8666 23.3333V21.2554L24.6616 21.2554L24.6616 8.98659L13.9283 8.98659C13.7422 8.988 13.5593 8.93879 13.399 8.84421C13.2387 8.74962 13.1071 8.61323 13.0183 8.44961L11.42 5.54291L5.46998 5.54291L5.46998 13.3057H3.39331L3.39331 4.53898C3.39331 4.26344 3.50271 3.99918 3.69743 3.80434C3.89216 3.6095 4.15626 3.50004 4.43164 3.50004L12.0266 3.50004C12.2084 3.49841 12.3874 3.54511 12.5452 3.63535C12.703 3.72559 12.8341 3.85615 12.925 4.01368L14.5 6.90871Z" fill="white"/>
<path d="M6.38 19.7865L6.38 15.6332H4.65333L4.65333 19.7865H0.5L0.5 21.5132H4.65333V25.6665H6.38V21.5132H10.5333V19.7865H6.38Z" fill="white"/>
</g>
<defs>
<clipPath id="clip0_3309_117388">
<rect width="28" height="28" fill="white" transform="translate(0.5)"/>
</clipPath>
</defs>
</svg>
