<svg width="24" height="25" viewBox="0 0 24 25" fill="none" xmlns="http://www.w3.org/2000/svg">
<path fill-rule="evenodd" clip-rule="evenodd" d="M12 6.42175H21.59C21.826 6.42175 22.0524 6.51557 22.2193 6.68258C22.3862 6.84958 22.48 7.07609 22.48 7.31227V19.6095C22.4813 19.726 22.4595 19.8415 22.4159 19.9495C22.3723 20.0575 22.3076 20.1558 22.2258 20.2386C22.1439 20.3214 22.0465 20.3872 21.9391 20.432C21.8316 20.4769 21.7164 20.5 21.6 20.5H10.6V18.719H20.71V8.20279H11.51C11.3505 8.204 11.1937 8.16182 11.0563 8.08075C10.9189 7.99968 10.8061 7.88277 10.73 7.74252L9.35998 5.25106H4.25998V11.9049H2.47998V4.39056C2.47998 4.15438 2.57375 3.92787 2.74066 3.76086C2.90756 3.59386 3.13394 3.50004 3.36998 3.50004H9.87998C10.0358 3.49864 10.1892 3.53866 10.3245 3.61601C10.4597 3.69337 10.5721 3.80527 10.65 3.94029L12 6.42175Z" fill="#0B0E61"/>
<path d="M5.04 17.4599V13.8999H3.56L3.56 17.4599H0V18.9399H3.56L3.56 22.4999H5.04V18.9399H8.6V17.4599H5.04Z" fill="#0B0E61"/>
</svg>
