<svg width="18" height="18" viewBox="0 0 18 18" fill="none" xmlns="http://www.w3.org/2000/svg">
<path fill-rule="evenodd" clip-rule="evenodd" d="M17.058 4.50729C16.4863 4.76228 15.8705 4.93555 15.225 5.01136C15.8842 4.61411 16.3904 3.98697 16.6286 3.2353C16.0114 3.60449 15.3286 3.8708 14.6009 4.01503C14.0199 3.39085 13.19 3 12.2715 3C10.5095 3 9.07994 4.43936 9.07994 6.21394C9.07994 6.4645 9.10781 6.70964 9.16307 6.94494C6.50993 6.81055 4.15853 5.53167 2.58376 3.58972C2.30842 4.06229 2.15192 4.61362 2.15192 5.20334C2.15192 6.31731 2.71531 7.30133 3.57166 7.87727C3.04836 7.86054 2.55686 7.71483 2.126 7.47559C2.12502 7.48741 2.12502 7.50267 2.12502 7.51645C2.12502 9.07149 3.22589 10.3686 4.68573 10.6649C4.41822 10.7393 4.13603 10.7752 3.84455 10.7752C3.63964 10.7752 3.43912 10.7565 3.24496 10.7196C3.64991 11.9965 4.83001 12.9249 6.22627 12.95C5.13322 13.8124 3.7575 14.3248 2.26195 14.3248C2.00422 14.3248 1.7504 14.3106 1.5 14.2791C2.91338 15.1907 4.59086 15.7224 6.39353 15.7224C12.2652 15.7224 15.4754 10.8303 15.4754 6.58461C15.4754 6.4453 15.4719 6.30747 15.4656 6.16964C16.0896 5.71775 16.6305 5.15017 17.058 4.50729Z" fill="white"/>
</svg>
