<svg width="24" height="24" viewBox="0 0 24 24" fill="none" xmlns="http://www.w3.org/2000/svg">
<path d="M19.5886 6.38022C19.1051 5.88286 18.518 5.48568 17.8643 5.21372C17.2106 4.94177 16.5045 4.80092 15.7904 4.80005C15.0764 4.79919 14.3699 4.93833 13.7155 5.2087C13.061 5.47908 12.4729 5.87483 11.988 6.37102V6.43542C11.526 5.96409 10.9705 5.58353 10.3531 5.31549C9.7357 5.04745 9.06858 4.89717 8.38983 4.87325C7.71108 4.84933 7.034 4.95222 6.39727 5.17606C5.76054 5.3999 5.17663 5.7403 4.67891 6.17781L4.40677 6.43542C3.43692 7.45035 2.8999 8.7701 2.8999 10.1386C2.8999 11.5072 3.43692 12.827 4.40677 13.8419L11.2687 20.6963C11.3618 20.7939 11.4759 20.8716 11.6033 20.9239C11.7307 20.9763 11.8685 21.0022 12.0074 20.9999C12.1458 20.9988 12.2825 20.9714 12.4094 20.9193C12.5363 20.8671 12.6508 20.7913 12.7461 20.6963L19.5886 13.7959C20.5612 12.7804 21.0999 11.4587 21.0999 10.088C21.0999 8.71736 20.5612 7.3957 19.5886 6.38022ZM10.4912 7.6959L11.259 8.46875C11.454 8.64822 11.716 8.74744 11.988 8.74476C12.1256 8.74438 12.2617 8.71816 12.3885 8.66762C12.5153 8.61708 12.6302 8.54323 12.7267 8.45035L13.4945 7.6867C14.0598 7.1072 14.8447 6.76342 15.6773 6.73066C16.5098 6.69789 17.3221 6.97881 17.9363 7.51189L18.121 7.6867C18.7627 8.33328 19.1199 9.18709 19.1199 10.0742C19.1199 10.9614 18.7627 11.8152 18.121 12.4618L11.988 18.5802L5.86469 12.471C5.23359 11.8194 4.88348 10.9675 4.88348 10.0834C4.88348 9.19942 5.23359 8.34752 5.86469 7.6959C6.43133 7.11769 7.21693 6.77561 8.04946 6.74457C8.88199 6.71353 9.69359 6.99606 10.3065 7.53029L10.4912 7.6959Z" fill="#0B0E61"/>
</svg>
