<svg width="24" height="24" viewBox="0 0 24 24" fill="none" xmlns="http://www.w3.org/2000/svg">
<path fill-rule="evenodd" clip-rule="evenodd" d="M5 5C5 3.89543 5.89543 3 7 3H17C18.1046 3 19 3.89543 19 5V19C19 20.1046 18.1046 21 17 21H7C5.89543 21 5 20.1046 5 19V5ZM12 11.8322C13.1793 11.8322 14.1353 10.8624 14.1353 9.6661C14.1353 8.4698 13.1793 7.5 12 7.5C10.8207 7.5 9.86466 8.4698 9.86466 9.6661C9.86466 10.8624 10.8207 11.8322 12 11.8322ZM14.8284 13.6308C15.5786 14.3918 16 15.4239 16 16.5H8C8 15.4239 8.42143 14.3918 9.17157 13.6308C9.92172 12.8699 10.9391 12.4424 12 12.4424C13.0609 12.4424 14.0783 12.8699 14.8284 13.6308Z" fill="#124DE3"/>
</svg>
