<svg width="31" height="29" viewBox="0 0 31 29" fill="none" xmlns="http://www.w3.org/2000/svg">
<path d="M27.6883 6.90871L16.5 6.90871L14.925 4.01368C14.8341 3.85615 14.703 3.72559 14.5452 3.63535C14.3874 3.54511 14.2084 3.49841 14.0266 3.50004L6.43164 3.50004C6.15626 3.50004 5.89216 3.6095 5.69743 3.80434C5.50271 3.99918 5.39331 4.26344 5.39331 4.53898L5.39331 22.2944C5.39331 22.5699 5.50271 22.8342 5.69743 23.029C5.89216 23.2239 6.15626 23.3333 6.43164 23.3333L27.7 23.3333C27.8358 23.3333 27.9703 23.3064 28.0956 23.254C28.2209 23.2017 28.3346 23.125 28.4301 23.0283C28.5256 22.9317 28.601 22.8171 28.6519 22.6911C28.7028 22.5651 28.7282 22.4303 28.7266 22.2944L28.7266 7.94765C28.7266 7.6721 28.6172 7.40784 28.4225 7.21301C28.2278 7.01817 27.9637 6.90871 27.6883 6.90871Z" fill="white"/>
<path d="M18.3667 19.6C18.3667 24.6258 14.2925 28.7 9.26675 28.7C4.24096 28.7 0.166748 24.6258 0.166748 19.6C0.166748 14.5742 4.24096 10.5 9.26675 10.5C14.2925 10.5 18.3667 14.5742 18.3667 19.6Z" fill="white"/>
<path fill-rule="evenodd" clip-rule="evenodd" d="M18.3667 19.6C18.3667 24.6258 14.2925 28.7 9.26675 28.7C4.24096 28.7 0.166748 24.6258 0.166748 19.6C0.166748 14.5742 4.24096 10.5 9.26675 10.5C14.2925 10.5 18.3667 14.5742 18.3667 19.6ZM9.26675 26.6C13.1327 26.6 16.2667 23.466 16.2667 19.6C16.2667 15.734 13.1327 12.6 9.26675 12.6C5.40076 12.6 2.26675 15.734 2.26675 19.6C2.26675 23.466 5.40076 26.6 9.26675 26.6Z" fill="#124DE3"/>
<path fill-rule="evenodd" clip-rule="evenodd" d="M13.958 17.611L8.21559 22.8314L4.8335 19.4493L6.05443 18.2284L8.27234 20.4463L12.7966 16.3334L13.958 17.611Z" fill="#124DE3"/>
</svg>
