<svg width="24" height="24" viewBox="0 0 24 24" fill="none" xmlns="http://www.w3.org/2000/svg">
<path d="M12.6903 23H11.3096C10.1929 23 9.28433 22.0915 9.28433 20.9748V20.5076C8.80957 20.356 8.3483 20.1645 7.90516 19.9352L7.57413 20.2662C6.77238 21.0689 5.48809 21.0454 4.70962 20.2659L3.73376 19.2901C2.95392 18.5111 2.93149 17.2272 3.73402 16.4256L4.06479 16.0948C3.83546 15.6517 3.64404 15.1905 3.49232 14.7156H3.02525C1.90857 14.7156 1 13.8071 1 12.6904V11.3096C1 10.1929 1.90857 9.28438 3.02529 9.28438H3.49236C3.64408 8.80957 3.83551 8.34834 4.06483 7.90521L3.7338 7.57422C2.93175 6.77302 2.95388 5.48903 3.73406 4.70971L4.71001 3.7338C5.49028 2.95246 6.77427 2.93295 7.57448 3.73406L7.90521 4.06479C8.34834 3.83551 8.80961 3.64404 9.28438 3.49232V3.02525C9.28438 1.90853 10.1929 1 11.3097 1H12.6904C13.8071 1 14.7156 1.90853 14.7156 3.02525V3.49236C15.1904 3.64404 15.6517 3.83551 16.0948 4.06483L16.4258 3.7338C17.2276 2.93106 18.5119 2.95461 19.2903 3.7341L20.2662 4.70992C21.046 5.4889 21.0685 6.77277 20.2659 7.57443L19.9352 7.90521C20.1645 8.34834 20.3559 8.80953 20.5076 9.28438H20.9747C22.0914 9.28438 23 10.1929 23 11.3096V12.6904C23 13.8071 22.0914 14.7156 20.9747 14.7156H20.5076C20.3559 15.1904 20.1645 15.6517 19.9352 16.0948L20.2662 16.4258C21.0683 17.227 21.0461 18.511 20.2659 19.2903L19.29 20.2662C18.5097 21.0476 17.2257 21.0671 16.4255 20.266L16.0948 19.9353C15.6517 20.1645 15.1904 20.356 14.7156 20.5077V20.9748C14.7156 22.0915 13.8071 23 12.6903 23ZM8.12065 18.5815C8.73627 18.9456 9.39884 19.2206 10.09 19.399C10.3746 19.4724 10.5734 19.7291 10.5734 20.0231V20.9748C10.5734 21.3807 10.9037 21.7109 11.3097 21.7109H12.6904C13.0963 21.7109 13.4266 21.3807 13.4266 20.9748V20.0231C13.4266 19.7291 13.6255 19.4724 13.9101 19.399C14.6012 19.2206 15.2638 18.9456 15.8794 18.5815C16.1327 18.4317 16.4552 18.4725 16.6633 18.6806L17.3374 19.3547C17.628 19.6457 18.0947 19.6389 18.3782 19.355L19.3548 18.3785C19.6376 18.096 19.6471 17.6292 19.355 17.3376L18.6807 16.6632C18.4726 16.4551 18.4319 16.1326 18.5816 15.8793C18.9457 15.2638 19.2207 14.6012 19.399 13.91C19.4725 13.6254 19.7292 13.4266 20.0231 13.4266H20.9748C21.3807 13.4266 21.711 13.0963 21.711 12.6904V11.3097C21.711 10.9037 21.3807 10.5735 20.9748 10.5735H20.0231C19.7292 10.5735 19.4725 10.3746 19.399 10.09C19.2207 9.39889 18.9456 8.73631 18.5816 8.12074C18.4319 7.86748 18.4726 7.54496 18.6807 7.3369L19.3548 6.66277C19.6462 6.3717 19.6386 5.90505 19.355 5.62185L18.3786 4.64538C18.0955 4.36196 17.6287 4.35367 17.3377 4.64512L16.6633 5.31952C16.4553 5.52762 16.1326 5.56835 15.8794 5.41856C15.2638 5.05449 14.6012 4.77945 13.9101 4.60108C13.6255 4.52765 13.4266 4.27095 13.4266 3.977V3.02525C13.4266 2.61932 13.0963 2.28906 12.6904 2.28906H11.3097C10.9038 2.28906 10.5735 2.61932 10.5735 3.02525V3.97692C10.5735 4.27087 10.3746 4.52756 10.09 4.601C9.39889 4.77936 8.73631 5.0544 8.1207 5.41848C7.86735 5.56822 7.54487 5.52749 7.33682 5.31943L6.66272 4.6453C6.37208 4.35431 5.90531 4.36106 5.62185 4.645L4.6453 5.6215C4.36248 5.90398 4.35302 6.37075 4.64504 6.66242L5.31943 7.33682C5.52749 7.54487 5.56822 7.86739 5.41848 8.12065C5.0544 8.73622 4.7794 9.3988 4.60104 10.09C4.52756 10.3746 4.27087 10.5734 3.97696 10.5734H3.02529C2.61936 10.5734 2.28906 10.9037 2.28906 11.3096V12.6904C2.28906 13.0963 2.61936 13.4266 3.02529 13.4266H3.97692C4.27087 13.4266 4.52752 13.6254 4.601 13.91C4.77936 14.6012 5.0544 15.2637 5.41843 15.8793C5.56818 16.1326 5.52745 16.4551 5.31939 16.6631L4.64525 17.3373C4.35384 17.6283 4.36145 18.095 4.645 18.3782L5.62146 19.3547C5.9045 19.6381 6.37131 19.6464 6.66238 19.3549L7.33673 18.6805C7.49004 18.5273 7.809 18.3972 8.12065 18.5815Z" fill="#18213A"/>
<path d="M12 17C9.24295 17 7 14.757 7 12C7 9.243 9.24295 7 12 7C14.757 7 17 9.243 17 12C17 14.757 14.757 17 12 17ZM12 8.3465C9.98541 8.3465 8.3465 9.98546 8.3465 12C8.3465 14.0145 9.98546 15.6535 12 15.6535C14.0145 15.6535 15.6535 14.0145 15.6535 12C15.6535 9.98546 14.0146 8.3465 12 8.3465Z" fill="#18213A"/>
</svg>
