<svg width="24" height="24" viewBox="0 0 24 24" fill="none" xmlns="http://www.w3.org/2000/svg">
<path d="M11.9878 22C11.8503 21.9994 11.7144 21.9731 11.5883 21.9225C11.4621 21.8719 11.3484 21.7981 11.254 21.7056L2.81604 13.4509C1.64814 12.2745 1 10.7348 1 9.1368C1 7.53883 1.64814 5.99913 2.81604 4.82266L3.13399 4.56222C3.72288 4.0521 4.41494 3.65488 5.17031 3.39344C5.92568 3.13199 6.72945 3.01148 7.53533 3.03884C8.34121 3.0662 9.13328 3.2409 9.86594 3.55288C10.5986 3.86485 11.2574 4.30794 11.8043 4.85663L11.9878 5.02647L12.1957 4.82266C12.7682 4.24798 13.4632 3.78934 14.2366 3.47564C15.0101 3.16195 15.8454 3 16.6898 3C17.5342 3 18.3695 3.16195 19.143 3.47564C19.9165 3.78934 20.6114 4.24798 21.184 4.82266C22.3519 5.99913 23 7.53883 23 9.1368C23 10.7348 22.3519 12.2745 21.184 13.4509L12.746 21.7056C12.6479 21.7998 12.53 21.8745 12.3996 21.9251C12.2693 21.9757 12.1291 22.0012 11.9878 22ZM7.3163 4.87927C6.74698 4.87809 6.18356 4.98614 5.66158 5.19661C5.1396 5.40709 4.67038 5.71543 4.28351 6.10218C3.4757 6.93375 3.02876 8.01266 3.02876 9.13113C3.02876 10.2496 3.4757 11.3285 4.28351 12.1601L11.9878 19.7013L19.7165 12.1601C20.5479 11.3394 21.0106 10.2564 21.0106 9.13113C21.0106 8.00589 20.5479 6.92287 19.7165 6.10218L19.4841 5.88704C19.0876 5.54781 18.6227 5.28426 18.1161 5.11147C17.6095 4.93868 17.0711 4.86002 16.5316 4.88C15.9921 4.89998 15.4622 5.0182 14.9721 5.22791C14.482 5.43762 14.0414 5.7347 13.6754 6.10218L12.7337 7.01936C12.5394 7.19571 12.2782 7.29449 12.0061 7.29449C11.734 7.29449 11.4728 7.19571 11.2785 7.01936L10.3369 6.10218L10.1045 5.88704C9.34565 5.23752 8.34971 4.87755 7.3163 4.87927Z" fill="#18213A"/>
</svg>
