<svg width="16" height="16" viewBox="0 0 16 16" fill="none" xmlns="http://www.w3.org/2000/svg">
<path fill-rule="evenodd" clip-rule="evenodd" d="M2 3.12195C2 2.6909 2.35817 2.34146 2.8 2.34146H13.2C13.6418 2.34146 14 2.6909 14 3.12195C14 3.553 13.6418 3.90244 13.2 3.90244H2.8C2.35817 3.90244 2 3.553 2 3.12195Z" fill="#18213A"/>
<path fill-rule="evenodd" clip-rule="evenodd" d="M2.8 4.29268C3.24183 4.29268 3.6 4.64212 3.6 5.07317V12.878C3.6 13.7402 4.31634 14.439 5.2 14.439H10.8C11.6837 14.439 12.4 13.7402 12.4 12.878V5.07317C12.4 4.64212 12.7582 4.29268 13.2 4.29268C13.6418 4.29268 14 4.64212 14 5.07317V12.878C14 14.6023 12.5673 16 10.8 16H5.2C3.43269 16 2 14.6023 2 12.878V5.07317C2 4.64212 2.35817 4.29268 2.8 4.29268Z" fill="#18213A"/>
<path fill-rule="evenodd" clip-rule="evenodd" d="M4.8 1.56098C4.8 0.698873 5.51634 0 6.4 0H9.6C10.4837 0 11.2 0.698873 11.2 1.56098V2.34146C11.2 2.34146 10.8418 2.34146 10.4 2.34146C9.95817 2.34146 9.6 2.34146 9.6 2.34146V1.56098H6.4V2.34146C6.4 2.34146 6.04183 2.34146 5.6 2.34146C5.15817 2.34146 4.8 2.34146 4.8 2.34146V1.56098Z" fill="#18213A"/>
<path fill-rule="evenodd" clip-rule="evenodd" d="M6.8 6.63415C7.24183 6.63415 7.6 6.98358 7.6 7.41463V11.3171C7.6 11.7481 7.24183 12.0976 6.8 12.0976C6.35817 12.0976 6 11.7481 6 11.3171V7.41463C6 6.98358 6.35817 6.63415 6.8 6.63415Z" fill="#18213A"/>
<path fill-rule="evenodd" clip-rule="evenodd" d="M9.2 6.63415C9.64183 6.63415 10 6.98358 10 7.41463V11.3171C10 11.7481 9.64183 12.0976 9.2 12.0976C8.75817 12.0976 8.4 11.7481 8.4 11.3171V7.41463C8.4 6.98358 8.75817 6.63415 9.2 6.63415Z" fill="#18213A"/>
</svg>
