<svg width="28" height="24" viewBox="0 0 28 24" fill="none" xmlns="http://www.w3.org/2000/svg">
<path fill-rule="evenodd" clip-rule="evenodd" d="M14.0448 0.68335C13.5248 0.68335 13.1032 1.10495 13.1032 1.62496V3.43132L3.446 3.42441C2.92598 3.42441 2.50438 3.84601 2.50438 4.36602C2.50438 4.88604 2.92598 5.30764 3.446 5.30764L5.3741 5.30764L0.715983 16.8771C0.669532 16.9868 0.644288 17.1042 0.641602 17.2231V17.2284C0.641602 20.6099 3.38282 23.3511 6.7643 23.3511C10.1458 23.3511 12.8871 20.6099 12.8871 17.2284L12.8869 17.2231C12.8842 17.1043 12.8591 16.9869 12.8126 16.8772L8.16149 5.301L13.1032 5.30733V7.44038C13.1032 7.69626 13.1533 7.94909 13.3192 8.13812C13.4906 8.33342 13.7437 8.41426 14.0448 8.41426C14.346 8.41426 14.5991 8.33342 14.7705 8.13812C14.9364 7.94909 14.9865 7.69626 14.9865 7.44038V5.30732L19.8108 5.30101L15.1871 16.8775C15.1408 16.987 15.1156 17.1043 15.1129 17.2231V17.2284C15.1129 20.6099 17.8541 23.3511 21.2356 23.3511C24.617 23.3511 27.3583 20.6099 27.3583 17.2284L27.3582 17.2231C27.3555 17.1041 27.3303 16.9866 27.2838 16.8768L22.6052 5.31472H24.5609C25.0809 5.31472 25.5025 4.89312 25.5025 4.3731C25.5025 3.85309 25.0808 3.43149 24.5607 3.43149L14.9865 3.4384V1.62496C14.9865 1.10495 14.5649 0.68335 14.0448 0.68335ZM10.5453 16.301H2.99085L6.77455 6.88391L10.5453 16.301ZM24.974 16.301L17.4197 16.301L21.2033 6.89063L24.974 16.301ZM6.76025 21.4785C4.77373 21.4754 3.06892 20.0973 2.63128 18.1842H10.8619C10.4265 20.0876 8.73642 21.4627 6.76025 21.4785ZM21.2034 21.4785L20.9957 21.4788C19.1079 21.3712 17.5194 20.0232 17.1021 18.1842H25.3332C24.8955 20.0976 23.1903 21.4758 21.2034 21.4785Z" fill="#0B0E61"/>
</svg>
