<svg width="24" height="18" viewBox="0 0 24 18" fill="none" xmlns="http://www.w3.org/2000/svg">
<path d="M0 1.2998C0 0.74752 0.447715 0.299805 1 0.299805H2.4C2.95229 0.299805 3.4 0.74752 3.4 1.2998V2.69981C3.4 3.25209 2.95228 3.6998 2.4 3.6998H1C0.447715 3.6998 0 3.25209 0 2.6998V1.2998Z" fill="#18213A"/>
<path d="M0 8.2998C0 7.74752 0.447715 7.2998 1 7.2998H2.4C2.95229 7.2998 3.4 7.74752 3.4 8.2998V9.69981C3.4 10.2521 2.95228 10.6998 2.4 10.6998H1C0.447715 10.6998 0 10.2521 0 9.6998V8.2998Z" fill="#18213A"/>
<path d="M0 15.2998C0 14.7475 0.447715 14.2998 1 14.2998H2.4C2.95229 14.2998 3.4 14.7475 3.4 15.2998V16.6998C3.4 17.2521 2.95228 17.6998 2.4 17.6998H1C0.447715 17.6998 0 17.2521 0 16.6998V15.2998Z" fill="#18213A"/>
<path d="M6 1.29981C6 1.07889 6.17909 0.899805 6.4 0.899805H23.6C23.8209 0.899805 24 1.07889 24 1.29981V2.69981C24 2.92072 23.8209 3.09981 23.6 3.09981H6.4C6.17909 3.09981 6 2.92072 6 2.69981V1.29981Z" fill="#18213A"/>
<path d="M6 8.2998C6 8.07889 6.17909 7.8998 6.4 7.8998H23.6C23.8209 7.8998 24 8.07889 24 8.2998V9.6998C24 9.92072 23.8209 10.0998 23.6 10.0998H6.4C6.17909 10.0998 6 9.92072 6 9.6998V8.2998Z" fill="#18213A"/>
<path d="M6 15.2998C6 15.0789 6.17909 14.8998 6.4 14.8998H23.6C23.8209 14.8998 24 15.0789 24 15.2998V16.6998C24 16.9207 23.8209 17.0998 23.6 17.0998H6.4C6.17909 17.0998 6 16.9207 6 16.6998V15.2998Z" fill="#18213A"/>
</svg>
