<svg width="16" height="17" viewBox="0 0 16 17" fill="none" xmlns="http://www.w3.org/2000/svg">
<g clip-path="url(#clip0_8818_22438)">
<path d="M12.5 6.5H12V4.5C12 2.294 10.206 0.5 8 0.5C5.794 0.5 4 2.294 4 4.5V6.5H3.5C2.67333 6.5 2 7.17267 2 8V15C2 15.8273 2.67333 16.5 3.5 16.5H12.5C13.3267 16.5 14 15.8273 14 15V8C14 7.17267 13.3267 6.5 12.5 6.5ZM5.33333 4.5C5.33333 3.02933 6.52933 1.83333 8 1.83333C9.47067 1.83333 10.6667 3.02933 10.6667 4.5V6.5H5.33333V4.5ZM8.66667 11.648V13.1667C8.66667 13.5347 8.36867 13.8333 8 13.8333C7.63133 13.8333 7.33333 13.5347 7.33333 13.1667V11.648C6.93667 11.4167 6.66667 10.9913 6.66667 10.5C6.66667 9.76467 7.26467 9.16667 8 9.16667C8.73533 9.16667 9.33333 9.76467 9.33333 10.5C9.33333 10.9913 9.06333 11.4167 8.66667 11.648Z" fill="#18213A"/>
</g>
<defs>
<clipPath id="clip0_8818_22438">
<rect width="16" height="16" fill="white" transform="translate(0 0.5)"/>
</clipPath>
</defs>
</svg>
