<svg width="154" height="120" viewBox="0 0 154 120" fill="none" xmlns="http://www.w3.org/2000/svg">
<path d="M0 0H154L136.666 106.569C135.407 114.312 128.719 120 120.874 120H0V0Z" fill="url(#paint0_radial_4270_390892)"/>
<path d="M87.9174 49.5114C87.1828 49.5114 86.5904 48.919 86.5904 48.1845V35.7084H72.2068C71.4722 35.7084 70.8798 35.116 70.8798 34.3814C70.8798 33.6468 71.4722 33.0544 72.2068 33.0544H89.2444V48.1845C89.2444 48.9131 88.652 49.5114 87.9174 49.5114Z" fill="white"/>
<path d="M89.2444 88H47.314V55.4237C47.314 54.6891 47.9064 54.0967 48.6409 54.0967C49.3755 54.0967 49.9679 54.6891 49.9679 55.4237V85.3519H86.5963V64.4578C86.5963 63.7233 87.1887 63.1308 87.9233 63.1308C88.6579 63.1308 89.2503 63.7233 89.2503 64.4578V88H89.2444Z" fill="white"/>
<path d="M81.4661 51.4012C80.7315 51.4012 80.1391 50.8088 80.1391 50.0742V40.8208H76.2826C75.548 40.8208 74.9556 40.2284 74.9556 39.4939C74.9556 38.7593 75.548 38.1669 76.2826 38.1669H82.7931V50.0742C82.7931 50.8088 82.2007 51.4012 81.4661 51.4012Z" fill="white"/>
<path d="M55.0922 66.4127C54.3577 66.4127 53.7653 65.8203 53.7653 65.0857V59.0847C53.7653 58.3501 54.3577 57.7577 55.0922 57.7577C55.8268 57.7577 56.4192 58.3501 56.4192 59.0847V65.0857C56.4192 65.8203 55.8268 66.4127 55.0922 66.4127Z" fill="white"/>
<path d="M53.9548 75.5832C53.6171 75.5832 53.2795 75.4528 53.0188 75.1981C52.5034 74.6827 52.5034 73.8474 53.0188 73.332L64.5766 61.7742C65.092 61.2588 65.9273 61.2588 66.4427 61.7742L71.7862 67.1177L82.953 55.9509C83.4684 55.4355 84.3037 55.4355 84.8191 55.9509C85.3345 56.4663 85.3345 57.3016 84.8191 57.8169L72.7163 69.9198C72.2009 70.4352 71.3656 70.4352 70.8502 69.9198L65.5067 64.5763L54.879 75.204C54.6301 75.4528 54.2925 75.5832 53.9548 75.5832Z" fill="white"/>
<path d="M88.6638 52.1299L79.5349 54.5706L86.2172 61.2529L88.6638 52.1299Z" fill="white"/>
<path d="M78.1427 82.6388H80.2635C82.2125 82.6388 83.7942 81.0571 83.7942 79.108V61.2944L78.1427 66.946V82.6388Z" fill="white"/>
<path d="M71.7862 72.0288C70.9805 72.0288 70.2282 71.7207 69.6536 71.158V82.6328H75.3051V69.7717L73.9426 71.1343C73.3679 71.7148 72.6037 72.0288 71.7862 72.0288Z" fill="white"/>
<path d="M61.1762 71.3535V82.6388H66.8277V68.3322L65.5126 67.0171L61.1762 71.3535Z" fill="white"/>
<path d="M54.6005 77.242C53.9311 77.3842 53.2676 77.3012 52.693 77.0346V79.1021C52.693 81.0512 54.2747 82.6329 56.2237 82.6329H58.3445V74.1852L56.1586 76.3712C55.732 76.7977 55.1929 77.1176 54.6005 77.242Z" fill="white"/>
<path d="M88.6638 52.1299L79.5408 54.5765L81.9341 56.9698L71.7921 67.1118L66.4486 61.7683C65.9332 61.2529 65.0979 61.2529 64.5825 61.7683L53.0247 73.3261C52.5093 73.8415 52.5093 74.6768 53.0247 75.1922C53.2854 75.4529 53.6231 75.5773 53.9607 75.5773C54.2984 75.5773 54.6361 75.4469 54.8967 75.1922L65.5245 64.5645L70.868 69.9079C71.3833 70.4233 72.2186 70.4233 72.734 69.9079L83.812 58.83L86.229 61.247L88.6638 52.1299Z" fill="white"/>
<path d="M66.6975 51.6915C67.3728 51.0162 68.2081 50.6133 68.9308 50.6133C69.3633 50.6133 69.7365 50.7555 70.0031 51.028C71.1997 49.1146 71.8928 46.8634 71.8928 44.4464C71.8928 37.5864 66.3124 32 59.4464 32C52.5864 32 47 37.5805 47 44.4464C47 51.3065 52.5805 56.8928 59.4464 56.8928C61.8634 56.8928 64.1205 56.1997 66.028 55.0031C65.2935 54.2566 65.5897 52.8052 66.6975 51.6915ZM49.7725 44.4405C49.7725 39.1029 54.1148 34.7606 59.4523 34.7606C64.7899 34.7606 69.1322 39.1029 69.1322 44.4405C69.1322 49.7781 64.7899 54.1204 59.4523 54.1204C54.1148 54.1204 49.7725 49.7781 49.7725 44.4405Z" fill="white"/>
<path d="M67.7579 44.4405C67.7579 39.8553 64.0376 36.135 59.4524 36.135C54.8672 36.135 51.1469 39.8553 51.1469 44.4405C51.1469 44.7604 51.1646 45.0744 51.2002 45.3825C51.6326 41.206 55.1634 37.9537 59.4524 37.9537C63.7414 37.9537 67.2721 41.2119 67.7046 45.3825C67.7401 45.0744 67.7579 44.7604 67.7579 44.4405Z" fill="white"/>
<path d="M75.4887 57.3193L70.4178 52.2483L69.7483 51.5789C69.7306 51.5493 69.7187 51.5256 69.695 51.496C69.6713 51.4664 69.6476 51.4368 69.6239 51.4071C69.5825 51.3657 69.541 51.336 69.4936 51.3064C69.4818 51.3005 69.464 51.2886 69.4521 51.2827C69.4166 51.265 69.3811 51.2472 69.3455 51.2294C69.3277 51.2235 69.3159 51.2176 69.2981 51.2116C69.2448 51.1939 69.1915 51.182 69.1382 51.1702C69.0789 51.1583 69.0197 51.1583 68.9604 51.1583C68.9545 51.1583 68.9486 51.1583 68.9427 51.1583C68.9308 51.1583 68.919 51.1583 68.9071 51.1583C68.8597 51.1583 68.8123 51.1642 68.765 51.1702C68.7472 51.1702 68.7294 51.1761 68.7057 51.1761C68.6405 51.1879 68.5754 51.1998 68.5043 51.2176C68.4332 51.2353 68.368 51.259 68.2969 51.2827C68.2792 51.2886 68.2555 51.3005 68.2377 51.3064C68.1844 51.3301 68.1311 51.3479 68.0778 51.3775C68.0541 51.3894 68.0363 51.3953 68.0126 51.4071C67.9415 51.4427 67.8704 51.4782 67.7993 51.5256C67.7282 51.5671 67.6572 51.6145 67.5861 51.6678C67.5624 51.6856 67.5446 51.6974 67.5209 51.7152C67.4676 51.7567 67.4202 51.7922 67.3669 51.8337C67.3432 51.8514 67.3254 51.8692 67.3017 51.887C67.2365 51.9462 67.1655 52.0055 67.1003 52.0706C66.7152 52.4557 66.4368 52.8941 66.2946 53.3028C66.2769 53.3621 66.2591 53.4213 66.2413 53.4746C66.2117 53.5872 66.1939 53.6997 66.1821 53.8064C66.1761 53.8597 66.1761 53.913 66.1761 53.9663C66.1761 54.0196 66.1821 54.067 66.188 54.1144C66.1939 54.1618 66.2058 54.2092 66.2176 54.2566C66.2591 54.3929 66.3242 54.5113 66.425 54.6061C66.4546 54.6357 66.4842 54.6535 66.5138 54.6772C66.5257 54.6891 66.5375 54.7009 66.5494 54.7068C66.5553 54.7127 66.5612 54.7128 66.5671 54.7187L66.5731 54.7246L67.2484 55.3999L72.3312 60.4828C72.3727 59.8074 72.7459 59.0373 73.3976 58.3857C74.0314 57.7577 74.7956 57.3667 75.4887 57.3193Z" fill="white"/>
<path d="M76.561 58.5989C76.5314 58.4034 76.4543 58.2375 76.324 58.1072C76.2825 58.0657 76.2411 58.0361 76.1937 58.0065C76.1818 58.0006 76.17 57.9887 76.1522 57.9828C76.1167 57.965 76.0811 57.9473 76.0456 57.9295C76.0278 57.9236 76.016 57.9176 75.9982 57.9117C75.9449 57.8939 75.8916 57.8821 75.8382 57.8702C75.779 57.8584 75.7198 57.8584 75.6605 57.8584C75.6546 57.8584 75.6487 57.8584 75.6427 57.8584C75.6309 57.8584 75.6191 57.8584 75.6072 57.8584C75.5598 57.8584 75.5124 57.8643 75.465 57.8702C75.4473 57.8702 75.4236 57.8762 75.4058 57.8762C75.3406 57.888 75.2755 57.8999 75.2044 57.9176C75.1333 57.9354 75.0622 57.9591 74.997 57.9828C74.9793 57.9887 74.9556 58.0006 74.9378 58.0065C74.8845 58.0302 74.8312 58.048 74.7778 58.0776C74.7541 58.0894 74.7364 58.0954 74.7127 58.1072C74.5705 58.1783 74.4224 58.2672 74.2802 58.3679C74.2624 58.3797 74.2387 58.3975 74.221 58.4153C74.1677 58.4567 74.1143 58.4982 74.061 58.5397C74.0433 58.5574 74.0196 58.5752 74.0018 58.593C73.9307 58.6522 73.8655 58.7174 73.8004 58.7825C73.2494 59.3335 72.9236 59.9851 72.8881 60.5183C72.8821 60.5716 72.8821 60.6249 72.8821 60.6782C72.8881 60.7967 72.9118 60.9093 72.9473 61.01C72.9532 61.0278 72.9592 61.0455 72.9651 61.0633C72.9828 61.0989 73.0006 61.1344 73.0243 61.1699C73.0539 61.2233 73.0895 61.2706 73.1369 61.3121C73.1783 61.3536 73.2198 61.3832 73.2613 61.4128C73.2731 61.4187 73.2909 61.4306 73.3028 61.4365C73.3383 61.4543 73.3738 61.4721 73.4094 61.4898C73.4272 61.4958 73.439 61.5017 73.4568 61.5076C73.5101 61.5254 73.5634 61.5372 73.6226 61.5491C73.6819 61.5609 73.7411 61.5609 73.8004 61.5609C73.8181 61.5609 73.8359 61.5609 73.8537 61.5609C73.9011 61.5609 73.9485 61.555 73.9959 61.5491C74.0136 61.5491 74.0373 61.5432 74.0551 61.5432C74.1203 61.5313 74.1854 61.5195 74.2565 61.5017C74.3276 61.4839 74.3928 61.4602 74.4639 61.4365C74.4816 61.4306 74.5053 61.4187 74.5231 61.4128C74.5764 61.3891 74.6297 61.3714 74.683 61.3417C74.7067 61.3299 74.7245 61.324 74.7482 61.3121C74.8193 61.2766 74.8904 61.241 74.9615 61.1936C75.0326 61.1522 75.1037 61.1048 75.1747 61.0515C75.1984 61.0396 75.2162 61.0218 75.2399 61.0041C75.2932 60.9626 75.3465 60.9271 75.3939 60.8797C75.4117 60.8619 75.4354 60.8441 75.4532 60.8264C75.5243 60.7671 75.5894 60.7079 75.6546 60.6368C75.933 60.3583 76.1522 60.0621 76.3062 59.76C76.401 59.5823 76.4662 59.4046 76.5136 59.2328C76.5432 59.1202 76.561 59.0077 76.5728 58.901C76.5787 58.8003 76.5728 58.6996 76.561 58.5989Z" fill="white"/>
<defs>
<radialGradient id="paint0_radial_4270_390892" cx="0" cy="0" r="1" gradientUnits="userSpaceOnUse" gradientTransform="translate(29.4045 -88.3019) rotate(63.7057) scale(299.267 239.291)">
<stop stop-color="#7909A0"/>
<stop offset="1" stop-color="#0B0E61"/>
</radialGradient>
</defs>
</svg>
