<svg width="166" height="40" viewBox="0 0 166 40" fill="none" xmlns="http://www.w3.org/2000/svg">
<path d="M41.6122 29.9385V30.8059H39.7588V29.9385H41.6122Z" fill="white"/>
<path d="M44.6714 32.7438V34.978H43.7236V29.2867C43.7236 28.5504 43.7236 28.0595 43.7151 27.7252H44.6164C44.6333 27.831 44.6502 28.0595 44.6502 28.2796C44.7983 27.9241 45.0988 27.6406 45.6404 27.6406C46.3936 27.6406 46.7575 28.1611 46.7575 29.2232V31.4786C46.7575 32.7099 46.3259 33.2346 45.5389 33.2346C45.048 33.2346 44.8026 32.9892 44.6714 32.7438ZM45.8139 31.4955V29.2951C45.8139 28.7323 45.6235 28.4954 45.2934 28.4954C44.8534 28.4954 44.6714 28.8212 44.6714 29.4813V31.3178C44.6714 31.9017 44.7687 32.3841 45.2511 32.3841C45.6743 32.3841 45.8139 32.0498 45.8139 31.4955Z" fill="white"/>
<path d="M47.5617 29.5663C47.5617 28.6777 47.5701 28.246 47.5532 27.7256H48.4503C48.4588 27.8441 48.4799 28.2714 48.4799 28.593C48.6873 27.8864 49.1612 27.6536 49.6563 27.6494V28.8173C49.0173 28.8215 48.5095 29.0754 48.5095 30.129V33.1545H47.5617V29.5663Z" fill="white"/>
<path d="M50.1809 27.7251H51.1288V33.1541H50.1809V27.7251ZM50.1851 25.7871H51.133V26.9211H50.1851V25.7871Z" fill="white"/>
<path d="M54.7847 31.3858V31.4577C54.7847 32.4183 54.5393 33.2349 53.3418 33.2349C52.1697 33.2349 51.9285 32.4394 51.9285 31.3266V29.3631C51.9285 28.4618 52.2374 27.6367 53.3883 27.6367C54.6239 27.6367 54.7805 28.538 54.7805 29.232V29.4435H53.8453V29.232C53.8453 28.7834 53.7734 28.4407 53.3672 28.4407C53.0033 28.4407 52.8721 28.7157 52.8721 29.2531V31.5974C52.8721 32.0205 52.9525 32.4352 53.3587 32.4352C53.7395 32.4352 53.8411 32.1559 53.8411 31.6101V31.39H54.7847V31.3858Z" fill="white"/>
<path d="M56.3165 30.6703V31.5039C56.3165 31.9736 56.4181 32.4306 56.8793 32.4306C57.3447 32.4306 57.4167 32.0329 57.4167 31.5886V31.5547H58.3391V31.5843C58.3391 32.181 58.208 33.2346 56.8962 33.2346C55.6183 33.2346 55.394 32.4264 55.394 31.3262V29.4475C55.394 28.6731 55.6522 27.6406 56.9004 27.6406C58.0133 27.6406 58.3603 28.4192 58.3603 29.4432C58.3603 29.7521 58.3603 30.3614 58.3603 30.6703H56.3165ZM57.4505 29.9171V29.312C57.4505 28.8085 57.349 28.4446 56.8962 28.4446C56.4815 28.4446 56.325 28.7662 56.325 29.3163V29.9214H57.4505V29.9171Z" fill="white"/>
<path d="M59.854 31.487V31.7324C59.854 32.1471 59.9979 32.4349 60.3576 32.4349C60.7003 32.4349 60.8399 32.2233 60.8399 31.8044C60.8399 31.3812 60.7172 31.1358 60.0783 30.7169C59.342 30.2387 58.9908 29.8494 58.9908 29.0835C58.9908 28.2161 59.4393 27.6406 60.3618 27.6406C61.3604 27.6406 61.7243 28.2246 61.7243 29.147V29.3755H60.8061V29.0539C60.8061 28.6392 60.6749 28.4404 60.3618 28.4404C60.0571 28.4404 59.9344 28.6562 59.9344 28.9989C59.9344 29.3544 60.0487 29.5109 60.5607 29.8452C61.445 30.4165 61.8005 30.7973 61.8005 31.6901C61.8005 32.7057 61.3096 33.2346 60.3279 33.2346C59.1728 33.2346 58.8977 32.4941 58.8977 31.7282V31.487H59.854Z" fill="white"/>
<path d="M64.0008 33.1498V28.5545H63.4507V27.7209H64.0008V27.0904C64.0008 26.3795 64.2843 25.7363 65.2194 25.7363C65.3675 25.7363 65.5199 25.7448 65.613 25.7744V26.6249C65.5241 26.6122 65.4691 26.608 65.3929 26.608C65.029 26.608 64.9444 26.8238 64.9444 27.2046V27.7209H65.6172V28.5545H64.9444V33.1498H64.0008Z" fill="white"/>
<path d="M66.1376 29.5663C66.1376 28.6777 66.1461 28.246 66.1292 27.7256H67.0262C67.0347 27.8441 67.0558 28.2714 67.0558 28.593C67.2632 27.8864 67.7371 27.6536 68.2322 27.6494V28.8173C67.5932 28.8215 67.0855 29.0754 67.0855 30.129V33.1545H66.1376V29.5663Z" fill="white"/>
<path d="M71.6936 29.3374V31.4997C71.6936 32.6676 71.1224 33.2346 70.1661 33.2346C69.1844 33.2346 68.6597 32.6634 68.6597 31.5166V29.3036C68.6597 28.1822 69.2775 27.6406 70.1957 27.6406C71.1478 27.6406 71.6936 28.2373 71.6936 29.3374ZM69.6075 29.2909V31.5463C69.6075 32.0498 69.7683 32.3925 70.183 32.3925C70.5681 32.3925 70.7458 32.1175 70.7458 31.5293V29.2782C70.7458 28.8127 70.6061 28.4742 70.1788 28.4742C69.781 28.4785 69.6075 28.7662 69.6075 29.2909Z" fill="white"/>
<path d="M72.485 29.2951C72.485 28.2542 72.485 27.9791 72.4766 27.7252H73.3779C73.4075 27.886 73.4075 28.0341 73.4117 28.2161C73.5894 27.848 73.9068 27.6406 74.3553 27.6406C74.7869 27.6406 75.0874 27.8268 75.2143 28.2415C75.3963 27.9284 75.6798 27.6406 76.2383 27.6406C76.8053 27.6406 77.2877 27.9114 77.2877 28.9693V33.1542H76.3399V29.147C76.3399 28.7493 76.2468 28.4954 75.8913 28.4954C75.4597 28.4954 75.3582 28.8551 75.3582 29.4136V33.1542H74.4061V29.1809C74.4061 28.6477 74.258 28.4954 73.9533 28.4954C73.5217 28.4954 73.4244 28.8635 73.4244 29.4221V33.1542H72.4766V29.2951H72.485Z" fill="white"/>
<path d="M82.361 32.1133C82.361 32.4687 82.3653 32.9638 82.3822 33.1542H81.5147C81.4893 33.04 81.4597 32.8199 81.4513 32.7395C81.2693 33.0992 80.9604 33.2388 80.5584 33.2388C79.7544 33.2388 79.4329 32.5068 79.4329 31.6817V31.5886C79.4329 30.298 80.2749 29.9087 81.2482 29.9087C81.2989 29.9087 81.3539 29.9087 81.4174 29.9087V29.147C81.4174 28.6943 81.3539 28.4234 80.9858 28.4234C80.6219 28.4234 80.533 28.7027 80.533 29.0751V29.1851H79.6021V29.0878C79.6021 28.3134 79.9026 27.6406 81.0197 27.6406C82.0268 27.6406 82.361 28.2246 82.361 29.0708V32.1133ZM81.4386 30.6323C81.3836 30.6323 81.2693 30.6323 81.2228 30.6323C80.6811 30.6323 80.3384 30.8481 80.3384 31.5716V31.6605C80.3384 32.0879 80.4823 32.4095 80.8546 32.4095C81.2735 32.4095 81.4386 32.0964 81.4386 31.3305V30.6323Z" fill="white"/>
<path d="M86.0257 31.3858V31.4577C86.0257 32.4183 85.7802 33.2349 84.5827 33.2349C83.4106 33.2349 83.1694 32.4394 83.1694 31.3266V29.3631C83.1694 28.4618 83.4783 27.6367 84.6293 27.6367C85.8649 27.6367 86.0214 28.538 86.0214 29.232V29.4435H85.0863V29.232C85.0863 28.7834 85.0143 28.4407 84.6081 28.4407C84.2442 28.4407 84.1131 28.7157 84.1131 29.2531V31.5974C84.1131 32.0205 84.1934 32.4352 84.5997 32.4352C84.9805 32.4352 85.082 32.1559 85.082 31.6101V31.39H86.0257V31.3858Z" fill="white"/>
<path d="M86.4192 27.7252H87.0158V26.4092H87.9594V27.7252H88.6746V28.5588H87.9594V31.9482C87.9594 32.2147 88.0018 32.4432 88.336 32.4432C88.4334 32.4432 88.5857 32.4305 88.6492 32.4136V33.133C88.4757 33.2134 88.2133 33.2303 88.0187 33.2303C87.4051 33.2303 87.0158 33.0103 87.0158 32.1174V28.5545H86.4192V27.7252Z" fill="white"/>
<path d="M92.1611 31.6143C92.1611 32.3717 92.1611 32.8753 92.1738 33.1503H91.2725C91.2555 33.0445 91.2386 32.7822 91.2386 32.6129C91.0567 33.0953 90.6928 33.2307 90.24 33.2307C89.7576 33.2307 89.1694 33.0191 89.1694 31.8301V27.7171H90.1173V31.5805C90.1173 32.139 90.2738 32.376 90.6293 32.376C90.9932 32.376 91.2175 32.1517 91.2175 31.3054V27.7129H92.1653V31.6143H92.1611Z" fill="white"/>
<path d="M95.7961 32.1133C95.7961 32.4687 95.8003 32.9638 95.8172 33.1542H94.9498C94.9244 33.04 94.8948 32.8199 94.8863 32.7395C94.7044 33.0992 94.3955 33.2388 93.9935 33.2388C93.1895 33.2388 92.8679 32.5068 92.8679 31.6817V31.5886C92.8679 30.298 93.71 29.9087 94.6832 29.9087C94.734 29.9087 94.789 29.9087 94.8525 29.9087V29.147C94.8525 28.6943 94.789 28.4234 94.4209 28.4234C94.057 28.4234 93.9681 28.7027 93.9681 29.0751V29.1851H93.0372V29.0878C93.0372 28.3134 93.3376 27.6406 94.4547 27.6406C95.4618 27.6406 95.7961 28.2246 95.7961 29.0708V32.1133ZM94.8736 30.6323C94.8186 30.6323 94.7044 30.6323 94.6578 30.6323C94.1162 30.6323 93.7734 30.8481 93.7734 31.5716V31.6605C93.7734 32.0879 93.9173 32.4095 94.2897 32.4095C94.7086 32.4095 94.8736 32.0964 94.8736 31.3305V30.6323Z" fill="white"/>
<path d="M96.7524 33.1498V25.7871H97.7003V33.1498H96.7524Z" fill="white"/>
<path d="M102.752 31.3858V31.4577C102.752 32.4183 102.507 33.2349 101.31 33.2349C100.137 33.2349 99.8962 32.4394 99.8962 31.3266V29.3631C99.8962 28.4618 100.205 27.6367 101.356 27.6367C102.592 27.6367 102.748 28.538 102.748 29.232V29.4435H101.813V29.232C101.813 28.7834 101.741 28.4407 101.335 28.4407C100.971 28.4407 100.84 28.7157 100.84 29.2531V31.5974C100.84 32.0205 100.92 32.4352 101.326 32.4352C101.707 32.4352 101.809 32.1559 101.809 31.6101V31.39H102.752V31.3858Z" fill="white"/>
<path d="M106.197 32.1133C106.197 32.4687 106.201 32.9638 106.218 33.1542H105.351C105.325 33.04 105.296 32.8199 105.287 32.7395C105.105 33.0992 104.796 33.2388 104.394 33.2388C103.59 33.2388 103.269 32.5068 103.269 31.6817V31.5886C103.269 30.298 104.111 29.9087 105.084 29.9087C105.135 29.9087 105.19 29.9087 105.253 29.9087V29.147C105.253 28.6943 105.19 28.4234 104.822 28.4234C104.458 28.4234 104.369 28.7027 104.369 29.0751V29.1851H103.438V29.0878C103.438 28.3134 103.738 27.6406 104.856 27.6406C105.863 27.6406 106.197 28.2246 106.197 29.0708V32.1133ZM105.275 30.6323C105.219 30.6323 105.105 30.6323 105.059 30.6323C104.517 30.6323 104.174 30.8481 104.174 31.5716V31.6605C104.174 32.0879 104.318 32.4095 104.691 32.4095C105.109 32.4095 105.275 32.0964 105.275 31.3305V30.6323Z" fill="white"/>
<path d="M107.153 29.5663C107.153 28.6777 107.162 28.246 107.145 27.7256H108.042C108.05 27.8441 108.071 28.2714 108.071 28.593C108.279 27.8864 108.753 27.6536 109.248 27.6494V28.8173C108.609 28.8215 108.101 29.0754 108.101 30.129V33.1545H107.153V29.5663Z" fill="white"/>
<path d="M112.709 25.7871V31.69C112.709 32.4432 112.709 32.8536 112.718 33.1498H111.816C111.799 33.0271 111.783 32.7309 111.783 32.6252C111.626 32.9679 111.372 33.2345 110.83 33.2345C109.883 33.2345 109.675 32.4813 109.675 31.4319V29.2654C109.675 28.3133 110.043 27.6363 110.911 27.6363C111.317 27.6363 111.626 27.7759 111.766 28.0298V25.7871H112.709ZM110.623 29.3246V31.4953C110.623 32.0751 110.763 32.384 111.165 32.384C111.66 32.384 111.766 31.927 111.766 31.2541V29.5362C111.766 28.9438 111.711 28.4952 111.182 28.4952C110.775 28.491 110.623 28.8126 110.623 29.3246Z" fill="white"/>
<path d="M115.709 31.487V31.7324C115.709 32.1471 115.853 32.4349 116.213 32.4349C116.556 32.4349 116.695 32.2233 116.695 31.8044C116.695 31.3812 116.572 31.1358 115.933 30.7169C115.197 30.2387 114.846 29.8494 114.846 29.0835C114.846 28.2161 115.295 27.6406 116.217 27.6406C117.216 27.6406 117.58 28.2246 117.58 29.147V29.3755H116.661V29.0539C116.661 28.6392 116.53 28.4404 116.217 28.4404C115.912 28.4404 115.79 28.6562 115.79 28.9989C115.79 29.3544 115.904 29.5109 116.416 29.8452C117.3 30.4165 117.656 30.7973 117.656 31.6901C117.656 32.7057 117.165 33.2346 116.183 33.2346C115.028 33.2346 114.753 32.4941 114.753 31.7282V31.487H115.709Z" fill="white"/>
<path d="M121.079 32.1133C121.079 32.4687 121.083 32.9638 121.1 33.1542H120.233C120.207 33.04 120.178 32.8199 120.169 32.7395C119.987 33.0992 119.678 33.2388 119.276 33.2388C118.472 33.2388 118.151 32.5068 118.151 31.6817V31.5886C118.151 30.298 118.993 29.9087 119.966 29.9087C120.017 29.9087 120.072 29.9087 120.135 29.9087V29.147C120.135 28.6943 120.072 28.4234 119.704 28.4234C119.34 28.4234 119.251 28.7027 119.251 29.0751V29.1851H118.32V29.0878C118.32 28.3134 118.621 27.6406 119.738 27.6406C120.745 27.6406 121.079 28.2246 121.079 29.0708V32.1133ZM120.152 30.6323C120.097 30.6323 119.983 30.6323 119.937 30.6323C119.395 30.6323 119.052 30.8481 119.052 31.5716V31.6605C119.052 32.0879 119.196 32.4095 119.568 32.4095C119.987 32.4095 120.152 32.0964 120.152 31.3305V30.6323Z" fill="white"/>
<path d="M122.035 33.1498V25.7871H122.983V33.1498H122.035Z" fill="white"/>
<path d="M124.697 30.6703V31.5039C124.697 31.9736 124.798 32.4306 125.26 32.4306C125.725 32.4306 125.797 32.0329 125.797 31.5886V31.5547H126.72V31.5843C126.72 32.181 126.588 33.2346 125.277 33.2346C123.999 33.2346 123.774 32.4264 123.774 31.3262V29.4475C123.774 28.6731 124.033 27.6406 125.281 27.6406C126.394 27.6406 126.741 28.4192 126.741 29.4432C126.741 29.7521 126.741 30.3614 126.741 30.6703H124.697ZM125.831 29.9171V29.312C125.831 28.8085 125.729 28.4446 125.277 28.4446C124.862 28.4446 124.705 28.7662 124.705 29.3163V29.9214H125.831V29.9171Z" fill="white"/>
<path d="M128.234 31.487V31.7324C128.234 32.1471 128.378 32.4349 128.738 32.4349C129.081 32.4349 129.22 32.2233 129.22 31.8044C129.22 31.3812 129.098 31.1358 128.459 30.7169C127.722 30.2387 127.371 29.8494 127.371 29.0835C127.371 28.2161 127.82 27.6406 128.742 27.6406C129.741 27.6406 130.105 28.2246 130.105 29.147V29.3755H129.186V29.0539C129.186 28.6392 129.055 28.4404 128.742 28.4404C128.438 28.4404 128.315 28.6562 128.315 28.9989C128.315 29.3544 128.429 29.5109 128.941 29.8452C129.825 30.4165 130.181 30.7973 130.181 31.6901C130.181 32.7057 129.69 33.2346 128.708 33.2346C127.553 33.2346 127.278 32.4941 127.278 31.7282V31.487H128.234Z" fill="white"/>
<path d="M40.6178 11.1715C41.3964 11.0404 42.4923 10.9346 44.0325 10.9346C45.5855 10.9346 46.7068 11.235 47.4558 11.8401C48.1709 12.3944 48.6406 13.3296 48.6406 14.4298C48.6406 15.5257 48.2852 16.4609 47.6208 17.0786C46.7576 17.8911 45.467 18.2677 43.986 18.2677C43.6517 18.2677 43.3513 18.2465 43.1228 18.2085V22.2156H40.6135V11.1715H40.6178ZM43.127 16.2493C43.3386 16.2958 43.5967 16.317 43.9691 16.317C45.3147 16.317 46.144 15.6357 46.144 14.5017C46.144 13.4734 45.4374 12.8599 44.1637 12.8599C43.6644 12.8599 43.3132 12.9022 43.1313 12.9445V16.2493H43.127Z" fill="white"/>
<path d="M50.0242 16.7697C50.0242 15.5764 50.0031 14.7893 49.9565 14.0911H52.1273L52.2204 15.5975H52.2838C52.7028 14.4085 53.6887 13.9092 54.4757 13.9092C54.7085 13.9092 54.827 13.9134 55.0174 13.9557V16.3338C54.8227 16.2915 54.6196 16.2619 54.3361 16.2619C53.4094 16.2619 52.7747 16.7527 52.6054 17.544C52.5758 17.7048 52.5589 17.8995 52.5589 18.1068V22.2198H50.0285V16.7697H50.0242Z" fill="white"/>
<path d="M58.9063 11.8316C58.9105 12.534 58.39 13.0926 57.5479 13.0926C56.7482 13.0926 56.2277 12.534 56.232 11.8316C56.2277 11.108 56.7609 10.5664 57.5691 10.5664C58.3858 10.5664 58.8936 11.108 58.9063 11.8316ZM56.3039 22.2156V14.087H58.8343V22.2156H56.3039Z" fill="white"/>
<path d="M66.9543 22.0124C66.4973 22.224 65.6511 22.389 64.6905 22.389C62.0628 22.389 60.3914 20.7811 60.3914 18.2295C60.3914 15.8514 62.0162 13.9092 65.0375 13.9092C65.7061 13.9092 66.4381 14.0319 66.967 14.2308L66.5735 16.1095C66.2688 15.9741 65.8245 15.8514 65.1602 15.8514C63.8231 15.8514 62.9683 16.7993 62.9768 18.1279C62.9768 19.6217 63.9796 20.4129 65.2025 20.4129C65.8076 20.4129 66.2689 20.3071 66.6581 20.1463L66.9543 22.0124Z" fill="white"/>
<path d="M70.1069 18.9661C70.1831 20.0155 71.2198 20.5148 72.3961 20.5148C73.2509 20.5148 73.9533 20.4006 74.6346 20.1721L74.9773 21.8816C74.1353 22.2243 73.1239 22.3936 72.0322 22.3936C69.2775 22.3936 67.6992 20.7899 67.6992 18.2552C67.6992 16.1903 68.9856 13.9053 71.7953 13.9053C74.4315 13.9053 75.4259 15.9533 75.4259 17.9632C75.4259 18.4033 75.3793 18.7757 75.337 18.9661H70.1069ZM73.0732 17.2354C73.0774 16.6261 72.8066 15.5894 71.6556 15.5894C70.5893 15.5894 70.1535 16.5626 70.0858 17.2354H73.0732Z" fill="white"/>
<path d="M86.3642 21.6991C85.5814 21.9699 84.1046 22.3296 82.6278 22.3296C80.584 22.3296 79.1072 21.8176 78.079 20.8274C77.0507 19.8542 76.488 18.3985 76.4964 16.7525C76.5091 13.0288 79.2215 10.9131 82.8902 10.9131C84.3373 10.9131 85.446 11.1881 86.0003 11.4505L85.4713 13.4774C84.8493 13.2108 84.0961 13.0034 82.869 13.0034C80.7575 13.0034 79.1538 14.1882 79.1538 16.6256C79.1538 18.9359 80.6136 20.29 82.6828 20.29C83.2541 20.29 83.7195 20.2223 83.9226 20.1334V17.7807H82.192V15.8047H86.3684V21.6991H86.3642Z" fill="white"/>
<path d="M95.9611 19.6132C95.9611 20.6711 95.9907 21.5427 96.0288 22.2198H93.8369L93.7227 21.073H93.6719C93.3545 21.5766 92.5971 22.4017 91.1372 22.4017C89.487 22.4017 88.281 21.3693 88.281 18.8685V14.0911H90.8114V18.458C90.8114 19.647 91.1923 20.3579 92.0851 20.3579C92.7706 20.3579 93.1768 19.8798 93.3418 19.4693C93.4053 19.3212 93.4349 19.135 93.4349 18.9319V14.0869H95.9653V19.6132H95.9611Z" fill="white"/>
<path d="M100.586 11.8316C100.59 12.534 100.07 13.0926 99.2276 13.0926C98.4279 13.0926 97.9074 12.534 97.9116 11.8316C97.9074 11.108 98.4406 10.5664 99.2488 10.5664C100.07 10.5664 100.577 11.108 100.586 11.8316ZM97.9836 22.2156V14.087H100.514V22.2156H97.9836Z" fill="white"/>
<path d="M110.407 10.4268V19.791C110.407 20.7134 110.437 21.674 110.475 22.2199H108.228L108.122 21.0308H108.088C107.576 21.9406 106.59 22.406 105.545 22.406C103.628 22.406 102.076 20.76 102.076 18.2338C102.063 15.5045 103.777 13.9135 105.715 13.9135C106.717 13.9135 107.488 14.2689 107.851 14.8317H107.885V10.431H110.407V10.4268ZM107.881 17.5398C107.881 17.4002 107.877 17.2267 107.847 17.0829C107.703 16.4058 107.153 15.8473 106.383 15.8473C105.224 15.8473 104.64 16.8755 104.64 18.1534C104.64 19.5202 105.313 20.3876 106.366 20.3876C107.086 20.3876 107.674 19.8883 107.83 19.1774C107.873 19.0039 107.885 18.8093 107.885 18.6062V17.5398H107.881Z" fill="white"/>
<path d="M114.381 18.9661C114.457 20.0155 115.493 20.5148 116.67 20.5148C117.525 20.5148 118.227 20.4006 118.908 20.1721L119.251 21.8816C118.409 22.2243 117.398 22.3936 116.306 22.3936C113.551 22.3936 111.973 20.7899 111.973 18.2552C111.973 16.1903 113.259 13.9053 116.069 13.9053C118.705 13.9053 119.7 15.9533 119.7 17.9632C119.7 18.4033 119.653 18.7757 119.611 18.9661H114.381ZM117.347 17.2354C117.351 16.6261 117.08 15.5894 115.929 15.5894C114.863 15.5894 114.427 16.5626 114.359 17.2354H117.347Z" fill="white"/>
<path d="M120.753 20.8703C120.753 19.969 121.371 19.3301 122.247 19.3301C123.127 19.3301 123.724 19.9521 123.732 20.8703C123.732 21.7589 123.136 22.4021 122.238 22.4021C121.363 22.4021 120.749 21.7589 120.753 20.8703Z" fill="white"/>
<path d="M133.553 21.9064C133.101 22.1307 132.038 22.3888 130.693 22.3888C126.817 22.3888 124.82 19.9684 124.82 16.7779C124.82 12.9611 127.553 10.8496 130.934 10.8496C132.25 10.8496 133.249 11.1077 133.689 11.3447L133.172 13.3462C132.669 13.1261 131.95 12.9273 131.048 12.9273C129.051 12.9273 127.485 14.1459 127.485 16.634C127.485 18.8767 128.81 20.29 131.061 20.29C131.835 20.29 132.673 20.1377 133.177 19.9303L133.553 21.9064Z" fill="white"/>
<path d="M139.592 22.2159L139.444 21.4077H139.389C138.86 22.0551 138.03 22.3978 137.065 22.3978C135.411 22.3978 134.438 21.2088 134.438 19.9097C134.438 17.794 136.333 16.7869 139.207 16.7911V16.6896C139.207 16.258 138.974 15.6402 137.717 15.6444C136.888 15.6444 136.016 15.9279 135.479 16.2495L135.013 14.6331C135.58 14.3073 136.689 13.9053 138.174 13.9053C140.882 13.9053 141.737 15.5048 141.737 17.4132V20.2482C141.737 21.0226 141.779 21.7589 141.868 22.2159H139.592ZM139.287 18.3737C137.958 18.3652 136.93 18.6868 136.93 19.6558C136.93 20.3117 137.357 20.6291 137.933 20.6291C138.551 20.6291 139.075 20.2144 139.24 19.6939C139.279 19.5627 139.287 19.4062 139.287 19.2623V18.3737Z" fill="white"/>
<path d="M143.734 16.7697C143.734 15.5764 143.713 14.7893 143.667 14.0911H145.837L145.93 15.5975H145.994C146.413 14.4085 147.399 13.9092 148.186 13.9092C148.418 13.9092 148.537 13.9134 148.727 13.9557V16.3338C148.533 16.2915 148.33 16.2619 148.046 16.2619C147.119 16.2619 146.485 16.7527 146.315 17.544C146.286 17.7048 146.269 17.8995 146.269 18.1068V22.2198H143.738V16.7697H143.734Z" fill="white"/>
<path d="M157.787 10.4268V19.791C157.787 20.7134 157.817 21.674 157.855 22.2199H155.608L155.502 21.0308H155.468C154.956 21.9406 153.97 22.406 152.925 22.406C151.008 22.406 149.455 20.76 149.455 18.2338C149.442 15.5045 151.156 13.9135 153.094 13.9135C154.097 13.9135 154.867 14.2689 155.231 14.8317H155.265V10.431H157.787V10.4268ZM155.256 17.5398C155.256 17.4002 155.252 17.2267 155.223 17.0829C155.079 16.4058 154.529 15.8473 153.759 15.8473C152.599 15.8473 152.015 16.8755 152.015 18.1534C152.015 19.5202 152.688 20.3876 153.742 20.3876C154.461 20.3876 155.049 19.8883 155.206 19.1774C155.248 19.0039 155.261 18.8093 155.261 18.6062V17.5398H155.256Z" fill="white"/>
<path d="M159.801 20.0155C160.262 20.299 161.231 20.6206 161.968 20.6206C162.729 20.6206 163.055 20.3625 163.055 19.9478C163.055 19.5289 162.797 19.3215 161.862 19.0084C160.173 18.4541 159.534 17.5316 159.543 16.5796C159.543 15.052 160.829 13.9053 162.848 13.9053C163.8 13.9053 164.642 14.1295 165.137 14.3792L164.697 16.1183C164.333 15.9279 163.622 15.6613 162.937 15.6613C162.319 15.6613 161.968 15.9068 161.968 16.3172C161.968 16.7065 162.289 16.9138 163.288 17.2566C164.828 17.7813 165.475 18.5726 165.484 19.7574C165.484 21.2723 164.299 22.3936 161.972 22.3936C160.914 22.3936 159.962 22.1524 159.34 21.8223L159.801 20.0155Z" fill="white"/>
<path d="M29.2268 12.5079C28.7021 12.5079 28.279 12.0848 28.279 11.5601V2.64863H18.005C17.4803 2.64863 17.0571 2.22547 17.0571 1.70077C17.0571 1.17607 17.4803 0.75293 18.005 0.75293H30.1747V11.5601C30.1747 12.0806 29.7515 12.5079 29.2268 12.5079Z" fill="white"/>
<path d="M30.1746 39.9999H0.224365V16.7311C0.224365 16.2064 0.64751 15.7832 1.17221 15.7832C1.69691 15.7832 2.12006 16.2064 2.12006 16.7311V38.1084H28.2832V23.184C28.2832 22.6593 28.7063 22.2362 29.231 22.2362C29.7557 22.2362 30.1789 22.6593 30.1789 23.184V39.9999H30.1746Z" fill="white"/>
<path d="M24.6186 13.8584C24.0939 13.8584 23.6708 13.4352 23.6708 12.9105V6.30096H20.9161C20.3914 6.30096 19.9683 5.87782 19.9683 5.35312C19.9683 4.82842 20.3914 4.40527 20.9161 4.40527H25.5665V12.9105C25.5665 13.4352 25.1433 13.8584 24.6186 13.8584Z" fill="white"/>
<path d="M5.78012 24.5806C5.25542 24.5806 4.83228 24.1575 4.83228 23.6328V19.3463C4.83228 18.8216 5.25542 18.3984 5.78012 18.3984C6.30482 18.3984 6.72797 18.8216 6.72797 19.3463V23.6328C6.72797 24.1575 6.30482 24.5806 5.78012 24.5806Z" fill="white"/>
<path d="M4.96762 31.1312C4.72643 31.1312 4.48524 31.0381 4.29905 30.8561C3.93091 30.488 3.93091 29.8914 4.29905 29.5232L12.5546 21.2677C12.9228 20.8995 13.5194 20.8995 13.8875 21.2677L17.7043 25.0844L25.6806 17.1081C26.0488 16.74 26.6454 16.74 27.0135 17.1081C27.3817 17.4763 27.3817 18.0729 27.0135 18.441L18.3687 27.0859C18.0005 27.4541 17.4039 27.4541 17.0358 27.0859L13.219 23.2691L5.62773 30.8604C5.45001 31.0381 5.20882 31.1312 4.96762 31.1312Z" fill="white"/>
<path d="M29.7597 14.3789L23.239 16.1223L28.0121 20.8954L29.7597 14.3789Z" fill="white"/>
<path d="M22.2449 36.1708H23.7597C25.1519 36.1708 26.2817 35.041 26.2817 33.6488V20.9248L22.2449 24.9616V36.1708Z" fill="white"/>
<path d="M17.7045 28.5927C17.129 28.5927 16.5916 28.3726 16.1812 27.9706V36.167H20.218V26.9805L19.2447 27.9537C18.8343 28.3684 18.2884 28.5927 17.7045 28.5927Z" fill="white"/>
<path d="M10.126 28.1101V36.1711H14.1628V25.9521L13.2234 25.0127L10.126 28.1101Z" fill="white"/>
<path d="M5.42894 32.3162C4.95078 32.4178 4.47686 32.3586 4.06641 32.1681V33.6449C4.06641 35.0371 5.19621 36.1669 6.58836 36.1669H8.10322V30.1328L6.54181 31.6942C6.23715 31.9989 5.85208 32.2274 5.42894 32.3162Z" fill="white"/>
<path d="M29.7599 14.3789L23.2435 16.1265L24.953 17.836L17.7087 25.0803L13.8919 21.2635C13.5238 20.8954 12.9272 20.8954 12.559 21.2635L4.30345 29.5191C3.93531 29.8872 3.93531 30.4839 4.30345 30.852C4.48963 31.0382 4.73082 31.127 4.97201 31.127C5.21321 31.127 5.4544 31.0339 5.64059 30.852L13.2318 23.2608L17.0486 27.0775C17.4167 27.4457 18.0134 27.4457 18.3815 27.0775L26.2943 19.1647L28.0208 20.8911L29.7599 14.3789Z" fill="white"/>
<path d="M14.0696 14.0654C14.552 13.583 15.1486 13.2952 15.6649 13.2952C15.9738 13.2952 16.2403 13.3968 16.4308 13.5915C17.2855 12.2247 17.7806 10.6167 17.7806 8.8903C17.7806 3.99027 13.7946 0 8.8903 0C3.99027 0 0 3.98604 0 8.8903C0 13.7903 3.98604 17.7806 8.8903 17.7806C10.6167 17.7806 12.2289 17.2855 13.5915 16.4308C13.0668 15.8976 13.2783 14.8609 14.0696 14.0654ZM1.98032 8.88607C1.98032 5.07352 5.08199 1.97186 8.89453 1.97186C12.7071 1.97186 15.8087 5.07352 15.8087 8.88607C15.8087 12.6986 12.7071 15.8003 8.89453 15.8003C5.08199 15.8003 1.98032 12.6986 1.98032 8.88607Z" fill="white"/>
<path d="M14.8269 8.88564C14.8269 5.61049 12.1696 2.95312 8.89442 2.95312C5.61927 2.95312 2.96191 5.61049 2.96191 8.88564C2.96191 9.11414 2.97461 9.3384 3 9.55844C3.3089 6.57526 5.83085 4.25219 8.89442 4.25219C11.958 4.25219 14.4799 6.57949 14.7888 9.55844C14.8142 9.3384 14.8269 9.11414 14.8269 8.88564Z" fill="white"/>
<path d="M20.3491 18.0853L16.727 14.4632L16.2488 13.985C16.2361 13.9638 16.2277 13.9469 16.2107 13.9258C16.1938 13.9046 16.1769 13.8835 16.16 13.8623C16.1304 13.8327 16.1007 13.8115 16.0669 13.7904C16.0584 13.7861 16.0457 13.7777 16.0373 13.7734C16.0119 13.7607 15.9865 13.748 15.9611 13.7353C15.9484 13.7311 15.9399 13.7269 15.9272 13.7227C15.8892 13.71 15.8511 13.7015 15.813 13.693C15.7707 13.6846 15.7284 13.6846 15.6861 13.6846C15.6818 13.6846 15.6776 13.6846 15.6734 13.6846C15.6649 13.6846 15.6564 13.6846 15.648 13.6846C15.6141 13.6846 15.5803 13.6888 15.5464 13.693C15.5337 13.693 15.521 13.6973 15.5041 13.6973C15.4575 13.7057 15.411 13.7142 15.3602 13.7269C15.3094 13.7396 15.2629 13.7565 15.2121 13.7734C15.1994 13.7777 15.1825 13.7861 15.1698 13.7904C15.1317 13.8073 15.0936 13.82 15.0556 13.8411C15.0386 13.8496 15.0259 13.8538 15.009 13.8623C14.9582 13.8877 14.9075 13.9131 14.8567 13.9469C14.8059 13.9765 14.7551 14.0104 14.7043 14.0485C14.6874 14.0612 14.6747 14.0696 14.6578 14.0823C14.6197 14.1119 14.5859 14.1373 14.5478 14.167C14.5309 14.1796 14.5182 14.1924 14.5012 14.205C14.4547 14.2474 14.4039 14.2897 14.3574 14.3362C14.0823 14.6113 13.8834 14.9244 13.7819 15.2164C13.7692 15.2587 13.7565 15.301 13.7438 15.3391C13.7226 15.4195 13.71 15.4999 13.7015 15.576C13.6973 15.6141 13.6973 15.6522 13.6973 15.6903C13.6973 15.7284 13.7015 15.7622 13.7057 15.7961C13.71 15.8299 13.7184 15.8638 13.7269 15.8976C13.7565 15.995 13.8031 16.0796 13.875 16.1473C13.8961 16.1684 13.9173 16.1811 13.9385 16.1981C13.9469 16.2065 13.9554 16.215 13.9638 16.2192C13.9681 16.2234 13.9723 16.2235 13.9765 16.2277L13.9808 16.2319L14.4632 16.7143L18.0938 20.3449C18.1234 19.8625 18.3899 19.3124 18.8554 18.847C19.3082 18.3984 19.854 18.1191 20.3491 18.0853Z" fill="white"/>
<path d="M21.115 18.9996C21.0939 18.86 21.0389 18.7415 20.9458 18.6484C20.9162 18.6188 20.8865 18.5976 20.8527 18.5765C20.8442 18.5723 20.8358 18.5638 20.8231 18.5596C20.7977 18.5469 20.7723 18.5342 20.7469 18.5215C20.7342 18.5172 20.7257 18.513 20.7131 18.5088C20.675 18.4961 20.6369 18.4876 20.5988 18.4792C20.5565 18.4707 20.5142 18.4707 20.4719 18.4707C20.4676 18.4707 20.4634 18.4707 20.4592 18.4707C20.4507 18.4707 20.4422 18.4707 20.4338 18.4707C20.3999 18.4707 20.3661 18.4749 20.3322 18.4792C20.3195 18.4792 20.3026 18.4834 20.2899 18.4834C20.2434 18.4919 20.1968 18.5003 20.146 18.513C20.0953 18.5257 20.0445 18.5426 19.9979 18.5596C19.9852 18.5638 19.9683 18.5723 19.9556 18.5765C19.9175 18.5934 19.8795 18.6061 19.8414 18.6273C19.8244 18.6357 19.8118 18.64 19.7948 18.6484C19.6933 18.6992 19.5875 18.7627 19.4859 18.8346C19.4732 18.8431 19.4563 18.8558 19.4436 18.8685C19.4055 18.8981 19.3675 18.9277 19.3294 18.9573C19.3167 18.97 19.2997 18.9827 19.2871 18.9954C19.2363 19.0377 19.1897 19.0843 19.1432 19.1308C18.7497 19.5243 18.5169 19.9898 18.4915 20.3706C18.4873 20.4087 18.4873 20.4468 18.4873 20.4849C18.4915 20.5695 18.5085 20.6499 18.5339 20.7218C18.5381 20.7345 18.5423 20.7472 18.5465 20.7599C18.5592 20.7853 18.5719 20.8107 18.5889 20.8361C18.61 20.8742 18.6354 20.908 18.6693 20.9376C18.6989 20.9673 18.7285 20.9884 18.7581 21.0096C18.7666 21.0138 18.7793 21.0223 18.7877 21.0265C18.8131 21.0392 18.8385 21.0519 18.8639 21.0646C18.8766 21.0688 18.8851 21.0731 18.8978 21.0773C18.9358 21.09 18.9739 21.0984 19.0162 21.1069C19.0586 21.1154 19.1009 21.1154 19.1432 21.1154C19.1559 21.1154 19.1686 21.1154 19.1813 21.1154C19.2151 21.1154 19.249 21.1111 19.2828 21.1069C19.2955 21.1069 19.3124 21.1027 19.3251 21.1027C19.3717 21.0942 19.4182 21.0857 19.469 21.073C19.5198 21.0604 19.5663 21.0434 19.6171 21.0265C19.6298 21.0223 19.6467 21.0138 19.6594 21.0096C19.6975 20.9927 19.7356 20.98 19.7737 20.9588C19.7906 20.9503 19.8033 20.9461 19.8202 20.9376C19.871 20.9123 19.9218 20.8869 19.9725 20.853C20.0233 20.8234 20.0741 20.7895 20.1249 20.7515C20.1418 20.743 20.1545 20.7303 20.1714 20.7176C20.2095 20.688 20.2476 20.6626 20.2814 20.6288C20.2941 20.6161 20.3111 20.6034 20.3238 20.5907C20.3745 20.5484 20.4211 20.506 20.4676 20.4553C20.6665 20.2564 20.8231 20.0448 20.9331 19.829C21.0008 19.7021 21.0473 19.5751 21.0812 19.4524C21.1024 19.372 21.115 19.2916 21.1235 19.2154C21.1277 19.1435 21.1235 19.0716 21.115 18.9996Z" fill="white"/>
</svg>
