<svg width="31" height="40" viewBox="0 0 31 40" fill="none" xmlns="http://www.w3.org/2000/svg">
<path d="M29.2267 12.5082C28.702 12.5082 28.2788 12.085 28.2788 11.5603V2.64887H18.0049C17.4802 2.64887 17.057 2.22572 17.057 1.70102C17.057 1.17632 17.4802 0.753174 18.0049 0.753174H30.1745V11.5603C30.1745 12.0808 29.7514 12.5082 29.2267 12.5082Z" fill="white"/>
<path d="M30.1745 40.0001H0.224243V16.7313C0.224243 16.2066 0.647388 15.7834 1.17209 15.7834C1.69679 15.7834 2.11994 16.2066 2.11994 16.7313V38.1086H28.2831V23.1843C28.2831 22.6596 28.7062 22.2364 29.2309 22.2364C29.7556 22.2364 30.1788 22.6596 30.1788 23.1843V40.0001H30.1745Z" fill="white"/>
<path d="M24.6186 13.8581C24.0939 13.8581 23.6708 13.435 23.6708 12.9103V6.30072H20.9161C20.3914 6.30072 19.9683 5.87757 19.9683 5.35287C19.9683 4.82817 20.3914 4.40503 20.9161 4.40503H25.5665V12.9103C25.5665 13.435 25.1433 13.8581 24.6186 13.8581Z" fill="white"/>
<path d="M5.78018 24.5806C5.25548 24.5806 4.83234 24.1575 4.83234 23.6328V19.3463C4.83234 18.8216 5.25548 18.3984 5.78018 18.3984C6.30488 18.3984 6.72803 18.8216 6.72803 19.3463V23.6328C6.72803 24.1575 6.30488 24.5806 5.78018 24.5806Z" fill="white"/>
<path d="M4.96775 31.1307C4.72655 31.1307 4.48536 31.0376 4.29917 30.8557C3.93104 30.4875 3.93104 29.8909 4.29917 29.5228L12.5548 21.2672C12.9229 20.899 13.5195 20.899 13.8877 21.2672L17.7044 25.084L25.6807 17.1076C26.0489 16.7395 26.6455 16.7395 27.0137 17.1076C27.3818 17.4758 27.3818 18.0724 27.0137 18.4406L18.3688 27.0854C18.0006 27.4536 17.404 27.4536 17.0359 27.0854L13.2191 23.2687L5.62785 30.8599C5.45013 31.0376 5.20894 31.1307 4.96775 31.1307Z" fill="white"/>
<path d="M29.7599 14.3784L23.2392 16.1218L28.0123 20.8949L29.7599 14.3784Z" fill="white"/>
<path d="M22.2448 36.1705H23.7597C25.1518 36.1705 26.2816 35.0407 26.2816 33.6486V20.9246L22.2448 24.9614V36.1705Z" fill="white"/>
<path d="M17.7045 28.5919C17.129 28.5919 16.5916 28.3719 16.1812 27.9699V36.1662H20.218V26.9797L19.2447 27.953C18.8343 28.3677 18.2884 28.5919 17.7045 28.5919Z" fill="white"/>
<path d="M10.1259 28.1096V36.1706H14.1627V25.9516L13.2233 25.0122L10.1259 28.1096Z" fill="white"/>
<path d="M5.429 32.3158C4.95084 32.4173 4.47692 32.3581 4.06647 32.1677V33.6444C4.06647 35.0366 5.19627 36.1664 6.58842 36.1664H8.10328V30.1323L6.54187 31.6937C6.23721 31.9984 5.85214 32.2269 5.429 32.3158Z" fill="white"/>
<path d="M29.7599 14.3784L23.2434 16.126L24.9529 17.8355L17.7087 25.0798L13.8919 21.263C13.5237 20.8949 12.9271 20.8949 12.559 21.263L4.30339 29.5186C3.93525 29.8867 3.93525 30.4834 4.30339 30.8515C4.48957 31.0377 4.73076 31.1265 4.97195 31.1265C5.21315 31.1265 5.45434 31.0335 5.64053 30.8515L13.2318 23.2603L17.0485 27.077C17.4167 27.4452 18.0133 27.4452 18.3815 27.077L26.2943 19.1642L28.0207 20.8906L29.7599 14.3784Z" fill="white"/>
<path d="M14.0696 14.0654C14.552 13.583 15.1486 13.2952 15.6649 13.2952C15.9738 13.2952 16.2403 13.3968 16.4308 13.5914C17.2855 12.2247 17.7806 10.6167 17.7806 8.8903C17.7806 3.99027 13.7946 0 8.8903 0C3.99027 0 0 3.98604 0 8.8903C0 13.7903 3.98604 17.7806 8.8903 17.7806C10.6167 17.7806 12.2289 17.2855 13.5915 16.4308C13.0668 15.8976 13.2783 14.8609 14.0696 14.0654ZM1.98032 8.88607C1.98032 5.07352 5.08199 1.97186 8.89453 1.97186C12.7071 1.97186 15.8087 5.07352 15.8087 8.88607C15.8087 12.6986 12.7071 15.8003 8.89453 15.8003C5.08199 15.8003 1.98032 12.6986 1.98032 8.88607Z" fill="white"/>
<path d="M14.8271 8.88613C14.8271 5.61098 12.1697 2.95361 8.89455 2.95361C5.6194 2.95361 2.96204 5.61098 2.96204 8.88613C2.96204 9.11463 2.97473 9.33889 3.00012 9.55893C3.30902 6.57575 5.83097 4.25267 8.89455 4.25267C11.9581 4.25267 14.4801 6.57998 14.789 9.55893C14.8144 9.33889 14.8271 9.11463 14.8271 8.88613Z" fill="white"/>
<path d="M20.3491 18.0853L16.727 14.4632L16.2488 13.985C16.2361 13.9638 16.2277 13.9469 16.2107 13.9258C16.1938 13.9046 16.1769 13.8835 16.16 13.8623C16.1304 13.8327 16.1007 13.8115 16.0669 13.7904C16.0584 13.7861 16.0457 13.7777 16.0373 13.7734C16.0119 13.7607 15.9865 13.748 15.9611 13.7353C15.9484 13.7311 15.9399 13.7269 15.9272 13.7227C15.8892 13.71 15.8511 13.7015 15.813 13.693C15.7707 13.6846 15.7284 13.6846 15.6861 13.6846C15.6818 13.6846 15.6776 13.6846 15.6734 13.6846C15.6649 13.6846 15.6564 13.6846 15.648 13.6846C15.6141 13.6846 15.5803 13.6888 15.5464 13.693C15.5337 13.693 15.521 13.6973 15.5041 13.6973C15.4575 13.7057 15.411 13.7142 15.3602 13.7269C15.3094 13.7396 15.2629 13.7565 15.2121 13.7734C15.1994 13.7777 15.1825 13.7861 15.1698 13.7904C15.1317 13.8073 15.0936 13.82 15.0556 13.8411C15.0386 13.8496 15.0259 13.8538 15.009 13.8623C14.9582 13.8877 14.9075 13.9131 14.8567 13.9469C14.8059 13.9765 14.7551 14.0104 14.7043 14.0485C14.6874 14.0612 14.6747 14.0696 14.6578 14.0823C14.6197 14.1119 14.5859 14.1373 14.5478 14.167C14.5309 14.1796 14.5182 14.1924 14.5012 14.205C14.4547 14.2474 14.4039 14.2897 14.3574 14.3362C14.0823 14.6113 13.8834 14.9244 13.7819 15.2164C13.7692 15.2587 13.7565 15.301 13.7438 15.3391C13.7226 15.4195 13.71 15.4999 13.7015 15.576C13.6973 15.6141 13.6973 15.6522 13.6973 15.6903C13.6973 15.7284 13.7015 15.7622 13.7057 15.7961C13.71 15.8299 13.7184 15.8638 13.7269 15.8976C13.7565 15.995 13.8031 16.0796 13.875 16.1473C13.8961 16.1684 13.9173 16.1811 13.9385 16.1981C13.9469 16.2065 13.9554 16.215 13.9638 16.2192C13.9681 16.2234 13.9723 16.2235 13.9765 16.2277L13.9808 16.2319L14.4632 16.7143L18.0938 20.3449C18.1234 19.8625 18.3899 19.3124 18.8554 18.847C19.3082 18.3984 19.854 18.1191 20.3491 18.0853Z" fill="white"/>
<path d="M21.115 18.9991C21.0938 18.8595 21.0388 18.741 20.9457 18.6479C20.9161 18.6183 20.8865 18.5972 20.8526 18.576C20.8442 18.5718 20.8357 18.5633 20.823 18.5591C20.7976 18.5464 20.7722 18.5337 20.7468 18.521C20.7341 18.5168 20.7257 18.5125 20.713 18.5083C20.6749 18.4956 20.6368 18.4871 20.5987 18.4787C20.5564 18.4702 20.5141 18.4702 20.4718 18.4702C20.4676 18.4702 20.4633 18.4702 20.4591 18.4702C20.4506 18.4702 20.4422 18.4702 20.4337 18.4702C20.3999 18.4702 20.366 18.4744 20.3322 18.4787C20.3195 18.4787 20.3025 18.4829 20.2898 18.4829C20.2433 18.4914 20.1968 18.4998 20.146 18.5125C20.0952 18.5252 20.0444 18.5421 19.9979 18.5591C19.9852 18.5633 19.9683 18.5718 19.9556 18.576C19.9175 18.5929 19.8794 18.6056 19.8413 18.6268C19.8244 18.6352 19.8117 18.6395 19.7948 18.6479C19.6932 18.6987 19.5874 18.7622 19.4859 18.8341C19.4732 18.8426 19.4562 18.8553 19.4436 18.868C19.4055 18.8976 19.3674 18.9272 19.3293 18.9568C19.3166 18.9695 19.2997 18.9822 19.287 18.9949C19.2362 19.0372 19.1897 19.0838 19.1431 19.1303C18.7496 19.5238 18.5169 19.9893 18.4915 20.3701C18.4872 20.4082 18.4872 20.4463 18.4872 20.4844C18.4915 20.569 18.5084 20.6494 18.5338 20.7214C18.538 20.734 18.5423 20.7467 18.5465 20.7594C18.5592 20.7848 18.5719 20.8102 18.5888 20.8356C18.61 20.8737 18.6353 20.9075 18.6692 20.9371C18.6988 20.9668 18.7284 20.9879 18.7581 21.0091C18.7665 21.0133 18.7792 21.0218 18.7877 21.026C18.8131 21.0387 18.8385 21.0514 18.8638 21.0641C18.8765 21.0683 18.885 21.0726 18.8977 21.0768C18.9358 21.0895 18.9739 21.098 19.0162 21.1064C19.0585 21.1149 19.1008 21.1149 19.1431 21.1149C19.1558 21.1149 19.1685 21.1149 19.1812 21.1149C19.2151 21.1149 19.2489 21.1106 19.2828 21.1064C19.2955 21.1064 19.3124 21.1022 19.3251 21.1022C19.3716 21.0937 19.4182 21.0853 19.4689 21.0726C19.5197 21.0599 19.5663 21.0429 19.617 21.026C19.6297 21.0218 19.6467 21.0133 19.6594 21.0091C19.6974 20.9922 19.7355 20.9795 19.7736 20.9583C19.7905 20.9499 19.8032 20.9456 19.8202 20.9371C19.8709 20.9118 19.9217 20.8864 19.9725 20.8525C20.0233 20.8229 20.074 20.7891 20.1248 20.751C20.1417 20.7425 20.1544 20.7298 20.1714 20.7171C20.2094 20.6875 20.2475 20.6621 20.2814 20.6283C20.2941 20.6156 20.311 20.6029 20.3237 20.5902C20.3745 20.5479 20.421 20.5055 20.4676 20.4548C20.6664 20.2559 20.823 20.0443 20.933 19.8285C21.0007 19.7016 21.0473 19.5746 21.0811 19.4519C21.1023 19.3715 21.115 19.2911 21.1234 19.215C21.1277 19.143 21.1234 19.0711 21.115 18.9991Z" fill="white"/>
</svg>
