<svg width="318" height="120" viewBox="0 0 318 120" fill="none" xmlns="http://www.w3.org/2000/svg">
<path d="M0 0H318L300.666 106.569C299.407 114.312 292.719 120 284.874 120H0V0Z" fill="url(#paint0_radial_3241_113049)"/>
<path d="M98.2568 73.9126V75.127H95.6621V73.9126H98.2568Z" fill="white"/>
<path d="M102.54 77.8402V80.9681H101.213V73.0002C101.213 71.9695 101.213 71.2823 101.201 70.8143H102.463C102.487 70.9624 102.51 71.2823 102.51 71.5903C102.718 71.0927 103.138 70.6958 103.897 70.6958C104.951 70.6958 105.461 71.4245 105.461 72.9114V76.0689C105.461 77.7928 104.856 78.5274 103.754 78.5274C103.067 78.5274 102.724 78.1838 102.54 77.8402ZM104.14 76.0926V73.0121C104.14 72.2242 103.873 71.8925 103.411 71.8925C102.795 71.8925 102.54 72.3486 102.54 73.2727V75.8438C102.54 76.6613 102.676 77.3367 103.352 77.3367C103.944 77.3367 104.14 76.8686 104.14 76.0926Z" fill="white"/>
<path d="M106.586 73.3912C106.586 72.1472 106.598 71.5429 106.574 70.8143H107.83C107.842 70.9801 107.872 71.5785 107.872 72.0287C108.162 71.0394 108.825 70.7136 109.518 70.7076V72.3427C108.624 72.3486 107.913 72.704 107.913 74.1791V78.4148H106.586V73.3912Z" fill="white"/>
<path d="M110.253 70.8143H111.58V78.4148H110.253V70.8143ZM110.259 68.1011H111.586V69.6887H110.259V68.1011Z" fill="white"/>
<path d="M116.698 75.9386V76.0394C116.698 77.3841 116.354 78.5275 114.678 78.5275C113.037 78.5275 112.699 77.4137 112.699 75.8557V73.1069C112.699 71.8451 113.132 70.6899 114.743 70.6899C116.473 70.6899 116.692 71.9518 116.692 72.9233V73.2195H115.383V72.9233C115.383 72.2954 115.282 71.8155 114.713 71.8155C114.204 71.8155 114.02 72.2006 114.02 72.9529V76.2348C114.02 76.8272 114.133 77.4078 114.702 77.4078C115.235 77.4078 115.377 77.0168 115.377 76.2526V75.9446H116.698V75.9386Z" fill="white"/>
<path d="M118.843 74.9374V76.1044C118.843 76.762 118.985 77.4018 119.631 77.4018C120.283 77.4018 120.383 76.845 120.383 76.2229V76.1755H121.675V76.217C121.675 77.0523 121.491 78.5274 119.655 78.5274C117.866 78.5274 117.552 77.3959 117.552 75.8556V73.2254C117.552 72.1413 117.913 70.6958 119.661 70.6958C121.219 70.6958 121.705 71.7858 121.705 73.2194C121.705 73.6519 121.705 74.5049 121.705 74.9374H118.843ZM120.431 73.8829V73.0358C120.431 72.3308 120.289 71.8214 119.655 71.8214C119.074 71.8214 118.855 72.2716 118.855 73.0417V73.8889H120.431V73.8829Z" fill="white"/>
<path d="M123.796 76.0808V76.4243C123.796 77.0049 123.997 77.4077 124.501 77.4077C124.981 77.4077 125.176 77.1115 125.176 76.5251C125.176 75.9327 125.004 75.5891 124.11 75.0026C123.079 74.3332 122.587 73.7881 122.587 72.7159C122.587 71.5015 123.215 70.6958 124.507 70.6958C125.905 70.6958 126.414 71.5133 126.414 72.8048V73.1246H125.129V72.6744C125.129 72.0939 124.945 71.8154 124.507 71.8154C124.08 71.8154 123.908 72.1176 123.908 72.5974C123.908 73.095 124.068 73.3142 124.785 73.7822C126.023 74.582 126.521 75.1151 126.521 76.3651C126.521 77.7869 125.834 78.5274 124.459 78.5274C122.842 78.5274 122.457 77.4907 122.457 76.4184V76.0808H123.796Z" fill="white"/>
<path d="M129.601 78.4089V71.9754H128.831V70.8084H129.601V69.9257C129.601 68.9305 129.998 68.03 131.307 68.03C131.515 68.03 131.728 68.0419 131.858 68.0833V69.2741C131.734 69.2563 131.657 69.2504 131.55 69.2504C131.041 69.2504 130.922 69.5525 130.922 70.0857V70.8084H131.864V71.9754H130.922V78.4089H129.601Z" fill="white"/>
<path d="M132.593 73.3912C132.593 72.1472 132.605 71.5429 132.581 70.8143H133.837C133.849 70.9801 133.878 71.5785 133.878 72.0287C134.169 71.0394 134.832 70.7136 135.525 70.7076V72.3427C134.631 72.3486 133.92 72.704 133.92 74.1791V78.4148H132.593V73.3912Z" fill="white"/>
<path d="M140.371 73.0713V76.0985C140.371 77.7336 139.571 78.5274 138.232 78.5274C136.858 78.5274 136.123 77.7276 136.123 76.1222V73.0239C136.123 71.4541 136.988 70.6958 138.273 70.6958C139.606 70.6958 140.371 71.5311 140.371 73.0713ZM137.45 73.0062V76.1637C137.45 76.8686 137.675 77.3485 138.256 77.3485C138.795 77.3485 139.044 76.9634 139.044 76.14V72.9884C139.044 72.3368 138.848 71.8628 138.25 71.8628C137.693 71.8688 137.45 72.2716 137.45 73.0062Z" fill="white"/>
<path d="M141.479 73.0121C141.479 71.5548 141.479 71.1697 141.467 70.8143H142.729C142.77 71.0394 142.77 71.2467 142.776 71.5015C143.025 70.9861 143.469 70.6958 144.097 70.6958C144.701 70.6958 145.122 70.9564 145.3 71.537C145.554 71.0986 145.951 70.6958 146.733 70.6958C147.527 70.6958 148.202 71.0749 148.202 72.5559V78.4148H146.875V72.8048C146.875 72.2479 146.745 71.8925 146.247 71.8925C145.643 71.8925 145.501 72.396 145.501 73.178V78.4148H144.168V72.8521C144.168 72.1057 143.961 71.8925 143.534 71.8925C142.93 71.8925 142.794 72.4078 142.794 73.1898V78.4148H141.467V73.0121H141.479Z" fill="white"/>
<path d="M155.305 76.9575C155.305 77.4551 155.311 78.1482 155.335 78.4148H154.121C154.085 78.2549 154.044 77.9468 154.032 77.8343C153.777 78.3378 153.345 78.5333 152.782 78.5333C151.656 78.5333 151.206 77.5084 151.206 76.3533V76.2229C151.206 74.4161 152.385 73.8711 153.747 73.8711C153.819 73.8711 153.896 73.8711 153.984 73.8711V72.8048C153.984 72.1709 153.896 71.7917 153.38 71.7917C152.871 71.7917 152.746 72.1827 152.746 72.704V72.8581H151.443V72.7218C151.443 71.6377 151.864 70.6958 153.428 70.6958C154.837 70.6958 155.305 71.5133 155.305 72.6981V76.9575ZM154.014 74.8841C153.937 74.8841 153.777 74.8841 153.712 74.8841C152.954 74.8841 152.474 75.1862 152.474 76.1992V76.3236C152.474 76.922 152.675 77.3722 153.197 77.3722C153.783 77.3722 154.014 76.9338 154.014 75.8616V74.8841Z" fill="white"/>
<path d="M160.435 75.9386V76.0394C160.435 77.3841 160.092 78.5275 158.415 78.5275C156.774 78.5275 156.437 77.4137 156.437 75.8557V73.1069C156.437 71.8451 156.869 70.6899 158.48 70.6899C160.21 70.6899 160.429 71.9518 160.429 72.9233V73.2195H159.12V72.9233C159.12 72.2954 159.019 71.8155 158.451 71.8155C157.941 71.8155 157.758 72.2006 157.758 72.9529V76.2348C157.758 76.8272 157.87 77.4078 158.439 77.4078C158.972 77.4078 159.114 77.0168 159.114 76.2526V75.9446H160.435V75.9386Z" fill="white"/>
<path d="M160.986 70.8143H161.822V68.9719H163.143V70.8143H164.144V71.9813H163.143V76.7265C163.143 77.0997 163.202 77.4196 163.67 77.4196C163.806 77.4196 164.019 77.4018 164.108 77.3781V78.3852C163.865 78.4978 163.498 78.5215 163.226 78.5215C162.367 78.5215 161.822 78.2134 161.822 76.9635V71.9754H160.986V70.8143Z" fill="white"/>
<path d="M169.025 76.2585C169.025 77.3189 169.025 78.0238 169.043 78.4089H167.781C167.757 78.2608 167.734 77.8935 167.734 77.6566C167.479 78.3319 166.97 78.5215 166.336 78.5215C165.66 78.5215 164.837 78.2253 164.837 76.5606V70.8024H166.164V76.2111C166.164 76.9931 166.383 77.3248 166.881 77.3248C167.39 77.3248 167.704 77.0108 167.704 75.826V70.7965H169.031V76.2585H169.025Z" fill="white"/>
<path d="M174.114 76.9575C174.114 77.4551 174.12 78.1482 174.144 78.4148H172.929C172.894 78.2549 172.852 77.9468 172.84 77.8343C172.586 78.3378 172.153 78.5333 171.59 78.5333C170.465 78.5333 170.015 77.5084 170.015 76.3533V76.2229C170.015 74.4161 171.194 73.8711 172.556 73.8711C172.627 73.8711 172.704 73.8711 172.793 73.8711V72.8048C172.793 72.1709 172.704 71.7917 172.189 71.7917C171.679 71.7917 171.555 72.1827 171.555 72.704V72.8581H170.252V72.7218C170.252 71.6377 170.672 70.6958 172.236 70.6958C173.646 70.6958 174.114 71.5133 174.114 72.6981V76.9575ZM172.823 74.8841C172.746 74.8841 172.586 74.8841 172.521 74.8841C171.762 74.8841 171.282 75.1862 171.282 76.1992V76.3236C171.282 76.922 171.484 77.3722 172.005 77.3722C172.592 77.3722 172.823 76.9338 172.823 75.8616V74.8841Z" fill="white"/>
<path d="M175.453 78.4089V68.1011H176.78V78.4089H175.453Z" fill="white"/>
<path d="M183.853 75.9386V76.0394C183.853 77.3841 183.51 78.5275 181.833 78.5275C180.192 78.5275 179.854 77.4137 179.854 75.8557V73.1069C179.854 71.8451 180.287 70.6899 181.898 70.6899C183.628 70.6899 183.847 71.9518 183.847 72.9233V73.2195H182.538V72.9233C182.538 72.2954 182.437 71.8155 181.869 71.8155C181.359 71.8155 181.176 72.2006 181.176 72.9529V76.2348C181.176 76.8272 181.288 77.4078 181.857 77.4078C182.39 77.4078 182.532 77.0168 182.532 76.2526V75.9446H183.853V75.9386Z" fill="white"/>
<path d="M188.676 76.9575C188.676 77.4551 188.682 78.1482 188.705 78.4148H187.491C187.455 78.2549 187.414 77.9468 187.402 77.8343C187.147 78.3378 186.715 78.5333 186.152 78.5333C185.026 78.5333 184.576 77.5084 184.576 76.3533V76.2229C184.576 74.4161 185.755 73.8711 187.118 73.8711C187.189 73.8711 187.266 73.8711 187.355 73.8711V72.8048C187.355 72.1709 187.266 71.7917 186.75 71.7917C186.241 71.7917 186.116 72.1827 186.116 72.704V72.8581H184.813V72.7218C184.813 71.6377 185.234 70.6958 186.798 70.6958C188.208 70.6958 188.676 71.5133 188.676 72.6981V76.9575ZM187.384 74.8841C187.307 74.8841 187.147 74.8841 187.082 74.8841C186.324 74.8841 185.844 75.1862 185.844 76.1992V76.3236C185.844 76.922 186.045 77.3722 186.567 77.3722C187.153 77.3722 187.384 76.9338 187.384 75.8616V74.8841Z" fill="white"/>
<path d="M190.015 73.3912C190.015 72.1472 190.027 71.5429 190.003 70.8143H191.259C191.271 70.9801 191.3 71.5785 191.3 72.0287C191.591 71.0394 192.254 70.7136 192.947 70.7076V72.3427C192.053 72.3486 191.342 72.704 191.342 74.1791V78.4148H190.015V73.3912Z" fill="white"/>
<path d="M197.792 68.1011V76.3651C197.792 77.4196 197.792 77.9942 197.804 78.4089H196.542C196.519 78.2371 196.495 77.8224 196.495 77.6743C196.276 78.1542 195.92 78.5274 195.162 78.5274C193.835 78.5274 193.545 77.4729 193.545 76.0037V72.9706C193.545 71.6377 194.06 70.6899 195.275 70.6899C195.843 70.6899 196.276 70.8854 196.471 71.2408V68.1011H197.792ZM194.872 73.0536V76.0926C194.872 76.9042 195.067 77.3367 195.63 77.3367C196.323 77.3367 196.471 76.6969 196.471 75.7549V73.3498C196.471 72.5204 196.394 71.8925 195.654 71.8925C195.085 71.8865 194.872 72.3368 194.872 73.0536Z" fill="white"/>
<path d="M201.993 76.0808V76.4243C201.993 77.0049 202.195 77.4077 202.698 77.4077C203.178 77.4077 203.373 77.1115 203.373 76.5251C203.373 75.9327 203.202 75.5891 202.307 75.0026C201.276 74.3332 200.785 73.7881 200.785 72.7159C200.785 71.5015 201.413 70.6958 202.704 70.6958C204.102 70.6958 204.612 71.5133 204.612 72.8048V73.1246H203.326V72.6744C203.326 72.0939 203.142 71.8154 202.704 71.8154C202.277 71.8154 202.106 72.1176 202.106 72.5974C202.106 73.095 202.266 73.3142 202.982 73.7822C204.221 74.582 204.718 75.1151 204.718 76.3651C204.718 77.7869 204.031 78.5274 202.657 78.5274C201.039 78.5274 200.654 77.4907 200.654 76.4184V76.0808H201.993Z" fill="white"/>
<path d="M209.511 76.9575C209.511 77.4551 209.516 78.1482 209.54 78.4148H208.326C208.29 78.2549 208.249 77.9468 208.237 77.8343C207.982 78.3378 207.55 78.5333 206.987 78.5333C205.861 78.5333 205.411 77.5084 205.411 76.3533V76.2229C205.411 74.4161 206.59 73.8711 207.953 73.8711C208.024 73.8711 208.101 73.8711 208.189 73.8711V72.8048C208.189 72.1709 208.101 71.7917 207.585 71.7917C207.076 71.7917 206.951 72.1827 206.951 72.704V72.8581H205.648V72.7218C205.648 71.6377 206.069 70.6958 207.633 70.6958C209.043 70.6958 209.511 71.5133 209.511 72.6981V76.9575ZM208.213 74.8841C208.136 74.8841 207.976 74.8841 207.911 74.8841C207.153 74.8841 206.673 75.1862 206.673 76.1992V76.3236C206.673 76.922 206.874 77.3722 207.396 77.3722C207.982 77.3722 208.213 76.9338 208.213 75.8616V74.8841Z" fill="white"/>
<path d="M210.85 78.4089V68.1011H212.177V78.4089H210.85Z" fill="white"/>
<path d="M214.576 74.9374V76.1044C214.576 76.762 214.718 77.4018 215.364 77.4018C216.015 77.4018 216.116 76.845 216.116 76.2229V76.1755H217.407V76.217C217.407 77.0523 217.224 78.5274 215.387 78.5274C213.598 78.5274 213.284 77.3959 213.284 75.8556V73.2254C213.284 72.1413 213.646 70.6958 215.393 70.6958C216.951 70.6958 217.437 71.7858 217.437 73.2194C217.437 73.6519 217.437 74.5049 217.437 74.9374H214.576ZM216.163 73.8829V73.0358C216.163 72.3308 216.021 71.8214 215.387 71.8214C214.807 71.8214 214.587 72.2716 214.587 73.0417V73.8889H216.163V73.8829Z" fill="white"/>
<path d="M219.528 76.0808V76.4243C219.528 77.0049 219.73 77.4077 220.233 77.4077C220.713 77.4077 220.909 77.1115 220.909 76.5251C220.909 75.9327 220.737 75.5891 219.842 75.0026C218.811 74.3332 218.32 73.7881 218.32 72.7159C218.32 71.5015 218.948 70.6958 220.239 70.6958C221.637 70.6958 222.147 71.5133 222.147 72.8048V73.1246H220.861V72.6744C220.861 72.0939 220.678 71.8154 220.239 71.8154C219.813 71.8154 219.641 72.1176 219.641 72.5974C219.641 73.095 219.801 73.3142 220.518 73.7822C221.756 74.582 222.253 75.1151 222.253 76.3651C222.253 77.7869 221.566 78.5274 220.192 78.5274C218.575 78.5274 218.189 77.4907 218.189 76.4184V76.0808H219.528Z" fill="white"/>
<path d="M96.8643 47.6395C97.9544 47.4558 99.4887 47.3077 101.645 47.3077C103.819 47.3077 105.389 47.7283 106.438 48.5755C107.439 49.3515 108.096 50.6608 108.096 52.201C108.096 53.7353 107.599 55.0445 106.669 55.9094C105.46 57.0469 103.653 57.5741 101.58 57.5741C101.112 57.5741 100.691 57.5445 100.371 57.4912V63.1012H96.8584V47.6395H96.8643ZM100.377 54.7483C100.673 54.8135 101.035 54.8431 101.556 54.8431C103.44 54.8431 104.601 53.8893 104.601 52.3017C104.601 50.8622 103.612 50.0032 101.829 50.0032C101.13 50.0032 100.638 50.0624 100.383 50.1217V54.7483H100.377Z" fill="white"/>
<path d="M110.033 55.477C110.033 53.8064 110.004 52.7045 109.938 51.727H112.978L113.108 53.836H113.197C113.783 52.1713 115.163 51.4723 116.265 51.4723C116.591 51.4723 116.757 51.4782 117.024 51.5374V54.8668C116.751 54.8075 116.467 54.7661 116.07 54.7661C114.773 54.7661 113.884 55.4532 113.647 56.561C113.605 56.7862 113.582 57.0587 113.582 57.349V63.1071H110.039V55.477H110.033Z" fill="white"/>
<path d="M122.468 48.5636C122.474 49.547 121.745 50.329 120.566 50.329C119.446 50.329 118.718 49.547 118.724 48.5636C118.718 47.5506 119.464 46.7924 120.596 46.7924C121.739 46.7924 122.45 47.5506 122.468 48.5636ZM118.824 63.1013V51.7212H122.367V63.1013H118.824Z" fill="white"/>
<path d="M133.736 62.8168C133.096 63.113 131.911 63.3441 130.567 63.3441C126.888 63.3441 124.548 61.0929 124.548 57.5207C124.548 54.1914 126.823 51.4723 131.052 51.4723C131.988 51.4723 133.013 51.6441 133.754 51.9225L133.203 54.5528C132.776 54.3632 132.154 54.1914 131.224 54.1914C129.352 54.1914 128.156 55.5184 128.167 57.3786C128.167 59.4698 129.571 60.5775 131.283 60.5775C132.131 60.5775 132.776 60.4294 133.321 60.2043L133.736 62.8168Z" fill="white"/>
<path d="M138.149 58.5515C138.256 60.0206 139.707 60.7197 141.354 60.7197C142.551 60.7197 143.534 60.5597 144.488 60.2398L144.968 62.6331C143.789 63.113 142.373 63.3499 140.845 63.3499C136.988 63.3499 134.778 61.1047 134.778 57.5562C134.778 54.6653 136.579 51.4663 140.513 51.4663C144.203 51.4663 145.596 54.3335 145.596 57.1475C145.596 57.7636 145.53 58.2849 145.471 58.5515H138.149ZM142.302 56.1285C142.308 55.2755 141.929 53.8241 140.317 53.8241C138.824 53.8241 138.214 55.1866 138.119 56.1285H142.302Z" fill="white"/>
<path d="M160.909 62.3785C159.813 62.7576 157.745 63.2611 155.678 63.2611C152.817 63.2611 150.749 62.5443 149.309 61.1581C147.87 59.7956 147.082 57.7577 147.094 55.4533C147.112 50.2401 150.909 47.2781 156.045 47.2781C158.071 47.2781 159.623 47.6631 160.399 48.0304L159.659 50.868C158.788 50.4948 157.733 50.2045 156.015 50.2045C153.059 50.2045 150.814 51.8633 150.814 55.2755C150.814 58.5101 152.858 60.4057 155.755 60.4057C156.555 60.4057 157.206 60.311 157.491 60.1866V56.8928H155.068V54.1263H160.915V62.3785H160.909Z" fill="white"/>
<path d="M174.345 59.4579C174.345 60.9389 174.386 62.1592 174.44 63.1071H171.371L171.211 61.5017H171.14C170.696 62.2066 169.635 63.3618 167.592 63.3618C165.281 63.3618 163.593 61.9163 163.593 58.4152V51.727H167.135V57.8406C167.135 59.5053 167.669 60.5005 168.919 60.5005C169.878 60.5005 170.447 59.8311 170.678 59.2565C170.767 59.0491 170.808 58.7884 170.808 58.5041V51.7211H174.351V59.4579H174.345Z" fill="white"/>
<path d="M180.82 48.5636C180.826 49.547 180.097 50.329 178.919 50.329C177.799 50.329 177.07 49.547 177.076 48.5636C177.07 47.5506 177.817 46.7924 178.948 46.7924C180.097 46.7924 180.808 47.5506 180.82 48.5636ZM177.177 63.1013V51.7212H180.719V63.1013H177.177Z" fill="white"/>
<path d="M194.57 46.5968V59.7067C194.57 60.9982 194.611 62.3429 194.665 63.1071H191.519L191.371 61.4425H191.323C190.607 62.7161 189.226 63.3678 187.763 63.3678C185.08 63.3678 182.905 61.0633 182.905 57.5267C182.888 53.7057 185.287 51.4782 188 51.4782C189.404 51.4782 190.482 51.9758 190.992 52.7637H191.039V46.6027H194.57V46.5968ZM191.033 56.5551C191.033 56.3596 191.027 56.1167 190.986 55.9153C190.784 54.9675 190.014 54.1855 188.936 54.1855C187.313 54.1855 186.495 55.6251 186.495 57.4141C186.495 59.3276 187.437 60.542 188.912 60.542C189.919 60.542 190.743 59.843 190.962 58.8477C191.021 58.6049 191.039 58.3323 191.039 58.048V56.5551H191.033Z" fill="white"/>
<path d="M200.133 58.5515C200.239 60.0206 201.691 60.7197 203.337 60.7197C204.534 60.7197 205.517 60.5597 206.471 60.2398L206.951 62.6331C205.772 63.113 204.356 63.3499 202.828 63.3499C198.971 63.3499 196.762 61.1047 196.762 57.5562C196.762 54.6653 198.563 51.4663 202.496 51.4663C206.187 51.4663 207.579 54.3335 207.579 57.1475C207.579 57.7636 207.514 58.2849 207.455 58.5515H200.133ZM204.285 56.1285C204.291 55.2755 203.912 53.8241 202.301 53.8241C200.808 53.8241 200.198 55.1866 200.103 56.1285H204.285Z" fill="white"/>
<path d="M209.054 61.2174C209.054 59.9556 209.919 59.061 211.145 59.061C212.377 59.061 213.212 59.9319 213.224 61.2174C213.224 62.4614 212.389 63.3619 211.133 63.3619C209.907 63.3619 209.048 62.4614 209.054 61.2174Z" fill="white"/>
<path d="M226.974 62.6687C226.34 62.9827 224.853 63.3441 222.97 63.3441C217.543 63.3441 214.747 59.9555 214.747 55.4888C214.747 50.1453 218.574 47.1892 223.307 47.1892C225.15 47.1892 226.548 47.5506 227.164 47.8823L226.441 50.6844C225.736 50.3764 224.729 50.0979 223.467 50.0979C220.671 50.0979 218.479 51.804 218.479 55.2874C218.479 58.4271 220.333 60.4058 223.485 60.4058C224.569 60.4058 225.742 60.1925 226.447 59.9022L226.974 62.6687Z" fill="white"/>
<path d="M235.427 63.1011L235.22 61.9696H235.143C234.403 62.876 233.241 63.3559 231.891 63.3559C229.574 63.3559 228.212 61.6912 228.212 59.8725C228.212 56.9105 230.866 55.5006 234.888 55.5065V55.3643C234.888 54.7601 234.562 53.8952 232.803 53.9011C231.642 53.9011 230.422 54.298 229.669 54.7482L229.018 52.4852C229.811 52.0291 231.363 51.4663 233.443 51.4663C237.234 51.4663 238.431 53.7056 238.431 56.3773V60.3465C238.431 61.4306 238.49 62.4613 238.615 63.1011H235.427ZM235.001 57.7221C233.141 57.7103 231.701 58.1605 231.701 59.5171C231.701 60.4353 232.3 60.8796 233.105 60.8796C233.97 60.8796 234.705 60.2991 234.936 59.5704C234.989 59.3868 235.001 59.1676 235.001 58.9662V57.7221Z" fill="white"/>
<path d="M241.228 55.477C241.228 53.8064 241.198 52.7045 241.133 51.727H244.172L244.302 53.836H244.391C244.978 52.1713 246.358 51.4723 247.46 51.4723C247.786 51.4723 247.951 51.4782 248.218 51.5374V54.8668C247.945 54.8075 247.661 54.7661 247.264 54.7661C245.967 54.7661 245.078 55.4532 244.841 56.561C244.8 56.7862 244.776 57.0587 244.776 57.349V63.1071H241.234V55.477H241.228Z" fill="white"/>
<path d="M260.901 46.5968V59.7067C260.901 60.9982 260.942 62.3429 260.996 63.1071H257.85L257.702 61.4425H257.654C256.938 62.7161 255.557 63.3678 254.094 63.3678C251.411 63.3678 249.236 61.0633 249.236 57.5267C249.219 53.7057 251.618 51.4782 254.331 51.4782C255.735 51.4782 256.813 51.9758 257.323 52.7637H257.37V46.6027H260.901V46.5968ZM257.358 56.5551C257.358 56.3596 257.352 56.1167 257.311 55.9153C257.109 54.9675 256.339 54.1855 255.261 54.1855C253.638 54.1855 252.82 55.6251 252.82 57.4141C252.82 59.3276 253.762 60.542 255.237 60.542C256.245 60.542 257.068 59.843 257.287 58.8477C257.346 58.6049 257.364 58.3323 257.364 58.048V56.5551H257.358Z" fill="white"/>
<path d="M263.721 60.0206C264.367 60.4175 265.723 60.8678 266.754 60.8678C267.82 60.8678 268.277 60.5064 268.277 59.9258C268.277 59.3394 267.915 59.0491 266.606 58.6107C264.242 57.8347 263.348 56.5432 263.36 55.2103C263.36 53.0717 265.16 51.4663 267.986 51.4663C269.319 51.4663 270.498 51.7803 271.191 52.1298L270.575 54.5646C270.066 54.298 269.07 53.9248 268.111 53.9248C267.246 53.9248 266.754 54.2684 266.754 54.843C266.754 55.388 267.204 55.6783 268.602 56.1582C270.759 56.8927 271.665 58.0005 271.677 59.6593C271.677 61.7801 270.018 63.3499 266.76 63.3499C265.279 63.3499 263.946 63.0123 263.075 62.5502L263.721 60.0206Z" fill="white"/>
<path d="M80.9174 49.5114C80.1829 49.5114 79.5905 48.919 79.5905 48.1845V35.7084H65.2069C64.4723 35.7084 63.8799 35.116 63.8799 34.3814C63.8799 33.6468 64.4723 33.0544 65.2069 33.0544H82.2444V48.1845C82.2444 48.9131 81.652 49.5114 80.9174 49.5114Z" fill="white"/>
<path d="M82.2448 88H40.3145V55.4237C40.3145 54.6891 40.9069 54.0967 41.6414 54.0967C42.376 54.0967 42.9684 54.6891 42.9684 55.4237V85.3519H79.5968V64.4578C79.5968 63.7233 80.1892 63.1308 80.9238 63.1308C81.6584 63.1308 82.2508 63.7233 82.2508 64.4578V88H82.2448Z" fill="white"/>
<path d="M74.4666 51.4012C73.732 51.4012 73.1396 50.8088 73.1396 50.0742V40.8208H69.283C68.5485 40.8208 67.9561 40.2284 67.9561 39.4939C67.9561 38.7593 68.5485 38.1669 69.283 38.1669H75.7936V50.0742C75.7936 50.8088 75.2012 51.4012 74.4666 51.4012Z" fill="white"/>
<path d="M48.0926 66.4127C47.358 66.4127 46.7656 65.8203 46.7656 65.0857V59.0847C46.7656 58.3501 47.358 57.7577 48.0926 57.7577C48.8272 57.7577 49.4196 58.3501 49.4196 59.0847V65.0857C49.4196 65.8203 48.8272 66.4127 48.0926 66.4127Z" fill="white"/>
<path d="M46.9554 75.5832C46.6177 75.5832 46.28 75.4528 46.0194 75.1981C45.504 74.6827 45.504 73.8474 46.0194 73.332L57.5772 61.7742C58.0926 61.2588 58.9279 61.2588 59.4432 61.7742L64.7867 67.1177L75.9536 55.9509C76.469 55.4355 77.3042 55.4355 77.8196 55.9509C78.335 56.4663 78.335 57.3016 77.8196 57.8169L65.7168 69.9198C65.2014 70.4352 64.3661 70.4352 63.8507 69.9198L58.5072 64.5763L47.8795 75.204C47.6307 75.4528 47.293 75.5832 46.9554 75.5832Z" fill="white"/>
<path d="M81.6641 52.1299L72.5352 54.5706L79.2175 61.2529L81.6641 52.1299Z" fill="white"/>
<path d="M71.1426 82.6388H73.2634C75.2124 82.6388 76.7941 81.0571 76.7941 79.108V61.2944L71.1426 66.946V82.6388Z" fill="white"/>
<path d="M64.7869 72.0288C63.9813 72.0288 63.2289 71.7207 62.6543 71.158V82.6328H68.3058V69.7717L66.9433 71.1343C66.3687 71.7148 65.6045 72.0288 64.7869 72.0288Z" fill="white"/>
<path d="M54.1768 71.3535V82.6388H59.8283V68.3322L58.5132 67.0171L54.1768 71.3535Z" fill="white"/>
<path d="M47.6009 77.242C46.9315 77.3842 46.268 77.3012 45.6934 77.0346V79.1021C45.6934 81.0512 47.2751 82.6329 49.2241 82.6329H51.3449V74.1852L49.1589 76.3712C48.7324 76.7977 48.1933 77.1176 47.6009 77.242Z" fill="white"/>
<path d="M81.6643 52.1299L72.5412 54.5765L74.9346 56.9698L64.7926 67.1118L59.4491 61.7683C58.9337 61.2529 58.0984 61.2529 57.583 61.7683L46.0252 73.3261C45.5098 73.8415 45.5098 74.6768 46.0252 75.1922C46.2859 75.4529 46.6235 75.5773 46.9612 75.5773C47.2989 75.5773 47.6366 75.4469 47.8972 75.1922L58.525 64.5645L63.8684 69.9079C64.3838 70.4233 65.2191 70.4233 65.7345 69.9079L76.8125 58.83L79.2295 61.247L81.6643 52.1299Z" fill="white"/>
<path d="M59.6975 51.6915C60.3728 51.0162 61.2081 50.6133 61.9308 50.6133C62.3633 50.6133 62.7365 50.7555 63.0031 51.028C64.1997 49.1146 64.8928 46.8634 64.8928 44.4464C64.8928 37.5864 59.3124 32 52.4464 32C45.5864 32 40 37.5805 40 44.4464C40 51.3065 45.5805 56.8928 52.4464 56.8928C54.8634 56.8928 57.1205 56.1997 59.028 55.0031C58.2935 54.2566 58.5897 52.8052 59.6975 51.6915ZM42.7725 44.4405C42.7725 39.1029 47.1148 34.7606 52.4523 34.7606C57.7899 34.7606 62.1322 39.1029 62.1322 44.4405C62.1322 49.7781 57.7899 54.1204 52.4523 54.1204C47.1148 54.1204 42.7725 49.7781 42.7725 44.4405Z" fill="white"/>
<path d="M60.7575 44.4405C60.7575 39.8553 57.0372 36.135 52.452 36.135C47.8668 36.135 44.1465 39.8553 44.1465 44.4405C44.1465 44.7604 44.1643 45.0744 44.1998 45.3825C44.6323 41.206 48.163 37.9537 52.452 37.9537C56.741 37.9537 60.2717 41.2119 60.7042 45.3825C60.7397 45.0744 60.7575 44.7604 60.7575 44.4405Z" fill="white"/>
<path d="M68.4884 57.3193L63.4174 52.2483L62.748 51.5789C62.7302 51.5493 62.7184 51.5256 62.6947 51.496C62.671 51.4664 62.6473 51.4368 62.6236 51.4071C62.5821 51.3657 62.5406 51.336 62.4932 51.3064C62.4814 51.3005 62.4636 51.2886 62.4518 51.2827C62.4162 51.265 62.3807 51.2472 62.3451 51.2294C62.3274 51.2235 62.3155 51.2176 62.2977 51.2116C62.2444 51.1939 62.1911 51.182 62.1378 51.1702C62.0786 51.1583 62.0193 51.1583 61.9601 51.1583C61.9542 51.1583 61.9482 51.1583 61.9423 51.1583C61.9305 51.1583 61.9186 51.1583 61.9068 51.1583C61.8594 51.1583 61.812 51.1642 61.7646 51.1702C61.7468 51.1702 61.729 51.1761 61.7053 51.1761C61.6402 51.1879 61.575 51.1998 61.5039 51.2176C61.4328 51.2353 61.3677 51.259 61.2966 51.2827C61.2788 51.2886 61.2551 51.3005 61.2373 51.3064C61.184 51.3301 61.1307 51.3479 61.0774 51.3775C61.0537 51.3894 61.0359 51.3953 61.0122 51.4071C60.9411 51.4427 60.8701 51.4782 60.799 51.5256C60.7279 51.5671 60.6568 51.6145 60.5857 51.6678C60.562 51.6856 60.5442 51.6974 60.5205 51.7152C60.4672 51.7567 60.4198 51.7922 60.3665 51.8337C60.3428 51.8514 60.325 51.8692 60.3013 51.887C60.2362 51.9462 60.1651 52.0055 60.0999 52.0706C59.7149 52.4557 59.4364 52.8941 59.2943 53.3028C59.2765 53.3621 59.2587 53.4213 59.2409 53.4746C59.2113 53.5872 59.1936 53.6997 59.1817 53.8064C59.1758 53.8597 59.1758 53.913 59.1758 53.9663C59.1758 54.0196 59.1817 54.067 59.1876 54.1144C59.1935 54.1618 59.2054 54.2092 59.2172 54.2566C59.2587 54.3929 59.3239 54.5113 59.4246 54.6061C59.4542 54.6357 59.4838 54.6535 59.5134 54.6772C59.5253 54.6891 59.5371 54.7009 59.549 54.7068C59.5549 54.7127 59.5608 54.7128 59.5668 54.7187L59.5727 54.7246L60.248 55.3999L65.3309 60.4828C65.3723 59.8074 65.7455 59.0373 66.3972 58.3857C67.0311 57.7577 67.7953 57.3667 68.4884 57.3193Z" fill="white"/>
<path d="M69.5607 58.5989C69.5311 58.4034 69.454 58.2375 69.3237 58.1072C69.2822 58.0657 69.2408 58.0361 69.1934 58.0065C69.1815 58.0006 69.1697 57.9887 69.1519 57.9828C69.1164 57.965 69.0808 57.9473 69.0453 57.9295C69.0275 57.9236 69.0157 57.9176 68.9979 57.9117C68.9446 57.8939 68.8913 57.8821 68.8379 57.8702C68.7787 57.8584 68.7195 57.8584 68.6602 57.8584C68.6543 57.8584 68.6484 57.8584 68.6424 57.8584C68.6306 57.8584 68.6187 57.8584 68.6069 57.8584C68.5595 57.8584 68.5121 57.8643 68.4647 57.8702C68.4469 57.8702 68.4232 57.8762 68.4055 57.8762C68.3403 57.888 68.2751 57.8999 68.2041 57.9176C68.133 57.9354 68.0619 57.9591 67.9967 57.9828C67.979 57.9887 67.9553 58.0006 67.9375 58.0065C67.8842 58.0302 67.8308 58.048 67.7775 58.0776C67.7538 58.0894 67.7361 58.0954 67.7124 58.1072C67.5702 58.1783 67.4221 58.2672 67.2799 58.3679C67.2621 58.3797 67.2384 58.3975 67.2207 58.4153C67.1674 58.4567 67.114 58.4982 67.0607 58.5397C67.043 58.5574 67.0193 58.5752 67.0015 58.593C66.9304 58.6522 66.8652 58.7174 66.8001 58.7825C66.2491 59.3335 65.9233 59.9851 65.8878 60.5183C65.8818 60.5716 65.8818 60.6249 65.8818 60.6782C65.8878 60.7967 65.9115 60.9093 65.947 61.01C65.9529 61.0278 65.9588 61.0455 65.9648 61.0633C65.9825 61.0989 66.0003 61.1344 66.024 61.1699C66.0536 61.2233 66.0892 61.2706 66.1366 61.3121C66.178 61.3536 66.2195 61.3832 66.261 61.4128C66.2728 61.4187 66.2906 61.4306 66.3024 61.4365C66.338 61.4543 66.3735 61.4721 66.4091 61.4898C66.4268 61.4958 66.4387 61.5017 66.4565 61.5076C66.5098 61.5254 66.5631 61.5372 66.6223 61.5491C66.6816 61.5609 66.7408 61.5609 66.8001 61.5609C66.8178 61.5609 66.8356 61.5609 66.8534 61.5609C66.9008 61.5609 66.9482 61.555 66.9956 61.5491C67.0133 61.5491 67.037 61.5432 67.0548 61.5432C67.12 61.5313 67.1851 61.5195 67.2562 61.5017C67.3273 61.4839 67.3925 61.4602 67.4636 61.4365C67.4813 61.4306 67.505 61.4187 67.5228 61.4128C67.5761 61.3891 67.6294 61.3714 67.6827 61.3417C67.7064 61.3299 67.7242 61.324 67.7479 61.3121C67.819 61.2766 67.8901 61.241 67.9612 61.1936C68.0323 61.1522 68.1034 61.1048 68.1744 61.0515C68.1981 61.0396 68.2159 61.0218 68.2396 61.0041C68.2929 60.9626 68.3462 60.9271 68.3936 60.8797C68.4114 60.8619 68.4351 60.8441 68.4529 60.8264C68.524 60.7671 68.5891 60.7079 68.6543 60.6368C68.9327 60.3583 69.1519 60.0621 69.3059 59.76C69.4007 59.5823 69.4659 59.4046 69.5133 59.2328C69.5429 59.1202 69.5607 59.0077 69.5725 58.901C69.5784 58.8003 69.5725 58.6996 69.5607 58.5989Z" fill="white"/>
<defs>
<radialGradient id="paint0_radial_3241_113049" cx="0" cy="0" r="1" gradientUnits="userSpaceOnUse" gradientTransform="translate(60.7185 -88.3019) rotate(44.4244) scale(383.306 385.785)">
<stop stop-color="#7909A0"/>
<stop offset="1" stop-color="#0B0E61"/>
</radialGradient>
</defs>
</svg>
