<svg width="229" height="229" viewBox="0 0 229 229" fill="none" xmlns="http://www.w3.org/2000/svg">
<g opacity="0.3">
<path opacity="0.3" d="M2.70112 120.879C1.99519 120.826 1.33398 120.513 0.844807 120.001C0.355636 119.49 0.0730917 118.815 0.0516268 118.107C-0.0463783 114.87 -0.00457371 111.581 0.174696 108.331C0.195382 107.955 0.289921 107.587 0.4529 107.248C0.61588 106.908 0.844105 106.604 1.12456 106.353C1.40502 106.102 1.73221 105.908 2.08745 105.784C2.44269 105.659 2.81903 105.605 3.19497 105.626L3.25077 105.63C3.99933 105.686 4.69611 106.033 5.1914 106.597C5.6867 107.161 5.94099 107.897 5.89964 108.647C5.72899 111.734 5.68991 114.859 5.78249 117.934C5.7939 118.31 5.73106 118.685 5.59756 119.037C5.46405 119.389 5.26251 119.711 5.00442 119.985C4.74634 120.26 4.43676 120.48 4.0934 120.635C3.75003 120.789 3.3796 120.875 3.00325 120.886C2.90249 120.889 2.80163 120.887 2.70112 120.879ZM4.73691 95.9866C4.62365 95.9781 4.51096 95.9631 4.39945 95.9414C3.65304 95.7964 2.99481 95.3608 2.56952 94.7305C2.14423 94.1002 1.98672 93.3267 2.13162 92.5803C2.75243 89.3879 3.51576 86.1903 4.40066 83.0771C4.50352 82.715 4.6767 82.3767 4.91031 82.0815C5.14392 81.7863 5.43338 81.54 5.76218 81.3567C6.09098 81.1733 6.45266 81.0566 6.82659 81.013C7.20052 80.9695 7.57938 81 7.9415 81.1029C8.30363 81.2057 8.64195 81.3789 8.93715 81.6125C9.23235 81.8461 9.47865 82.1356 9.66198 82.4644C9.84531 82.7932 9.96207 83.1549 10.0056 83.5288C10.0492 83.9027 10.0187 84.2815 9.9158 84.6437C9.07486 87.6031 8.34991 90.6405 7.76051 93.6747C7.62656 94.3632 7.24486 94.9788 6.68767 95.4048C6.13048 95.8308 5.43645 96.0378 4.73691 95.9866ZM12.203 72.1616C11.7451 72.1272 11.3021 71.9834 10.9113 71.7422C10.5206 71.5011 10.1934 71.1697 9.95736 70.7758C9.72129 70.382 9.58322 69.9372 9.55476 69.4789C9.52629 69.0206 9.60825 68.5621 9.79377 68.1421C11.106 65.1739 12.5643 62.2257 14.1279 59.3797C14.309 59.0494 14.5535 58.7581 14.8472 58.5224C15.141 58.2867 15.4783 58.1111 15.84 58.0058C16.2016 57.9005 16.5804 57.8675 16.9548 57.9086C17.3292 57.9498 17.6919 58.0643 18.022 58.2457C18.3521 58.427 18.6432 58.6717 18.8788 58.9656C19.1143 59.2595 19.2896 59.597 19.3947 59.9587C19.4997 60.3204 19.5325 60.6993 19.4911 61.0736C19.4497 61.448 19.3349 61.8105 19.1533 62.1405C17.6683 64.8431 16.284 67.642 15.0374 70.461C14.7981 71.0023 14.3972 71.4562 13.8898 71.7607C13.3823 72.0651 12.7931 72.2052 12.203 72.1616ZM24.8118 50.5997C24.2995 50.5609 23.8071 50.3853 23.386 50.0911C22.9649 49.7969 22.6305 49.395 22.4178 48.9274C22.2052 48.4598 22.122 47.9436 22.1771 47.4329C22.2321 46.9221 22.4234 46.4356 22.7308 46.024C24.676 43.423 26.7565 40.8747 28.9147 38.4501C29.4204 37.8822 30.1309 37.5385 30.89 37.4945C31.649 37.4505 32.3945 37.7098 32.9624 38.2154C33.5303 38.721 33.8741 39.4316 33.9181 40.1906C33.9621 40.9497 33.7028 41.6952 33.1972 42.2631C31.1473 44.5655 29.1707 46.9856 27.3234 49.4579C27.0346 49.8442 26.6531 50.1514 26.214 50.351C25.775 50.5506 25.2927 50.6361 24.8118 50.5997ZM41.9118 32.3913C41.3449 32.3491 40.8034 32.1393 40.356 31.7886C39.9086 31.4379 39.5756 30.9622 39.3992 30.4218C39.2229 29.8814 39.2112 29.3007 39.3656 28.7537C39.52 28.2066 39.8335 27.7177 40.2664 27.3493C42.7335 25.2498 45.3257 23.2259 47.9705 21.336C48.2767 21.1171 48.6231 20.9606 48.9899 20.8755C49.3566 20.7905 49.7365 20.7785 50.1078 20.8403C50.4792 20.902 50.8348 21.0363 51.1542 21.2355C51.4737 21.4347 51.7508 21.6948 51.9697 22.0011C52.1886 22.3073 52.3451 22.6537 52.4302 23.0205C52.5152 23.3872 52.5272 23.7671 52.4654 24.1384C52.4037 24.5098 52.2694 24.8654 52.0702 25.1848C51.871 25.5043 51.6109 25.7814 51.3046 26.0003C48.7905 27.7965 46.3269 29.7201 43.9822 31.7153C43.4083 32.2051 42.6641 32.4481 41.9118 32.3913ZM62.6125 18.4201C61.9908 18.3745 61.401 18.1276 60.9322 17.7167C60.4635 17.3058 60.1415 16.7533 60.0149 16.143C59.8884 15.5327 59.9641 14.8977 60.2308 14.3343C60.4975 13.7709 60.9405 13.3098 61.4927 13.0208C64.3677 11.5165 67.3436 10.1161 70.3369 8.8609C71.0381 8.56681 71.8274 8.5633 72.5312 8.85117C73.235 9.13903 73.7956 9.69468 74.0897 10.3959C74.3838 11.0971 74.3873 11.8864 74.0994 12.5902C73.8115 13.2939 73.2559 13.8545 72.5547 14.1486C69.7103 15.3419 66.8833 16.6713 64.1515 18.101C63.6786 18.3495 63.1453 18.4601 62.6125 18.4201ZM167.881 19.4011C167.474 19.3707 167.078 19.2532 166.719 19.0565C164.017 17.5778 161.214 16.1971 158.388 14.9538C157.693 14.6476 157.147 14.0775 156.871 13.3689C156.596 12.6603 156.613 11.8713 156.919 11.1754C157.225 10.4795 157.795 9.93379 158.504 9.65825C159.213 9.38271 160.002 9.39995 160.698 9.70617C163.674 11.0156 166.626 12.4692 169.472 14.026C170.046 14.3407 170.496 14.8426 170.746 15.4482C170.995 16.0539 171.03 16.7268 170.844 17.355C170.658 17.9831 170.263 18.5288 169.724 18.901C169.185 19.2733 168.535 19.4498 167.881 19.4011ZM85.8795 9.38971C85.2032 9.33923 84.5667 9.05065 84.083 8.57525C83.5993 8.09986 83.2998 7.46843 83.2376 6.79309C83.1754 6.11775 83.3547 5.44223 83.7434 4.88652C84.1322 4.33081 84.7053 3.93087 85.3611 3.75776C88.4989 2.9299 91.711 2.22876 94.9082 1.6736C95.2792 1.60919 95.6592 1.61847 96.0266 1.70092C96.3939 1.78337 96.7415 1.93736 97.0493 2.15412C97.3571 2.37087 97.6193 2.64612 97.8207 2.96418C98.0222 3.28224 98.159 3.63687 98.2234 4.00781C98.2878 4.37876 98.2786 4.75877 98.1961 5.12613C98.1137 5.49349 97.9597 5.84101 97.7429 6.14886C97.5262 6.4567 97.2509 6.71884 96.9329 6.9203C96.6148 7.12176 96.2602 7.25859 95.8892 7.323C92.8529 7.84968 89.8028 8.51572 86.8231 9.30152C86.5156 9.38291 86.1968 9.41271 85.8795 9.38971H85.8795ZM144.761 9.95883C144.569 9.94481 144.379 9.91148 144.193 9.85933C141.227 9.02238 138.185 8.30331 135.152 7.71971C134.783 7.64866 134.431 7.50543 134.116 7.29825C133.802 7.09108 133.531 6.824 133.32 6.51225C133.109 6.20049 132.961 5.85018 132.885 5.48133C132.809 5.11248 132.807 4.7323 132.878 4.36253C132.949 3.99275 133.093 3.64061 133.3 3.32621C133.507 3.01182 133.774 2.74135 134.086 2.53022C134.398 2.3191 134.748 2.17145 135.117 2.09574C135.486 2.02002 135.866 2.01771 136.236 2.08895C139.426 2.70342 142.627 3.46019 145.749 4.3401C146.432 4.53291 147.02 4.97269 147.398 5.57421C147.776 6.17573 147.917 6.89614 147.794 7.59581C147.671 8.29548 147.293 8.92457 146.733 9.36116C146.172 9.79776 145.47 10.0107 144.761 9.95883ZM110.58 5.78303C109.849 5.7277 109.166 5.394 108.673 4.85061C108.18 4.30722 107.914 3.5955 107.93 2.86196C107.946 2.12843 108.243 1.42889 108.759 0.907372C109.275 0.38585 109.971 0.0820292 110.705 0.0584493C113.945 -0.0454357 117.233 -0.010968 120.478 0.162872C120.498 0.163203 120.518 0.164754 120.539 0.166248C121.292 0.222439 121.992 0.573413 122.488 1.14295C122.983 1.71248 123.234 2.45459 123.186 3.20808C123.138 3.96157 122.794 4.6656 122.23 5.16727C121.666 5.66893 120.926 5.92773 120.172 5.88744C117.09 5.72339 113.967 5.69105 110.888 5.79015C110.785 5.79257 110.682 5.79055 110.58 5.78303Z" fill="#91B3FA"/>
<path opacity="0.3" d="M184.594 30.623C184.011 30.5802 183.456 30.3594 183.002 29.9905C181.855 29.0585 180.669 28.136 179.477 27.2456C179.175 27.0205 178.921 26.7381 178.728 26.4146C178.535 26.0911 178.408 25.7328 178.354 25.3602C178.3 24.9875 178.32 24.6079 178.412 24.2429C178.505 23.8779 178.669 23.5348 178.894 23.233C179.119 22.9313 179.402 22.6769 179.725 22.4844C180.049 22.2919 180.407 22.165 180.78 22.111C181.153 22.057 181.532 22.077 181.897 22.1698C182.262 22.2625 182.605 22.4263 182.907 22.6517C184.161 23.5871 185.408 24.558 186.616 25.5383C187.09 25.9232 187.429 26.4494 187.583 27.0404C187.737 27.6313 187.699 28.256 187.473 28.8236C187.247 29.3911 186.846 29.8717 186.328 30.1954C185.811 30.519 185.203 30.6689 184.594 30.6231V30.623Z" fill="#91B3FA"/>
</g>
<g opacity="0.3">
<path opacity="0.3" d="M225.556 107.834C224.877 107.782 224.238 107.491 223.754 107.012C223.271 106.532 222.973 105.896 222.915 105.218C222.791 103.745 222.633 102.25 222.446 100.775C222.398 100.401 222.425 100.022 222.524 99.6583C222.623 99.2948 222.792 98.9543 223.023 98.6564C223.254 98.3585 223.541 98.109 223.868 97.9221C224.195 97.7353 224.556 97.6147 224.93 97.5674C225.303 97.5201 225.683 97.5469 226.046 97.6463C226.41 97.7457 226.75 97.9158 227.048 98.1469C227.345 98.3779 227.594 98.6653 227.781 98.9927C227.967 99.3201 228.088 99.681 228.134 100.055C228.331 101.608 228.497 103.182 228.629 104.733C228.664 105.146 228.609 105.563 228.468 105.953C228.326 106.343 228.101 106.698 227.809 106.993C227.517 107.288 227.164 107.516 226.775 107.661C226.386 107.806 225.97 107.865 225.556 107.834V107.834Z" fill="#91B3FA"/>
<path opacity="0.3" d="M106.142 228.718C104.826 228.62 103.508 228.5 102.186 228.357C101.43 228.274 100.738 227.895 100.262 227.303C99.7852 226.711 99.5635 225.953 99.6453 225.198C99.7271 224.442 100.106 223.749 100.698 223.273C101.29 222.796 102.047 222.574 102.803 222.655C105.853 222.985 108.91 223.191 111.924 223.267C112.3 223.276 112.671 223.36 113.015 223.512C113.36 223.665 113.67 223.884 113.93 224.157C114.19 224.43 114.393 224.751 114.528 225.103C114.663 225.454 114.728 225.829 114.719 226.205C114.709 226.582 114.626 226.953 114.473 227.297C114.32 227.641 114.101 227.952 113.828 228.211C113.555 228.47 113.234 228.674 112.882 228.809C112.531 228.944 112.156 229.009 111.78 228.999C109.916 228.952 108.019 228.858 106.142 228.718ZM87.2846 225.703C87.122 225.69 86.9607 225.665 86.8025 225.625C83.6982 224.854 80.5919 223.943 77.5706 222.916C77.2142 222.795 76.8851 222.605 76.6022 222.357C76.3192 222.109 76.0879 221.807 75.9215 221.47C75.7551 221.132 75.6569 220.765 75.6324 220.389C75.6078 220.013 75.6575 219.637 75.7786 219.28C75.8997 218.924 76.0898 218.595 76.3381 218.312C76.5864 218.029 76.8879 217.798 77.2256 217.631C77.5632 217.465 77.9304 217.367 78.306 217.342C78.6816 217.317 79.0584 217.367 79.4148 217.488C82.2845 218.463 85.2353 219.328 88.1852 220.062C88.882 220.235 89.4885 220.663 89.8847 221.262C90.2809 221.861 90.4379 222.586 90.3247 223.296C90.2115 224.005 89.8363 224.645 89.2734 225.091C88.7104 225.537 88.0007 225.755 87.2846 225.703ZM126.851 228.332C126.139 228.278 125.473 227.961 124.983 227.441C124.492 226.922 124.214 226.239 124.201 225.525C124.188 224.811 124.441 224.118 124.912 223.582C125.383 223.045 126.038 222.703 126.747 222.624C129.757 222.286 132.793 221.814 135.773 221.221C136.142 221.147 136.523 221.146 136.892 221.219C137.262 221.292 137.614 221.437 137.927 221.646C138.241 221.856 138.51 222.124 138.72 222.438C138.929 222.751 139.075 223.103 139.149 223.472C139.222 223.842 139.222 224.222 139.149 224.592C139.075 224.961 138.929 225.313 138.72 225.626C138.51 225.939 138.241 226.208 137.927 226.417C137.614 226.626 137.262 226.772 136.892 226.845C133.755 227.469 130.557 227.966 127.387 228.322C127.209 228.342 127.03 228.345 126.851 228.332ZM64.2244 217.184C63.8512 217.156 63.4872 217.055 63.1528 216.887C60.2964 215.454 57.4667 213.881 54.7429 212.214C54.0952 211.816 53.6318 211.178 53.4546 210.439C53.2773 209.7 53.4007 208.921 53.7976 208.273C54.1945 207.625 54.8324 207.161 55.5712 206.983C56.3099 206.805 57.0891 206.928 57.7374 207.325C60.3237 208.908 63.0106 210.401 65.7235 211.762C66.3168 212.06 66.7884 212.554 67.0578 213.161C67.3272 213.768 67.3778 214.449 67.2009 215.089C67.024 215.729 66.6306 216.287 66.0877 216.67C65.5449 217.052 64.8864 217.234 64.2244 217.184ZM150.806 222.903C150.148 222.854 149.528 222.58 149.048 222.127C148.569 221.674 148.261 221.069 148.175 220.415C148.09 219.761 148.232 219.097 148.579 218.536C148.926 217.975 149.456 217.55 150.079 217.334C152.939 216.343 155.797 215.215 158.574 213.982C159.269 213.673 160.058 213.653 160.768 213.926C161.477 214.199 162.049 214.743 162.358 215.438C162.666 216.133 162.686 216.922 162.413 217.631C162.14 218.341 161.596 218.913 160.901 219.221C157.978 220.52 154.969 221.708 151.957 222.752C151.588 222.88 151.196 222.932 150.806 222.903ZM172.991 212.349C172.387 212.305 171.812 212.07 171.35 211.679C170.887 211.288 170.561 210.761 170.416 210.173C170.272 209.584 170.318 208.966 170.547 208.405C170.777 207.845 171.178 207.371 171.693 207.053C174.275 205.454 176.82 203.729 179.256 201.925C179.559 201.701 179.902 201.538 180.268 201.447C180.633 201.356 181.013 201.338 181.385 201.393C181.757 201.448 182.115 201.577 182.438 201.77C182.761 201.964 183.042 202.22 183.266 202.522C183.49 202.825 183.653 203.168 183.744 203.534C183.835 203.899 183.853 204.279 183.798 204.651C183.742 205.023 183.614 205.381 183.42 205.704C183.227 206.027 182.971 206.308 182.669 206.532C180.104 208.431 177.426 210.247 174.709 211.928C174.195 212.247 173.594 212.395 172.991 212.349H172.991ZM192.346 197.21C191.796 197.169 191.27 196.97 190.83 196.637C190.39 196.304 190.056 195.851 189.867 195.333C189.678 194.814 189.643 194.253 189.765 193.715C189.887 193.177 190.162 192.686 190.557 192.3C192.732 190.177 194.84 187.939 196.824 185.648C197.07 185.363 197.371 185.13 197.707 184.961C198.044 184.793 198.41 184.692 198.786 184.665C199.161 184.638 199.539 184.686 199.896 184.804C200.253 184.923 200.583 185.111 200.868 185.358C201.153 185.604 201.386 185.904 201.554 186.241C201.723 186.578 201.824 186.944 201.851 187.32C201.877 187.695 201.83 188.072 201.711 188.43C201.592 188.787 201.404 189.117 201.158 189.402C199.07 191.812 196.851 194.168 194.563 196.402C194.272 196.687 193.924 196.906 193.542 197.045C193.16 197.185 192.752 197.241 192.346 197.21ZM207.939 178.211C207.442 178.174 206.964 178.008 206.551 177.73C206.139 177.451 205.806 177.07 205.585 176.624C205.364 176.178 205.263 175.682 205.292 175.185C205.321 174.688 205.48 174.207 205.751 173.79C207.408 171.243 208.974 168.599 210.407 165.927C210.584 165.595 210.826 165.302 211.117 165.063C211.409 164.825 211.744 164.646 212.104 164.537C212.465 164.428 212.843 164.392 213.218 164.429C213.592 164.466 213.956 164.577 214.287 164.755C214.619 164.933 214.913 165.174 215.151 165.466C215.39 165.757 215.568 166.092 215.677 166.453C215.786 166.813 215.823 167.192 215.785 167.566C215.748 167.941 215.637 168.304 215.459 168.636C213.95 171.45 212.301 174.236 210.557 176.916C210.277 177.347 209.886 177.694 209.425 177.922C208.965 178.15 208.451 178.25 207.939 178.211ZM218.984 156.245C218.541 156.211 218.112 156.075 217.731 155.848C217.349 155.621 217.026 155.308 216.785 154.934C216.545 154.56 216.395 154.136 216.347 153.695C216.299 153.253 216.353 152.806 216.507 152.39C217.559 149.548 218.503 146.625 219.314 143.698C219.517 142.965 220.003 142.343 220.664 141.969C221.326 141.594 222.11 141.498 222.842 141.701C223.575 141.904 224.197 142.39 224.572 143.052C224.946 143.713 225.042 144.497 224.839 145.229C223.986 148.31 222.992 151.388 221.884 154.38C221.668 154.963 221.269 155.46 220.746 155.796C220.222 156.133 219.604 156.29 218.984 156.245ZM224.93 132.404C224.871 132.4 224.812 132.393 224.753 132.386C224.38 132.335 224.021 132.211 223.696 132.022C223.37 131.832 223.086 131.58 222.858 131.281C222.63 130.981 222.463 130.639 222.367 130.275C222.271 129.911 222.248 129.532 222.299 129.159C222.6 126.944 222.836 124.695 223.002 122.47C223.062 121.665 223.112 120.861 223.154 120.058C223.174 119.682 223.267 119.314 223.43 118.974C223.592 118.634 223.819 118.329 224.099 118.078C224.379 117.826 224.705 117.631 225.06 117.506C225.415 117.38 225.792 117.326 226.168 117.346C226.545 117.361 226.915 117.452 227.257 117.612C227.599 117.773 227.905 118 228.158 118.281C228.41 118.562 228.604 118.89 228.728 119.247C228.853 119.603 228.904 119.981 228.88 120.358C228.836 121.203 228.782 122.048 228.72 122.895C228.546 125.235 228.297 127.602 227.98 129.931C227.882 130.654 227.511 131.313 226.945 131.772C226.378 132.232 225.657 132.458 224.93 132.404Z" fill="#91B3FA"/>
<path opacity="0.3" d="M43.5545 203.752C42.9668 203.709 42.4068 203.485 41.9514 203.111C40.7512 202.127 39.5492 201.099 38.3787 200.055C38.0975 199.805 37.8684 199.501 37.7045 199.162C37.5406 198.823 37.4451 198.455 37.4234 198.079C37.4018 197.703 37.4544 197.327 37.5783 196.971C37.7022 196.616 37.8949 196.288 38.1454 196.007C38.396 195.726 38.6994 195.497 39.0385 195.333C39.3776 195.169 39.7456 195.074 40.1215 195.052C40.4974 195.031 40.8739 195.084 41.2295 195.208C41.585 195.332 41.9126 195.524 42.1936 195.775C43.3057 196.766 44.4476 197.743 45.5869 198.677C46.0582 199.064 46.394 199.59 46.5457 200.181C46.6974 200.771 46.6571 201.394 46.4305 201.96C46.2039 202.525 45.803 203.004 45.2858 203.327C44.7687 203.649 44.1622 203.798 43.5545 203.752H43.5545Z" fill="#91B3FA"/>
</g>
<path d="M49.8775 170.879C50.0373 171.107 50.2644 171.28 50.5272 171.373C50.79 171.467 51.0753 171.476 51.3435 171.399L67.0244 166.921C72.7746 172.076 79.327 176.259 86.4237 179.306L88.9704 195.403C89.0139 195.678 89.1423 195.933 89.3377 196.132C89.5331 196.331 89.7857 196.464 90.0603 196.513L109.322 199.922C109.597 199.97 109.88 199.932 110.131 199.812C110.383 199.692 110.591 199.497 110.727 199.253L118.643 185.008C126.354 184.582 133.945 182.901 141.115 180.032L154.307 189.62C154.532 189.784 154.803 189.874 155.082 189.876C155.361 189.879 155.633 189.794 155.862 189.634L171.893 178.425C172.121 178.265 172.294 178.038 172.387 177.775C172.481 177.512 172.49 177.227 172.413 176.959L167.935 161.278C173.09 155.527 177.273 148.975 180.32 141.878L196.417 139.332C196.693 139.288 196.948 139.16 197.146 138.964C197.345 138.769 197.478 138.516 197.527 138.242L200.936 118.98C200.984 118.705 200.946 118.422 200.826 118.17C200.706 117.919 200.511 117.71 200.267 117.575L186.022 109.659C185.596 101.947 183.915 94.3574 181.046 87.1873L190.634 73.9952C190.798 73.7697 190.888 73.4986 190.89 73.2198C190.893 72.9411 190.808 72.6684 190.649 72.4399L179.439 56.4094C179.279 56.1808 179.052 56.0078 178.789 55.9145C178.526 55.8211 178.241 55.8122 177.973 55.8888L162.292 60.3673C156.542 55.2118 149.989 51.0286 142.892 47.9823L140.346 31.8847C140.302 31.6093 140.174 31.3544 139.978 31.1554C139.783 30.9564 139.531 30.8234 139.256 30.7747L119.994 27.3661C119.719 27.3175 119.436 27.3557 119.184 27.4756C118.933 27.5954 118.725 27.7909 118.589 28.0347L110.673 42.2803C102.962 42.706 95.3715 44.3866 88.2013 47.2557L75.0097 37.6678C74.7841 37.5037 74.513 37.4142 74.2341 37.4116C73.9553 37.4091 73.6826 37.4936 73.454 37.6534L57.4235 48.8634C57.195 49.0232 57.022 49.2503 56.9287 49.5131C56.8354 49.7759 56.8264 50.0612 56.9029 50.3294L61.3812 66.0102C56.2258 71.7604 52.0426 78.3128 48.9963 85.4095L32.8988 87.9563C32.6234 87.9998 32.3684 88.1282 32.1695 88.3236C31.9706 88.519 31.8376 88.7717 31.7891 89.0463L28.3804 108.308C28.3318 108.583 28.37 108.866 28.4898 109.117C28.6097 109.369 28.805 109.577 29.0488 109.713L43.2945 117.629C43.7204 125.34 45.4009 132.93 48.2697 140.1L38.6818 153.292C38.5179 153.518 38.4284 153.789 38.4258 154.068C38.4232 154.347 38.5077 154.619 38.6675 154.848L49.8775 170.879Z" fill="#82A5FF"/>
<path d="M111.483 161.604C109.831 161.481 108.185 161.275 106.554 160.986C106.036 160.895 105.521 160.795 105.006 160.687C102.477 160.155 99.9933 159.423 97.5799 158.496C97.5472 158.484 97.5144 158.471 97.4816 158.459C97.3889 158.423 97.2961 158.387 97.2034 158.349C97.0229 158.279 96.843 158.206 96.6637 158.133C96.5242 158.076 96.3972 157.992 96.2901 157.886C96.1829 157.781 96.0977 157.655 96.0393 157.516C95.9809 157.377 95.9504 157.228 95.9495 157.077C95.9487 156.927 95.9776 156.777 96.0345 156.638C96.0914 156.498 96.1753 156.371 96.2812 156.264C96.3872 156.157 96.5133 156.072 96.6521 156.014C96.791 155.956 96.94 155.925 97.0907 155.924C97.2413 155.924 97.3906 155.953 97.5301 156.01C100.566 157.247 103.724 158.157 106.953 158.727C123.022 161.573 138.651 155.674 148.945 144.46C154.864 138.02 158.814 130.019 160.327 121.403C160.604 119.847 160.8 118.277 160.917 116.7C161.737 105.335 158.315 94.0696 151.312 85.0803C144.31 76.0911 134.224 70.0161 123.004 68.0291C97.9872 63.6046 74.0542 80.3484 69.6294 105.353C68.1763 113.553 68.9731 121.993 71.935 129.776C71.9893 129.917 72.0152 130.067 72.0114 130.218C72.0075 130.369 71.9739 130.518 71.9125 130.656C71.851 130.793 71.763 130.918 71.6534 131.022C71.5438 131.125 71.4149 131.206 71.2739 131.26C71.1329 131.314 70.9827 131.339 70.8318 131.335C70.681 131.331 70.5325 131.297 70.3949 131.235C70.2572 131.173 70.1332 131.084 70.0298 130.974C69.9264 130.865 69.8457 130.735 69.7924 130.594C66.683 122.423 65.846 113.562 67.3706 104.954C72.0161 78.7011 97.1603 61.1266 123.403 65.7702C135.182 67.8563 145.77 74.2339 153.121 83.671C160.473 93.108 164.065 104.935 163.205 116.866C163.082 118.521 162.875 120.168 162.586 121.802C160.501 133.583 154.122 144.172 144.684 151.524C135.245 158.875 123.416 162.466 111.483 161.604Z" fill="#ADC3FB"/>
<path d="M116.915 99.7466L103.941 111.838C103.486 112.263 103.133 112.787 102.912 113.369C102.691 113.952 102.606 114.577 102.664 115.197L103.272 121.641C103.356 122.536 103.734 123.377 104.346 124.035C104.959 124.692 105.772 125.128 106.658 125.275L113.044 126.333C113.658 126.435 114.288 126.394 114.885 126.214C115.481 126.034 116.028 125.72 116.484 125.295L129.457 113.203C131.414 111.38 134.649 112.69 134.722 115.364C134.798 118.686 134.166 121.986 132.867 125.045C131.569 128.104 129.635 130.852 127.192 133.105C117.863 141.801 104.664 140.508 96.3003 131.534C87.9362 122.56 87.5736 109.304 96.9031 100.608C99.3224 98.3298 102.199 96.593 105.341 95.5129C108.484 94.4327 111.82 94.034 115.129 94.3433C117.791 94.6037 118.871 97.9227 116.915 99.7466Z" fill="#0B0E61"/>
<path d="M27.7778 183.313L25.542 185.396C21.7054 188.972 20.5498 193.968 22.9609 196.555L25.8274 199.63C28.2385 202.217 33.3031 201.416 37.1397 197.84L39.3756 195.756C39.5236 195.618 39.6686 195.477 39.8106 195.332L103.426 130.69L97.1814 123.99L28.2307 182.908C28.0769 183.04 27.9259 183.175 27.7778 183.313ZM30.8558 186.263C33.7443 183.57 37.3827 182.779 38.9825 184.496C40.5822 186.212 39.5375 189.786 36.649 192.478C33.7604 195.17 30.122 195.961 28.5222 194.245C26.9225 192.529 27.9673 188.955 30.8558 186.263Z" fill="#0B0E61"/>
</svg>
