<svg width="25" height="24" viewBox="0 0 25 24" fill="none" xmlns="http://www.w3.org/2000/svg">
<path fill-rule="evenodd" clip-rule="evenodd" d="M10.625 4.25403C9.75903 4.47763 8.93202 4.84605 8.18044 5.34824C6.86485 6.2273 5.83947 7.47672 5.23397 8.93853C4.62847 10.4003 4.47004 12.0089 4.77872 13.5607C5.0874 15.1126 5.84933 16.538 6.96815 17.6569C8.08697 18.7757 9.51243 19.5376 11.0643 19.8463C12.6161 20.155 14.2247 19.9965 15.6865 19.391C17.1483 18.7855 18.3977 17.7602 19.2768 16.4446C19.7789 15.693 20.1474 14.866 20.371 14H22.423C22.1649 15.264 21.6635 16.4725 20.9397 17.5557C19.8409 19.2002 18.2791 20.4819 16.4518 21.2388C14.6246 21.9957 12.6139 22.1937 10.6741 21.8079C8.73429 21.422 6.95246 20.4696 5.55394 19.0711C4.15541 17.6725 3.203 15.8907 2.81715 13.9509C2.4313 12.0111 2.62933 10.0004 3.38621 8.17317C4.14309 6.34591 5.42481 4.78412 7.0693 3.6853C8.15248 2.96155 9.36101 2.46006 10.625 2.20204V4.25403Z" fill="#18213A"/>
<path d="M12.525 1V12.3H23.825V11.3C23.825 9.94738 23.5586 8.60802 23.041 7.35836C22.5233 6.10871 21.7647 4.97324 20.8082 4.0168C19.8518 3.06036 18.7163 2.30166 17.4666 1.78404C16.217 1.26642 14.8776 1 13.525 1H12.525Z" fill="#18213A"/>
</svg>
