<svg width="17" height="16" viewBox="0 0 17 16" fill="none" xmlns="http://www.w3.org/2000/svg">
<path d="M9.61914 12.7755V10.8469C9.61914 10.7532 9.589 10.6762 9.52874 10.6159C9.46847 10.5557 9.39146 10.5255 9.29771 10.5255H7.36914C7.27539 10.5255 7.19838 10.5557 7.13811 10.6159C7.07784 10.6762 7.04771 10.7532 7.04771 10.8469V12.7755C7.04771 12.8693 7.07784 12.9463 7.13811 13.0065C7.19838 13.0668 7.27539 13.0969 7.36914 13.0969H9.29771C9.39146 13.0969 9.46847 13.0668 9.52874 13.0065C9.589 12.9463 9.61914 12.8693 9.61914 12.7755ZM12.1906 6.02552C12.1906 5.43623 12.0047 4.89048 11.6331 4.38824C11.2614 3.88601 10.7977 3.49762 10.2419 3.22307C9.6861 2.94851 9.11691 2.81124 8.53432 2.81124C6.90708 2.81124 5.6649 3.52441 4.80775 4.95074C4.70731 5.11146 4.73409 5.25208 4.88811 5.37262L6.214 6.37708C6.26088 6.41726 6.3245 6.43735 6.40485 6.43735C6.512 6.43735 6.5957 6.39717 6.65597 6.31682C7.01088 5.86146 7.29883 5.55342 7.51981 5.39271C7.74749 5.23199 8.03543 5.15164 8.38365 5.15164C8.70508 5.15164 8.99135 5.23869 9.24246 5.4128C9.49358 5.58691 9.61914 5.78445 9.61914 6.00543C9.61914 6.2599 9.55217 6.46414 9.41824 6.61815C9.28432 6.77217 9.05664 6.92284 8.73521 7.07016C8.31333 7.25766 7.92662 7.54728 7.57505 7.93902C7.22349 8.33077 7.04771 8.75097 7.04771 9.19963V9.56123C7.04771 9.65498 7.07784 9.73199 7.13811 9.79226C7.19838 9.85253 7.27539 9.88266 7.36914 9.88266H9.29771C9.39146 9.88266 9.46847 9.85253 9.52874 9.79226C9.589 9.73199 9.61914 9.65498 9.61914 9.56123C9.61914 9.434 9.69112 9.26827 9.8351 9.06402C9.97907 8.85978 10.1615 8.69405 10.3825 8.56682C10.5968 8.44628 10.7609 8.35086 10.8747 8.28054C10.9886 8.21023 11.1426 8.09304 11.3368 7.92898C11.531 7.76492 11.68 7.6042 11.7838 7.44684C11.8876 7.28947 11.9813 7.0869 12.065 6.83914C12.1487 6.59137 12.1906 6.32016 12.1906 6.02552ZM16.0477 7.95409C16.0477 9.35365 15.7028 10.6444 15.0131 11.8263C14.3234 13.0082 13.3876 13.944 12.2056 14.6338C11.0237 15.3235 9.73298 15.6684 8.33342 15.6684C6.93387 15.6684 5.64313 15.3235 4.46122 14.6338C3.2793 13.944 2.34347 13.0082 1.65374 11.8263C0.964007 10.6444 0.619141 9.35365 0.619141 7.95409C0.619141 6.55454 0.964007 5.2638 1.65374 4.08188C2.34347 2.89996 3.2793 1.96414 4.46122 1.27441C5.64313 0.584673 6.93387 0.239807 8.33342 0.239807C9.73298 0.239807 11.0237 0.584673 12.2056 1.27441C13.3876 1.96414 14.3234 2.89996 15.0131 4.08188C15.7028 5.2638 16.0477 6.55454 16.0477 7.95409Z" fill="#18213A"/>
</svg>
