<svg width="25" height="24" viewBox="0 0 25 24" fill="none" xmlns="http://www.w3.org/2000/svg">
<path d="M13.499 5C17.3656 5 20.5 8.13401 20.5 12C20.5 15.866 17.3656 19 13.499 19C11.8562 19 10.3456 18.4342 9.15136 17.487L8.13539 19.2284C9.63337 20.3414 11.4893 21 13.499 21C18.4703 21 22.5003 16.9706 22.5003 12C22.5003 7.02944 18.4703 3 13.499 3C9.43738 3 6.00405 5.68979 4.88362 9.38502L3.37098 6.3109L1.78027 7.0934L4.74382 13.1162L10.7674 10.153L9.98482 8.56256L6.7432 10.1572C7.55219 7.18524 10.2704 5 13.499 5Z" fill="#0B0E61"/>
</svg>
