<svg width="24" height="24" viewBox="0 0 24 24" fill="none" xmlns="http://www.w3.org/2000/svg">
<path fill-rule="evenodd" clip-rule="evenodd" d="M22.744 6.00972C21.9817 6.3497 21.1607 6.58073 20.3 6.68181C21.179 6.15214 21.8539 5.31596 22.1714 4.31373C21.3485 4.80599 20.4382 5.16107 19.4679 5.35338C18.6932 4.52114 17.5867 4 16.3621 4C14.0126 4 12.1066 5.91914 12.1066 8.28525C12.1066 8.61933 12.1437 8.94619 12.2174 9.25992C8.6799 9.08074 5.5447 7.37556 3.44501 4.7863C3.07789 5.41638 2.86922 6.15149 2.86922 6.93778C2.86922 8.42309 3.62042 9.73511 4.76221 10.503C4.06448 10.4807 3.40914 10.2864 2.83466 9.96746C2.83336 9.98321 2.83336 10.0036 2.83336 10.0219C2.83336 12.0953 4.30119 13.8248 6.24765 14.2199C5.89096 14.319 5.51471 14.3669 5.12607 14.3669C4.85285 14.3669 4.5855 14.342 4.32662 14.2927C4.86654 15.9953 6.44001 17.2332 8.3017 17.2666C6.8443 18.4165 5.01 19.0998 3.01594 19.0998C2.67229 19.0998 2.33386 19.0808 2 19.0388C3.88451 20.2543 6.12114 20.9631 8.52471 20.9631C16.3536 20.9631 20.6338 14.4404 20.6338 8.77948C20.6338 8.59373 20.6293 8.40996 20.6208 8.22618C21.4528 7.62366 22.174 6.8669 22.744 6.00972Z" fill="white"/>
</svg>
