<svg width="22" height="21" viewBox="0 0 22 21" fill="none" xmlns="http://www.w3.org/2000/svg">
<path fill-rule="evenodd" clip-rule="evenodd" d="M12.1808 1.68471C14.4271 -0.561568 18.069 -0.561568 20.3153 1.68471C22.5616 3.93098 22.5616 7.57291 20.3153 9.81918L17.6913 12.4432C15.445 14.6895 11.8031 14.6895 9.55679 12.4432C9.12203 12.0084 9.12203 11.3036 9.55679 10.8688C9.99155 10.434 10.6964 10.434 11.1312 10.8688C12.508 12.2455 14.7401 12.2455 16.1169 10.8688L18.7409 8.24477C20.1176 6.86802 20.1176 4.63587 18.7409 3.25912C17.3641 1.88237 15.132 1.88237 13.7552 3.25912L11.1312 5.88315C10.6964 6.31791 9.99155 6.31791 9.55679 5.88315C9.12203 5.44838 9.12203 4.74349 9.55679 4.30873L12.1808 1.68471Z" fill="#0B0E61"/>
<path fill-rule="evenodd" clip-rule="evenodd" d="M9.81918 19.0033C7.57291 21.2495 3.93098 21.2495 1.68471 19.0033C-0.561569 16.757 -0.561568 13.1151 1.68471 10.8688L4.30873 8.24476C6.55501 5.99849 10.1969 5.99849 12.4432 8.24476C12.878 8.67953 12.878 9.38442 12.4432 9.81918C12.0084 10.2539 11.3036 10.2539 10.8688 9.81918C9.49204 8.44243 7.25989 8.44243 5.88315 9.81918L3.25912 12.4432C1.88237 13.82 1.88237 16.0521 3.25912 17.4289C4.63587 18.8056 6.86802 18.8056 8.24477 17.4289L10.8688 14.8048C11.3036 14.3701 12.0084 14.3701 12.4432 14.8048C12.878 15.2396 12.878 15.9445 12.4432 16.3792L9.81918 19.0033Z" fill="#0B0E61"/>
</svg>
