<svg width="25" height="24" viewBox="0 0 25 24" fill="none" xmlns="http://www.w3.org/2000/svg">
<path fill-rule="evenodd" clip-rule="evenodd" d="M6.49995 2.8002C5.83721 2.8002 5.29995 3.33745 5.29995 4.0002L5.29995 20.0002C5.29995 20.6629 5.83721 21.2002 6.49995 21.2002L18.5 21.2002C19.1627 21.2002 19.7 20.6629 19.7 20.0002L19.7 7.12062C19.7 6.90454 19.6125 6.69765 19.4576 6.54703L15.8366 3.0266C15.6873 2.88142 15.4872 2.8002 15.2789 2.8002L6.49995 2.8002ZM3.69995 4.0002C3.69995 2.4538 4.95355 1.2002 6.49995 1.2002L15.2789 1.2002C15.9038 1.2002 16.5039 1.44386 16.9519 1.87941L20.5729 5.39983C21.0377 5.85171 21.2999 6.47238 21.2999 7.12062L21.2999 20.0002C21.2999 21.5466 20.0463 22.8002 18.5 22.8002L6.49995 22.8002C4.95355 22.8002 3.69995 21.5466 3.69995 20.0002L3.69995 4.0002Z" fill="#0B0E61"/>
<path fill-rule="evenodd" clip-rule="evenodd" d="M7.49995 10.0002C7.49995 9.44791 7.94767 9.0002 8.49995 9.0002L16.5 9.0002C17.0522 9.0002 17.5 9.44791 17.5 10.0002V18.0002C17.5 18.5525 17.0522 19.0002 16.5 19.0002H8.49995C7.94767 19.0002 7.49995 18.5525 7.49995 18.0002L7.49995 10.0002ZM8.69995 12.0002L8.69995 10.2002L16.3 10.2002V12.0002L8.69995 12.0002ZM8.69995 13.0002L12 13.0002V15.0002L8.69995 15.0002V13.0002ZM16.3 15.0002V13.0002H13V15.0002H16.3ZM13 16.0002H16.3V17.8002H13V16.0002ZM12 16.0002V17.8002H8.69995V16.0002H12Z" fill="#0B0E61"/>
</svg>
