<svg width="48" height="49" viewBox="0 0 48 49" fill="none" xmlns="http://www.w3.org/2000/svg">
<path fill-rule="evenodd" clip-rule="evenodd" d="M6.4 11.3542C6.4 9.14511 8.19086 7.35425 10.4 7.35425H37.6C39.8091 7.35425 41.6 9.14511 41.6 11.3542V38.5542C41.6 40.7634 39.8091 42.5542 37.6 42.5542H10.4C8.19086 42.5542 6.4 40.7634 6.4 38.5542V11.3542ZM10.4 10.5542C9.95817 10.5542 9.6 10.9124 9.6 11.3542V16.1542H38.4V11.3542C38.4 10.9124 38.0418 10.5542 37.6 10.5542H10.4ZM9.6 24.1542V18.9542H23V24.1542H9.6ZM23 26.9542H9.6V32.1542H23L23 26.9542ZM25.8 32.1542L25.8 26.9542H38.4V32.1542H25.8ZM23 34.9542H9.6V38.5542C9.6 38.9961 9.95817 39.3542 10.4 39.3542H23V34.9542ZM25.8 39.3542V34.9542H38.4V38.5542C38.4 38.9961 38.0418 39.3542 37.6 39.3542H25.8ZM25.8 24.1542V18.9542H38.4V24.1542H25.8Z" fill="#6D7588"/>
</svg>
