<svg width="19" height="18" viewBox="0 0 19 18" fill="none" xmlns="http://www.w3.org/2000/svg">
<path fill-rule="evenodd" clip-rule="evenodd" d="M0.575012 2.2002C0.575012 1.09563 1.47044 0.200195 2.57501 0.200195H16.175C17.2796 0.200195 18.175 1.09563 18.175 2.2002V15.8002C18.175 16.9048 17.2796 17.8002 16.175 17.8002H2.57501C1.47044 17.8002 0.575012 16.9048 0.575012 15.8002V2.2002ZM2.57501 1.8002C2.3541 1.8002 2.17501 1.97928 2.17501 2.2002V4.60019H16.575V2.2002C16.575 1.97928 16.3959 1.8002 16.175 1.8002H2.57501ZM2.17501 8.60019V6.00019H8.87501V8.60019H2.17501ZM8.87501 10.0002H2.17501V12.6002H8.87501L8.87501 10.0002ZM10.275 12.6002L10.275 10.0002H16.575V12.6002H10.275ZM8.87501 14.0002H2.17501V15.8002C2.17501 16.0211 2.3541 16.2002 2.57501 16.2002H8.87501V14.0002ZM10.275 16.2002V14.0002H16.575V15.8002C16.575 16.0211 16.3959 16.2002 16.175 16.2002H10.275ZM10.275 8.60019V6.00019H16.575V8.60019H10.275Z" fill="#18213A"/>
</svg>
