<svg width="46" height="46" viewBox="0 0 46 46" fill="none" xmlns="http://www.w3.org/2000/svg">
<g clip-path="url(#clip0_26_4823)">
<path d="M37.9121 29.8284C33.454 29.8284 29.827 33.4553 29.827 37.9135C29.827 42.3716 33.454 45.9986 37.9121 45.9986C42.3702 45.9986 45.9972 42.3716 45.9972 37.9135C45.9972 33.4553 42.3702 29.8284 37.9121 29.8284ZM37.9121 43.3036C34.94 43.3036 32.5221 40.8856 32.5221 37.9135C32.5221 34.9414 34.94 32.5234 37.9121 32.5234C40.8842 32.5234 43.3022 34.9414 43.3022 37.9135C43.3022 40.8856 40.8842 43.3036 37.9121 43.3036Z" fill="url(#paint0_linear_26_4823)"/>
<path d="M34.5017 1.97023C34.4749 1.997 34.4493 2.02476 34.4249 2.05368L6.5926 35.0122C5.0064 33.7195 2.66001 33.8119 1.1825 35.2895C-0.393102 36.8651 -0.393281 39.4308 1.1825 41.0065L4.99382 44.8179C6.56988 46.3941 9.13465 46.3942 10.7108 44.8179C12.1884 43.3403 12.2808 40.994 10.988 39.4077C10.988 39.4077 44.0033 11.5254 44.03 11.4987C46.6548 8.87391 46.6548 4.59501 44.03 1.97032C41.403 -0.656802 37.1285 -0.656712 34.5017 1.97023ZM17.2435 26.5767L19.4236 28.7568L9.09171 37.4817L8.51857 36.9085L17.2435 26.5767ZM8.80514 42.9122C8.28383 43.4335 7.42285 43.4356 6.89948 42.9122L3.08816 39.1008C2.56676 38.5794 2.56488 37.7184 3.08816 37.1951C3.60947 36.6738 4.47054 36.6717 4.99382 37.1951L8.80514 41.0064C9.32752 41.5288 9.32743 42.3899 8.80514 42.9122ZM42.1615 9.5554L21.4899 27.0118L18.9885 24.5104L36.4449 3.83887C38.024 2.29974 40.5605 2.31205 42.1245 3.87588C43.6834 5.43496 43.6957 7.98096 42.1615 9.5554Z" fill="url(#paint1_linear_26_4823)"/>
</g>
<defs>
<linearGradient id="paint0_linear_26_4823" x1="44.4424" y1="45.9986" x2="25.4735" y2="18.6336" gradientUnits="userSpaceOnUse">
<stop stop-color="#124DE3"/>
<stop offset="1" stop-color="#6EF6FE"/>
</linearGradient>
<linearGradient id="paint1_linear_26_4823" x1="41.5757" y1="46.0001" x2="-12.3868" y2="-31.8438" gradientUnits="userSpaceOnUse">
<stop stop-color="#124DE3"/>
<stop offset="1" stop-color="#6EF6FE"/>
</linearGradient>
<clipPath id="clip0_26_4823">
<rect width="46" height="46" fill="white"/>
</clipPath>
</defs>
</svg>
