<svg width="46" height="46" viewBox="0 0 46 46" fill="none" xmlns="http://www.w3.org/2000/svg">
<path d="M23 0C10.3356 0 0 10.3364 0 23C0 35.6644 10.3364 46 23 46C35.6644 46 46 35.6636 46 23C46 10.3356 35.6636 0 23 0ZM6.76514 10.819C9.09893 13.9499 10.4797 17.7133 10.737 21.6523H2.74113C3.0077 17.6051 4.46434 13.8778 6.76514 10.819ZM2.74113 24.3477H10.737C10.48 28.2893 9.09946 32.0502 6.76505 35.1809C4.46434 32.1221 3.0077 28.3949 2.74113 24.3477ZM21.6523 43.2589C16.5472 42.9227 11.9519 40.6919 8.56435 37.264C11.465 33.5794 13.164 29.0728 13.4364 24.3477H21.6523V43.2589ZM21.6523 21.6523H13.4363C13.1636 16.9303 11.4644 12.4202 8.56472 8.7356C11.9522 5.30788 16.5474 3.07733 21.6523 2.74113V21.6523ZM43.2589 21.6523H35.263C35.52 17.7107 36.9005 13.9498 39.2349 10.8191C41.5357 13.8779 42.9923 17.6051 43.2589 21.6523ZM24.3477 2.74113C29.4528 3.07733 34.0481 5.30806 37.4356 8.73596C34.535 12.4206 32.836 16.9271 32.5636 21.6523H24.3477V2.74113ZM24.3477 43.2589V24.3477H32.5637C32.8366 29.0664 34.5365 33.5799 37.4353 37.2643C34.0478 40.6921 29.4526 42.9227 24.3477 43.2589ZM39.2344 35.1816C36.9013 32.0505 35.5204 28.2842 35.263 24.3477H43.2589C42.9923 28.3952 41.5355 32.1226 39.2344 35.1816Z" fill="url(#paint0_linear_26_4827)"/>
<defs>
<linearGradient id="paint0_linear_26_4827" x1="41.5769" y1="46" x2="-12.3846" y2="-31.8462" gradientUnits="userSpaceOnUse">
<stop stop-color="#124DE3"/>
<stop offset="1" stop-color="#6EF6FE"/>
</linearGradient>
</defs>
</svg>
