<svg width="46" height="46" viewBox="0 0 46 46" fill="none" xmlns="http://www.w3.org/2000/svg">
<path d="M37.5077 6.34415C33.7045 1.82401 25.1352 -1.19832 18.5 0.460308C10.4997 2.46233 7.71509 6.52786 6.8102 10.7227C6.07242 14.1445 7.73488 18.3695 8.81811 20.5006C7.71765 20.8339 6.752 21.5114 6.06191 22.4344C4.96404 23.9414 4.72071 26.0249 5.3168 28.8015C5.99498 31.9608 10.7588 36.4456 11.3241 36.9696C12.5305 38.037 12.5305 38.3029 12.5305 39.2909V45C12.5305 45.5523 12.9782 46 13.5305 46H34.2015C34.7538 46 35.2015 45.5523 35.2015 45V39.6932C35.0808 37.9676 35.3996 36.2395 36.1279 34.6718C38.1412 29.9534 39.6354 25.0285 40.5839 19.9845C41.4351 15.0037 41.2387 10.7779 37.5077 6.34415ZM15.4836 39.6952H21.6032C21.2639 40.7776 21.2263 41.9326 21.4944 43.035H15.4836V39.6952ZM24.6374 43.035C24.367 42.516 24.2352 41.9355 24.255 41.3502C24.2747 40.7648 24.4453 40.1946 24.7501 39.6952H32.2484V43.035H24.6374ZM37.6738 19.4831C36.7714 24.2804 35.3502 28.9644 33.4357 33.4521C32.953 34.4942 32.6123 35.5968 32.4227 36.7301H14.9607C14.5314 35.98 13.9695 35.3147 13.3025 34.7669C11.5245 33.1186 8.56795 29.872 8.20445 28.1766C7.80135 26.3016 7.88295 24.9585 8.44582 24.1843C8.79914 23.8127 9.22504 23.5182 9.69687 23.3193C10.1687 23.1205 10.6763 23.0215 11.188 23.0286C11.2596 23.0199 11.3325 23.0114 11.4064 23.0031L12.2619 22.9198C15.3534 22.6698 19.6827 22.8015 21.7187 24.0591L21.721 24.0603C21.879 24.1563 22.0287 24.2654 22.1686 24.3864C22.3798 24.5576 22.5487 24.7755 22.6619 25.0232C22.7752 25.2709 22.8298 25.5415 22.8214 25.8139C22.8319 26.0361 22.7908 26.2576 22.7015 26.4611C22.6121 26.6646 22.4768 26.8444 22.3064 26.9864C21.1516 28.0015 18.3924 28.2125 16.2341 28.1071C15.4191 28.0673 14.6749 28.6321 14.5657 29.4406C14.456 30.2531 15.0292 31.0044 15.8475 31.0547C16.3222 31.0839 16.7979 31.0981 17.2738 31.0974C19.5126 31.0974 22.4877 30.7648 24.2481 29.2215C24.736 28.8008 25.1258 28.2774 25.3896 27.6885C25.6534 27.0996 25.7848 26.4596 25.7745 25.8139C25.7672 25.5759 25.743 25.3388 25.702 25.1042C25.731 25.1045 25.7571 25.1105 25.7862 25.1105C26.8492 25.1135 27.9011 24.8942 28.875 24.4667C29.849 24.0392 30.7236 23.4127 31.4432 22.6272C33.4693 20.5095 33.6706 17.1722 33.5894 15.2374C33.5551 14.4218 32.8016 13.8663 31.9947 13.9904C31.1891 14.1144 30.6313 14.8703 30.6401 15.6853C30.6569 17.2454 30.4175 19.4182 29.3129 20.5732C28.5461 21.3945 27.526 21.9324 26.4172 22.0997C25.3084 22.2671 24.1758 22.0542 23.2025 21.4955L23.1968 21.5053C19.9684 19.5757 14.4597 19.7593 11.8974 19.9761C11.0441 18.4888 9.04599 14.3685 9.69687 11.3502C10.3814 8.17624 12.46 5.02808 19.2144 3.33806C25.3209 1.80846 32.441 4.91759 35.2524 8.25793C38.269 11.8439 38.4243 15.0891 37.6738 19.4831Z" fill="url(#paint0_linear_26_4846)"/>
<defs>
<linearGradient id="paint0_linear_26_4846" x1="37.5384" y1="46" x2="-19.6656" y2="-18.5838" gradientUnits="userSpaceOnUse">
<stop stop-color="#124DE3"/>
<stop offset="1" stop-color="#6EF6FE"/>
</linearGradient>
</defs>
</svg>
