<svg width="46" height="46" viewBox="0 0 46 46" fill="none" xmlns="http://www.w3.org/2000/svg">
<g clip-path="url(#clip0_26_4819)">
<path d="M45.8918 10.546C45.8723 8.64398 45.6167 4.01828 43.6673 2.14719C41.6159 0.178174 35.8006 -0.53294 29.5254 0.418147C25.0656 1.09395 16.5891 3.22253 9.92685 9.8849C3.28047 16.5313 1.17705 24.9691 0.514814 29.4072C-0.402761 35.556 0.264599 41.379 2.13766 43.5682C3.76644 45.4717 7.61121 45.8958 9.75794 45.9792C10.114 45.9931 10.479 46.0001 10.8539 46.0001C18.0328 46.0001 28.4933 43.402 35.9688 35.9267C43.4004 28.4951 45.9674 17.9431 45.8918 10.546ZM9.86252 43.2855C6.70505 43.1629 4.7363 42.459 4.18592 41.8157C3.76788 41.327 3.22639 39.9848 2.96045 37.6831C2.77034 36.0375 2.65435 33.335 3.18102 29.8052C3.22271 29.5259 3.27077 29.229 3.32558 28.9173L17.0842 42.6759C14.6008 43.1604 12.1341 43.3738 9.86252 43.2855ZM34.0627 34.0205C30.8344 37.2488 26.5986 39.8089 21.8133 41.4241C21.2659 41.6089 20.7135 41.7795 20.1583 41.938L4.01755 25.7972C5.13683 21.6245 7.37232 16.2518 11.8331 11.791C16.005 7.61922 20.9806 5.37941 25.0344 4.17784L41.6926 20.836C40.3098 25.4638 37.8857 30.1974 34.0627 34.0205ZM42.461 17.7921L28.0828 3.4139C28.7559 3.27536 29.3762 3.16728 29.9294 3.08336C31.7652 2.80521 33.4433 2.68976 34.927 2.68976C38.596 2.68976 41.0752 3.39566 41.8005 4.09195C42.4472 4.71259 43.1596 7.00568 43.1962 10.5735C43.2186 12.7487 42.9949 15.2171 42.461 17.7921Z" fill="url(#paint0_linear_26_4819)"/>
<path d="M32.1725 17.7537L31.0991 16.68L31.8529 15.9262C32.3793 15.3998 32.3793 14.5465 31.8529 14.0201C31.3266 13.4937 30.4732 13.4937 29.9468 14.0201L29.193 14.7739L28.1191 13.7C27.5928 13.1736 26.7394 13.1736 26.213 13.7C25.6866 14.2264 25.6866 15.0797 26.213 15.6061L27.2869 16.68L25.8118 18.1551L24.738 17.0812C24.2117 16.5548 23.3583 16.5548 22.8319 17.0812C22.3055 17.6076 22.3055 18.461 22.8319 18.9874L23.9057 20.0612L22.3711 21.5958L21.2654 20.4902C20.7391 19.9638 19.8857 19.9638 19.3593 20.4902C18.8329 21.0166 18.8329 21.8699 19.3593 22.3963L20.4649 23.5019L18.9899 24.977L17.8842 23.8713C17.3579 23.3449 16.5044 23.3449 15.9781 23.8713C15.4517 24.3977 15.4517 25.251 15.9781 25.7774L17.0838 26.8831L15.6722 28.2946L14.5984 27.2208C14.0721 26.6944 13.2187 26.6944 12.6923 27.2208C12.1659 27.7472 12.1659 28.6006 12.6923 29.127L13.7661 30.2008L13.4474 30.5195C12.921 31.0459 12.921 31.8993 13.4474 32.4257C13.7106 32.6888 14.0556 32.8205 14.4005 32.8205C14.7454 32.8205 15.0904 32.689 15.3535 32.4257L15.6722 32.107L16.746 33.1808C17.0092 33.4439 17.3542 33.5757 17.6991 33.5757C18.044 33.5757 18.389 33.4441 18.6522 33.1808C19.1786 32.6544 19.1786 31.8011 18.6522 31.2747L17.5783 30.2009L18.9899 28.7893L20.032 29.8314C20.2951 30.0946 20.6401 30.2263 20.985 30.2263C21.33 30.2263 21.675 30.0948 21.9381 29.8314C22.4645 29.305 22.4645 28.4517 21.9381 27.9253L20.896 26.8832L22.3711 25.4081L23.4131 26.4501C23.6762 26.7133 24.0212 26.845 24.3661 26.845C24.7111 26.845 25.0561 26.7135 25.3192 26.4501C25.8456 25.9238 25.8456 25.0704 25.3192 24.544L24.2772 23.502L25.8118 21.9674L26.8856 23.0412C27.1488 23.3044 27.4938 23.4361 27.8387 23.4361C28.1836 23.4361 28.5286 23.3045 28.7918 23.0412C29.3182 22.5148 29.3182 21.6615 28.7918 21.1351L27.7179 20.0613L29.193 18.5861L30.2669 19.6599C30.5301 19.9231 30.8751 20.0548 31.22 20.0548C31.5649 20.0548 31.9099 19.9233 32.1729 19.6599C32.6988 19.1335 32.6988 18.2801 32.1725 17.7537Z" fill="url(#paint1_linear_26_4819)"/>
</g>
<defs>
<linearGradient id="paint0_linear_26_4819" x1="41.4908" y1="46.0001" x2="-12.5584" y2="-31.6109" gradientUnits="userSpaceOnUse">
<stop stop-color="#124DE3"/>
<stop offset="1" stop-color="#6EF6FE"/>
</linearGradient>
<linearGradient id="paint1_linear_26_4819" x1="30.6183" y1="33.5757" x2="6.83914" y2="-0.727475" gradientUnits="userSpaceOnUse">
<stop stop-color="#124DE3"/>
<stop offset="1" stop-color="#6EF6FE"/>
</linearGradient>
<clipPath id="clip0_26_4819">
<rect width="46" height="46" fill="white"/>
</clipPath>
</defs>
</svg>
