<svg width="46" height="46" viewBox="0 0 46 46" fill="none" xmlns="http://www.w3.org/2000/svg">
<path d="M38.5235 15.2907C38.5284 12.6841 37.8657 10.1198 36.5985 7.84197C35.3312 5.56419 33.5018 3.64893 31.2844 2.27875C29.067 0.908561 26.5357 0.129117 23.9316 0.0147102C21.3276 -0.0996966 18.7376 0.454747 16.4086 1.62519C14.0796 2.79564 12.0892 4.54307 10.6271 6.70094C9.16504 8.85881 8.27997 11.3552 8.0563 13.9521C7.83263 16.5491 8.27781 19.16 9.34941 21.5361C10.421 23.9122 12.0833 25.9742 14.1779 27.5257C14.3815 29.0902 15.1045 30.541 16.2311 31.6455C17.3576 32.75 18.8225 33.4443 20.3907 33.6169C20.586 35.3229 20.8331 40.2009 20.9854 44.6286L21.0191 45.6169H25.504L25.5382 44.6286C25.6905 40.2009 25.9376 35.3229 26.1329 33.6169C27.701 33.4444 29.1658 32.7502 30.2924 31.6458C31.419 30.5414 32.142 29.0907 32.3456 27.5262C34.2598 26.1113 35.8157 24.2674 36.8886 22.1426C37.9614 20.0177 38.5214 17.671 38.5235 15.2907ZM10.7295 15.2907C10.7296 12.812 11.4647 10.3889 12.8419 8.32801C14.2191 6.26708 16.1765 4.6608 18.4665 3.7123C20.7566 2.7638 23.2765 2.51568 25.7076 2.99931C28.1386 3.48295 30.3717 4.67661 32.1244 6.42936C33.8771 8.18211 35.0706 10.4152 35.5542 12.8463C36.0377 15.2774 35.7895 17.7973 34.8409 20.0873C33.8923 22.3774 32.286 24.3347 30.225 25.7118C28.164 27.0889 25.741 27.8239 23.2622 27.8239C19.9394 27.8202 16.7538 26.4985 14.4042 24.1488C12.0547 21.7992 10.7331 18.6135 10.7295 15.2907ZM25.2618 31.6364C24.1426 31.6833 23.9453 31.6921 23.5274 43.57H22.9961C22.5787 31.6921 22.3819 31.6823 21.2608 31.6364C20.3723 31.6532 19.4959 31.4296 18.7242 30.9891C17.9524 30.5486 17.3142 29.9076 16.8769 29.134C18.8759 30.0682 21.0556 30.5524 23.2621 30.5524C25.4686 30.5524 27.6483 30.0682 29.6473 29.1341C29.2097 29.9078 28.5712 30.5488 27.7992 30.9893C27.0272 31.4298 26.1504 31.6534 25.2618 31.6364Z" fill="url(#paint0_linear_26_4850)"/>
<path d="M15.6488 22.0408C16.4772 22.0408 17.1488 21.3692 17.1488 20.5408C17.1488 19.7123 16.4772 19.0408 15.6488 19.0408C14.8204 19.0408 14.1488 19.7123 14.1488 20.5408C14.1488 21.3692 14.8204 22.0408 15.6488 22.0408Z" fill="url(#paint1_linear_26_4850)"/>
<path d="M20.1455 25.8604C20.9739 25.8604 21.6455 25.1888 21.6455 24.3604C21.6455 23.5319 20.9739 22.8604 20.1455 22.8604C19.3171 22.8604 18.6455 23.5319 18.6455 24.3604C18.6455 25.1888 19.3171 25.8604 20.1455 25.8604Z" fill="url(#paint2_linear_26_4850)"/>
<path d="M26.381 25.8604C27.2094 25.8604 27.881 25.1888 27.881 24.3604C27.881 23.5319 27.2094 22.8604 26.381 22.8604C25.5526 22.8604 24.881 23.5319 24.881 24.3604C24.881 25.1888 25.5526 25.8604 26.381 25.8604Z" fill="url(#paint3_linear_26_4850)"/>
<path d="M30.8751 21.9561C31.7035 21.9561 32.3751 21.2845 32.3751 20.4561C32.3751 19.6276 31.7035 18.9561 30.8751 18.9561C30.0467 18.9561 29.3751 19.6276 29.3751 20.4561C29.3751 21.2845 30.0467 21.9561 30.8751 21.9561Z" fill="url(#paint4_linear_26_4850)"/>
<path d="M26.6527 18.5723C27.4811 18.5723 28.1527 17.9007 28.1527 17.0723C28.1527 16.2438 27.4811 15.5723 26.6527 15.5723C25.8243 15.5723 25.1527 16.2438 25.1527 17.0723C25.1527 17.9007 25.8243 18.5723 26.6527 18.5723Z" fill="url(#paint5_linear_26_4850)"/>
<path d="M23.262 22.0408C24.0904 22.0408 24.762 21.3692 24.762 20.5408C24.762 19.7123 24.0904 19.0408 23.262 19.0408C22.4335 19.0408 21.762 19.7123 21.762 20.5408C21.762 21.3692 22.4335 22.0408 23.262 22.0408Z" fill="url(#paint6_linear_26_4850)"/>
<path d="M19.8738 18.5723C20.7022 18.5723 21.3738 17.9007 21.3738 17.0723C21.3738 16.2438 20.7022 15.5723 19.8738 15.5723C19.0454 15.5723 18.3738 16.2438 18.3738 17.0723C18.3738 17.9007 19.0454 18.5723 19.8738 18.5723Z" fill="url(#paint7_linear_26_4850)"/>
<defs>
<linearGradient id="paint0_linear_26_4850" x1="35.5886" y1="45.6169" x2="-21.5215" y2="-9.51142" gradientUnits="userSpaceOnUse">
<stop stop-color="#124DE3"/>
<stop offset="1" stop-color="#6EF6FE"/>
</linearGradient>
<linearGradient id="paint1_linear_26_4850" x1="35.5886" y1="45.6169" x2="-21.5215" y2="-9.51142" gradientUnits="userSpaceOnUse">
<stop stop-color="#124DE3"/>
<stop offset="1" stop-color="#6EF6FE"/>
</linearGradient>
<linearGradient id="paint2_linear_26_4850" x1="35.5886" y1="45.6169" x2="-21.5215" y2="-9.51142" gradientUnits="userSpaceOnUse">
<stop stop-color="#124DE3"/>
<stop offset="1" stop-color="#6EF6FE"/>
</linearGradient>
<linearGradient id="paint3_linear_26_4850" x1="35.5886" y1="45.6169" x2="-21.5215" y2="-9.51142" gradientUnits="userSpaceOnUse">
<stop stop-color="#124DE3"/>
<stop offset="1" stop-color="#6EF6FE"/>
</linearGradient>
<linearGradient id="paint4_linear_26_4850" x1="35.5886" y1="45.6169" x2="-21.5215" y2="-9.51142" gradientUnits="userSpaceOnUse">
<stop stop-color="#124DE3"/>
<stop offset="1" stop-color="#6EF6FE"/>
</linearGradient>
<linearGradient id="paint5_linear_26_4850" x1="35.5886" y1="45.6169" x2="-21.5215" y2="-9.51142" gradientUnits="userSpaceOnUse">
<stop stop-color="#124DE3"/>
<stop offset="1" stop-color="#6EF6FE"/>
</linearGradient>
<linearGradient id="paint6_linear_26_4850" x1="35.5886" y1="45.6169" x2="-21.5215" y2="-9.51142" gradientUnits="userSpaceOnUse">
<stop stop-color="#124DE3"/>
<stop offset="1" stop-color="#6EF6FE"/>
</linearGradient>
<linearGradient id="paint7_linear_26_4850" x1="35.5886" y1="45.6169" x2="-21.5215" y2="-9.51142" gradientUnits="userSpaceOnUse">
<stop stop-color="#124DE3"/>
<stop offset="1" stop-color="#6EF6FE"/>
</linearGradient>
</defs>
</svg>
