<svg width="46" height="46" viewBox="0 0 46 46" fill="none" xmlns="http://www.w3.org/2000/svg">
<g clip-path="url(#clip0_26_4830)">
<path d="M37.5575 18.353C37.5575 18.353 45.3795 6.18272 45.4094 6.13289C45.7958 5.50117 46 4.7747 46 4.03174C46 1.80881 44.1916 0 41.9683 0C40.7456 0 39.6032 0.54538 38.8325 1.49751C38.7911 1.54875 38.7508 1.60104 38.7118 1.65404C38.7041 1.66492 38.6964 1.67545 38.689 1.68668L16.9489 33.3015C16.1915 34.3291 14.9797 34.9418 13.7029 34.9418H4.03632C2.72446 34.9418 1.53228 35.5522 0.765447 36.6162C-0.00173432 37.68 -0.203532 39.0041 0.211294 40.2486L1.10727 42.9362C1.65687 44.5853 3.19369 45.6933 4.93195 45.6933H12.1661H12.1753H12.1805H14.8558C17.9723 45.6933 20.8792 44.155 22.6329 41.5791C22.6396 41.5692 37.5565 18.3544 37.5575 18.353V18.353ZM40.8905 3.22876C40.901 3.21437 40.9119 3.20033 40.9224 3.18735C41.1793 2.87009 41.5605 2.68794 41.9683 2.68794C42.7095 2.68794 43.3121 3.29088 43.3121 4.03174C43.3121 4.27951 43.2443 4.52132 43.1148 4.73364C43.1047 4.74979 43.0945 4.76628 43.0836 4.78207C43.0759 4.7933 43.0685 4.80453 43.0611 4.81576L36.2042 15.4868L33.9862 13.2688L40.8905 3.22876ZM3.65729 42.0862L2.76131 39.3986C2.62304 38.9838 2.69042 38.5423 2.94591 38.1878C3.20176 37.833 3.59903 37.6294 4.03632 37.6294H7.31141L9.9997 43.0053H4.93195C4.35288 43.0053 3.84049 42.6361 3.65729 42.0862ZM13.0049 43.0053L10.3166 37.6294H13.3204L15.9627 42.913C15.6002 42.9734 15.2303 43.0053 14.8562 43.0053H13.0049ZM20.4016 40.0805C19.885 40.835 19.2297 41.4639 18.4826 41.943L16.1024 37.1834C17.2985 36.7247 18.3583 35.9294 19.1301 34.8724C19.1374 34.8622 19.1448 34.852 19.1518 34.8415L32.4375 15.5212L34.7176 17.801L20.4016 40.0805Z" fill="url(#paint0_linear_26_4830)"/>
<path d="M44.5305 37.6294H33.6001C32.8579 37.6294 32.2563 38.2313 32.2563 38.9735V44.3491C32.2563 45.0913 32.8579 45.6929 33.6001 45.6929H44.5305C45.2728 45.6929 45.8747 45.0913 45.8747 44.3491V38.9735C45.8747 38.2313 45.2728 37.6294 44.5305 37.6294V37.6294ZM43.1867 43.0053H34.9439V40.3173H43.1867V43.0053Z" fill="url(#paint1_linear_26_4830)"/>
</g>
<defs>
<linearGradient id="paint0_linear_26_4830" x1="41.5769" y1="45.6933" x2="-11.898" y2="-31.9689" gradientUnits="userSpaceOnUse">
<stop stop-color="#124DE3"/>
<stop offset="1" stop-color="#6EF6FE"/>
</linearGradient>
<linearGradient id="paint1_linear_26_4830" x1="44.5652" y1="45.6929" x2="37.4688" y2="28.4028" gradientUnits="userSpaceOnUse">
<stop stop-color="#124DE3"/>
<stop offset="1" stop-color="#6EF6FE"/>
</linearGradient>
<clipPath id="clip0_26_4830">
<rect width="46" height="46" fill="white"/>
</clipPath>
</defs>
</svg>
