<svg width="46" height="46" viewBox="0 0 46 46" fill="none" xmlns="http://www.w3.org/2000/svg">
<path fill-rule="evenodd" clip-rule="evenodd" d="M22.5614 3C21.6004 3 20.8593 3.84645 20.9863 4.79906L21.3847 7.78742C21.6407 9.70732 18.8991 10.3412 18.2865 8.50355L17.4405 5.96562C17.1027 4.95202 15.877 4.55923 15.0129 5.18765C14.2254 5.76036 13.8548 6.74713 14.0706 7.69663L15.9958 16.1676C16.0038 16.2025 16.0104 16.2374 16.0158 16.2723L18.4982 15.4825C23.7257 13.8192 29.3406 13.8192 34.568 15.4825L36.4042 16.0667L36.1087 9.27041C36.0721 8.42862 35.8057 7.61293 35.3383 6.91186L34.5446 5.7213L34.5417 5.71897L34.5388 5.71787L34.5359 5.7196L34.5332 5.72164L34.5331 5.72476V6.86833C34.5331 8.87551 31.6245 9.13753 31.2655 7.16298L30.8578 4.92071C30.7705 4.4406 30.4284 4.04624 29.9655 3.89193C29.0171 3.57578 28.07 4.37485 28.222 5.36299L28.4089 6.57754C28.6994 8.4659 25.9921 9.12044 25.3879 7.30785L24.3917 4.31925C24.1291 3.5314 23.3919 3 22.5614 3ZM36.4993 19.2452L33.6584 18.3412C29.0227 16.8662 24.0435 16.8662 19.4079 18.3412L15.9879 19.4294C15.8841 19.4624 15.7794 19.4836 15.6751 19.4936L13.6165 30.1298C13.3398 31.5595 13.8436 33.0285 14.9395 33.9874C15.6855 34.6402 16.6431 35 17.6344 35H27.5385C29.3066 35 31.0086 34.4589 32.4321 33.4814C32.5609 33.3422 32.7158 33.2275 32.889 33.145C33.4443 32.7073 33.9493 32.1988 34.3895 31.6265C35.4735 30.2173 36.0966 28.5081 36.1738 26.7319L36.4993 19.2452ZM27.5385 38C29.102 38 30.6273 37.6859 32.0331 37.0975V38.5C32.0331 40.9853 30.0184 43 27.5331 43H20.5331C18.0479 43 16.0331 40.9853 16.0331 38.5V37.8169C16.5546 37.9377 17.0916 38 17.6344 38H27.5385ZM12.964 36.2451C12.9869 36.2652 13.01 36.2851 13.0331 36.3049V38.5C13.0331 42.6421 16.391 46 20.5331 46H27.5331C31.6753 46 35.0331 42.6421 35.0331 38.5V35.2674C35.6688 34.7328 36.2512 34.1268 36.7674 33.4557C38.2276 31.5574 39.067 29.2549 39.171 26.8623L39.4989 19.3205C39.5259 19.1967 39.5375 19.0674 39.5317 18.9348L39.5237 18.75L39.5317 18.5652C39.5375 18.4326 39.5259 18.3033 39.4989 18.1795L39.1059 9.14009C39.0455 7.75088 38.6057 6.40474 37.8344 5.24776L37.0407 4.0572C36.7034 3.5512 36.2205 3.1594 35.6559 2.93354C34.8448 2.60913 34.0046 2.66328 33.2959 2.9871C32.7736 2.08531 31.9344 1.38595 30.9142 1.04588C29.2783 0.500594 27.6438 0.977732 26.5454 2.02596C25.6347 0.776633 24.1661 0 22.5614 0C20.717 0 19.1531 1.07958 18.4191 2.61126C16.9043 1.64259 14.8595 1.58971 13.2484 2.76144C11.4907 4.03973 10.6636 6.24221 11.1452 8.3615L11.5929 10.3313L11.5729 10.3477C11.3575 10.5271 11.1826 10.7772 11.1117 10.8786L11.1045 10.8888C10.9943 11.0462 10.8671 11.2411 10.7312 11.4558C10.458 11.8876 10.1132 12.4575 9.73328 13.0919C9.54224 13.4108 9.34159 13.7473 9.13474 14.0942C8.51058 15.141 7.82998 16.2823 7.18687 17.3226C5.82896 19.519 5.5555 22.3788 6.78919 24.7776C6.97759 25.144 7.20453 25.4892 7.46615 25.8074L10.6492 29.6786C10.2198 32.1186 11.0951 34.6099 12.964 36.2451ZM13.0704 16.8324C13.0835 16.8898 13.0997 16.9457 13.1187 16.9999C13.0944 17.069 13.0748 17.1408 13.0605 17.215L11.3884 25.854L9.78343 23.9021C9.65729 23.7486 9.54788 23.5822 9.45705 23.4056C8.75604 22.0425 8.87197 20.3019 9.73858 18.9001C10.3955 17.8376 11.0945 16.6653 11.7212 15.6144C11.9253 15.272 12.1222 14.9419 12.307 14.6333C12.3723 14.5242 12.4361 14.4179 12.4982 14.3146L13.0704 16.8324Z" fill="url(#paint0_linear_26_4840)"/>
<defs>
<linearGradient id="paint0_linear_26_4840" x1="36.3088" y1="46" x2="-21.2439" y2="-14.525" gradientUnits="userSpaceOnUse">
<stop stop-color="#124DE3"/>
<stop offset="1" stop-color="#6EF6FE"/>
</linearGradient>
</defs>
</svg>
