<svg width="46" height="46" viewBox="0 0 46 46" fill="none" xmlns="http://www.w3.org/2000/svg">
<path d="M19.2357 2.27882C19.2357 1.57255 18.6632 1 17.9569 1C17.2506 1 16.6781 1.57255 16.6781 2.27882V8.50823C16.6781 9.21451 17.2506 9.78705 17.9569 9.78705C18.6632 9.78705 19.2357 9.21451 19.2357 8.50823V2.27882Z" fill="url(#paint0_linear_26_4853)"/>
<path d="M9.44115 5.74311C9.00635 5.18652 8.2028 5.08794 7.64636 5.52293C7.08992 5.95792 6.9913 6.76175 7.4261 7.31835L11.0173 11.9155C11.4521 12.4721 12.2556 12.5707 12.8121 12.1357C13.3685 11.7007 13.4671 10.8969 13.0323 10.3403L9.44115 5.74311Z" fill="url(#paint1_linear_26_4853)"/>
<path d="M27.9606 5.52223C27.404 5.08734 26.6003 5.18618 26.1656 5.74298L22.576 10.3409C22.1414 10.8977 22.2402 11.7017 22.7969 12.1366C23.3535 12.5714 24.1572 12.4726 24.5919 11.9158L28.1814 7.31785C28.6161 6.76104 28.5173 5.95712 27.9606 5.52223Z" fill="url(#paint2_linear_26_4853)"/>
<path d="M26.9386 22.6997C25.4827 22.6997 24.0595 23.1316 22.8489 23.9407C21.6384 24.7499 20.6949 25.9 20.1377 27.2455C19.5806 28.5911 19.4348 30.0717 19.7188 31.5002C20.0028 32.9286 20.7039 34.2407 21.7334 35.2706C22.7629 36.3005 24.0746 37.0018 25.5025 37.2859C26.9304 37.5701 28.4105 37.4242 29.7556 36.8669C31.1007 36.3095 32.2503 35.3657 33.0592 34.1547C33.8681 32.9437 34.2998 31.52 34.2998 30.0635C34.2977 28.1112 33.5215 26.2394 32.1414 24.8588C30.7614 23.4783 28.8903 22.7018 26.9386 22.6997ZM26.9386 34.8689C25.9885 34.8689 25.0598 34.587 24.2699 34.059C23.4799 33.531 22.8642 32.7805 22.5007 31.9025C22.1371 31.0244 22.042 30.0582 22.2273 29.1261C22.4126 28.194 22.8701 27.3377 23.5419 26.6657C24.2137 25.9937 25.0696 25.536 26.0014 25.3506C26.9332 25.1652 27.8991 25.2603 28.7768 25.624C29.6545 25.9877 30.4048 26.6036 30.9326 27.3939C31.4604 28.1841 31.7421 29.1131 31.7421 30.0635C31.7408 31.3376 31.2342 32.559 30.3337 33.4599C29.4332 34.3608 28.2121 34.8675 26.9386 34.8689Z" fill="url(#paint3_linear_26_4853)"/>
<path d="M46 30.5463C45.9688 29.0729 45.3938 27.6632 44.3857 26.5886C43.3776 25.5139 42.0077 24.8504 40.5398 24.7257C39.4665 21.9905 37.5953 19.6417 35.1696 17.9846C32.7439 16.3276 29.8759 15.4389 26.9386 15.4343L0 15.4433V30.2195L12.3234 30.2269C12.3564 33.527 13.5052 36.7187 15.5828 39.2824C17.6603 41.846 20.5443 43.6306 23.765 44.3455C26.9857 45.0604 30.3535 44.6635 33.32 43.2195C36.2865 41.7755 38.677 39.3694 40.1022 36.393C41.6503 36.3707 43.1295 35.7492 44.2293 34.659C45.329 33.5688 45.9637 32.0947 46 30.5463ZM16.7965 17.9962L19.0364 17.9954V20.1047H16.7965V17.9962ZM26.9386 42.1338C23.7401 42.1301 20.6736 40.8576 18.4117 38.5953C16.1498 36.3331 14.8772 33.2657 14.8729 30.0661L14.8748 27.6699L2.55764 27.6629V18.0009L14.2389 17.9971V20.6633C14.2389 21.7678 15.1343 22.6633 16.2389 22.6633H19.5941C20.6987 22.6633 21.5941 21.7678 21.5941 20.6633V17.9946L26.9387 17.9929C30.1388 17.9929 33.2078 19.2646 35.4707 21.5282C37.7335 23.7919 39.0048 26.8621 39.0048 30.0633C39.0048 33.2646 37.7335 36.3348 35.4707 38.5984C33.2078 40.8621 30.1387 42.1338 26.9386 42.1338ZM41.104 33.6312C41.6261 31.6426 41.703 29.5632 41.3291 27.5415C41.967 27.7714 42.5153 28.1983 42.8948 28.7604C43.2742 29.3225 43.4652 29.9908 43.4402 30.6686C43.4151 31.3464 43.1753 31.9987 42.7553 32.5313C42.3354 33.0638 41.7571 33.449 41.104 33.6312Z" fill="url(#paint4_linear_26_4853)"/>
<defs>
<linearGradient id="paint0_linear_26_4853" x1="41.5769" y1="44.6924" x2="-8.70264" y2="-31.6728" gradientUnits="userSpaceOnUse">
<stop stop-color="#124DE3"/>
<stop offset="1" stop-color="#6EF6FE"/>
</linearGradient>
<linearGradient id="paint1_linear_26_4853" x1="41.5769" y1="44.6924" x2="-8.70264" y2="-31.6728" gradientUnits="userSpaceOnUse">
<stop stop-color="#124DE3"/>
<stop offset="1" stop-color="#6EF6FE"/>
</linearGradient>
<linearGradient id="paint2_linear_26_4853" x1="41.5769" y1="44.6924" x2="-8.70264" y2="-31.6728" gradientUnits="userSpaceOnUse">
<stop stop-color="#124DE3"/>
<stop offset="1" stop-color="#6EF6FE"/>
</linearGradient>
<linearGradient id="paint3_linear_26_4853" x1="41.5769" y1="44.6924" x2="-8.70264" y2="-31.6728" gradientUnits="userSpaceOnUse">
<stop stop-color="#124DE3"/>
<stop offset="1" stop-color="#6EF6FE"/>
</linearGradient>
<linearGradient id="paint4_linear_26_4853" x1="41.5769" y1="44.6924" x2="-8.70264" y2="-31.6728" gradientUnits="userSpaceOnUse">
<stop stop-color="#124DE3"/>
<stop offset="1" stop-color="#6EF6FE"/>
</linearGradient>
</defs>
</svg>
