<svg width="46" height="46" viewBox="0 0 46 46" fill="none" xmlns="http://www.w3.org/2000/svg">
<path d="M45.6728 8.15162C45.8535 7.06192 45.1166 6.03207 44.0269 5.85139L22.7718 2.32715C21.6821 2.14647 20.6523 2.88336 20.4716 3.97305L18.9761 12.9919L1.97802 15.533C0.885589 15.6963 0.132388 16.7143 0.295696 17.8067L4.05827 42.9759L4.0555 42.9764L4.18563 43.8468C4.34894 44.9391 5.36687 45.6923 6.45927 45.5291L25.5829 42.6709L25.704 42.6528L26.1865 42.5807L26.4545 42.5401C27.5463 42.375 28.2978 41.3563 28.1331 40.2644L27.673 37.2129L38.5283 39.0125C39.6179 39.1932 40.6477 38.4563 40.8284 37.3666L45.6728 8.15162ZM25.1535 39.8231L6.90656 42.5502L3.27411 18.2511L18.481 15.9779L15.6272 33.1885C15.4465 34.2782 16.1834 35.3081 17.2732 35.4887L24.6852 36.7175L25.1535 39.8231ZM18.6123 32.7914L23.169 5.31231L42.6877 8.5488L38.131 36.0273L18.6123 32.7914Z" fill="url(#paint0_linear_26_4848)"/>
<defs>
<linearGradient id="paint0_linear_26_4848" x1="41.5769" y1="45.8247" x2="-8.9149" y2="-30.6316" gradientUnits="userSpaceOnUse">
<stop stop-color="#124DE3"/>
<stop offset="1" stop-color="#6EF6FE"/>
</linearGradient>
</defs>
</svg>
