<svg width="46" height="46" viewBox="0 0 46 46" fill="none" xmlns="http://www.w3.org/2000/svg">
<path d="M16.3595 2.90009C17.1333 3.10887 17.8126 3.57581 18.2848 4.22353C18.757 4.87124 18.9936 5.66085 18.9556 6.46149C20.0464 7.30366 23.0947 9.24909 26.4302 7.75267C31.9931 5.25794 36.8214 10.2875 37.0423 10.5235C37.7785 11.3755 38.7211 12.0244 39.7798 12.408C40.8384 12.7915 41.9779 12.897 43.089 12.7144C43.4199 12.6751 43.7553 12.7175 44.066 12.8379C44.3767 12.9583 44.6532 13.1529 44.8712 13.4048C45.0859 13.6534 45.2365 13.9508 45.3097 14.271C45.383 14.5912 45.3767 14.9244 45.2914 15.2416L40.8217 31.923C40.719 32.3205 40.519 32.6862 40.2396 32.987C39.9602 33.2879 39.6103 33.5144 39.2215 33.6461C38.4586 33.8949 37.6537 33.9888 36.854 33.9222C36.0543 33.8556 35.276 33.6298 34.5648 33.2582C33.6462 32.7169 32.8029 32.0568 32.0568 31.2951C29.8785 29.2915 27.4102 27.0233 23.5439 28.0473C20.5048 28.8522 18.035 29.0018 16.1612 28.4997C15.3368 28.293 14.5696 27.9032 13.9166 27.3591C13.7843 27.2454 13.6584 27.1244 13.5394 26.9968L10.0307 40.0915C9.78958 40.9914 9.20085 41.7587 8.39402 42.2245C7.5872 42.6903 6.62837 42.8166 5.72848 42.5754C4.82858 42.3343 4.06133 41.7456 3.59551 40.9388C3.12969 40.1319 3.00345 39.1731 3.24458 38.2732L12.0571 5.38441C12.2991 4.48497 12.8879 3.71826 13.6945 3.25251C14.5011 2.78675 15.4595 2.66001 16.3595 2.90009ZM25.0484 20.0315C26.294 19.7746 27.5795 19.7799 28.8229 20.0472C30.0663 20.3144 31.2404 20.8377 32.2705 21.5836L33.4278 17.2642C32.547 16.48 31.4857 15.926 30.3386 15.6519C29.1915 15.3778 27.9944 15.392 26.8541 15.6933C26.6192 15.7555 26.394 15.8065 26.1659 15.8609L25.0484 20.0315ZM23.7042 16.3184C22.2951 16.53 20.8586 16.4714 19.4714 16.1457C18.6473 15.939 17.8804 15.5492 17.2277 15.0054C17.0951 14.8914 16.969 14.7701 16.8498 14.6423L15.9979 17.8218C15.9903 18.2181 16.0682 18.6115 16.2264 18.975C16.3846 19.3385 16.6194 19.6637 16.9146 19.9283C17.6848 20.5872 19.2853 21.1623 22.5622 20.5803L23.7042 16.3184ZM18.4054 8.83683L17.7775 11.1802C17.7699 11.5765 17.8479 11.9699 18.0061 12.3334C18.1643 12.6969 18.399 13.0221 18.6942 13.2867C19.4646 13.9452 21.0649 14.5206 24.3418 13.9387L25.2764 10.4508C22.8649 10.7888 20.4142 10.2131 18.4054 8.83683ZM27.8327 9.64037L26.8281 13.3898C28.0736 13.1328 29.3591 13.138 30.6025 13.4052C31.846 13.6724 33.0201 14.1957 34.0502 14.9417L34.9356 11.6373C33.8602 10.6956 30.9579 8.56754 27.8327 9.64037ZM43.0191 14.9923C40.8185 15.2467 38.6029 14.6617 36.8147 13.3542L35.9845 16.4526C36.3076 16.737 36.6115 17.0159 36.896 17.2775C37.4978 17.8886 38.1677 18.4286 38.8925 18.887C39.3378 19.1258 39.8268 19.2719 40.3301 19.3166C40.8333 19.3613 41.3404 19.3037 41.8208 19.1472C41.8534 19.1318 41.8821 19.109 41.9044 19.0807C41.9267 19.0523 41.9422 19.0192 41.9495 18.9838L43.0191 14.9923ZM41.2599 21.5576C40.0923 21.67 38.917 21.4432 37.8751 20.9042C36.9567 20.3625 36.1134 19.7025 35.367 18.9411L35.3274 18.9048L34.2048 23.0943C34.5279 23.3787 34.8319 23.6576 35.1164 23.9191C35.7182 24.5302 36.3881 25.0702 37.1129 25.5286C37.5583 25.7672 38.0473 25.9132 38.5505 25.9579C39.0537 26.0026 39.5608 25.9451 40.0412 25.7888C40.0738 25.7734 40.1024 25.7506 40.1248 25.7223C40.1471 25.6939 40.1626 25.6608 40.1699 25.6255L41.2599 21.5576ZM33.5858 29.6315C34.1876 30.2426 34.8574 30.7826 35.5823 31.241C36.0277 31.479 36.5165 31.6248 37.0195 31.6697C37.5226 31.7145 38.0295 31.6574 38.5099 31.5019C38.5427 31.4865 38.5714 31.4637 38.5938 31.4353C38.6163 31.4069 38.6318 31.3737 38.6392 31.3382L39.4804 28.1987C38.3128 28.3106 37.1377 28.084 36.0955 27.5458C35.1771 27.0042 34.3338 26.3441 33.5874 25.5827L33.5478 25.5464L32.6742 28.8068C32.9973 29.0911 33.3013 29.37 33.5858 29.6315ZM30.7398 27.2963L31.6482 23.9058C30.7674 23.1216 29.706 22.5677 28.559 22.2935C27.4119 22.0194 26.2147 22.0336 25.0745 22.3349C24.8396 22.3971 24.6144 22.4481 24.3863 22.5025L23.5177 25.7441C24.7633 25.4871 26.0488 25.4924 27.2922 25.7597C28.5356 26.0269 29.7098 26.5502 30.7398 27.2963ZM15.4057 25.6584C16.1801 26.3044 17.7769 26.8698 21.0316 26.2926L21.9246 22.96C20.5155 23.1716 19.079 23.113 17.6918 22.7873C16.8677 22.5806 16.1008 22.1908 15.4481 21.647C15.3155 21.533 15.1894 21.4118 15.0702 21.2839L14.4674 23.5336C14.4592 23.9348 14.539 24.3329 14.7011 24.7C14.8632 25.067 15.1037 25.3942 15.4057 25.6584ZM5.42705 38.858C5.34102 39.1791 5.38606 39.5212 5.55226 39.809C5.71845 40.0969 5.9922 40.3069 6.31327 40.393C6.63433 40.479 6.97643 40.434 7.26429 40.2678C7.55215 40.1016 7.7622 39.8278 7.84823 39.5068L16.6608 6.61795C16.7468 6.29688 16.7018 5.95479 16.5356 5.66693C16.3694 5.37906 16.0956 5.16901 15.7745 5.08298C15.4535 4.99695 15.1114 5.04199 14.8235 5.20819C14.5357 5.37439 14.3256 5.64813 14.2396 5.9692L5.42705 38.858Z" fill="url(#paint0_linear_26_4844)"/>
<defs>
<linearGradient id="paint0_linear_26_4844" x1="41.2993" y1="42.6951" x2="-4.53963" y2="-27.2796" gradientUnits="userSpaceOnUse">
<stop stop-color="#124DE3"/>
<stop offset="1" stop-color="#6EF6FE"/>
</linearGradient>
</defs>
</svg>
