<svg width="46" height="46" viewBox="0 0 46 46" fill="none" xmlns="http://www.w3.org/2000/svg">
<path d="M39.2635 6.73652C34.9193 2.39239 29.1435 0 23 0C16.8566 0 11.0807 2.39239 6.73652 6.73652C2.39239 11.0807 0 16.8565 0 23C0 29.1436 2.39239 34.9193 6.73652 39.2635C11.0807 43.6076 16.8565 46 23 46C29.1434 46 34.9193 43.6076 39.2634 39.2635C43.6075 34.9193 45.9999 29.1435 45.9999 23C45.9999 16.8566 43.6076 11.0807 39.2635 6.73652ZM39.2747 28.329L43.1471 25.5289C42.8257 28.1317 42.0085 30.6202 40.7432 32.8836L39.2747 28.329ZM37.4581 26.3134L31.0271 24.1945L28.7944 17.3228L32.7908 11.86L39.9874 11.8723C41.9827 14.9047 43.1225 18.415 43.2818 22.1024L37.4581 26.3134ZM23 28.6455L17.6309 24.7446L19.6818 18.4328H26.3184L28.3692 24.7446L23 28.6455ZM14.9753 24.1872L8.53413 26.2734L2.72034 22.0445C2.88994 18.3588 4.03973 14.8516 6.04409 11.8241L13.2388 11.8323L17.2072 17.3183L14.9753 24.1872ZM5.22882 32.8329C3.97049 30.5664 3.16035 28.076 2.84624 25.472L6.71017 28.2826L5.22882 32.8329ZM37.8623 9.1709L33.0893 9.16281L31.6165 4.60591C33.7221 5.59383 35.6623 6.95072 37.3558 8.6442C37.5285 8.81695 37.6965 8.99312 37.8623 9.1709ZM28.3978 3.4197L30.6118 10.2694L26.6133 15.7349H19.3914L15.4237 10.2499L17.6577 3.40513C19.3776 2.93913 21.1701 2.69777 23 2.69777C24.8495 2.69777 26.6611 2.9439 28.3978 3.4197ZM14.4359 4.5819L12.9501 9.13412L8.17695 9.12872C8.33009 8.96533 8.48513 8.80328 8.6442 8.6442C10.3517 6.93669 12.3101 5.5718 14.4359 4.5819ZM7.1402 35.6763L9.36595 28.8397L15.8065 26.7537L21.6511 31V37.7704L15.8259 42.0026C13.1615 40.9981 10.7178 39.4295 8.64411 37.3558C8.10843 36.8201 7.60763 36.2589 7.1402 35.6763ZM19.132 42.9353L23 40.1251L26.8679 42.9353C25.6064 43.1774 24.3128 43.3022 23 43.3022C21.6871 43.3022 20.3935 43.1773 19.132 42.9353ZM30.1741 42.0027L24.3488 37.7704V31.0001L30.1873 26.7582L36.6169 28.8767L38.8237 35.7215C38.3666 36.2878 37.8778 36.834 37.3559 37.3559C35.2821 39.4296 32.8384 40.9982 30.1741 42.0027Z" fill="url(#paint0_linear_26_4816)"/>
<defs>
<linearGradient id="paint0_linear_26_4816" x1="41.5768" y1="46" x2="-12.3847" y2="-31.8461" gradientUnits="userSpaceOnUse">
<stop stop-color="#124DE3"/>
<stop offset="1" stop-color="#6EF6FE"/>
</linearGradient>
</defs>
</svg>
