<svg width="46" height="46" viewBox="0 0 46 46" fill="none" xmlns="http://www.w3.org/2000/svg">
<g clip-path="url(#clip0_26_4842)">
<path fill-rule="evenodd" clip-rule="evenodd" d="M33.2799 24.4039C38.633 17.8996 38.07 9.77772 33.5527 6.04525C29.0352 2.3128 20.9704 3.3061 15.6172 9.81034C10.2642 16.3145 10.8271 24.4365 15.3445 28.1689C19.8619 31.9014 27.9267 30.9081 33.2799 24.4039ZM35.4876 26.228C41.5212 18.897 41.47 8.87047 35.3733 3.83312C29.2765 -1.20424 19.443 0.655144 13.4094 7.98615C9.69364 12.501 8.28569 18.0381 9.17631 22.8026L6.49373 32.9139L0.871906 39.7446C-0.468768 41.3736 -0.237631 43.7831 1.38817 45.1264C3.01397 46.4697 5.41877 46.2381 6.75944 44.6091L12.6493 37.4527L21.7505 33.214C26.5959 33.1914 31.7651 30.7511 35.4876 26.228ZM11.4435 34.8524L9.3905 33.1562L10.9208 27.388C11.6106 28.5066 12.4783 29.5172 13.5238 30.3811C14.5411 31.2216 15.6624 31.87 16.8527 32.3331L11.4435 34.8524ZM9.40664 36.8858L7.93474 35.6697L3.07974 41.5688C2.74457 41.976 2.80234 42.5784 3.2088 42.9143C3.61525 43.25 4.21645 43.1922 4.55162 42.785L9.40664 36.8858ZM28.9354 7.52703C29.5373 8.04008 29.6101 8.94486 29.0981 9.54793L27.1196 11.8781L29.5468 13.947L31.5254 11.6169C32.0374 11.0138 32.9404 10.9409 33.5423 11.454C34.1442 11.967 34.2171 12.8717 33.705 13.4748L31.7264 15.805L32.9401 16.8394C33.542 17.3525 33.6148 18.2573 33.1028 18.8604C32.5908 19.4635 31.6877 19.5364 31.0858 19.0234L29.8722 17.9889L26.7936 21.6147L28.0867 22.7169C28.6886 23.2299 28.7614 24.1347 28.2493 24.7377C27.7373 25.3408 26.8343 25.4138 26.2324 24.9008L24.9393 23.7986L22.8933 26.2083C22.3813 26.8113 21.4782 26.8843 20.8763 26.3713C20.2744 25.8582 20.2016 24.9534 20.7137 24.3503L22.7597 21.9406L20.3325 19.8717L18.2864 22.2814C17.7743 22.8845 16.8713 22.9574 16.2694 22.4444C15.6676 21.9313 15.5947 21.0265 16.1068 20.4235L18.1529 18.0138L16.8598 16.9115C16.2579 16.3985 16.1851 15.4937 16.6971 14.8907C17.2092 14.2876 18.1121 14.2146 18.714 14.7276L20.0071 15.8299L23.0856 12.204L21.8721 11.1696C21.2702 10.6566 21.1973 9.75175 21.7093 9.14869C22.2214 8.54562 23.1244 8.47265 23.7263 8.9857L24.94 10.0202L26.9185 7.69002C27.4305 7.08695 28.3336 7.01398 28.9354 7.52703ZM25.2653 14.062L22.1868 17.6878L24.614 19.7567L27.6925 16.1309L25.2653 14.062ZM36.895 41.4869C38.5208 42.8303 40.9257 42.5987 42.2663 40.9697C43.607 39.3408 43.3759 36.9312 41.75 35.5879C40.1242 34.2446 37.7195 34.4763 36.3788 36.1052C35.0381 37.7342 35.2693 40.1437 36.895 41.4869ZM35.0744 43.6991C37.9196 46.0499 42.128 45.6446 44.4742 42.7939C46.8204 39.9432 46.4158 35.7266 43.5707 33.3758C40.7256 31.0251 36.5172 31.4303 34.171 34.281C31.8248 37.1318 32.2292 41.3484 35.0744 43.6991Z" fill="url(#paint0_linear_26_4842)"/>
</g>
<defs>
<linearGradient id="paint0_linear_26_4842" x1="41.5769" y1="46" x2="-10.7949" y2="-31.2318" gradientUnits="userSpaceOnUse">
<stop stop-color="#124DE3"/>
<stop offset="1" stop-color="#6EF6FE"/>
</linearGradient>
<clipPath id="clip0_26_4842">
<rect width="46" height="46" fill="white"/>
</clipPath>
</defs>
</svg>
