<svg width="46" height="46" viewBox="0 0 46 46" fill="none" xmlns="http://www.w3.org/2000/svg">
<path d="M44.1448 14.5542C39.1577 14.5542 34.1005 13.2555 29.5201 10.7983C27.5261 9.72863 25.2715 9.16333 23 9.16333C20.7285 9.16333 18.4739 9.72863 16.4799 10.7983C11.8996 13.2555 6.84235 14.5542 1.85519 14.5542H0V31.4457H1.85528C6.84244 31.4457 11.8996 32.7445 16.48 35.2017C18.4738 36.2714 20.7285 36.8367 23.0001 36.8367C25.2717 36.8367 27.5263 36.2713 29.5201 35.2017C34.1004 32.7445 39.1577 31.4457 44.1448 31.4457H46V14.5542H44.1448ZM43.3048 28.7615C38.1494 28.8989 32.9607 30.2973 28.2461 32.8263C26.6426 33.6865 24.8286 34.1412 23.0001 34.1412C21.1716 34.1412 19.3575 33.6865 17.7541 32.8263C13.0396 30.2973 7.85076 28.8989 2.69541 28.7615V17.2384C7.85076 17.101 13.0395 15.7026 17.7541 13.1736C19.3576 12.3134 21.1716 11.8587 23.0001 11.8587C24.8286 11.8587 26.6426 12.3134 28.2461 13.1736C32.9606 15.7026 38.1494 17.101 43.3048 17.2384V28.7615Z" fill="url(#paint0_linear_26_4834)"/>
<path d="M23.0001 14.5542C18.3432 14.5542 14.5544 18.3429 14.5544 22.9999C14.5544 27.6569 18.3432 31.4456 23.0001 31.4456C27.657 31.4456 31.4458 27.6569 31.4458 22.9999C31.4458 18.3429 27.6571 14.5542 23.0001 14.5542ZM23.0001 28.7502C19.8294 28.7502 17.2499 26.1707 17.2499 22.9999C17.2499 19.8291 19.8294 17.2496 23.0001 17.2496C26.1708 17.2496 28.7504 19.8291 28.7504 22.9999C28.7504 26.1707 26.1709 28.7502 23.0001 28.7502Z" fill="url(#paint1_linear_26_4834)"/>
<path d="M9.89051 21.6523H5.39453V24.3477H9.89051V21.6523Z" fill="url(#paint2_linear_26_4834)"/>
<path d="M40.6061 21.6523H36.1101V24.3477H40.6061V21.6523Z" fill="url(#paint3_linear_26_4834)"/>
<defs>
<linearGradient id="paint0_linear_26_4834" x1="41.5769" y1="36.8367" x2="16.9467" y2="-22.2267" gradientUnits="userSpaceOnUse">
<stop stop-color="#124DE3"/>
<stop offset="1" stop-color="#6EF6FE"/>
</linearGradient>
<linearGradient id="paint1_linear_26_4834" x1="29.8217" y1="31.4456" x2="10.0068" y2="2.86015" gradientUnits="userSpaceOnUse">
<stop stop-color="#124DE3"/>
<stop offset="1" stop-color="#6EF6FE"/>
</linearGradient>
<linearGradient id="paint2_linear_26_4834" x1="9.4582" y1="24.3477" x2="7.06505" y2="18.589" gradientUnits="userSpaceOnUse">
<stop stop-color="#124DE3"/>
<stop offset="1" stop-color="#6EF6FE"/>
</linearGradient>
<linearGradient id="paint3_linear_26_4834" x1="40.1738" y1="24.3477" x2="37.7806" y2="18.589" gradientUnits="userSpaceOnUse">
<stop stop-color="#124DE3"/>
<stop offset="1" stop-color="#6EF6FE"/>
</linearGradient>
</defs>
</svg>
